/* XPM */
static char *result[] = {
/* columns rows colors chars-per-pixel */
"64 64 145 2 ",
"   c #BB9079",
".  c #BC9079",
"X  c #BC907A",
"o  c #BC917A",
"O  c #BD917B",
"+  c #BD927B",
"@  c #BE927B",
"#  c #BE927C",
"$  c #BE937C",
"%  c #BF937C",
"&  c #BF937D",
"*  c #BF947D",
"=  c #BF947E",
"-  c #C0947D",
";  c #C0947E",
":  c #C0957E",
">  c #C1957E",
",  c #C0957F",
"<  c #C1957F",
"1  c #C1967F",
"2  c #C19680",
"3  c #C19781",
"4  c #C29680",
"5  c #C29780",
"6  c #C29781",
"7  c #C39781",
"8  c #C39881",
"9  c #C29882",
"0  c #C39882",
"q  c #C39983",
"w  c #C49882",
"e  c #C49982",
"r  c #C49983",
"t  c #C59983",
"y  c #C59A83",
"u  c #C59A84",
"i  c #C59B85",
"p  c #C69B84",
"a  c #C69B85",
"s  c #C69C85",
"d  c #C79C86",
"f  c #C79D86",
"g  c #C89D87",
"h  c #C89E88",
"j  c #E7B59B",
"k  c #E5B59C",
"l  c #E4B59D",
"z  c #E5B69C",
"x  c #E6B69D",
"c  c #E6B79D",
"v  c #E5B79E",
"b  c #E7B79E",
"n  c #E9B79C",
"m  c #E7B89E",
"M  c #E6B89F",
"N  c #E8B89F",
"B  c #E8B99F",
"V  c #E9B99F",
"C  c #EBB99F",
"Z  c #DDB8A4",
"A  c #DDB8A5",
"S  c #DEB9A5",
"D  c #DEB9A6",
"F  c #DEBAA6",
"G  c #DFBAA6",
"H  c #DFBAA7",
"J  c #DFBBA7",
"K  c #E9B9A0",
"L  c #E9BAA0",
"P  c #E8BAA1",
"I  c #EABAA0",
"U  c #EABAA1",
"Y  c #EBBBA1",
"T  c #EBBBA2",
"R  c #ECBCA2",
"E  c #ECBCA3",
"W  c #ECBDA3",
"Q  c #EDBDA3",
"!  c #EEBCA2",
"~  c #EBBCA4",
"^  c #EBBDA4",
"/  c #EDBDA4",
"(  c #EDBEA4",
")  c #ECBEA5",
"_  c #EEBEA4",
"`  c #EEBEA5",
"'  c #EEBFA5",
"]  c #EFBFA5",
"[  c #EFBFA6",
"{  c #E0BBA8",
"}  c #E0BCA9",
"|  c #E1BCA9",
" . c #E1BDA9",
".. c #E1BDAA",
"X. c #E2BDAA",
"o. c #E2BEAA",
"O. c #E2BEAB",
"+. c #E3BFAC",
"@. c #F0BDA3",
"#. c #EFC0A6",
"$. c #E3C0AD",
"%. c #E4C0AD",
"&. c #E4C1AE",
"*. c #E5C1AE",
"=. c #E5C2AF",
"-. c #E6C2AF",
";. c #F2C0A5",
":. c #F0C0A6",
">. c #F0C0A7",
",. c #F1C1A7",
"<. c #F4C1A7",
"1. c #F1C1A8",
"2. c #F0C2A9",
"3. c #F2C2A8",
"4. c #F2C2A9",
"5. c #F3C3A9",
"6. c #F1C3AA",
"7. c #F3C3AA",
"8. c #F6C3A9",
"9. c #F3C4AA",
"0. c #F4C4AA",
"q. c #F4C5AB",
"w. c #F5C5AB",
"e. c #F5C5AC",
"r. c #F4C5AD",
"t. c #F4C6AD",
"y. c #F6C6AC",
"u. c #F7C7AD",
"i. c #E6C3B0",
"p. c #E7C4B1",
"a. c #E8C5B2",
"s. c #E8C6B3",
"d. c #E9C6B3",
"f. c #E9C6B4",
"g. c #E9C7B4",
"h. c #EAC7B5",
"j. c #EAC8B5",
"k. c #EBC8B6",
"l. c #EBC9B6",
"z. c #EBC9B7",
"x. c #ECC9B7",
"c. c #ECCAB7",
"v. c #ECCAB8",
"b. c #FFCCB1",
"n. c #F1D0BE",
/* pixels */
"6 G n.n.n.n.n.n.n.n.n.n.n.n.n.n.n.n.n.n.n.n.n.n.n.n.n.n.n.n...& 2 $.n.n.n.n.n.n.n.n.n.n.n.n.n.n.n.n.n.n.n.n.n.n.n.n.n.n.n.n.S q ",
"8.g D n.n.n.n.n.n.n.n.n.n.n.n.n.n.n.n.n.n.n.n.n.n.n.n.n.n.+.d W P s i.n.n.n.n.n.n.n.n.n.n.n.n.n.n.n.n.n.n.n.n.n.n.n.n.n.n.D h <.",
"b.,.y S n.n.n.n.n.n.n.n.n.n.n.n.n.n.n.n.n.n.n.n.n.n.n.n.+.- :.b.b.R 1 *.n.n.n.n.n.n.n.n.n.n.n.n.n.n.n.n.n.n.n.n.n.n.n.n.A 7 0.b.",
"b.b.e.u S n.n.n.n.n.n.n.n.n.n.n.n.n.n.n.n.n.n.n.n.n.n.O.g ] b.b.b.b.T g =.n.n.n.n.n.n.n.n.n.n.n.n.n.n.n.n.n.n.n.n.n.n.Z g e.b.b.",
"b.b.b.,.g F n.n.n.n.n.n.n.n.n.n.n.n.n.n.n.n.n.n.n.n.+.4 ( b.b.b.b.b.b.R > p.n.n.n.n.n.n.n.n.n.n.n.n.n.n.n.n.n.n.n.n.Z p 3.b.b.b.",
"b.b.b.b.w.4 J n.n.n.n.n.n.n.n.n.n.n.n.n.n.n.n.n.n. .a #.b.b.b.b.b.b.b.b.R d $.n.n.n.n.n.n.n.n.n.n.n.n.n.n.n.n.n.n.Z u u.b.b.b.b.",
"b.b.b.b.b.5.g H n.n.n.n.n.n.n.n.n.n.n.n.n.n.n.n.+.a E b.b.b.b.b.b.b.b.b.b.I u i.n.n.n.n.n.n.n.n.n.n.n.n.n.n.n.n.A g 3.b.b.b.b.b.",
"b.b.b.b.b.b.3.0 D n.n.n.n.n.n.n.n.n.n.n.n.n.n.O.4 #.b.b.b.b.b.b.b.b.b.b.b.b.T 0 %.n.n.n.n.n.n.n.n.n.n.n.n.n.n.S 7 w.b.b.b.b.b.b.",
"b.b.b.b.b.b.b.y.d S n.n.n.n.n.n.n.n.n.n.n.n.$.g ( b.b.b.b.b.b.b.b.b.b.b.b.b.b.U g i.n.n.n.n.n.n.n.n.n.n.n.n.S g 0.b.b.b.b.b.b.b.",
"b.b.b.b.b.b.b.b.>.s D n.n.n.n.n.n.n.n.n.n.$.* ] b.b.b.b.b.b.b.b.b.b.b.b.b.b.b.b.E & i.n.n.n.n.n.n.n.n.n.n.Z r 4.b.b.b.b.b.b.b.b.",
"b.b.b.b.b.b.b.b.b.y.0 H n.n.n.n.n.n.n.n...d :.b.b.b.b.b.b.b.b.b.b.b.b.b.b.b.b.b.b.E g %.n.n.n.n.n.n.n.n.Z s u.b.b.b.b.b.b.b.b.b.",
"b.b.b.b.b.b.b.b.b.b.3.g J n.n.n.n.n.n.+.t W b.b.b.b.b.b.b.b.b.b.b.b.b.b.b.b.b.b.b.b.U w i.n.n.n.n.n.n.Z d 1.b.b.b.b.b.b.b.b.b.b.",
"b.b.b.b.b.b.b.b.b.b.b.5.4 F n.n.n.n.X.e [ b.b.b.b.b.b.b.b.b.b.b.b.b.b.b.b.b.b.b.b.b.b.T u $.n.n.n.n.F 0 u.b.b.b.b.b.b.b.b.b.b.b.",
"b.b.b.b.b.b.b.b.b.b.b.b.w.g S n.n.$.f W b.b.b.b.b.b.b.b.b.b.b.b.b.b.b.b.b.b.b.b.b.b.b.b.I d p.n.n.F h 5.b.b.b.b.b.b.b.b.b.b.b.b.",
"b.b.b.b.b.b.b.b.b.b.b.b.b.,.u S %.% :.b.b.b.b.b.b.b.b.b.b.b.b.b.b.b.b.b.b.b.b.b.b.b.b.b.b.R > =.Z 8 7.b.b.b.b.b.b.b.b.b.b.b.b.b.",
"b.b.b.b.b.b.b.b.b.b.b.b.b.b.r.& ; [ b.b.b.b.b.b.b.b.b.b.b.b.b.b.b.b.b.b.b.b.b.b.b.b.b.b.b.b.R = 6 t.b.b.b.b.b.b.b.b.b.b.b.b.b.b.",
"b.b.b.b.b.b.b.b.b.b.b.b.b.b.^ & 6 M b.b.b.b.b.b.b.b.b.b.b.b.b.b.b.b.b.b.b.b.b.b.b.b.b.b.b.b.l : $ ,.b.b.b.b.b.b.b.b.b.b.b.b.b.b.",
"b.b.b.b.b.b.b.b.b.b.b.b.b.U p =.g.4 N b.b.b.b.b.b.b.b.b.b.b.b.b.b.b.b.b.b.b.b.b.b.b.b.b.b.x y c.o.s / b.b.b.b.b.b.b.b.b.b.b.b.b.",
"b.b.b.b.b.b.b.b.b.b.b.b.Q s +.n.n.d.g b b.b.b.b.b.b.b.b.b.b.b.b.b.b.b.b.b.b.b.b.b.b.b.b.x g a.n.n.} a >.b.b.b.b.b.b.b.b.b.b.b.b.",
"b.b.b.b.b.b.b.b.b.b.b.E < =.n.n.n.n.p.e b b.b.b.b.b.b.b.b.b.b.b.b.b.b.b.b.b.b.b.b.b.b.x 8 h.n.n.n.n.o.7 ` b.b.b.b.b.b.b.b.b.b.b.",
"b.b.b.b.b.b.b.b.b.b.W g %.n.n.n.n.n.n.l.a x b.b.b.b.b.b.b.b.b.b.b.b.b.b.b.b.b.b.b.b.x g h.n.n.n.n.n.n...g :.b.b.b.b.b.b.b.b.b.b.",
"b.b.b.b.b.b.b.b.b.Q > &.n.n.n.n.n.n.n.n.i.d b b.b.b.b.b.b.b.b.b.b.b.b.b.b.b.b.b.b.k y a.n.n.n.n.n.n.n.n.+.* 1.b.b.b.b.b.b.b.b.b.",
"b.b.b.b.b.b.b.b.Y d =.n.n.n.n.n.n.n.n.n.n.l.7 N b.b.b.b.b.b.b.b.b.b.b.b.b.b.b.b.z a c.n.n.n.n.n.n.n.n.n.n.O.f ( b.b.b.b.b.b.b.b.",
"b.b.b.b.b.b.b.W u +.n.n.n.n.n.n.n.n.n.n.n.n.a.g B b.b.b.b.b.b.b.b.b.b.b.b.b.b.z g p.n.n.n.n.n.n.n.n.n.n.n.n.| r >.b.b.b.b.b.b.b.",
"b.b.b.b.b.b.T 0 =.n.n.n.n.n.n.n.n.n.n.n.n.n.n.a.7 b b.b.b.b.b.b.b.b.b.b.b.b.b 8 l.n.n.n.n.n.n.n.n.n.n.n.n.n.n.o.t ( b.b.b.b.b.b.",
"b.b.b.b.b.( g +.n.n.n.n.n.n.n.n.n.n.n.n.n.n.n.n.k.f c b.b.b.b.b.b.b.b.b.b.b h d.n.n.n.n.n.n.n.n.n.n.n.n.n.n.n.n.| f 1.b.b.b.b.b.",
"b.b.b.b.( # -.n.n.n.n.n.n.n.n.n.n.n.n.n.n.n.n.n.n.i.a c b.b.b.b.b.b.b.b.z 0 s.n.n.n.n.n.n.n.n.n.n.n.n.n.n.n.n.n.n.O.- :.b.b.b.b.",
"b.b.b.T f i.n.n.n.n.n.n.n.n.n.n.n.n.n.n.n.n.n.n.n.n.k.r b b.b.b.b.b.b.k d c.n.n.n.n.n.n.n.n.n.n.n.n.n.n.n.n.n.n.n.n.+.g ` b.b.b.",
"b.b.W w +.n.n.n.n.n.n.n.n.n.n.n.n.n.n.n.n.n.n.n.n.n.n.p.g N b.b.b.b.z s p.n.n.n.n.n.n.n.n.n.n.n.n.n.n.n.n.n.n.n.n.n.n...7 ,.b.b.",
"b.Y u =.n.n.n.n.n.n.n.n.n.n.n.n.n.n.n.n.n.n.n.n.n.n.n.n.f.4 m b.b.c r v.n.n.n.n.n.n.n.n.n.n.n.n.n.n.n.n.n.n.n.n.n.n.n.n.o.a / b.",
"! d +.n.n.n.n.n.n.n.n.n.n.n.n.n.n.n.n.n.n.n.n.n.n.n.n.n.n.g.g v c g a.n.n.n.n.n.n.n.n.n.n.n.n.n.n.n.n.n.n.n.n.n.n.n.n.n.n.} a ;.",
"X -.n.n.n.n.n.n.n.n.n.n.n.n.n.n.n.n.n.n.n.n.n.n.n.n.n.n.n.n.p.+ . g.n.n.n.n.n.n.n.n.n.n.n.n.n.n.n.n.n.n.n.n.n.n.n.n.n.n.n.n.o.O ",
"3 a.n.n.n.n.n.n.n.n.n.n.n.n.n.n.n.n.n.n.n.n.n.n.n.n.n.n.n.n.A i 0 S n.n.n.n.n.n.n.n.n.n.n.n.n.n.n.n.n.n.n.n.n.n.n.n.n.n.n.n.*., ",
"C 4 -.n.n.n.n.n.n.n.n.n.n.n.n.n.n.n.n.n.n.n.n.n.n.n.n.n.n.Z u 2.,.f F n.n.n.n.n.n.n.n.n.n.n.n.n.n.n.n.n.n.n.n.n.n.n.n.n.n.%.* @.",
"b.U g i.n.n.n.n.n.n.n.n.n.n.n.n.n.n.n.n.n.n.n.n.n.n.n.n.Z p u.b.b.w.5 J n.n.n.n.n.n.n.n.n.n.n.n.n.n.n.n.n.n.n.n.n.n.n.n.+.g _ b.",
"b.b.Y < a.n.n.n.n.n.n.n.n.n.n.n.n.n.n.n.n.n.n.n.n.n.n.A g 3.b.b.b.b.4.g H n.n.n.n.n.n.n.n.n.n.n.n.n.n.n.n.n.n.n.n.n.n.&.4 W b.b.",
"b.b.b.U d &.n.n.n.n.n.n.n.n.n.n.n.n.n.n.n.n.n.n.n.n.D 7 e.b.b.b.b.b.b.3.8 D n.n.n.n.n.n.n.n.n.n.n.n.n.n.n.n.n.n.n.n.O.a _ b.b.b.",
"b.b.b.b.V u a.n.n.n.n.n.n.n.n.n.n.n.n.n.n.n.n.n.n.S h 0.b.b.b.b.b.b.b.b.y.d S n.n.n.n.n.n.n.n.n.n.n.n.n.n.n.n.n.n.&.a T b.b.b.b.",
"b.b.b.b.b.I 0 *.n.n.n.n.n.n.n.n.n.n.n.n.n.n.n.n.Z e 5.b.b.b.b.b.b.b.b.b.b.>.s D n.n.n.n.n.n.n.n.n.n.n.n.n.n.n.n.+.4 _ b.b.b.b.b.",
"b.b.b.b.b.b.L g p.n.n.n.n.n.n.n.n.n.n.n.n.n.n.Z d u.b.b.b.b.b.b.b.b.b.b.b.b.y.w G n.n.n.n.n.n.n.n.n.n.n.n.n.n.%.g W b.b.b.b.b.b.",
"b.b.b.b.b.b.b.T ; p.n.n.n.n.n.n.n.n.n.n.n.n.Z d 1.b.b.b.b.b.b.b.b.b.b.b.b.b.b.1.g J n.n.n.n.n.n.n.n.n.n.n.n.*.- _ b.b.b.b.b.b.b.",
"b.b.b.b.b.b.b.b.Y g *.n.n.n.n.n.n.n.n.n.n.D w u.b.b.b.b.b.b.b.b.b.b.b.b.b.b.b.b.5.4 F n.n.n.n.n.n.n.n.n.n.O.d ` b.b.b.b.b.b.b.b.",
"b.b.b.b.b.b.b.b.b.K e a.n.n.n.n.n.n.n.n.D h 5.b.b.b.b.b.b.b.b.b.b.b.b.b.b.b.b.b.b.q.g S n.n.n.n.n.n.n.n.%.t R b.b.b.b.b.b.b.b.b.",
"b.b.b.b.b.b.b.b.b.b.I u &.n.n.n.n.n.n.A 7 9.b.b.b.b.b.b.b.b.b.b.b.b.b.b.b.b.b.b.b.b.,.u S n.n.n.n.n.n.O.e ( b.b.b.b.b.b.b.b.b.b.",
"b.b.b.b.b.b.b.b.b.b.b.V d a.n.n.n.n.Z g y.b.b.b.b.b.b.b.b.b.b.b.b.b.b.b.b.b.b.b.b.b.b.e.u S n.n.n.n.*.f R b.b.b.b.b.b.b.b.b.b.b.",
"b.b.b.b.b.b.b.b.b.b.b.b.U < i.n.n.Z a 3.b.b.b.b.b.b.b.b.b.b.b.b.b.b.b.b.b.b.b.b.b.b.b.b.,.g F n.n.*.# ' b.b.b.b.b.b.b.b.b.b.b.b.",
"b.b.b.b.b.b.b.b.b.b.b.b.b.T g =.A u u.b.b.b.b.b.b.b.b.b.b.b.b.b.b.b.b.b.b.b.b.b.b.b.b.b.b.q.4 J +.g ' b.b.b.b.b.b.b.b.b.b.b.b.b.",
"b.b.b.b.b.b.b.b.b.b.b.b.b.b.P   r 2.b.b.b.b.b.b.b.b.b.b.b.b.b.b.b.b.b.b.b.b.b.b.b.b.b.b.b.b.6.9 o ~ b.b.b.b.b.b.b.b.b.b.b.b.b.b.",
"b.b.b.b.b.b.b.b.b.b.b.b.b.b.v + q ` b.b.b.b.b.b.b.b.b.b.b.b.b.b.b.b.b.b.b.b.b.b.b.b.b.b.b.b.R 2 & v b.b.b.b.b.b.b.b.b.b.b.b.b.b.",
"b.b.b.b.b.b.b.b.b.b.b.b.b.x g g.{ a 3.b.b.b.b.b.b.b.b.b.b.b.b.b.b.b.b.b.b.b.b.b.b.b.b.b.b.` s o.l.s x b.b.b.b.b.b.b.b.b.b.b.b.b.",
"b.b.b.b.b.b.b.b.b.b.b.b.k t a.n.n.| 7 [ b.b.b.b.b.b.b.b.b.b.b.b.b.b.b.b.b.b.b.b.b.b.b.b./ < %.n.n.i.d b b.b.b.b.b.b.b.b.b.b.b.b.",
"b.b.b.b.b.b.b.b.b.b.b.k a v.n.n.n.n.} g ,.b.b.b.b.b.b.b.b.b.b.b.b.b.b.b.b.b.b.b.b.b.b.( g +.n.n.n.n.l.7 N b.b.b.b.b.b.b.b.b.b.b.",
"b.b.b.b.b.b.b.b.b.b.z f p.n.n.n.n.n.n.o.; 4.b.b.b.b.b.b.b.b.b.b.b.b.b.b.b.b.b.b.b.b.` > $.n.n.n.n.n.n.p.g B b.b.b.b.b.b.b.b.b.b.",
"b.b.b.b.b.b.b.b.b.m 8 z.n.n.n.n.n.n.n.n. .f ' b.b.b.b.b.b.b.b.b.b.b.b.b.b.b.b.b.b.R d &.n.n.n.n.n.n.n.n.a.5 b b.b.b.b.b.b.b.b.b.",
"b.b.b.b.b.b.b.b.m h s.n.n.n.n.n.n.n.n.n.n.{ t 3.b.b.b.b.b.b.b.b.b.b.b.b.b.b.b.b._ u o.n.n.n.n.n.n.n.n.n.n.j.f c b.b.b.b.b.b.b.b.",
"b.b.b.b.b.b.b.z 8 s.n.n.n.n.n.n.n.n.n.n.n.n.} t ' b.b.b.b.b.b.b.b.b.b.b.b.b.b.E 8 %.n.n.n.n.n.n.n.n.n.n.n.n.i.p c b.b.b.b.b.b.b.",
"b.b.b.b.b.b.k f x.n.n.n.n.n.n.n.n.n.n.n.n.n.n.{ f 4.b.b.b.b.b.b.b.b.b.b.b.b.] g O.n.n.n.n.n.n.n.n.n.n.n.n.n.n.k.t b b.b.b.b.b.b.",
"b.b.b.b.b.k s p.n.n.n.n.n.n.n.n.n.n.n.n.n.n.n.n. .; ,.b.b.b.b.b.b.b.b.b.b.[ @ *.n.n.n.n.n.n.n.n.n.n.n.n.n.n.n.n.p.g m b.b.b.b.b.",
"b.b.b.b.x t v.n.n.n.n.n.n.n.n.n.n.n.n.n.n.n.n.n.n.o.g [ b.b.b.b.b.b.b.b.R f *.n.n.n.n.n.n.n.n.n.n.n.n.n.n.n.n.n.n.g.4 N b.b.b.b.",
"b.b.b.c g a.n.n.n.n.n.n.n.n.n.n.n.n.n.n.n.n.n.n.n.n.} 7 3.b.b.b.b.b.b._ w O.n.n.n.n.n.n.n.n.n.n.n.n.n.n.n.n.n.n.n.n.f.g b b.b.b.",
"b.b.x 7 g.n.n.n.n.n.n.n.n.n.n.n.n.n.n.n.n.n.n.n.n.n.n.| a ` b.b.b.b.R y %.n.n.n.n.n.n.n.n.n.n.n.n.n.n.n.n.n.n.n.n.n.n.p.r c b.b.",
"b.x g j.n.n.n.n.n.n.n.n.n.n.n.n.n.n.n.n.n.n.n.n.n.n.n.n.{ s 4.b.b.' d o.n.n.n.n.n.n.n.n.n.n.n.n.n.n.n.n.n.n.n.n.n.n.n.n.k.a c b.",
"j u a.n.n.n.n.n.n.n.n.n.n.n.n.n.n.n.n.n.n.n.n.n.n.n.n.n.n.| 4 #.) ; &.n.n.n.n.n.n.n.n.n.n.n.n.n.n.n.n.n.n.n.n.n.n.n.n.n.n.i.f n ",
"i c.n.n.n.n.n.n.n.n.n.n.n.n.n.n.n.n.n.n.n.n.n.n.n.n.n.n.n.n. .6 0 %.n.n.n.n.n.n.n.n.n.n.n.n.n.n.n.n.n.n.n.n.n.n.n.n.n.n.n.n.k.6 "
};
