/* XPM */
static char *result[] = {
/* columns rows colors chars-per-pixel */
"64 64 109 2 ",
"   c #030203",
".  c #030204",
"X  c #030304",
"o  c #040304",
"O  c #040305",
"+  c #050405",
"@  c #050406",
"#  c #060406",
"$  c #060407",
"%  c #060507",
"&  c #070507",
"*  c #070508",
"=  c #070608",
"-  c #070609",
";  c #080609",
":  c #080709",
">  c #08070A",
",  c #09070A",
"<  c #09070B",
"1  c #0A080B",
"2  c #0A080C",
"3  c #0B080C",
"4  c #0B090C",
"5  c #0B090D",
"6  c #0C090D",
"7  c #0C090E",
"8  c #0C0A0E",
"9  c #0D0A0E",
"0  c #0D0A0F",
"q  c #0D0B0F",
"w  c #0E0B0F",
"e  c #0E0B10",
"r  c #222122",
"t  c #222123",
"y  c #222223",
"u  c #232223",
"i  c #232224",
"p  c #242324",
"a  c #2C2C2C",
"s  c #2C2C2D",
"d  c #2D2C2D",
"f  c #2D2C2E",
"g  c #2E2D2E",
"h  c #2E2D2F",
"j  c #515152",
"k  c #525152",
"l  c #575657",
"z  c gray34",
"x  c #575758",
"c  c #585758",
"v  c #585858",
"b  c gray35",
"n  c gray39",
"m  c #676767",
"M  c #6A696A",
"N  c #6B6A6B",
"B  c gray44",
"V  c #717071",
"C  c #727172",
"Z  c #727272",
"A  c #727273",
"S  c gray45",
"D  c #747474",
"F  c gray46",
"G  c #777677",
"H  c #777777",
"J  c #787778",
"K  c gray47",
"L  c #797979",
"P  c gray48",
"I  c #7B7B7B",
"U  c #7F7E7F",
"Y  c gray50",
"T  c #808080",
"R  c #818181",
"E  c gray51",
"W  c #838383",
"Q  c #848484",
"!  c #848485",
"~  c gray52",
"^  c #858586",
"/  c #868686",
"(  c gray53",
")  c #888888",
"_  c #898889",
"`  c #898989",
"'  c #8A898A",
"]  c gray54",
"[  c #8B8B8B",
"{  c gray55",
"}  c #8D8D8D",
"|  c #8E8D8E",
" . c #8E8E8E",
".. c gray56",
"X. c #909090",
"o. c gray57",
"O. c #929192",
"+. c #939393",
"@. c gray59",
"#. c #969697",
"$. c #979697",
"%. c #979797",
"&. c gray60",
"*. c #9A9A9A",
"=. c #9D9D9D",
"-. c gray63",
";. c #A1A1A2",
":. c #A2A1A2",
">. c #A2A2A2",
/* pixels */
"W S B B B B B B B B C C C C C R ( ( ( ( ( ( ( ( ( ( ( ( ( ( ( ( ( ( ( ( ( ( ( ( ( ( ( ( ( ( ( ( Y C C C C C B B B B B B B B F W ",
"E B T E Y Y Y Y T / ` ` ` ` ` ] [ [ [ [ [ [ [ [ [ [ [ [ [ [ [ [ [ [ [ [ [ [ [ [ [ [ [ [ [ [ [ [ ] ` ` ` ` ` ~ T Y Y Y Y E U V E ",
"J D [ ] ) ) ) ) ) [ { { { { { { { { { { { { { { { { { { { { { { { { { { { { { { { { { { { { { { { { { { { { ] ) ) ) ) ( ] [ S H ",
"J G [ } o.O.O.O.O.X. . . . . . . . . . . . . . . . . . . . . .o.o. .} } } } } } } } } } } } } } } } } } } | ..X.X.X.X...{ [ F H ",
"J S [ } *.-.-.-.-.-.-.-.-.-.;.;.;.;.:.:.:.:.:.:.:.:.:.:.:.:.>.>.>.>.>.>.>.:.:.:.:.:.:.:.:.:.:.:.:.;.;.;.;.-.-.-.-.-.-.&.] [ Z H ",
"J S [ ~ r                 X X X o o o o O O O O O + + + + + + + + @ + + + + + + + O O O O O o o o o X X X .           a Q [ Z H ",
"J S [ ~ r             . X X o o o o O O O O + + + + @ @ @ @ @ @ @ @ @ @ @ @ @ @ @ + + + O O O O O o o o X X X         a Q [ Z H ",
"J S [ ~ r           . X X o o o O O O O + + + @ @ @ @ @ @ @ @ @ @ @ @ @ @ @ @ @ @ @ @ @ + + O O O O o o o X X X       a Q [ Z H ",
"J S [ ~ r         . X X o o o O O O + + + @ @ @ @ @ # # % % % % % % % % % % $ # @ @ @ @ @ @ + + O O O O o o o X X     a Q [ Z H ",
"J S [ ~ r       . X X o o o O O O + + @ @ @ @ # # % % % % % % % % % % % % % % % % % # @ @ @ @ @ + + O O O o o o X X   a Q [ Z H ",
"J S [ ~ r     . X X o o O O O + + @ @ @ @ # % % % % % % & & * * * * * * * & % % % % % % # @ @ @ @ + + O O O o o o X X a Q [ Z H ",
"J S [ ~ r   . X X o o O O O + + @ @ @ @ $ % % % % & * * * = = = = = = = = * * * * % % % % % # @ @ @ + + O O O o o o X s Q [ Z H ",
"J S [ ~ r   X X o o O O O + + @ @ @ # % % % % * * * = = = = ; ; ; ; ; ; ; = = = = * * & % % % $ @ @ @ @ + O O O o o X s Q [ Z H ",
"J S [ ~ r X X o o o O O + + @ @ @ $ % % % * * = = = ; ; ; ; ; ; ; ; ; ; ; ; ; ; = = = * * % % % % # @ @ @ + O O O o o s Q [ Z H ",
"J S [ ~ t X o o o O O + + @ @ @ % % % % * * = = ; ; ; ; ; > > , , , , > > : ; ; ; ; ; = = * * % % % # @ @ @ + O O O o d Q [ Z H ",
"J S [ ~ y X o o O O O + @ @ @ % % % & * = = ; ; ; ; > , , , , , , , , , , , , , : ; ; ; = = * * % % % # @ @ + + O O o d Q [ Z H ",
"J S [ ~ y o o O O O + @ @ @ % % % * * = - ; ; ; , , , , < < < < < < < < < < , , , , > ; ; ; = = * % % % # @ @ + + O O d Q [ Z H ",
"J S [ ~ y o o O O + @ @ @ $ % % * * = ; ; ; > , , , < < 1 1 1 1 1 1 1 1 1 1 < < , , , , ; ; ; = = * % % % @ @ @ + O O f Q [ Z H ",
"J S [ ~ u o O O + + @ @ # % % & * = ; ; ; , , , < < 1 1 1 2 2 2 2 2 2 2 2 1 1 1 1 < , , , : ; ; = = * % % % @ @ @ + O f Q [ Z H ",
"J S [ ~ u o O O + @ @ @ % % % * = ; ; ; , , , < 1 1 1 2 2 3 3 3 3 3 3 3 3 2 2 2 1 1 < < , , > ; ; = * * % % # @ @ + + f Q [ Z H ",
"J S [ ~ u O O + + @ @ $ % % * = - ; ; , , < < 1 1 2 2 3 3 4 5 5 5 5 5 5 5 3 3 3 2 2 1 1 < , , : ; ; = * & % % @ @ @ + f Q [ Z H ",
"J S [ ~ u O O + @ @ # % % * * = ; ; , , < < 1 2 2 3 3 5 5 5 5 5 5 5 5 5 5 5 5 4 3 2 2 1 1 < , , ; ; ; = * % % $ @ @ + g Q [ Z H ",
"J S [ ~ i O + + @ @ % % % * = ; ; > , , < 1 2 2 3 4 5 5 5 6 6 6 6 6 6 6 6 6 5 5 5 3 3 2 1 1 < , , ; ; = = * % % # @ @ g Q [ Z H ",
"J S [ ~ i O + @ @ @ % % * = = ; ; , , < 1 2 2 3 4 5 5 6 6 7 7 7 7 7 7 7 7 6 6 6 5 5 3 3 2 1 1 < , > ; ; = * % % # @ @ g Q [ Z H ",
"K S [ ~ i O + @ @ # % % * = ; ; , , < 1 1 2 3 5 5 5 6 7 7 8 8 8 8 8 8 8 8 7 7 6 6 5 5 3 3 2 1 < , , ; ; = * * % % @ @ g Q [ A H ",
"K S [ ^ i + + @ @ % % & * = ; ; , , < 1 2 3 4 5 5 6 7 8 8 8 9 9 9 9 9 9 8 8 8 7 6 6 5 5 3 2 1 1 < , > ; ; = * % % # @ h Q [ A H ",
"K S [ ^ i + @ @ # % % * = ; ; > , < 1 1 2 3 5 5 6 7 8 8 9 9 0 0 0 0 0 0 0 9 8 8 7 6 6 5 5 3 2 1 < , , ; ; = * % % $ @ h Q [ A H ",
"K S [ ^ i + @ @ # % % * = ; ; , , < 1 2 3 5 5 6 7 8 8 9 0 0 0 0 0 0 0 0 0 0 9 8 8 7 6 5 5 3 2 1 1 < , : ; = * & % % @ h Q [ A H ",
"K S [ ^ i + @ @ % % & * = ; ; , < 1 1 2 3 5 5 6 7 8 9 0 0 0 0 0 q 0 0 0 0 0 0 9 8 8 7 6 5 4 3 2 1 < , > ; ; = * % % @ h Q [ A H ",
"K S [ ^ i + @ @ % % & = = ; > , < 1 2 3 4 5 6 7 8 8 9 0 0 0 q w w w w q 0 0 0 0 9 8 7 6 5 5 3 2 1 < , , ; ; = * % % # h Q [ A H ",
"K S [ ^ p + @ @ % % * = ; ; > , < 1 2 3 5 5 6 7 8 9 0 0 0 q w e e e e w w 0 0 0 9 8 8 6 6 5 3 2 1 < , , ; ; = * % % # h Q [ A H ",
"K S [ ^ p + @ @ % % * = ; ; , , < 1 2 3 5 5 6 7 8 9 0 0 0 w e e e e e e w q 0 0 0 8 8 7 6 5 3 2 1 1 , , ; ; = * % % # h Q [ A H ",
"K S [ ^ p + @ @ % % * = ; ; , , < 1 2 3 5 5 6 7 8 9 0 0 q w e e e e e e e q 0 0 0 9 8 7 6 5 4 2 2 1 < , ; ; = * % % $ h Q [ A H ",
"K S [ ^ p @ @ @ % % * = ; ; , , < 1 2 3 5 5 6 7 8 9 0 0 0 w e e e e e e e w 0 0 0 9 8 7 6 5 3 2 1 1 < , ; ; = * % % # h Q [ A H ",
"K S [ ^ p + @ @ % % * = ; ; , , < 1 2 3 5 5 6 7 8 9 0 0 0 w e e e e e e e q 0 0 0 8 8 7 6 5 4 2 1 1 < , ; ; = * % % # h Q [ A H ",
"K S [ ^ i + @ @ % % * = ; ; > , < 1 2 3 5 5 6 7 8 9 0 0 0 q w e e e e e w 0 0 0 9 8 8 6 6 5 3 2 1 1 , , ; ; = * % % # h Q [ A H ",
"K S [ ^ p + @ @ % % * = ; ; > , < 1 2 3 5 5 6 7 8 9 0 0 0 0 w w e e e w q 0 0 0 9 8 7 6 5 5 3 2 1 < , , ; ; = * % % # h Q [ A H ",
"K S [ ^ i + @ @ % % & * = ; : , < 1 1 2 3 5 5 6 7 8 9 0 0 0 0 q q w q 0 0 0 0 0 8 8 7 6 5 5 3 2 1 < , , ; ; = * % % @ h Q [ A H ",
"K S [ ^ i + @ @ $ % % * = ; ; , , < 1 2 3 5 5 6 7 8 8 9 0 0 0 0 0 0 0 0 0 0 0 9 8 7 6 6 5 3 3 2 1 < , > ; - = * % % @ h Q [ A H ",
"K S [ ^ i + @ @ # % % * = ; ; , , < 1 2 3 4 5 6 6 7 8 8 9 0 0 0 0 0 0 0 0 9 9 8 7 7 6 5 5 3 2 1 < , , ; ; = * & % % @ h Q [ A H ",
"K S [ ^ i + @ @ @ % % * = - ; : , < 1 1 2 3 5 5 6 6 7 8 8 9 9 0 0 0 0 9 9 8 8 7 7 6 5 5 3 2 2 1 < , , ; ; = * % % # @ h Q [ A H ",
"K S [ ~ i O + @ @ % % % * = ; ; , , < 1 2 2 3 5 5 6 6 7 8 8 8 8 9 9 8 8 8 8 7 7 6 5 5 4 3 2 1 1 , , : ; - = * % % @ @ h Q [ A H ",
"K S [ ~ i O + @ @ # % % * = ; ; > , , < 1 2 3 3 5 5 6 6 7 7 8 8 8 8 8 8 7 7 6 6 5 5 5 3 2 1 1 < , , ; ; = * & % % @ @ g Q [ A H ",
"J S [ ~ i O + @ @ @ % % & * = ; ; , , < 1 1 2 3 3 5 5 5 6 6 6 7 7 7 7 6 6 6 5 5 5 4 3 2 1 1 < , , ; ; - = * % % # @ @ g Q [ Z H ",
"J S [ ~ u O O + @ @ # % % * = - ; ; , , < 1 1 2 3 3 5 5 5 5 6 6 6 6 6 6 5 5 5 5 3 3 2 1 1 < , , > ; ; = * % % % @ @ @ g Q [ Z H ",
"J S [ ~ u O O + @ @ @ % % % * = ; ; : , , < 1 1 2 2 3 3 4 5 5 5 5 5 5 5 5 5 3 3 2 2 1 1 < , , , ; ; = = * % % # @ @ + f Q [ Z H ",
"J S [ ~ u o O O + @ @ # % % * * = ; ; > , , < 1 1 1 2 2 3 3 3 3 4 4 4 3 3 3 3 2 2 1 1 < , , , ; ; = = * % % % @ @ + + f Q [ Z H ",
"J S [ ~ u o O O + @ @ @ $ % % * * = ; ; : , , < < 1 1 1 2 2 2 2 2 2 2 2 2 2 1 1 1 1 < , , , ; ; - = * & % % @ @ @ + O f Q [ Z H ",
"J S [ ~ u o O O O + @ @ @ % % % * = = ; ; ; , , , < < 1 1 1 1 1 2 1 1 1 1 1 1 < < , , , > ; ; - = * & % % # @ @ + + O f Q [ Z H ",
"J S [ ~ y o o O O + + @ @ # % % % * = = ; ; ; > , , , < < < < 1 1 1 1 1 < < < , , , , ; ; ; = = * & % % # @ @ @ + O O d Q [ Z H ",
"J S [ ~ y X o o O O + + @ @ # % % % * * = ; ; ; ; > , , , , , , < < < , , , , , , : ; ; ; = = * & % % $ @ @ @ + O O O d Q [ Z H ",
"J S [ ~ t X o o o O O + @ @ @ # % % % * * = = ; ; ; ; : > , , , , , , , , , > ; ; ; ; - = = * & % % $ @ @ @ + + O O o d Q [ Z H ",
"J S [ ~ t X X o o O O O + @ @ @ # % % % & * = = = ; ; ; ; ; ; ; ; ; ; ; ; ; ; ; ; - = = * * % % % $ @ @ @ + + O O o o s Q [ Z H ",
"J S [ ~ r . X X o o O O O + @ @ @ @ % % % % * * * = = = ; ; ; ; ; ; ; ; ; ; - = = = * * % % % % # @ @ @ + + O O o o o s Q [ Z H ",
"J S [ ~ r   X X o o o O O O + @ @ @ @ # % % % % * * * * = = = = = = = = = = = * * * & % % % % @ @ @ @ + + O O o o o X s Q [ Z H ",
"J S [ ~ r     X X o o o O O O + + @ @ @ @ $ % % % % % & * * * * * * * * * * * & % % % % % # @ @ @ @ + + O O o o o X X s Q [ Z H ",
"J S [ ~ r       X X o o o O O O + + @ @ @ @ # $ % % % % % % % % % % % % % % % % % % % # @ @ @ @ + + O O O o o o X X . a Q [ Z H ",
"J S [ ~ r         X X o o o O O O O + + @ @ @ @ @ # $ % % % % % % % % % % % % % # @ @ @ @ @ + + + O O O o o o X X .   a Q [ Z H ",
"J S [ ~ r           X X X o o o O O O + + + @ @ @ @ @ @ @ # # # # # # # # @ @ @ @ @ @ @ @ + + O O O O o o o X X .     a Q [ Z H ",
"J S [ +._ +.$.$.$.$.$.%.%.%.%.%.%.%.%.%.%.%.%.%.%.%.%.%.%.%.%.-.=.#.#.#.#.#.#.#.#.#.@.@.@.@.@.@.@.@.@.@.@.@.@.@.@.@.o.[ o.[ Z H ",
"J S [ ' K T W W W W W W W W ~ ] ] ] ] ] ] ] ] ] ] ] ] ] ] ] ] [ [ ] ] ] ] ] ] ] ] ] ] ] ] ] ] ] ` / W W W W W W W W Y P ` [ Z H ",
"J N [ [ ] ] ] ] ] ] ] ] ] ] [ { { { { { { { { { { { { { { { { { { { { { { { { { { { { { { { { { { [ [ [ [ [ [ [ [ [ [ [ [ [ M H ",
"/ L R W E E E E E E E E E E ~ ) ` ` ` ` ` ` ` ` ` ` ` ` ` ` ` ` ` ` ` ` ` ` ` ` ` ` ` ` ` ` ` ` ) ! E E E E E E E E E E W R I / ",
"Q n v l l l l l l l l l l l l l l l z z z z z z z z z z x x x j k c c c c c c c c c c c c x x x x x z z z z z z z z z z z b m W "
};
