/* XPM */
static char *result[] = {
/* columns rows colors chars-per-pixel */
"64 64 225 2 ",
"   c #7A5E4F",
".  c #7B5F50",
"X  c #7C6051",
"o  c #7E6153",
"O  c #7E6253",
"+  c #7F6254",
"@  c #7E6355",
"#  c #7F6455",
"$  c #910A00",
"%  c #806455",
"&  c #806456",
"*  c #816557",
"=  c #816657",
"-  c #826658",
";  c #896C5D",
":  c #8D6F5F",
">  c #8F7060",
",  c #957767",
"<  c #967666",
"1  c #92796D",
"2  c #917A6D",
"3  c #927A6D",
"4  c #927A6E",
"5  c #937C6F",
"6  c #9B7968",
"7  c #9A7A69",
"8  c #997A6B",
"9  c #9A7B6B",
"0  c #9A7C6B",
"q  c #9B7C6B",
"w  c #9C7C6C",
"e  c #9D7E6D",
"r  c #9E7E6D",
"t  c #9C7E6E",
"y  c #9D7F6F",
"u  c #947C70",
"i  c #947D71",
"p  c #8E8B00",
"a  c #FFCB00",
"s  c #9F806F",
"d  c #988073",
"f  c #988275",
"g  c #998376",
"h  c #9D877C",
"j  c #A18271",
"k  c #A68573",
"l  c #AF8772",
"z  c #A88775",
"x  c #A4897A",
"c  c #A18B7F",
"v  c #AF8C79",
"b  c #B38D79",
"n  c #B18E7B",
"m  c #B8907B",
"M  c #BC9079",
"N  c #BC907A",
"B  c #BD917B",
"V  c #BE927B",
"C  c #BE927C",
"Z  c #BE937C",
"A  c #BF937C",
"S  c #BE937D",
"D  c #BF937D",
"F  c #BF947D",
"G  c #C0947D",
"H  c #C0947E",
"J  c #C1957E",
"K  c #C0957F",
"L  c #C1957F",
"P  c #C1967F",
"I  c #FFDE5B",
"U  c #A78D80",
"Y  c #B29687",
"T  c #BB9682",
"R  c #BC9682",
"E  c #B59A8B",
"W  c #B59D8F",
"Q  c #C19680",
"!  c #C19781",
"~  c #C29680",
"^  c #C29780",
"/  c #C29781",
"(  c #C39781",
")  c #C39881",
"_  c #C39882",
"`  c #C39983",
"'  c #C49882",
"]  c #C49982",
"[  c #C49983",
"{  c #C59983",
"}  c #C59A83",
"|  c #C59A84",
" . c #C59B85",
".. c #C69B84",
"X. c #C69B85",
"o. c #C39C87",
"O. c #C69C85",
"+. c #C79C86",
"@. c #C79D86",
"#. c #C89D87",
"$. c #C49C88",
"%. c #C59E89",
"&. c #C89E88",
"*. c #CCA38E",
"=. c #CEA58F",
"-. c #C2A290",
";. c #CFA690",
":. c #C3A899",
">. c #C8AD9E",
",. c #D0A690",
"<. c #D2A892",
"1. c #D4AA93",
"2. c #D5AA94",
"3. c #DCAE96",
"4. c #D8AE98",
"5. c #DBAF98",
"6. c #DDB19A",
"7. c #E7B59B",
"8. c #E5B59C",
"9. c #E5B69C",
"0. c #E6B69D",
"q. c #E6B79D",
"w. c #E7B79E",
"e. c #E9B79C",
"r. c #E7B89E",
"t. c #E6B89F",
"y. c #E8B89F",
"u. c #E8B99F",
"i. c #E9B99F",
"p. c #EBB99F",
"a. c #CCB0A1",
"s. c #D7B6A4",
"d. c #DDB8A4",
"f. c #DDB8A5",
"g. c #DEB9A5",
"h. c #DEB9A6",
"j. c #DEBAA6",
"k. c #DFBAA6",
"l. c #DFBAA7",
"z. c #DFBBA7",
"x. c #D7B9A9",
"c. c #E9B9A0",
"v. c #E9BAA0",
"b. c #E8BAA1",
"n. c #EABAA0",
"m. c #EABAA1",
"M. c #EBBBA1",
"N. c #E9BAA2",
"B. c #EBBBA2",
"V. c #ECBCA2",
"C. c #ECBCA3",
"Z. c #ECBDA3",
"A. c #EDBDA3",
"S. c #EEBCA2",
"D. c #EBBDA4",
"F. c #EDBDA4",
"G. c #EDBEA4",
"H. c #ECBEA5",
"J. c #EEBEA4",
"K. c #EEBEA5",
"L. c #EEBFA5",
"P. c #EFBFA5",
"I. c #EFBFA6",
"U. c #E0BBA8",
"Y. c #E0BCA9",
"T. c #E1BCA9",
"R. c #E1BDA9",
"E. c #E1BDAA",
"W. c #E2BDAA",
"Q. c #E2BEAA",
"!. c #E2BEAB",
"~. c #E3BFAC",
"^. c #F0BDA3",
"/. c #EFC0A6",
"(. c #EFC1A7",
"). c #E3C0AD",
"_. c #E3C0AE",
"`. c #E4C0AD",
"'. c #E4C1AE",
"]. c #E5C1AE",
"[. c #E5C2AF",
"{. c #E6C2AF",
"}. c #F2C0A5",
"|. c #F0C0A6",
" X c #F0C0A7",
".X c #F1C1A7",
"XX c #F4C1A7",
"oX c #F1C1A8",
"OX c #F0C2A9",
"+X c #F2C2A8",
"@X c #F2C2A9",
"#X c #F3C3A9",
"$X c #F3C3AA",
"%X c #F6C3A9",
"&X c #F3C4AA",
"*X c #F4C4AA",
"=X c #F4C5AB",
"-X c #F5C5AB",
";X c #F5C5AC",
":X c #F4C5AD",
">X c #F4C6AD",
",X c #F6C6AC",
"<X c #F7C7AD",
"1X c #FCCAAF",
"2X c #E6C3B0",
"3X c #E3C4B3",
"4X c #E7C4B1",
"5X c #E6C6B5",
"6X c #E8C5B2",
"7X c #E8C6B3",
"8X c #E9C6B3",
"9X c #E9C6B4",
"0X c #E9C7B4",
"qX c #EAC8B5",
"wX c #EBC8B6",
"eX c #EBC9B6",
"rX c #EBC9B7",
"tX c #ECC9B7",
"yX c #ECCAB7",
"uX c #ECCAB8",
"iX c #EDCDBB",
"pX c #FDCAB0",
"aX c #FFCCB1",
"sX c #F0CFBD",
"dX c #F1D0BE",
/* pixels */
"/ k.dXdXdXdXdXdXdXdXdXdXdXdXdXdXdXdXdXdXdXdXdXdXdXdXdXdXdXdXE.D Q ).dXdXdXdXdXdXdXdXdXdXdXdXdXdXdXdXdXdXdXdXdXdXdXdXdXdXdXdXg.` ",
"%X#.h.dXdXdXdXdXdXdXdXdXdXdXdXdXdXdXdXdXdXdXdXdXdXdXdXdXdX~.+.Z.b.O.2XdXdXdXdXdXdXdXdXdXdXdXdXdXdXdXdXdXdXdXdXdXdXdXdXdXdXh.&.XX",
"aX.X} g.dXdXdXdXdXdXdXdXdXdXdXdXdXdXdXdXdXdXdXdXdXdXdXdX~.G |.aXaXV.P ].dXdXdXdXdXdXdXdXdXdXdXdXdXdXdXdXdXdXdXdXdXdXdXdXf.( *XaX",
"aXaX;X| g.dXdXdXdXdXdXdXdXdXdXdXdXdXdXdXdXdXdXdXdXdXdX!.#.P.aXaXaXaXB.#.[.dXdXdXdXdXdXdXdXdXdXdXdXdXdXdXdXdXdXdXdXdXdXd.#.;XaXaX",
"aXaXaX.X#.j.dXdXdXdXdXdXdXdXdXdXdXdXdXdXdXdXdXdXdXdX~.~ G.aXaXaXaXaXaXV.J 4XdXdXdXdXdXdXdXdXdXdXdXdXdXdXdXdXdXdXdXdXd...+XaXaXaX",
"aXaXaXaX-X~ z.dXdXdXdXdXdXdXdXdXdXdXdXdXdXdXdXdXdXR.X./.aXaXaXaXaXaXaXaXV.+.).dXdXdXdXdXdXdXdXdXdXdXdXdXdXdXdXdXdXd.| <XaXaXaXaX",
"aXaXaXaXaX#X#.l.dXdXdXdXdXdXdXdXdXdXdXdXdXdXdXdX~.X.C.aXaXaXaXaXaXaXaXaXaXn.| 2XdXdXdXdXdXdXdXdXdXdXdXdXdXdXdXdXf.#.+XaXaXaXaXaX",
"aXaXaXaXaXaX+X_ h.dXdXdXdXdXdXdXdXdXdXdXdXdXdX!.~ /.aXaXaXaXaXaXaXaXaXaXaXaXB._ `.dXdXdXdXdXdXdXdXdXdXdXdXdXdXg.( -XaXaXaXaXaXaX",
"aXaXaXaXaXaXaX,X+.g.dXdXdXdXdXdXdXdXdXdXdXdX).#.G.aXaXaXaXaXaXaXaXaXaXaXaXaXaXm.#.2XdXdXdXdXdXdXdXdXdXdXdXdXg.#.*XaXaXaXaXaXaXaX",
"aXaXaXaXaXaXaXaX XO.h.dXdXdXdXdXdXdXdXdXdX).F P.aXaXaXaXaXaXaXaXaXaXaXaXaXaXaXaXC.D 2XdXdXdXdXdXdXdXdXdXdXd.[ @XaXaXaXaXaXaXaXaX",
"aXaXaXaXaXaXaXaXaX,X_ l.dXdXdXdXdXdXdXdXE.+.|.aXaXaXaXaXaXaXaXaXaXaXaXaXaXaXaXaXaXC.#.`.dXdXdXdXdXdXdXdXd.O.<XaXaXaXaXaXaXaXaXaX",
"aXaXaXaXaXaXaXaXaXaX+X#.z.dXdXdXdXdXdX~.{ Z.aXaXaXaXaXaXaXaXaXaXaXaXaXaXaXaXaXaXaXaXm.' 2XdXdXdXdXdXdXd.+.oXaXaXaXaXaXaXaXaXaXaX",
"aXaXaXaXaXaXaXaXaXaXaX#X~ j.dXdXdXdXW.] I.aXaXaXaXaXaXaXaXaXaXaXaXaXaXaXaXaXaXaXaXaXaXB.| ).dXdXdXdXj._ <XaXaXaXaXaXaXaXaXaXaXaX",
"aXaXaXaXaXaXaXaXaXaXaXaX-X#.g.dXdX).@.Z.aXaXaXaXaXaXaXaXaXaXaXaXaXaXaXaXaXaXaXaXaXaXaXaXn.+.4XdXdXj.&.#XaXaXaXaXaXaXaXaXaXaXaXaX",
"aXaXaXaXaXaXaXaXaXaXaXaXaX.X| g.`.A |.aXaXaXaXaXaXaXaXaXaXaXaXaXaXaXaXaXaXaXaXaXaXaXaXaXp p p [.d.) $XaXaXaXaXaXaXaXaXaXaXaXaXaX",
"aXaXaXaXaXaXaXaXaXaXaXaXaXaX:XD H I.aXaXaXaXaXaXaXaXaXaXaXaXaXaXaXaXaXaXaXaXaXaXaXaXaXp I a a p / >XaXaXaXaXaXaXaXaXaXaXaXaXaXaX",
"aXaXaXaXaXaXaXaXaXaXaXaXaXaXD.D / t.aXaXaXaXaXaXaXaXaXaXaXaXaXaXaXaXaXaXaXaXaXaXaXaXp I a a a p Z .XaXaXaXaXaXaXaXaXaXaXaXaXaXaX",
"aXaXaXaXaXaXaXaXaXaXaXaXaXm...[.0X~ y.aXaXaXaXaXaXaXaXaXaXaXaXaXaXaXaXaXaXaXaXaXaXp I I a a p yXQ.O.F.aXaXaXaXaXaXaXaXaXaXaXaXaX",
"aXaXaXaXaXaXaXaXaXaXaXaXA.O.~.dXdX8X#.w.aXaXaXaXaXaXaXaXaXaXaXaXaXaXaXaXaXaXaXaXp I a a a p 6XdXdXY.X. XaXaXaXaXaXaXaXaXaXaXaXaX",
"aXaXaXaXaXaXaXaXaXaXaXC.L [.dXdXdXdX4X] w.aXaXaXaXaXaXaXaXaXaXaXaXaXaXaXaXaXaXp I a a a a p dXdXdXdXQ.( K.aXaXaXaXaXaXaXaXaXaXaX",
"aXaXaXaXaXaXaXaXaXaXZ.#.`.dXdXdXdXdXdXeXX.0.aXaXaXaXaXaXaXaXaXaXaXaXaXaXaXaXp I a a a a a I p dXdXdXdXE.#.|.aXaXaXaXaXaXaXaXaXaX",
"aXaXaXaXaXaXaXaXaXA.J '.dXdXdXdXdXdXdXdX2X+.w.aXaXaXaXaXaXaXaXaXaXaXaXaXaXp I a a a p I a a I p dXdXdXdX~.F oXaXaXaXaXaXaXaXaXaX",
"aXaXaXaXaXaXaXaXM.+.[.dXdXdXdXdXdXdXdXdXdXeX( y.aXaXaXaXaXaXaXaXaXaXaXaXp I a a a p yXp I a I p dXdXdXdXdX!.@.G.aXaXaXaXaXaXaXaX",
"aXaXaXaXaXaXaXZ.| ~.dXdXdXdXdXdXdXdXdXdXdXdX6X#.u.aXaXaXaXaXaXaXaXaXaXp I a a a p 4XdXdXp I p dXdXdXdXdXdXdXT.[  XaXaXaXaXaXaXaX",
"aXaXaXaXaXaXB._ [.dXdXdXdXdXdXdXdXdXdXdXdXdXdX6X( w.aXaXaXaXaXaXaXaXp I a a a a I p dXdXdXp dXdXdXdXdXdXdXdXdXQ.{ G.aXaXaXaXaXaX",
"aXaXaXaXaXG.#.~.dXdXdXdXdXdXdXdXdXdXdXdXdXdXdXdXwX@.q.aXaXaXaXaXaXp I a a p I a a I p dXdXdXdXdXdXdXdXdXdXdXdXdXT.@.oXaXaXaXaXaX",
"aXaXaXaXG.C {.dXdXdXdXdXdXdXdXdXdXdXdXdXdXdXdXdXdX2XX.q.aXaXaXaXp I a a p _ p I a I p dXdXdXdXdXdXdXdXdXdXdXdXdXdX!.G |.aXaXaXaX",
"aXaXaXB.@.2XdXdXdXdXdXdXdXdXdXdXdXdXdXdXdXdXdXdXdXdXwX[ w.aXaXp I a a p +.yXdXp I p dXdXdXdXdXdXdXdXdXdXdXdXdXdXdXdX~.#.K.aXaXaX",
"aXaXZ.' ~.dXdXdXdXdXdXdXdXdXdXdXdXdXdXdXdXdXdXdXdXdXdX4X#.y.p I a a p O.4XdXdXdXp dXdXdXdXdXdXdXdXdXdXdXdXdXdXdXdXdXdXE.( .XaXaX",
"aXM.| [.dXdXdXdXdXdXdXdXdXdXdXdXdXdXdXdXdXdXdXdXdXdXdXdX9Xp I a a p [ uXdXdXdXdXdXdXdXdXdXdXdXdXdXdXdXdXdXdXdXdXdXdXdXdXQ.X.F.aX",
"S.+.~.dXdXdXdXdXdXdXdXdXdXdXdXdXdXdXdXdXdXdXdXdXdXdXdXdXp I a a p #.6XdXdXdXdXdXdXdXdXdXdXdXdXdXdXdXdXdXdXdXdXdXdXdXdXdXdXY.X.}.",
"N {.dXdXdXdXdXdXdXdXdXdXdXdXdXdXdXdXdXdXdXdXdXp p p dXp I a a p M 0XdXdXdXdXdXdXdXdXdXdXdXdXdXdXdXdXdXdXdXdXdXdXdXdXdXdXdXdXQ.B ",
"! 6XdXdXdXdXdXdXdXdXdXdXdXdXdXdXdXdXdXdXdXp p I I I p I a a p  ._ g.dXdXdXdXdXdXdXdXdXdXdXdXdXdXdXdXdXdXdXdXdXdXdXdXdXdXdXdX].K ",
"p.~ {.dXdXdXdXdXdXdXdXdXdXdXdXdXdXdXdXdXp I I I p I I a a p | OX.X@.j.dXdXdXdXdXdXdXdXdXdXdXdXdXdXdXdXdXdXdXdXdXdXdXdXdXdX`.F ^.",
"aXm.#.2XdXdXdXdXdXdXdXdXdXdXdXdXdXdXdXdXp I I p $ p a a p ..<XaXaX-X^ z.dXdXdXdXdXdXdXdXdXdXdXdXdXdXdXdXdXdXdXdXdXdXdXdX~.#.J.aX",
"aXaXM.L 6XdXdXdXdXdXdXdXdXdXdXdXdXdXdXp I I p $ $ $ p a a p aXaXaXaX@X#.l.dXdXdXdXdXdXdXdXdXdXdXdXdXdXdXdXdXdXdXdXdXdX'.~ Z.aXaX",
"aXaXaXm.+.'.dXdXdXdXdXdXdXdXdXdXdXdXdXp I p $ $ $ $ $ p a p aXaXaXaXaX+X) h.dXdXdXdXdXdXdXdXdXdXdXdXdXdXdXdXdXdXdXdX!.X.J.aXaXaX",
"aXaXaXaXi.| 6XdXdXdXdXdXdXdXdXdXdXdXdXp I I p $ $ $ p a a p aXaXaXaXaXaX,X+.g.dXdXdXdXdXdXdXdXdXdXdXdXdXdXdXdXdXdX'.X.B.aXaXaXaX",
"aXaXaXaXaXn._ ].dXdXdXdXdXdXdXdXdXdXdXdXp I a p $ p a a p aXaXaXaXaXaXaXaX XO.h.dXdXdXdXdXdXdXdXdXdXdXdXdXdXdXdX~.~ J.aXaXaXaXaX",
"aXaXaXaXaXaXv.#.4XdXdXdXdXdXdXdXdXdXdXdXp a a a p a a a p aXaXaXaXaXaXaXaXaX,X' k.dXdXdXdXdXdXdXdXdXdXdXdXdXdX`.#.Z.aXaXaXaXaXaX",
"aXaXaXaXaXaXaXB.H 4XdXdXdXdXdXdXdXdXdXdXdXp p a a a p p aXaXaXaXaXaXaXaXaXaXaXoX#.z.dXdXdXdXdXdXdXdXdXdXdXdX].G J.aXaXaXaXaXaXaX",
"aXaXaXaXaXaXaXaXM.#.].dXdXdXdXdXdXdXdXdXdXh.' p p p aXaXaXaXaXaXaXaXaXaXaXaXaXaX#X~ j.dXdXdXdXdXdXdXdXdXdX!.+.K.aXaXaXaXaXaXaXaX",
"aXaXaXaXaXaXaXaXaXc.] 6XdXdXdXdXdXdXdXdXh.&.#XaXaXaXaXaXaXaXaXaXaXaXaXaXaXaXaXaXaX=X#.g.dXdXdXdXdXdXdXdX`.{ V.aXaXaXaXaXaXaXaXaX",
"aXaXaXaXaXaXaXaXaXaXn.| '.dXdXdXdXdXdXf.( &XaXaXaXaXaXaXaXaXaX+XN.N.pXaXaXaXaXaXaXaX.X| g.dXdXdXdXdXdX!.] G.aXaXaXaXaXaXaXaXaXaX",
"aXaXaXaXaXaXaXaXaXaXaXi.+.6XdXdXdXdXd.#.(.N.2.,.R R v k k k k k k k k k k k k T R %.<.4.m g.dXdXdXdX].@.V.aXaXaXaXaXaXaXaXaXaXaX",
"aXaXaXaXaXaXaXaXaXaXaXaXm.L 2XdXiX-.6 z k k k k k k k k k k k k k k k k k k k k k k k k e - x >.3X].C L.aXaXaXaXaXaXaXaXaXaXaXaX",
"aXaXaXaXaXaXaXaXaXaXaXaXaXB.` E 1 & j k k k k k k k k k k k k k k k k k k k k k k k k k k s O 2 u : 1.aXaXaXaXaXaXaXaXaXaXaXaXaX",
"aXaXaXaXaXaXaXaXaXaXaXaXaX+Xe   % t k k k k k k k k k k k k k k k k k k k k k k k k k k k k y @   8 k *.aXaXaXaXaXaXaXaXaXaXaXaX",
"aXaXaXaXaXaXaXaXaXaXaXaXaX;., . # q k k k k k k k k k k k k k k k k k k k k k k k k k k k k 7 O X , k k 1XaXaXaXaXaXaXaXaXaXaXaX",
"aXaXaXaXaXaXaXaXaXaXaXaXaX3.; f 3 * r k k k k k k k k k k k k k k k k k k k k k k k k k k q = 5 g = < ,.aXaXaXaXaXaXaXaXaXaXaXaX",
"aXaXaXaXaXaXaXaXaXaXaXaX8.{ _.:.c 4 + w k k k k k k k k k k k k k k k k k k k k k k k k 9 o i h h U b w.aXaXaXaXaXaXaXaXaXaXaXaX",
"aXaXaXaXaXaXaXaXaXaXaX8.X.uXdXdXsXx.Y > e k k k k k k k k k k k k k k k k k k k k k k 0 - d W a.5XdXeX( y.aXaXaXaXaXaXaXaXaXaXaX",
"aXaXaXaXaXaXaXaXaXaX9.@.4XdXdXdXdXdXdXQ.S 6.5.<.o.R R k k k k k k k k k k k n R R =.$.l s.dXdXdXdXdXdX4X#.u.aXaXaXaXaXaXaXaXaXaX",
"aXaXaXaXaXaXaXaXaXr.) rXdXdXdXdXdXdXdXdXR.@.L.aXaXaXaXaXaXaXaXaXaXaXaXaXaXaXaXaXaXV.+.'.dXdXdXdXdXdXdXdX6X^ w.aXaXaXaXaXaXaXaXaX",
"aXaXaXaXaXaXaXaXr.&.7XdXdXdXdXdXdXdXdXdXdXU.{ +XaXaXaXaXaXaXaXaXaXaXaXaXaXaXaXaXJ.| Q.dXdXdXdXdXdXdXdXdXdXqX@.q.aXaXaXaXaXaXaXaX",
"aXaXaXaXaXaXaX9.) 7XdXdXdXdXdXdXdXdXdXdXdXdXY.{ L.aXaXaXaXaXaXaXaXaXaXaXaXaXaXC.) `.dXdXdXdXdXdXdXdXdXdXdXdX2X..q.aXaXaXaXaXaXaX",
"aXaXaXaXaXaX8.@.tXdXdXdXdXdXdXdXdXdXdXdXdXdXdXU.@.@XaXaXaXaXaXaXaXaXaXaXaXaXP.#.!.dXdXdXdXdXdXdXdXdXdXdXdXdXdXwX{ w.aXaXaXaXaXaX",
"aXaXaXaXaX8.O.4XdXdXdXdXdXdXdXdXdXdXdXdXdXdXdXdXR.H .XaXaXaXaXaXaXaXaXaXaXI.V ].dXdXdXdXdXdXdXdXdXdXdXdXdXdXdXdX4X#.r.aXaXaXaXaX",
"aXaXaXaX0.{ uXdXdXdXdXdXdXdXdXdXdXdXdXdXdXdXdXdXdXQ.#.I.aXaXaXaXaXaXaXaXV.@.].dXdXdXdXdXdXdXdXdXdXdXdXdXdXdXdXdXdX0X~ y.aXaXaXaX",
"aXaXaXq.#.6XdXdXdXdXdXdXdXdXdXdXdXdXdXdXdXdXdXdXdXdXY.( +XaXaXaXaXaXaXJ.' !.dXdXdXdXdXdXdXdXdXdXdXdXdXdXdXdXdXdXdXdX9X#.w.aXaXaX",
"aXaX0.( 0XdXdXdXdXdXdXdXdXdXdXdXdXdXdXdXdXdXdXdXdXdXdXT.X.K.aXaXaXaXV.} `.dXdXdXdXdXdXdXdXdXdXdXdXdXdXdXdXdXdXdXdXdXdX4X[ q.aXaX",
"aX0.#.qXdXdXdXdXdXdXdXdXdXdXdXdXdXdXdXdXdXdXdXdXdXdXdXdXU.O.@XaXaXL.+.Q.dXdXdXdXdXdXdXdXdXdXdXdXdXdXdXdXdXdXdXdXdXdXdXdXwXX.q.aX",
"7.| 6XdXdXdXdXdXdXdXdXdXdXdXdXdXdXdXdXdXdXdXdXdXdXdXdXdXdXT.~ /.H.H '.dXdXdXdXdXdXdXdXdXdXdXdXdXdXdXdXdXdXdXdXdXdXdXdXdXdX2X@.e.",
" .yXdXdXdXdXdXdXdXdXdXdXdXdXdXdXdXdXdXdXdXdXdXdXdXdXdXdXdXdXR./ _ `.dXdXdXdXdXdXdXdXdXdXdXdXdXdXdXdXdXdXdXdXdXdXdXdXdXdXdXdXwX/ "
};
