/* XPM */
static char *result[] = {
/* columns rows colors chars-per-pixel */
"64 64 224 2 ",
"   c #7A5E4F",
".  c #7B5F50",
"X  c #7C6051",
"o  c #7E6153",
"O  c #7E6253",
"+  c #7F6254",
"@  c #7E6355",
"#  c #7F6455",
"$  c #910A00",
"%  c #806354",
"&  c #806455",
"*  c #806456",
"=  c #816557",
"-  c #816657",
";  c #8E6D5C",
":  c #957565",
">  c #927A6D",
",  c #927A6E",
"<  c #937C6F",
"1  c #9A7A69",
"2  c #9A7B6B",
"3  c #9B7C6B",
"4  c #9E7C6B",
"5  c #9C7C6C",
"6  c #9E7E6D",
"7  c #9C7E6E",
"8  c #9D7F6F",
"9  c #8E8B00",
"0  c #FFCB00",
"q  c #9F806F",
"w  c #998174",
"e  c #988275",
"r  c #A0806F",
"t  c #A4806E",
"y  c #A18271",
"u  c #A48371",
"i  c #A68573",
"p  c #A88675",
"a  c #AA8876",
"s  c #AB8977",
"d  c #A18678",
"f  c #B28C78",
"g  c #B18E7B",
"h  c #B28E7C",
"j  c #B38F7C",
"k  c #B5917D",
"l  c #BC9079",
"z  c #BC907A",
"x  c #BD917B",
"c  c #BD927B",
"v  c #BE927B",
"b  c #BB937F",
"n  c #BE927C",
"m  c #BE937C",
"M  c #BF937C",
"N  c #BF937D",
"B  c #BF947D",
"V  c #BF947E",
"C  c #C0947D",
"Z  c #C0947E",
"A  c #C0957E",
"S  c #C1957E",
"D  c #C0957F",
"F  c #C1957F",
"G  c #C1967F",
"H  c #FFDE5B",
"J  c #B99480",
"K  c #BA9581",
"L  c #BB9682",
"P  c #BC9682",
"I  c #BD9783",
"U  c #B59A8C",
"Y  c #B49B8E",
"T  c #B89A8A",
"R  c #BC9E8E",
"E  c #C19680",
"W  c #C19781",
"Q  c #C29680",
"!  c #C29780",
"~  c #C29781",
"^  c #C39781",
"/  c #C39881",
"(  c #C39882",
")  c #C39983",
"_  c #C49882",
"`  c #C49982",
"'  c #C49983",
"]  c #C59983",
"[  c #C59A83",
"{  c #C09A85",
"}  c #C29B87",
"|  c #C59A84",
" . c #C49B84",
".. c #C59B85",
"X. c #C69B84",
"o. c #C69B85",
"O. c #C69C85",
"+. c #C79C86",
"@. c #C79D86",
"#. c #C89D87",
"$. c #C89E88",
"%. c #CAA28C",
"&. c #CFA690",
"*. c #CEAD9C",
"=. c #D1A791",
"-. c #D7AC95",
";. c #D8AD96",
":. c #D2AF9C",
">. c #DDB198",
",. c #DCB099",
"<. c #E7B59B",
"1. c #E2B59D",
"2. c #E2B59E",
"3. c #E5B59C",
"4. c #E4B59D",
"5. c #E5B69C",
"6. c #E6B69D",
"7. c #E6B79D",
"8. c #E5B79E",
"9. c #E7B79E",
"0. c #E6B79F",
"q. c #E9B79C",
"w. c #E7B89E",
"e. c #E6B89F",
"r. c #E8B89F",
"t. c #E8B99F",
"y. c #E9B99F",
"u. c #EBB99F",
"i. c #CBAFA0",
"p. c #D8B7A5",
"a. c #DBB8A4",
"s. c #DDB8A4",
"d. c #DDB8A5",
"f. c #DEB9A5",
"g. c #DEB9A6",
"h. c #DEBAA6",
"j. c #DFBAA6",
"k. c #DFBAA7",
"l. c #DFBBA7",
"z. c #E9B9A0",
"x. c #E9BAA0",
"c. c #E8BAA1",
"v. c #EABAA0",
"b. c #EABAA1",
"n. c #EBBBA1",
"m. c #E9BAA2",
"M. c #E9BBA3",
"N. c #EABBA2",
"B. c #EBBBA2",
"V. c #ECBCA2",
"C. c #ECBCA3",
"Z. c #ECBDA3",
"A. c #EDBDA3",
"S. c #EEBCA2",
"D. c #EBBDA4",
"F. c #EDBDA4",
"G. c #EDBEA4",
"H. c #ECBEA5",
"J. c #EEBEA4",
"K. c #EEBEA5",
"L. c #EEBFA5",
"P. c #EFBFA5",
"I. c #EFBFA6",
"U. c #E0BBA8",
"Y. c #E0BCA9",
"T. c #E1BCA9",
"R. c #E1BDA9",
"E. c #E0BDAA",
"W. c #E1BDAA",
"Q. c #E2BDAA",
"!. c #E2BEAA",
"~. c #E2BEAB",
"^. c #E3BFAC",
"/. c #F0BDA3",
"(. c #EFC0A6",
"). c #E3C0AD",
"_. c #E4C0AD",
"`. c #E4C1AE",
"'. c #E5C1AE",
"]. c #E5C2AF",
"[. c #E6C2AF",
"{. c #F2C0A5",
"}. c #F0C0A6",
"|. c #F0C0A7",
" X c #F1C1A7",
".X c #F4C1A7",
"XX c #F1C1A8",
"oX c #F0C2A9",
"OX c #F2C2A8",
"+X c #F2C2A9",
"@X c #F3C3A9",
"#X c #F3C3AA",
"$X c #F6C3A9",
"%X c #F3C4AA",
"&X c #F4C4AA",
"*X c #F5C4AA",
"=X c #F4C4AB",
"-X c #F4C5AB",
";X c #F5C5AB",
":X c #F5C5AC",
">X c #F4C5AD",
",X c #F4C6AD",
"<X c #F6C6AC",
"1X c #F7C7AD",
"2X c #E6C3B0",
"3X c #E7C4B1",
"4X c #E5C5B4",
"5X c #E8C5B2",
"6X c #E8C6B3",
"7X c #E9C6B3",
"8X c #E9C6B4",
"9X c #E9C7B4",
"0X c #EAC8B5",
"qX c #E8C9B7",
"wX c #EBC8B6",
"eX c #EBC9B6",
"rX c #EBC9B7",
"tX c #ECC9B7",
"yX c #ECCAB7",
"uX c #ECCAB8",
"iX c #EECEBC",
"pX c #EFCEBD",
"aX c #FFCCB1",
"sX c #F1D0BE",
/* pixels */
"~ j.sXsXsXsXsXsXsXsXsXsXsXsXsXsXsXsXsXsXsXsXsXsXsXsXsXsXsXsXW.N E ).sXsXsXsXsXsXsXsXsXsXsXsXsXsXsXsXsXsXsXsXsXsXsXsXsXsXsXsXf.) ",
"$X#.g.sXsXsXsXsXsXsXsXsXsXsXsXsXsXsXsXsXsXsXsXsXsXsXsXsXsX^.+.Z.c.O.2XsXsXsXsXsXsXsXsXsXsXsXsXsXsXsXsXsXsXsXsXsXsXsXsXsXsXg.$..X",
"aX X[ f.sXsXsXsXsXsXsXsXsXsXsXsXsXsXsXsXsXsXsXsXsXsXsXsX^.C }.aXaXV.G '.sXsXsXsXsXsXsXsXsXsXsXsXsXsXsXsXsXsXsXsXsXsXsXsXd.^ &XaX",
"aXaX:X| f.sXsXsXsXsXsXsXsXsXsXsXsXsXsXsXsXsXsXsXsXsXsX~.#.P.aXaXaXaXB.#.].sXsXsXsXsXsXsXsXsXsXsXsXsXsXsXsXsXsXsXsXsXsXs.#.:XaXaX",
"aXaXaX X#.h.sXsXsXsXsXsXsXsXsXsXsXsXsXsXsXsXsXsXsXsX^.Q G.aXaXaXaXaXaXV.S 3XsXsXsXsXsXsXsXsXsXsXsXsXsXsXsXsXsXsXsXsXs.X.OXaXaXaX",
"aXaXaXaX;XQ l.sXsXsXsXsXsXsXsXsXsXsXsXsXsXsXsXsXsXR.o.(.aXaXaXaXaXaXaXaXV.+.).sXsXsXsXsXsXsXsXsXsXsXsXsXsXsXsXsXsXs.| 1XaXaXaXaX",
"aXaXaXaXaX@X#.k.sXsXsXsXsXsXsXsXsXsXsXsXsXsXsXsX^.o.C.aXaXaXaXaXaXaXaXaXaXv.| 2XsXsXsXsXsXsXsXsXsXsXsXsXsXsXsXsXd.#.OXaXaXaXaXaX",
"aXaXaXaXaXaXOX( g.sXsXsXsXsXsXsXsXsXsXsXsXsXsX~.Q (.aXaXaXaXaXaXaXaXaXaXaXaXB.( _.sXsXsXsXsXsXsXsXsXsXsXsXsXsXf.^ ;XaXaXaXaXaXaX",
"aXaXaXaXaXaXaX<X+.f.sXsXsXsXsXsXsXsXsXsXsXsX).#.G.aXaXaXaXaXaXaXaXaXaXaXaXaXaXb.#.2XsXsXsXsXsXsXsXsXsXsXsXsXf.#.&XaXaXaXaXaXaXaX",
"aXaXaXaXaXaXaXaX|.O.g.sXsXsXsXsXsXsXsXsXsX).B P.aXaXaXaXaXaXaXaXaXaXaXaXaXaXaXaXC.N 2XsXsXsXsXsXsXsXsXsXsXs.' +XaXaXaXaXaXaXaXaX",
"aXaXaXaXaXaXaXaXaX<X( k.sXsXsXsXsXsXsXsXW.+.}.aXaXaXaXaXaXaXaXaXaXaXaXaXaXaXaXaXaXC.#._.sXsXsXsXsXsXsXsXs.O.1XaXaXaXaXaXaXaXaXaX",
"aXaXaXaXaXaXaXaXaXaXOX#.l.sXsXsXsXsXsX^.] Z.aXaXaXaXaXaXaXaXaXaXaXaXaXaXaXaXaXaXaXaXb._ 9 9 9 sXsXsXsXs.+.XXaXaXaXaXaXaXaXaXaXaX",
"aXaXaXaXaXaXaXaXaXaXaX@XQ h.sXsXsXsXQ.` I.aXaXaXaXaXaXaXaXaXaXaXaXaXaXaXaXaXaXaXaXaXaX9 H 0 0 9 sXsXh.( 1XaXaXaXaXaXaXaXaXaXaXaX",
"aXaXaXaXaXaXaXaXaXaXaXaX;X#.f.sXsX).@.Z.aXaXaXaXaXaXaXaXaXaXaXaXaXaXaXaXaXaXaXaXaXaX9 H 0 0 0 9 sXh.$.@XaXaXaXaXaXaXaXaXaXaXaXaX",
"aXaXaXaXaXaXaXaXaXaXaXaXaX X| f._.M }.aXaXaXaXaXaXaXaXaXaXaXaXaXaXaXaXaXaXaXaXaXaX9 H H 0 0 9 ].s./ #XaXaXaXaXaXaXaXaXaXaXaXaXaX",
"aXaXaXaXaXaXaXaXaXaXaXaXaXaX>XN Z I.aXaXaXaXaXaXaXaXaXaXaXaXaXaXaXaXaXaXaXaXaXaX9 H 0 0 0 9 V.V ~ ,XaXaXaXaXaXaXaXaXaXaXaXaXaXaX",
"aXaXaXaXaXaXaXaXaXaXaXaXaXaXD.N ~ e.aXaXaXaXaXaXaXaXaXaXaXaXaXaXaXaXaXaXaXaXaX9 H 0 0 0 0 9 4.A m  XaXaXaXaXaXaXaXaXaXaXaXaXaXaX",
"aXaXaXaXaXaXaXaXaXaXaXaXaXb.X.].9XQ r.aXaXaXaXaXaXaXaXaXaXaXaXaXaXaXaXaXaXaX9 H 0 0 0 0 0 H 9 yX!.O.F.aXaXaXaXaXaXaXaXaXaXaXaXaX",
"aXaXaXaXaXaXaXaXaXaXaXaXA.O.^.sXsX7X#.9.aXaXaXaXaXaXaXaXaXaXaXaXaXaXaXaXaX9 H 0 0 0 9 H 0 0 H 9 sXY.o.|.aXaXaXaXaXaXaXaXaXaXaXaX",
"aXaXaXaXaXaXaXaXaXaXaXC.F ].sXsXsXsX3X` 9.aXaXaXaXaXaXaXaXaXaXaXaXaXaXaX9 H 0 0 0 9 aX9 H 0 H 9 sXsX!.^ K.aXaXaXaXaXaXaXaXaXaXaX",
"aXaXaXaXaXaXaXaXaXaXZ.#._.sXsXsXsXsXsXeXo.6.aXaXaXaXaXaXaXaXaXaXaXaXaX9 H 0 0 0 9 aX6.#.9 H 9 sXsXsXsXW.#.}.aXaXaXaXaXaXaXaXaXaX",
"aXaXaXaXaXaXaXaXaXA.S `.sXsXsXsXsXsXsXsX2X+.9.aXaXaXaXaXaXaXaXaXaXaX9 H 0 0 0 0 H 9 [ 5XsX9 sXsXsXsXsXsX^.B XXaXaXaXaXaXaXaXaXaX",
"aXaXaXaXaXaXaXaXn.+.].sXsXsXsXsXsXsXsXsXsXeX^ r.aXaXaXaXaXaXaXaXaX9 H 0 0 9 H 0 0 H 9 sXsXsXsXsXsXsXsXsXsX~.@.G.aXaXaXaXaXaXaXaX",
"aXaXaXaXaXaXaXZ.| ^.sXsXsXsXsXsXsXsXsXsXsXsX5X#.t.aXaXaXaXaXaXaX9 H 0 0 9 aX9 H 0 H 9 sXsXsXsXsXsXsXsXsXsXsXT.' |.aXaXaXaXaXaXaX",
"aXaXaXaXaXaXB.( ].sXsXsXsXsXsXsXsXsXsXsXsXsXsX5X^ 9.aXaXaXaXaX9 H 0 0 9 aXaX9.9 H 9 sXsXsXsXsXsXsXsXsXsXsXsXsX!.] G.aXaXaXaXaXaX",
"aXaXaXaXaXG.#.^.sXsXsXsXsXsXsXsXsXsXsXsXsXsXsXsXwX@.7.aXaXaX9 H 0 0 9 aXaX9.$.7X9 sXsXsXsXsXsXsXsXsXsXsXsXsXsXsXT.@.XXaXaXaXaXaX",
"aXaXaXaXG.n [.sXsXsXsXsXsXsXsXsXsXsXsXsXsXsXsXsXsX2Xo.7.aX9 H 0 0 9 aXaX5.( 6XsXsXsXsXsXsXsXsXsXsXsXsXsXsXsXsXsXsX~.C }.aXaXaXaX",
"aXaXaXB.@.2XsXsXsXsXsXsXsXsXsXsXsXsXsXsXsXsXsXsXsXsXwX' 9 H 0 0 9 aXaX3.+.yXsXsXsXsXsXsXsXsXsXsXsXsXsXsXsXsXsXsXsXsX^.#.K.aXaXaX",
"aXaXZ._ ^.sXsXsXsXsXsXsXsXsXsXsXsXsXsXsXsXsXsX9 9 9 sX9 H 0 0 9 aXaX5.O.3XsXsXsXsXsXsXsXsXsXsXsXsXsXsXsXsXsXsXsXsXsXsXW.^  XaXaX",
"aXn.| ].sXsXsXsXsXsXsXsXsXsXsXsXsXsXsXsXsX9 9 H H H 9 H 0 0 9 aXaX7.' uXsXsXsXsXsXsXsXsXsXsXsXsXsXsXsXsXsXsXsXsXsXsXsXsX!.o.F.aX",
"S.+.^.sXsXsXsXsXsXsXsXsXsXsXsXsXsXsXsXsX9 H H H 9 H H 0 0 9 #.8.7.#.5XsXsXsXsXsXsXsXsXsXsXsXsXsXsXsXsXsXsXsXsXsXsXsXsXsXsXY.o.{.",
"z [.sXsXsXsXsXsXsXsXsXsXsXsXsXsXsXsXsXsX9 H H 9 $ 9 0 0 9 sX3Xc l 9XsXsXsXsXsXsXsXsXsXsXsXsXsXsXsXsXsXsXsXsXsXsXsXsXsXsXsXsX!.x ",
"W 5XsXsXsXsXsXsXsXsXsXsXsXsXsXsXsXsXsX9 H H 9 $ $ $ 9 0 0 9 d...( f.sXsXsXsXsXsXsXsXsXsXsXsXsXsXsXsXsXsXsXsXsXsXsXsXsXsXsXsX'.D ",
"u.Q [.sXsXsXsXsXsXsXsXsXsXsXsXsXsXsXsX9 H 9 $ $ $ $ $ 9 0 9 | oX X@.h.sXsXsXsXsXsXsXsXsXsXsXsXsXsXsXsXsXsXsXsXsXsXsXsXsXsX_.B /.",
"aXb.#.2XsXsXsXsXsXsXsXsXsXsXsXsXsXsXsX9 H H 9 $ $ $ 9 0 0 9 1XaXaX;X! l.sXsXsXsXsXsXsXsXsXsXsXsXsXsXsXsXsXsXsXsXsXsXsXsX^.#.J.aX",
"aXaXn.F 5XsXsXsXsXsXsXsXsXsXsXsXsXsXsXsX9 H 0 9 $ 9 0 0 9 OXaXaXaXaX+X#.k.sXsXsXsXsXsXsXsXsXsXsXsXsXsXsXsXsXsXsXsXsXsX`.Q Z.aXaX",
"aXaXaXb.+.`.sXsXsXsXsXsXsXsXsXsXsXsXsXsX9 0 0 0 9 0 0 0 9 aXaXaXaXaXaXOX/ g.sXsXsXsXsXsXsXsXsXsXsXsXsXsXsXsXsXsXsXsX~.o.J.aXaXaX",
"aXaXaXaXy.| 5XsXsXsXsXsXsXsXsXsXsXsXsXsXsX9 9 0 0 0 9 9 aXaXaXaXaXaXaXaX<X+.f.sXsXsXsXsXsXsXsXsXsXsXsXsXsXsXsXsXsX`.o.B.aXaXaXaX",
"aXaXaXaXaXv.( '.sXsXsXsXsXsXsXsXsXsXsXsXsXsXsX9 9 9 @XaXaXaXaXaXaXaXaXaXaX|.O.g.sXsXsXsXsXsXsXsXsXsXsXsXsXsXsXsX^.Q J.aXaXaXaXaX",
"aXaXaXaXaXaXx.#.3XsXsXsXsXsXsXsXsXsXsXsXsXsXsXs.+.1XaXaXaXaXaXaXaXaXaXaXaXaX<X_ j.sXsXsXsXsXsXsXsXsXsXsXsXsXsX_.#.Z.aXaXaXaXaXaX",
"aXaXaXaXaXaXaXB.Z 3XsXsXsXsXsXsXsXsXsXsXsXsXs.+.XXaXaXaXaXaXaXaXaXaXaXaXaXaXaXXX#.l.sXsXsXsXsXsXsXsXsXsXsXsX'.C J.aXaXaXaXaXaXaX",
"aXaXaXaXaXaXaXaXn.#.'.sXsXsXsXsXsXsXsXsXsXg._ 1XaXaXaXaXaXaXaXaXaXaXaXaXaXaXaXaX@XQ h.sXsXsXsXsXsXsXsXsXsX~.+.K.aXaXaXaXaXaXaXaX",
"aXaXaXaXaXaXaXaXaXz.` 5XsXsXsXsXsXsXsXsXg.$.@XaXaXaXaXaXaXaXaXaXaXaXaXaXaXaXaXaXaX-X#.f.sXsXsXsXsXsXsXsX_.] V.aXaXaXaXaXaXaXaXaX",
"aXaXaXaXaXaXaXaXaXaXv.| `.sXsXsXsXsXsXd.^ %XaXaXaXaXaXaXaXaX*Xm.N.aXaXaXaXaXaXaXaXaX X| f.sXsXsXsXsXsX~.` G.aXaXaXaXaXaXaXaXaXaX",
"aXaXaXaXaXaXaXaXaXaXaXy.+.5XsXsXsXsXs.#.=XK.-.&.K J a i i i i i i i i i i h P } =.1.OX:X| f.sXsXsXsX'.@.V.aXaXaXaXaXaXaXaXaXaXaX",
"aXaXaXaXaXaXaXaXaXaXaXaXb.F 2XsXsX:.t g p i i i i i i i i i i i i i i i i i i i i i i s L f a.sXsX'.n L.aXaXaXaXaXaXaXaXaXaXaXaX",
"aXaXaXaXaXaXaXaXaXaXaXaXaXB.#.p.d * y i i i i i i i i i i i i i i i i i i i i i i i i i i q % T E.#.L.aXaXaXaXaXaXaXaXaXaXaXaXaX",
"aXaXaXaXaXaXaXaXaXaXaXaXaXaX;.  & 7 i i i i i i i i i i i i i i i i i i i i i i i i i i i i 8 @ ; M.aXaXaXaXaXaXaXaXaXaXaXaXaXaX",
"aXaXaXaXaXaXaXaXaXaXaXaXaXaXk . # 3 i i i i i i i i i i i i i i i i i i i i i i i i i i i i 1 O X >.aXaXaXaXaXaXaXaXaXaXaXaXaXaX",
"aXaXaXaXaXaXaXaXaXaXaXaXaX6.b e > = 6 i i i i i i i i i i i i i i i i i i i i i i i i i i 3 - < U  .6.aXaXaXaXaXaXaXaXaXaXaXaXaX",
"aXaXaXaXaXaXaXaXaXaXaXaX3.] 5X4XY , + 5 i i i i i i i i i i i i i i i i i i i i i i i i 2 o w i.iX2X+.9.aXaXaXaXaXaXaXaXaXaXaXaX",
"aXaXaXaXaXaXaXaXaXaXaX3.o.uXsXsXsXqXR : r i i i i i i i i i i i i i i i i i i i i i i u 4 *.pXsXsXsXeX^ r.aXaXaXaXaXaXaXaXaXaXaX",
"aXaXaXaXaXaXaXaXaXaX5.@.3XsXsXsXsXsXsX!.Z 2.,.=.{ I j i i i i i i i i i a J L %.=.c.0.S ).sXsXsXsXsXsX3X#.t.aXaXaXaXaXaXaXaXaXaX",
"aXaXaXaXaXaXaXaXaXw./ rXsXsXsXsXsXsXsXsXR.@.L.aXaXaXaXaXaXaXaXaXaXaXaXaXaXaXaXaXaXV.+.`.sXsXsXsXsXsXsXsX5X! 9.aXaXaXaXaXaXaXaXaX",
"aXaXaXaXaXaXaXaXw.$.6XsXsXsXsXsXsXsXsXsXsXU.] OXaXaXaXaXaXaXaXaXaXaXaXaXaXaXaXaXJ.| !.sXsXsXsXsXsXsXsXsXsX0X@.7.aXaXaXaXaXaXaXaX",
"aXaXaXaXaXaXaX5./ 6XsXsXsXsXsXsXsXsXsXsXsXsXY.] L.aXaXaXaXaXaXaXaXaXaXaXaXaXaXC./ _.sXsXsXsXsXsXsXsXsXsXsXsX2XX.7.aXaXaXaXaXaXaX",
"aXaXaXaXaXaX3.@.tXsXsXsXsXsXsXsXsXsXsXsXsXsXsXU.@.+XaXaXaXaXaXaXaXaXaXaXaXaXP.#.~.sXsXsXsXsXsXsXsXsXsXsXsXsXsXwX] 9.aXaXaXaXaXaX",
"aXaXaXaXaX3.O.3XsXsXsXsXsXsXsXsXsXsXsXsXsXsXsXsXR.Z  XaXaXaXaXaXaXaXaXaXaXI.v '.sXsXsXsXsXsXsXsXsXsXsXsXsXsXsXsX3X#.w.aXaXaXaXaX",
"aXaXaXaX6.] uXsXsXsXsXsXsXsXsXsXsXsXsXsXsXsXsXsXsX!.#.I.aXaXaXaXaXaXaXaXV.@.'.sXsXsXsXsXsXsXsXsXsXsXsXsXsXsXsXsXsX9XQ r.aXaXaXaX",
"aXaXaX7.#.5XsXsXsXsXsXsXsXsXsXsXsXsXsXsXsXsXsXsXsXsXY.^ OXaXaXaXaXaXaXJ._ ~.sXsXsXsXsXsXsXsXsXsXsXsXsXsXsXsXsXsXsXsX8X#.9.aXaXaX",
"aXaX6.^ 9XsXsXsXsXsXsXsXsXsXsXsXsXsXsXsXsXsXsXsXsXsXsXT.o.K.aXaXaXaXV.[ _.sXsXsXsXsXsXsXsXsXsXsXsXsXsXsXsXsXsXsXsXsXsX3X' 7.aXaX",
"aX6.#.0XsXsXsXsXsXsXsXsXsXsXsXsXsXsXsXsXsXsXsXsXsXsXsXsXU.O.+XaXaXL.+.!.sXsXsXsXsXsXsXsXsXsXsXsXsXsXsXsXsXsXsXsXsXsXsXsXwXo.7.aX",
"<.| 5XsXsXsXsXsXsXsXsXsXsXsXsXsXsXsXsXsXsXsXsXsXsXsXsXsXsXT.Q (.H.Z `.sXsXsXsXsXsXsXsXsXsXsXsXsXsXsXsXsXsXsXsXsXsXsXsXsXsX2X@.q.",
"..yXsXsXsXsXsXsXsXsXsXsXsXsXsXsXsXsXsXsXsXsXsXsXsXsXsXsXsXsXR.~ ( _.sXsXsXsXsXsXsXsXsXsXsXsXsXsXsXsXsXsXsXsXsXsXsXsXsXsXsXsXwX~ "
};
