/* XPM */
static char *result[] = {
/* columns rows colors chars-per-pixel */
"64 64 208 2 ",
"   c #7F6254",
".  c #7F6455",
"X  c #910A00",
"o  c #806455",
"O  c #816557",
"+  c #86695A",
"@  c #907261",
"#  c #937260",
"$  c #977564",
"%  c #927A6D",
"&  c #9A7A69",
"*  c #9A7B6B",
"=  c #9B7C6B",
"-  c #9E7C6B",
";  c #9C7C6C",
":  c #9E7E6D",
">  c #9C7E6E",
",  c #8E8B00",
"<  c #FFCB00",
"1  c #9C8275",
"2  c #AB846F",
"3  c #A18271",
"4  c #A68573",
"5  c #A78674",
"6  c #A88675",
"7  c #A98775",
"8  c #AC8B79",
"9  c #AE8B79",
"0  c #B18E7B",
"q  c #B48D79",
"w  c #B78E79",
"e  c #B28E7C",
"r  c #B6927E",
"t  c #BB917B",
"y  c #BC9079",
"u  c #BC907A",
"i  c #BC917A",
"p  c #BD917B",
"a  c #BD927B",
"s  c #BE927B",
"d  c #BE927C",
"f  c #BE937C",
"g  c #BF937C",
"h  c #BF937D",
"j  c #BF947D",
"k  c #BE957F",
"l  c #C0947D",
"z  c #C0947E",
"x  c #C1957E",
"c  c #C0957F",
"v  c #C1957F",
"b  c #C1967F",
"n  c #FFDE5B",
"m  c #B89380",
"M  c #BA9581",
"N  c #BB9682",
"B  c #BB9783",
"V  c #BC9682",
"C  c #BC9782",
"Z  c #BD9783",
"A  c #C19680",
"S  c #C19781",
"D  c #C29680",
"F  c #C29780",
"G  c #C29781",
"H  c #C39781",
"J  c #C39881",
"K  c #C39882",
"L  c #C29883",
"P  c #C39983",
"I  c #C49882",
"U  c #C49982",
"Y  c #C49983",
"T  c #C59983",
"R  c #C59A83",
"E  c #C29B87",
"W  c #C59A84",
"Q  c #C59B85",
"!  c #C69B84",
"~  c #C69B85",
"^  c #C69C85",
"/  c #C79C86",
"(  c #C79D86",
")  c #C89D87",
"_  c #C59E89",
"`  c #C89E88",
"'  c #CBA28C",
"]  c #CDA48E",
"[  c #C9A796",
"{  c #CFAE9C",
"}  c #D2A892",
"|  c #D5AA94",
" . c #D6AB95",
".. c #D7AC95",
"X. c #DEB29A",
"o. c #E7B59B",
"O. c #E2B59D",
"+. c #E5B59C",
"@. c #E5B69C",
"#. c #E6B69D",
"$. c #E6B79D",
"%. c #E5B79E",
"&. c #E5B79F",
"*. c #E7B79E",
"=. c #E9B79C",
"-. c #E7B89E",
";. c #E6B89F",
":. c #E8B89F",
">. c #E8B99F",
",. c #E9B99F",
"<. c #EBB99F",
"1. c #D7B7A6",
"2. c #DCB7A3",
"3. c #DDB8A4",
"4. c #DDB8A5",
"5. c #DEB9A5",
"6. c #DEB9A6",
"7. c #DEBAA6",
"8. c #DFBAA6",
"9. c #DEBAA7",
"0. c #DFBAA7",
"q. c #DFBBA7",
"w. c #DDBAA8",
"e. c #DDBFAE",
"r. c #E8B9A0",
"t. c #E9B9A0",
"y. c #E9BAA0",
"u. c #E8BAA1",
"i. c #EABAA0",
"p. c #EABAA1",
"a. c #EBBBA1",
"s. c #E9BAA2",
"d. c #EBBBA2",
"f. c #ECBCA2",
"g. c #ECBCA3",
"h. c #ECBDA3",
"j. c #EDBDA3",
"k. c #EEBCA2",
"l. c #EBBCA4",
"z. c #EBBDA4",
"x. c #EDBDA4",
"c. c #EDBEA4",
"v. c #ECBEA5",
"b. c #EEBEA4",
"n. c #EEBEA5",
"m. c #EEBFA5",
"M. c #EFBFA5",
"N. c #EFBFA6",
"B. c #E0BBA8",
"V. c #E0BCA9",
"C. c #E1BCA9",
"Z. c #E1BDA9",
"A. c #E1BDAA",
"S. c #E2BDAA",
"D. c #E2BEAA",
"F. c #E2BEAB",
"G. c #E3BFAC",
"H. c #F0BDA3",
"J. c #EFC0A6",
"K. c #E3C0AD",
"L. c #E4C0AD",
"P. c #E4C1AE",
"I. c #E5C1AE",
"U. c #E5C2AF",
"Y. c #E6C2AF",
"T. c #F2C0A5",
"R. c #F0C0A6",
"E. c #F0C0A7",
"W. c #F1C1A7",
"Q. c #F4C1A7",
"!. c #F1C1A8",
"~. c #F0C2A9",
"^. c #F2C2A8",
"/. c #F2C2A9",
"(. c #F3C3A9",
"). c #F3C3AA",
"_. c #F6C3A9",
"`. c #F3C4AA",
"'. c #F4C4AA",
"]. c #F4C5AB",
"[. c #F5C5AB",
"{. c #F7C6AB",
"}. c #F5C5AC",
"|. c #F4C5AD",
" X c #F4C6AD",
".X c #F6C6AC",
"XX c #F7C7AD",
"oX c #FAC8AE",
"OX c #FCCAAF",
"+X c #E6C3B0",
"@X c #E7C4B1",
"#X c #E8C5B2",
"$X c #E8C6B3",
"%X c #E9C6B3",
"&X c #E9C6B4",
"*X c #E9C7B4",
"=X c #EAC7B5",
"-X c #EAC8B5",
";X c #EBC8B6",
":X c #EBC9B6",
">X c #EBC9B7",
",X c #ECC9B7",
"<X c #ECCAB7",
"1X c #ECCAB8",
"2X c #FDCAB0",
"3X c #FFCCB1",
"4X c #F0CFBD",
"5X c #F1D0BE",
/* pixels */
"G 8.5X5X5X5X5X5X5X5X5X5X5X5X5X5X5X5X5X5X5X5X5X5X5X5X5X5X5X5XA.h A K.5X5X5X5X5X5X5X5X5X5X5X5X5X5X5X5X5X5X5X5X5X5X5X5X5X5X5X5X5.P ",
"_.) 6.5X5X5X5X5X5X5X5X5X5X5X5X5X5X5X5X5X5X5X5X5X5X5X5X5X5XG./ h.u.^ +X5X5X5X5X5X5X5X5X5X5X5X5X5X5X5X5X5X5X5X5X5X5X5X5X5X5X6.` Q.",
"3XW.R 5.5X5X5X5X5X5X5X5X5X5X5X5X5X5X5X5X5X5X5X5X5X5X5X5XG.l R.3X3Xf.b I.5X5X5X5X5X5X5X5X5X5X5X5X5X5X5X5X5X5X5X5X5X5X5X5X4.H '.3X",
"3X3X}.W 5.5X5X5X5X5X5X5X5X5X5X5X5X5X5X5X5X5X5X5X5X5X5XF.) M.3X3X3X3Xd.) U.5X5X5X5X5X5X5X5X5X5X5X5X5X5X5X5X5X5X5X5X5X5X3.) }.3X3X",
"3X3X3XW.) 7.5X5X5X5X5X5X5X5X5X5X5X5X5X5X5X5X5X5X5X5XG.D c.3X3X3X3X3X3Xf.x @X5X5X5X5X5X5X5X5X5X5X5X5X5X5X5X5X5X5X5X5X3.! ^.3X3X3X",
"3X3X3X3X[.D q.5X5X5X5X5X5X5X5X5X5X5X5X5X5X5X5X5X5XZ.~ J.3X3X3X3X3X3X3X3Xf./ K.5X5X5X5X5X5X5X5X5X5X5X5X5X5X5X5X5X5X3.W XX3X3X3X3X",
"3X3X3X3X3X(.) 0.5X5X5X5X5X5X5X5X5X5X5X5X5X5X5X5XG.~ g.3X3X3X3X3X3X3X3X3X3Xi.W +X5X5X5X5X5X5X5X5X5X5X5X5X5X5X5X5X4.) ^.3X3X3X3X3X",
"3X3X3X3X3X3X^.K 6.5X5X5X5X5X5X5X5X5X5X5X5X5X5XF.D J.3X3X3X3X3X3X3X3X3X3X3X3Xd.K L.5X5X5X5X5X5X5X5X5X5X5X5X5X5X5.H [.3X3X3X3X3X3X",
"3X3X3X3X3X3X3X.X/ 5.5X5X5X5X5X5X5X5X5X5X5X5XK.) c.3X3X3X3X3X3X3X3X3X3X3X3X3X3Xp.) +X5X5X, , , 5X5X5X5X5X5X5X5.) '.3X3X3X3X3X3X3X",
"3X3X3X3X3X3X3X3XE.^ 6.5X5X5X5X5X5X5X5X5X5XK.j M.3X3X3X3X3X3X3X3X3X3X3X3X3X3X3X3Xg.h +X, n < < , 5X5X5X5X5X3.Y /.3X3X3X3X3X3X3X3X",
"3X3X3X3X3X3X3X3X3X.XK 0.5X5X5X5X5X5X5X5XA./ R.3X3X3X3X3X3X3X3X3X3X3X3X3X3X3X3X3X3Xg., n < < < , 5X5X5X5X3.^ XX3X3X3X3X3X3X3X3X3X",
"3X3X3X3X3X3X3X3X3X3X^.) q.5X5X5X5X5X5XG.T h.3X3X3X3X3X3X3X3X3X3X3X3X3X3X3X3X3X3X3X, n n < < , 5X5X5X5X3./ !.3X3X3X3X3X3X3X3X3X3X",
"3X3X3X3X3X3X3X3X3X3X3X(.D 7.5X5X5X5XS.U N.3X3X3X3X3X3X3X3X3X3X3X3X3X3X3X3X3X3X3X, n < < < , 5X5X5X5X7.K XX3X3X3X3X3X3X3X3X3X3X3X",
"3X3X3X3X3X3X3X3X3X3X3X3X[.) 5.5X5XK.( h.3X3X3X3X3X3X3X3X3X3X3X3X3X3X3X3X3X3X3X, n < < < < , @X5X5X7.` (.3X3X3X3X3X3X3X3X3X3X3X3X",
"3X3X3X3X3X3X3X3X3X3X3X3X3XW.W 5.L.g R.3X3X3X3X3X3X3X3X3X3X3X3X3X3X3X3X3X3X3X, n < < < < < n , U.3.J ).3X3X3X3X3X3X3X3X3X3X3X3X3X",
"3X3X3X3X3X3X3X3X3X3X3X3X3X3X|.h z N.3X3X3X3X3X3X3X3X3X3X3X3X3X3X3X3X3X3X3X, n < < < , n < < n , G  X3X3X3X3X3X3X3X3X3X3X3X3X3X3X",
"3X3X3X3X3X3X3X3X3X3X3X3X3X3Xz.h G ;.3X3X3X3X3X3X3X3X3X3X3X3X3X3X3X3X3X3X, n < < < , 3X, n < n , f W.3X3X3X3X3X3X3X3X3X3X3X3X3X3X",
"3X3X3X3X3X3X3X3X3X3X3X3X3Xp.! U.*XD :.3X3X3X3X3X3X3X3X3X3X3X3X3X3X3X3X, n < < < , 3X3X3X, n , <XD.^ x.3X3X3X3X3X3X3X3X3X3X3X3X3X",
"3X3X3X3X3X3X3X3X3X3X3X3Xj.^ G.5X5X%X) *.3X3X3X3X3X3X3X3X3X3X3X3X3X3X, n < < < < n , 3X3X#., #X5X5XV.~ E.3X3X3X3X3X3X3X3X3X3X3X3X",
"3X3X3X3X3X3X3X3X3X3X3Xg.v U.5X5X5X5X@XU *.3X3X3X3X3X3X3X3X3X3X3X3X, n < < , n < < n , #.J =X5X5X5X5XD.H n.3X3X3X3X3X3X3X3X3X3X3X",
"3X3X3X3X3X3X3X3X3X3Xh.) L.5X5X5X5X5X5X:X~ #.3X3X3X3X3X3X3X3X3X3X, n < < , 3X, n < n , ) =X5X5X5X5X5X5XA.) R.3X3X3X3X3X3X3X3X3X3X",
"3X3X3X3X3X3X3X3X3Xj.x P.5X5X5X5X5X5X5X5X+X/ *.3X3X3X3X3X3X3X3X, n < < , 3X3X3X, n , R #X5X5X5X5X5X5X5X5XG.j !.3X3X3X3X3X3X3X3X3X",
"3X3X3X3X3X3X3X3Xa./ U.5X5X5X5X5X5X5X5X5X5X:XH :.3X3X3X3X3X3X, n < < , 3X3X3X3X3X, ~ <X5X5X5X5X5X5X5X5X5X5XF.( c.3X3X3X3X3X3X3X3X",
"3X3X3X3X3X3X3Xh.W G.5X5X5X5X5X5X5X5X5X5X5X5X#X) >.3X3X3X3X, n < < , 3X3X3X3X3X@.) @X5X5X5X5X5X5X5X5X5X5X5X5XC.Y E.3X3X3X3X3X3X3X",
"3X3X3X3X3X3Xd.K U.5X5X5X5X5X5X5X5X5X5X5X5X5X5X#XH *.3X3X, n < < , 3X3X3X3X3X*.J :X5X5X5X5X5X5X5X5X5X5X5X5X5X5XD.T c.3X3X3X3X3X3X",
"3X3X3X3X3Xc.) G.5X5X5X5X5X5X5X5X5X5X5X5X5X5X5X, , , $., n < < , 3X3X3X3X3X*.` %X5X5X5X5X5X5X5X5X5X5X5X5X5X5X5X5XC.( !.3X3X3X3X3X",
"3X3X3X3Xc.d Y.5X5X5X5X5X5X5X5X5X5X5X5X5X5X, , n n n , n < < , 3X3X3X3X3X@.K $X5X5X5X5X5X5X5X5X5X5X5X5X5X5X5X5X5X5XF.l R.3X3X3X3X",
"3X3X3Xd.( +X5X5X5X5X5X5X5X5X5X5X5X5X5X5X, n n n , n n < < , 3X3X3X3X3X+./ <X5X5X5X5X5X5X5X5X5X5X5X5X5X5X5X5X5X5X5X5XG.) n.3X3X3X",
"3X3Xh.I G.5X5X5X5X5X5X5X5X5X5X5X5X5X5X5X, n n , X , < < , :.3X3X3X3X@.^ @X5X5X5X5X5X5X5X5X5X5X5X5X5X5X5X5X5X5X5X5X5X5XA.H W.3X3X",
"3Xa.W U.5X5X5X5X5X5X5X5X5X5X5X5X5X5X5X, n n , X X X , < < , -.3X3X$.Y 1X5X5X5X5X5X5X5X5X5X5X5X5X5X5X5X5X5X5X5X5X5X5X5X5XD.~ x.3X",
"k./ G.5X5X5X5X5X5X5X5X5X5X5X5X5X5X5X5X, n , X X X X X , < , ) %.$.) #X5X5X5X5X5X5X5X5X5X5X5X5X5X5X5X5X5X5X5X5X5X5X5X5X5X5XV.~ T.",
"u Y.5X5X5X5X5X5X5X5X5X5X5X5X5X5X5X5X5X, n n , X X X , < < , @Xa y *X5X5X5X5X5X5X5X5X5X5X5X5X5X5X5X5X5X5X5X5X5X5X5X5X5X5X5X5XD.p ",
"S #X5X5X5X5X5X5X5X5X5X5X5X5X5X5X5X5X5X5X, n < , X , < < , 5X4.Q K 5.5X5X5X5X5X5X5X5X5X5X5X5X5X5X5X5X5X5X5X5X5X5X5X5X5X5X5X5XI.c ",
"<.D Y.5X5X5X5X5X5X5X5X5X5X5X5X5X5X5X5X5X, < < < , < < < , 3.W ~.W.( 7.5X5X5X5X5X5X5X5X5X5X5X5X5X5X5X5X5X5X5X5X5X5X5X5X5X5XL.j H.",
"3Xp.) +X5X5X5X5X5X5X5X5X5X5X5X5X5X5X5X5X5X, , < < < , , 3.! XX3X3X[.F q.5X5X5X5X5X5X5X5X5X5X5X5X5X5X5X5X5X5X5X5X5X5X5X5XG.) b.3X",
"3X3Xa.v #X5X5X5X5X5X5X5X5X5X5X5X5X5X5X5X5X5X5X, , , 5X4.) ^.3X3X3X3X/.) 0.5X5X5X5X5X5X5X5X5X5X5X5X5X5X5X5X5X5X5X5X5X5XP.D h.3X3X",
"3X3X3Xp./ P.5X5X5X5X5X5X5X5X5X5X5X5X5X5X5X5X5X5X5X5X6.H }.3X3X3X3X3X3X^.J 6.5X5X5X5X5X5X5X5X5X5X5X5X5X5X5X5X5X5X5X5XF.~ b.3X3X3X",
"3X3X3X3X,.W #X5X5X5X5X5X5X5X5X5X5X5X5X5X5X5X5X5X5X5.` '.3X3X3X3X3X3X3X3X.X/ 5.5X5X5X5X5X5X5X5X5X5X5X5X5X5X5X5X5X5XP.~ d.3X3X3X3X",
"3X3X3X3X3Xi.K I.5X5X5X5X5X5X5X5X5X5X5X5X5X5X5X5X3.U (.3X3X3X3X3X3X3X3X3X3XE.^ 6.5X5X5X5X5X5X5X5X5X5X5X5X5X5X5X5XG.D b.3X3X3X3X3X",
"3X3X3X3X3X3Xy.) @X5X5X5X5X5X5X5X5X5X5X5X5X5X5X3./ XX3X3X3X3X3X3X3X3X3X3X3X3X.XI 8.5X5X5X5X5X5X5X5X5X5X5X5X5X5XL.) h.3X3X3X3X3X3X",
"3X3X3X3X3X3X3Xd.z @X5X5X5X5X5X5X5X5X5X5X5X5X3./ !.3X3X3X3X3X3X3X3X3X3X3X3X3X3X!.) q.5X5X5X5X5X5X5X5X5X5X5X5XI.l b.3X3X3X3X3X3X3X",
"3X3X3X3X3X3X3X3Xa.) I.5X5X5X5X5X5X5X5X5X5X6.I XX3X3X3X3X3X3X3X3X3X3X3X3X3X3X3X3X(.D 7.5X5X5X5X5X5X5X5X5X5XF./ n.3X3X3X3X3X3X3X3X",
"3X3X3X3X3X3X3X3X3Xt.U #X5X5X5X5X5X5X5X5X6.` (.3X3X3X3X3X3X3X3X3X3X3X3X3X3X3X3X3X3X].) 5.5X5X5X5X5X5X5X5XL.T f.3X3X3X3X3X3X3X3X3X",
"3X3X3X3X3X3X3X3X3X3Xi.W P.5X5X5X5X5X5X4.H `.3X3X3X3X3X3X3X2XN.&.{.3X3X3X3X3X3X3X3X3XW.W 5.5X5X5X5X5X5XF.U c.3X3X3X3X3X3X3X3X3X3X",
"3X3X3X3X3X3X3X3X3X3X3X,./ #X5X5X5X5X3.) .X{.X.} Z M 7 4 4 4 4 4 4 4 4 4 0 V _  .s.oX3X}.W 5.5X5X5X5XI.( f.3X3X3X3X3X3X3X3X3X3X3X",
"3X3X3X3X3X3X3X3X3X3X3X3Xp.v +X5X5X2.q C 9 4 4 4 4 4 4 4 4 4 4 4 4 4 4 4 4 4 4 4 4 4 r  .r.) 7.5X5XI.d m.3X3X3X3X3X3X3X3X3X3X3X3X",
"3X3X3X3X3X3X3X3X3X3X3X3X3Xd.) P.[ + 3 4 4 4 4 4 4 4 4 4 4 4 4 4 4 4 4 4 4 4 4 4 4 4 4 4 4 B t q.G.) m.3X3X3X3X3X3X3X3X3X3X3X3X3X",
"3X3X3X3X3X3X3X3X3X3X3X3X3X3Xu.2 o > 4 4 4 4 4 4 4 4 4 4 4 4 4 4 4 4 4 4 4 4 4 4 4 4 4 4 4 4 8 k i l.3X3X3X3X3X3X3X3X3X3X3X3X3X3X",
"3X3X3X3X3X3X3X3X3X3X3X3X3X3X%.# . = 4 4 4 4 4 4 4 4 4 4 4 4 4 4 4 4 4 4 4 4 4 4 4 4 4 4 4 4 & w h %.3X3X3X3X3X3X3X3X3X3X3X3X3X3X",
"3X3X3X3X3X3X3X3X3X3X3X3X3X#.) 1.% O : 4 4 4 4 4 4 4 4 4 4 4 4 4 4 4 4 4 4 4 4 4 4 4 4 4 4 = @ 9.:X^ #.3X3X3X3X3X3X3X3X3X3X3X3X3X",
"3X3X3X3X3X3X3X3X3X3X3X3X+.T #X5Xe.1   ; 4 4 4 4 4 4 4 4 4 4 4 4 4 4 4 4 4 4 4 4 4 4 4 4 * $ w.5X5X+X/ *.3X3X3X3X3X3X3X3X3X3X3X3X",
"3X3X3X3X3X3X3X3X3X3X3X+.~ 1X5X5X5X4X{ - 5 4 4 4 4 4 4 4 4 4 4 4 4 4 4 4 4 4 4 4 4 6 N ' L G.5X5X5X5X:XH :.3X3X3X3X3X3X3X3X3X3X3X",
"3X3X3X3X3X3X3X3X3X3X@.( @X5X5X5X5X5X5XD.z z.O.| E Z e 4 4 4 4 4 4 4 4 6 m N ] ..N.OXn.x K.5X5X5X5X5X5X@X) >.3X3X3X3X3X3X3X3X3X3X",
"3X3X3X3X3X3X3X3X3X-.J >X5X5X5X5X5X5X5X5XZ.( m.3X3X3X3X3X3X3X3X3X3X3X3X3X3X3X3X3X3Xf./ P.5X5X5X5X5X5X5X5X#XF *.3X3X3X3X3X3X3X3X3X",
"3X3X3X3X3X3X3X3X-.` $X5X5X5X5X5X5X5X5X5X5XB.T ^.3X3X3X3X3X3X3X3X3X3X3X3X3X3X3X3Xb.W D.5X5X5X5X5X5X5X5X5X5X-X( $.3X3X3X3X3X3X3X3X",
"3X3X3X3X3X3X3X@.J $X5X5X5X5X5X5X5X5X5X5X5X5XV.T m.3X3X3X3X3X3X3X3X3X3X3X3X3X3Xg.J L.5X5X5X5X5X5X5X5X5X5X5X5X+X! $.3X3X3X3X3X3X3X",
"3X3X3X3X3X3X+.( ,X5X5X5X5X5X5X5X5X5X5X5X5X5X5XB.( /.3X3X3X3X3X3X3X3X3X3X3X3XM.) F.5X5X5X5X5X5X5X5X5X5X5X5X5X5X;XT *.3X3X3X3X3X3X",
"3X3X3X3X3X+.^ @X5X5X5X5X5X5X5X5X5X5X5X5X5X5X5X5XZ.z W.3X3X3X3X3X3X3X3X3X3XN.s I.5X5X5X5X5X5X5X5X5X5X5X5X5X5X5X5X@X) -.3X3X3X3X3X",
"3X3X3X3X#.T 1X5X5X5X5X5X5X5X5X5X5X5X5X5X5X5X5X5X5XD.) N.3X3X3X3X3X3X3X3Xf.( I.5X5X5X5X5X5X5X5X5X5X5X5X5X5X5X5X5X5X*XD :.3X3X3X3X",
"3X3X3X$.) #X5X5X5X5X5X5X5X5X5X5X5X5X5X5X5X5X5X5X5X5XV.H ^.3X3X3X3X3X3Xb.I F.5X5X5X5X5X5X5X5X5X5X5X5X5X5X5X5X5X5X5X5X&X) *.3X3X3X",
"3X3X#.H *X5X5X5X5X5X5X5X5X5X5X5X5X5X5X5X5X5X5X5X5X5X5XC.~ n.3X3X3X3Xf.R L.5X5X5X5X5X5X5X5X5X5X5X5X5X5X5X5X5X5X5X5X5X5X@XY $.3X3X",
"3X#.) -X5X5X5X5X5X5X5X5X5X5X5X5X5X5X5X5X5X5X5X5X5X5X5X5XB.^ /.3X3Xm./ D.5X5X5X5X5X5X5X5X5X5X5X5X5X5X5X5X5X5X5X5X5X5X5X5X;X~ $.3X",
"o.W #X5X5X5X5X5X5X5X5X5X5X5X5X5X5X5X5X5X5X5X5X5X5X5X5X5X5XC.D J.v.z P.5X5X5X5X5X5X5X5X5X5X5X5X5X5X5X5X5X5X5X5X5X5X5X5X5X5X+X( =.",
"Q <X5X5X5X5X5X5X5X5X5X5X5X5X5X5X5X5X5X5X5X5X5X5X5X5X5X5X5X5XZ.G K L.5X5X5X5X5X5X5X5X5X5X5X5X5X5X5X5X5X5X5X5X5X5X5X5X5X5X5X5X;XG "
};
