/* XPM */
static char *result[] = {
/* columns rows colors chars-per-pixel */
"64 64 192 2 ",
"   c #910A00",
".  c #9C7C6C",
"X  c #9E7E6D",
"o  c #8E8B00",
"O  c #FFCB00",
"+  c #A48372",
"@  c #A68573",
"#  c #A78674",
"$  c #AB8571",
"%  c #A88675",
"&  c #A98775",
"*  c #AB8876",
"=  c #AC8A77",
"-  c #AD8A78",
";  c #B38C78",
":  c #B08D7A",
">  c #B18E7B",
",  c #B68C78",
"<  c #B4907D",
"1  c #B6917E",
"2  c #B7927F",
"3  c #BB9079",
"4  c #BC9079",
"5  c #BC907A",
"6  c #BC917A",
"7  c #BD917B",
"8  c #BD927B",
"9  c #BE927B",
"0  c #BE927C",
"q  c #BE937C",
"w  c #BF937C",
"e  c #BF937D",
"r  c #BF947D",
"t  c #BF947E",
"y  c #C0947D",
"u  c #C0947E",
"i  c #C0957E",
"p  c #C1957E",
"a  c #C0957F",
"s  c #C1957F",
"d  c #C1967F",
"f  c #FFDE5B",
"g  c #BB9682",
"h  c #BC9682",
"j  c #BD9783",
"k  c #BE9884",
"l  c #C19680",
"z  c #C09781",
"x  c #C19781",
"c  c #C29680",
"v  c #C29780",
"b  c #C29781",
"n  c #C39781",
"m  c #C39881",
"M  c #C29882",
"N  c #C39882",
"B  c #C39983",
"V  c #C49882",
"C  c #C49982",
"Z  c #C49983",
"A  c #C59983",
"S  c #C59A83",
"D  c #C19A86",
"F  c #C59A84",
"G  c #C59B85",
"H  c #C69B84",
"J  c #C69B85",
"K  c #C69C85",
"L  c #C79C86",
"P  c #C79D86",
"I  c #C89D87",
"U  c #C59E89",
"Y  c #C89E88",
"T  c #C8A08B",
"R  c #CAA28C",
"E  c #CFA690",
"W  c #D4AA93",
"Q  c #D7AC95",
"!  c #D6AC96",
"~  c #DAAE97",
"^  c #DCAF97",
"/  c #D8AE98",
"(  c #DBAF98",
")  c #DDB199",
"_  c #E7B59B",
"`  c #E5B59C",
"'  c #E4B59D",
"]  c #E5B69C",
"[  c #E6B69D",
"{  c #E6B79D",
"}  c #E5B79E",
"|  c #E7B79E",
" . c #E9B79C",
".. c #E7B89E",
"X. c #E6B89F",
"o. c #E8B89F",
"O. c #E8B99F",
"+. c #E9B99F",
"@. c #EBB99F",
"#. c #DDB8A4",
"$. c #DDB8A5",
"%. c #DEB9A5",
"&. c #DEB9A6",
"*. c #DEBAA6",
"=. c #DFBAA6",
"-. c #DFBAA7",
";. c #DFBBA7",
":. c #E4B8A0",
">. c #E7B9A0",
",. c #E9B9A0",
"<. c #E9BAA0",
"1. c #E8BAA1",
"2. c #EABAA0",
"3. c #EABAA1",
"4. c #EBBBA1",
"5. c #EBBBA2",
"6. c #EBBCA3",
"7. c #ECBCA2",
"8. c #ECBCA3",
"9. c #ECBDA3",
"0. c #EDBDA3",
"q. c #EEBCA2",
"w. c #E8BCA4",
"e. c #EBBCA4",
"r. c #EBBDA4",
"t. c #EDBDA4",
"y. c #EDBEA4",
"u. c #ECBEA5",
"i. c #EDBEA5",
"p. c #EEBEA4",
"a. c #EEBEA5",
"s. c #EEBFA5",
"d. c #EFBFA5",
"f. c #EFBFA6",
"g. c #E0BBA8",
"h. c #E0BCA9",
"j. c #E1BCA9",
"k. c #E1BDA9",
"l. c #E1BDAA",
"z. c #E2BDAA",
"x. c #E2BEAA",
"c. c #E2BEAB",
"v. c #E3BFAC",
"b. c #F0BDA3",
"n. c #EFC0A6",
"m. c #E3C0AD",
"M. c #E4C0AD",
"N. c #E4C1AE",
"B. c #E5C1AE",
"V. c #E5C2AF",
"C. c #E6C2AF",
"Z. c #F2C0A5",
"A. c #F0C0A6",
"S. c #F0C0A7",
"D. c #F1C1A7",
"F. c #F4C1A7",
"G. c #F1C1A8",
"H. c #F0C2A9",
"J. c #F2C2A8",
"K. c #F2C2A9",
"L. c #F3C3A9",
"P. c #F3C3AA",
"I. c #F6C3A9",
"U. c #F3C4AA",
"Y. c #F4C4AA",
"T. c #F4C5AB",
"R. c #F5C5AB",
"E. c #F7C6AB",
"W. c #F5C5AC",
"Q. c #F4C5AD",
"!. c #F4C6AD",
"~. c #F6C6AC",
"^. c #F7C7AD",
"/. c #F8C6AC",
"(. c #E6C3B0",
"). c #E7C4B1",
"_. c #E8C5B2",
"`. c #E8C6B3",
"'. c #E9C6B3",
"]. c #E9C6B4",
"[. c #E9C7B4",
"{. c #EAC7B5",
"}. c #EAC8B5",
"|. c #EBC8B6",
" X c #EBC9B6",
".X c #EBC9B7",
"XX c #ECC9B7",
"oX c #ECCAB7",
"OX c #ECCAB8",
"+X c #FECBB0",
"@X c #FFCCB1",
"#X c #F1D0BE",
/* pixels */
"b =.#X#X#X#X#X#X#X#X#X#X#X#X#X#X#X#X#X#X#X#X#X#X#X#X#X#X#X#Xl.e l m.#X#X#X#X#X#X#X#X#X#X#X#X#X#X#X#X#X#X#X#X#X#X#X#X#X#X#X#X%.B ",
"I.I &.#X#X#X#X#X#X#X#X#X#X#X#X#X#X#X#X#X#X#X#X#X#X#X#X#X#Xv.L 9.1.K (.#X#X#X#X#X#X#X#X#X#X#X#X#X#X#X#X#X#X#X#X#X#X#X#X#X#X&.Y F.",
"@XD.S %.#X#X#X#X#X#X#X#X#X#X#X#X#X#X#X#X#X#X#X#X#X#X#X#Xv.y A.@X@X7.d B.#X#X#X#X#X#X#X#X#X#X#X#X#X#X#X#X#X#X#X#X#X#X#X#X$.n Y.@X",
"@X@XW.F %.#X#X#X#X#X#X#X#X#X#X#X#X#X#X#X#X#X#X#X#X#X#Xc.I d.@X@X@X@X5.I V.#X#X#X#X#X#X#X#X#X#X#X#X#X#X#X#X#X#X#X#X#X#X#.I W.@X@X",
"@X@X@XD.I *.#X#X#X#X#X#X#X#X#X#X#X#X#X#X#X#X#X#X#X#Xv.c y.@X@X@X@X@X@X7.p ).#X#X#X#X#X#X#X#X#X#X#X#X#X#X#X#X#X#X#X#X#.H J.@X@X@X",
"@X@X@X@XR.c ;.#X#X#X#X#X#X#X#X#X#X#X#X#X#X#X#X#X#Xk.J n.@X@X@X@X@X@X@X@X7.L m.#X#X#X#X#Xo o o #X#X#X#X#X#X#X#X#X#X#.F ^.@X@X@X@X",
"@X@X@X@X@XL.I -.#X#X#X#X#X#X#X#X#X#X#X#X#X#X#X#Xv.J 8.@X@X@X@X@X@X@X@X@X@X2.F (.#X#X#Xo f O O o #X#X#X#X#X#X#X#X$.I J.@X@X@X@X@X",
"@X@X@X@X@X@XJ.N &.#X#X#X#X#X#X#X#X#X#X#X#X#X#Xc.c n.@X@X@X@X@X@X@X@X@X@X@X@X5.N M.#Xo f O O O o #X#X#X#X#X#X#X%.n R.@X@X@X@X@X@X",
"@X@X@X@X@X@X@X~.L %.#X#X#X#X#X#X#X#X#X#X#X#Xm.I y.@X@X@X@X@X@X@X@X@X@X@X@X@X@X3.I o f f O O o #X#X#X#X#X#X#X%.I Y.@X@X@X@X@X@X@X",
"@X@X@X@X@X@X@X@XS.K &.#X#X#X#X#X#X#X#X#X#Xm.r d.@X@X@X@X@X@X@X@X@X@X@X@X@X@X@X@Xo f O O O o #X#X#X#X#X#X#X#.Z K.@X@X@X@X@X@X@X@X",
"@X@X@X@X@X@X@X@X@X~.N -.#X#X#X#X#X#X#X#Xl.L A.@X@X@X@X@X@X@X@X@X@X@X@X@X@X@X@Xo f O O O O o #X#X#X#X#X#X#.K ^.@X@X@X@X@X@X@X@X@X",
"@X@X@X@X@X@X@X@X@X@XJ.I ;.#X#X#X#X#X#Xv.A 9.@X@X@X@X@X@X@X@X@X@X@X@X@X@X@X@Xo f O O O O O f o #X#X#X#X#.L G.@X@X@X@X@X@X@X@X@X@X",
"@X@X@X@X@X@X@X@X@X@X@XL.c *.#X#X#X#Xz.C f.@X@X@X@X@X@X@X@X@X@X@X@X@X@X@X@Xo f O O O o f O O f o #X#X*.N ^.@X@X@X@X@X@X@X@X@X@X@X",
"@X@X@X@X@X@X@X@X@X@X@X@XR.I %.#X#Xm.P 9.@X@X@X@X@X@X@X@X@X@X@X@X@X@X@X@Xo f O O O o @Xo f O f o #X*.Y L.@X@X@X@X@X@X@X@X@X@X@X@X",
"@X@X@X@X@X@X@X@X@X@X@X@X@XD.F %.M.w A.@X@X@X@X@X@X@X@X@X@X@X@X@X@X@X@Xo f O O O o @X@X@Xo f o V.#.m P.@X@X@X@X@X@X@X@X@X@X@X@X@X",
"@X@X@X@X@X@X@X@X@X@X@X@X@X@XQ.e u f.@X@X@X@X@X@X@X@X@X@X@X@X@X@X@X@Xo f O O O O f o @X@X@Xo 7.t b !.@X@X@X@X@X@X@X@X@X@X@X@X@X@X",
"@X@X@X@X@X@X@X@X@X@X@X@X@X@Xr.e b X.@X@X@X@X@X@X@X@X@X@X@X@X@X@X@Xo f O O o f O O f o @X@X@X' i q D.@X@X@X@X@X@X@X@X@X@X@X@X@X@X",
"@X@X@X@X@X@X@X@X@X@X@X@X@X3.H V.[.c o.@X@X@X@X@X@X@X@X@X@X@X@X@Xo f O O o @Xo f O f o @X@X[ S oXx.K t.@X@X@X@X@X@X@X@X@X@X@X@X@X",
"@X@X@X@X@X@X@X@X@X@X@X@X0.K v.#X#X'.I | @X@X@X@X@X@X@X@X@X@X@Xo f O O o @X@X@Xo f o @X@X[ I _.#X#Xh.J S.@X@X@X@X@X@X@X@X@X@X@X@X",
"@X@X@X@X@X@X@X@X@X@X@X8.s V.#X#X#X#X).C | @X@X@X@X@X@X@X@X@Xo f O O o @X@X@X@X@Xo @X@X[ m {.#X#X#X#Xx.n a.@X@X@X@X@X@X@X@X@X@X@X",
"@X@X@X@X@X@X@X@X@X@X9.I M.#X#X#X#X#X#X XJ [ @X@X@X@X@X@X@Xo f O O o @X@X@X@X@X@X@X@X[ I {.#X#X#X#X#X#Xl.I A.@X@X@X@X@X@X@X@X@X@X",
"@X@X@X@X@X@X@X@X@X0.p N.#X#X#X#X#X#X#X#X(.L | @X@X@X@X@Xo f O O o @X@X@X@X@X@X@X@X` S _.#X#X#X#X#X#X#X#Xv.r G.@X@X@X@X@X@X@X@X@X",
"@X@X@X@X@X@X@X@X4.L V.#X#X#X#X#X#X#X#X#X#X Xn o o o @Xo f O O o @X@X@X@X@X@X@X@X] J oX#X#X#X#X#X#X#X#X#X#Xc.P y.@X@X@X@X@X@X@X@X",
"@X@X@X@X@X@X@X9.F v.#X#X#X#X#X#X#X#X#X#X#Xo o f f f o f O O o @X@X@X@X@X@X@X@X] I ).#X#X#X#X#X#X#X#X#X#X#X#Xj.Z S.@X@X@X@X@X@X@X",
"@X@X@X@X@X@X5.N V.#X#X#X#X#X#X#X#X#X#X#Xo f f f o f f O O o @X@X@X@X@X@X@X@X| m  X#X#X#X#X#X#X#X#X#X#X#X#X#X#Xx.A y.@X@X@X@X@X@X",
"@X@X@X@X@Xy.I v.#X#X#X#X#X#X#X#X#X#X#X#Xo f f o   o O O o @X@X@X@X@X@X@X@X| Y '.#X#X#X#X#X#X#X#X#X#X#X#X#X#X#X#Xj.P G.@X@X@X@X@X",
"@X@X@X@Xy.0 C.#X#X#X#X#X#X#X#X#X#X#X#Xo f f o       o O O o @X@X@X@X@X@X] N `.#X#X#X#X#X#X#X#X#X#X#X#X#X#X#X#X#X#Xc.y A.@X@X@X@X",
"@X@X@X5.P (.#X#X#X#X#X#X#X#X#X#X#X#X#Xo f o           o O o @X@X@X@X@X` L oX#X#X#X#X#X#X#X#X#X#X#X#X#X#X#X#X#X#X#X#Xv.I a.@X@X@X",
"@X@X9.V v.#X#X#X#X#X#X#X#X#X#X#X#X#X#Xo f f o       o O O o @X@X@X@X] K ).#X#X#X#X#X#X#X#X#X#X#X#X#X#X#X#X#X#X#X#X#X#Xl.n D.@X@X",
"@X4.F V.#X#X#X#X#X#X#X#X#X#X#X#X#X#X#X#Xo f O o   o O O o c ..@X@X{ Z OX#X#X#X#X#X#X#X#X#X#X#X#X#X#X#X#X#X#X#X#X#X#X#X#Xx.J t.@X",
"q.L v.#X#X#X#X#X#X#X#X#X#X#X#X#X#X#X#X#Xo O O O o O O O o [.I } { I _.#X#X#X#X#X#X#X#X#X#X#X#X#X#X#X#X#X#X#X#X#X#X#X#X#X#Xh.J Z.",
"5 C.#X#X#X#X#X#X#X#X#X#X#X#X#X#X#X#X#X#X#Xo o O O O o o #X#X).8 4 [.#X#X#X#X#X#X#X#X#X#X#X#X#X#X#X#X#X#X#X#X#X#X#X#X#X#X#X#Xx.7 ",
"x _.#X#X#X#X#X#X#X#X#X#X#X#X#X#X#X#X#X#X#X#X#Xo o o #X#X#X#X$.G N %.#X#X#X#X#X#X#X#X#X#X#X#X#X#X#X#X#X#X#X#X#X#X#X#X#X#X#X#XB.a ",
"@.c C.#X#X#X#X#X#X#X#X#X#X#X#X#X#X#X#X#X#X#X#X#X#X#X#X#X#X#.F H.D.P *.#X#X#X#X#X#X#X#X#X#X#X#X#X#X#X#X#X#X#X#X#X#X#X#X#X#XM.r b.",
"@X3.I (.#X#X#X#X#X#X#X#X#X#X#X#X#X#X#X#X#X#X#X#X#X#X#X#X#.H ^.@X@XR.v ;.#X#X#X#X#X#X#X#X#X#X#X#X#X#X#X#X#X#X#X#X#X#X#X#Xv.I p.@X",
"@X@X4.s _.#X#X#X#X#X#X#X#X#X#X#X#X#X#X#X#X#X#X#X#X#X#X$.I J.@X@X@X@XK.I -.#X#X#X#X#X#X#X#X#X#X#X#X#X#X#X#X#X#X#X#X#X#XN.c 9.@X@X",
"@X@X@X3.L N.#X#X#X#X#X#X#X#X#X#X#X#X#X#X#X#X#X#X#X#X&.n W.@X@X@X@X@X@XJ.m &.#X#X#X#X#X#X#X#X#X#X#X#X#X#X#X#X#X#X#X#Xc.J p.@X@X@X",
"@X@X@X@X+.F _.#X#X#X#X#X#X#X#X#X#X#X#X#X#X#X#X#X#X%.Y Y.@X@X@X@X@X@X@X@X~.L %.#X#X#X#X#X#X#X#X#X#X#X#X#X#X#X#X#X#XN.J 5.@X@X@X@X",
"@X@X@X@X@X2.N B.#X#X#X#X#X#X#X#X#X#X#X#X#X#X#X#X#.C L.@X@X@X@X@X@X@X@X@X@XS.K &.#X#X#X#X#X#X#X#X#X#X#X#X#X#X#X#Xv.c p.@X@X@X@X@X",
"@X@X@X@X@X@X<.I ).#X#X#X#X#X#X#X#X#X#X#X#X#X#X#.L ^.@X@X@X@X@X@X@X@X@X@X@X@X~.V =.#X#X#X#X#X#X#X#X#X#X#X#X#X#XM.I 9.@X@X@X@X@X@X",
"@X@X@X@X@X@X@X5.u ).#X#X#X#X#X#X#X#X#X#X#X#X#.L G.@X@X@X@X@X@X@X@X@X@X@X@X@X@XG.I ;.#X#X#X#X#X#X#X#X#X#X#X#XB.y p.@X@X@X@X@X@X@X",
"@X@X@X@X@X@X@X@X4.I B.#X#X#X#X#X#X#X#X#X#X&.V ^.@X@X@X@X@X@X@X@X@X@X@X@X@X@X@X@XL.c *.#X#X#X#X#X#X#X#X#X#Xc.L a.@X@X@X@X@X@X@X@X",
"@X@X@X@X@X@X@X@X@X,.C _.#X#X#X#X#X#X#X#X&.Y L.@X@X@X@X@X@X@X@X@X@X@X@X@X@X@X@X@X@XT.I %.#X#X#X#X#X#X#X#XM.A 7.@X@X@X@X@X@X@X@X@X",
"@X@X@X@X@X@X@X@X@X@X2.F N.#X#X#X#X#X#X$.n U.@X@X@X@X@X@X@X@X/.>.i.+X@X@X@X@X@X@X@X@XD.F %.#X#X#X#X#X#Xc.C y.@X@X@X@X@X@X@X@X@X@X",
"@X@X@X@X@X@X@X@X@X@X@X+.L _.#X#X#X#X#.I ~.@X+X1.Q D g % @ @ @ @ @ @ @ @ : j T ) D.@X@XW.F %.#X#X#X#XB.P 7.@X@X@X@X@X@X@X@X@X@X@X",
"@X@X@X@X@X@X@X@X@X@X@X@X3.s (.#X#X#.J i.( 2 # @ @ @ @ @ @ @ @ @ @ @ @ @ @ @ @ @ @ & U 6.A.I *.#X#XB.0 s.@X@X@X@X@X@X@X@X@X@X@X@X",
"@X@X@X@X@X@X@X@X@X@X@X@X@X5.I V.$.B ! @ @ @ @ @ @ @ @ @ @ @ @ @ @ @ @ @ @ @ @ @ @ @ @ @ < :.c ;.v.I s.@X@X@X@X@X@X@X@X@X@X@X@X@X",
"@X@X@X@X@X@X@X@X@X@X@X@X@X@X1.3 Z / @ @ @ @ @ @ @ @ @ @ @ @ @ @ @ @ @ @ @ @ @ @ @ @ @ @ @ = w.M 6 e.@X@X@X@X@X@X@X@X@X@X@X@X@X@X",
"@X@X@X@X@X@X@X@X@X@X@X@X@X@X} 8 B 1 @ @ @ @ @ @ @ @ @ @ @ @ @ @ @ @ @ @ @ @ @ @ @ @ @ @ @ @ ^ l e } @X@X@X@X@X@X@X@X@X@X@X@X@X@X",
"@X@X@X@X@X@X@X@X@X@X@X@X@X[ I [.g.; X @ @ @ @ @ @ @ @ @ @ @ @ @ @ @ @ @ @ @ @ @ @ @ @ @ @ + z x. XK [ @X@X@X@X@X@X@X@X@X@X@X@X@X",
"@X@X@X@X@X@X@X@X@X@X@X@X` A _.#X#Xg.$ . @ @ @ @ @ @ @ @ @ @ @ @ @ @ @ @ @ @ @ @ @ @ @ @ * , M.#X#X(.L | @X@X@X@X@X@X@X@X@X@X@X@X",
"@X@X@X@X@X@X@X@X@X@X@X` J OX#X#X#X#Xh.G W h % @ @ @ @ @ @ @ @ @ @ @ @ @ @ @ @ @ @ - R ) I v.#X#X#X#X Xn o.@X@X@X@X@X@X@X@X@X@X@X",
"@X@X@X@X@X@X@X@X@X@X] P ).#X#X#X#X#X#Xx.u K.+X6.~ U k > @ @ @ @ @ @ @ @ 2 h E ) E.@Xa.p m.#X#X#X#X#X#X).I O.@X@X@X@X@X@X@X@X@X@X",
"@X@X@X@X@X@X@X@X@X..m .X#X#X#X#X#X#X#X#Xk.P s.@X@X@X@X@X@X@X@X@X@X@X@X@X@X@X@X@X@X7.L N.#X#X#X#X#X#X#X#X_.v | @X@X@X@X@X@X@X@X@X",
"@X@X@X@X@X@X@X@X..Y `.#X#X#X#X#X#X#X#X#X#Xg.A J.@X@X@X@X@X@X@X@X@X@X@X@X@X@X@X@Xp.F x.#X#X#X#X#X#X#X#X#X#X}.P { @X@X@X@X@X@X@X@X",
"@X@X@X@X@X@X@X] m `.#X#X#X#X#X#X#X#X#X#X#X#Xh.A s.@X@X@X@X@X@X@X@X@X@X@X@X@X@X8.m M.#X#X#X#X#X#X#X#X#X#X#X#X(.H { @X@X@X@X@X@X@X",
"@X@X@X@X@X@X` P XX#X#X#X#X#X#X#X#X#X#X#X#X#X#Xg.P K.@X@X@X@X@X@X@X@X@X@X@X@Xd.I c.#X#X#X#X#X#X#X#X#X#X#X#X#X#X|.A | @X@X@X@X@X@X",
"@X@X@X@X@X` K ).#X#X#X#X#X#X#X#X#X#X#X#X#X#X#X#Xk.u D.@X@X@X@X@X@X@X@X@X@Xf.9 B.#X#X#X#X#X#X#X#X#X#X#X#X#X#X#X#X).I ..@X@X@X@X@X",
"@X@X@X@X[ A OX#X#X#X#X#X#X#X#X#X#X#X#X#X#X#X#X#X#Xx.I f.@X@X@X@X@X@X@X@X7.P B.#X#X#X#X#X#X#X#X#X#X#X#X#X#X#X#X#X#X[.c o.@X@X@X@X",
"@X@X@X{ I _.#X#X#X#X#X#X#X#X#X#X#X#X#X#X#X#X#X#X#X#Xh.n J.@X@X@X@X@X@Xp.V c.#X#X#X#X#X#X#X#X#X#X#X#X#X#X#X#X#X#X#X#X].I | @X@X@X",
"@X@X[ n [.#X#X#X#X#X#X#X#X#X#X#X#X#X#X#X#X#X#X#X#X#X#Xj.J a.@X@X@X@X7.S M.#X#X#X#X#X#X#X#X#X#X#X#X#X#X#X#X#X#X#X#X#X#X).Z { @X@X",
"@X[ I }.#X#X#X#X#X#X#X#X#X#X#X#X#X#X#X#X#X#X#X#X#X#X#X#Xg.K K.@X@Xs.L x.#X#X#X#X#X#X#X#X#X#X#X#X#X#X#X#X#X#X#X#X#X#X#X#X|.J { @X",
"_ F _.#X#X#X#X#X#X#X#X#X#X#X#X#X#X#X#X#X#X#X#X#X#X#X#X#X#Xj.c n.u.u N.#X#X#X#X#X#X#X#X#X#X#X#X#X#X#X#X#X#X#X#X#X#X#X#X#X#X(.P  .",
"G oX#X#X#X#X#X#X#X#X#X#X#X#X#X#X#X#X#X#X#X#X#X#X#X#X#X#X#X#Xk.b N M.#X#X#X#X#X#X#X#X#X#X#X#X#X#X#X#X#X#X#X#X#X#X#X#X#X#X#X#X|.b "
};
