/* XPM */
static char *result[] = {
/* columns rows colors chars-per-pixel */
"64 64 213 2 ",
"   c black",
".  c #222318",
"X  c #0F1226",
"o  c #20222B",
"O  c #282C49",
"+  c #4B4B4B",
"@  c #7C5F50",
"#  c #7E6253",
"$  c #7F6354",
"%  c #806355",
"&  c #806455",
"*  c #806456",
"=  c #816556",
"-  c #816657",
";  c #826657",
":  c #826658",
">  c #90705F",
",  c #927262",
"<  c #967766",
"1  c #967767",
"2  c #9A7765",
"3  c #967867",
"4  c #977868",
"5  c #927A6D",
"6  c #937C6F",
"7  c #9A7A69",
"8  c #9A7A6A",
"9  c #9B7C6B",
"0  c #9C7C6B",
"q  c #9C7C6C",
"w  c #9C7D6C",
"e  c #9E7E6E",
"r  c #947D71",
"t  c #957E71",
"y  c #967F73",
"u  c #968073",
"i  c #998073",
"p  c #988175",
"a  c #988275",
"s  c #988276",
"d  c #998276",
"f  c #9A8378",
"g  c #9D877C",
"h  c #9F897D",
"j  c #B99F67",
"k  c #A18170",
"l  c #A78472",
"z  c #A68573",
"x  c #A78674",
"c  c #AC8773",
"v  c #A98775",
"b  c #AC8A77",
"n  c #A0887B",
"m  c #B18976",
"M  c #B08D7A",
"N  c #B38E7B",
"B  c #B5907C",
"V  c #B4907D",
"C  c #B6927E",
"Z  c #B7927F",
"A  c #BC907A",
"S  c #BD917B",
"D  c #BE927C",
"F  c #BF937D",
"G  c #BF947D",
"H  c #C0947D",
"J  c #C0947E",
"K  c #C1957E",
"L  c #C0957F",
"P  c #C1957F",
"I  c #C1967F",
"U  c #475091",
"Y  c #A48D81",
"T  c #A79084",
"R  c #AD9588",
"E  c #B89380",
"W  c #B19788",
"Q  c #B2998C",
"!  c #B49B8E",
"~  c #BAA193",
"^  c #BFA597",
"/  c #C19680",
"(  c #C19781",
")  c #C29680",
"_  c #C29781",
"`  c #C39781",
"'  c #C29881",
"]  c #C39881",
"[  c #C29882",
"{  c #C39882",
"}  c #C39983",
"|  c #C39A83",
" . c #C49882",
".. c #C49983",
"X. c #C59983",
"o. c #C59A83",
"O. c #C59A84",
"+. c #C59B85",
"@. c #C69B85",
"#. c #C69C85",
"$. c #C79C86",
"%. c #C79D86",
"&. c #C89D87",
"*. c #C59E89",
"=. c #C89E88",
"-. c #C4A99A",
";. c #C8A998",
":. c #CBAD9D",
">. c #D2A892",
",. c #D7AC95",
"<. c #DBAF98",
"1. c #DDB199",
"2. c #DFB39B",
"3. c #E0B49B",
"4. c #E3B49B",
"5. c #E7B59B",
"6. c #E5B59C",
"7. c #E5B69C",
"8. c #E5B69D",
"9. c #E6B69D",
"0. c #E6B79D",
"q. c #E5B79F",
"w. c #E7B79E",
"e. c #E9B79C",
"r. c #E7B89E",
"t. c #E8B89F",
"y. c #E8B99F",
"u. c #E9B99F",
"i. c #EBB99F",
"p. c #CEB2A2",
"a. c #D1B4A5",
"s. c #D4B7A7",
"d. c #D8B7A5",
"f. c #DDB8A4",
"g. c #DDB8A5",
"h. c #DEB9A5",
"j. c #DEB9A6",
"k. c #DEBAA6",
"l. c #DFBAA6",
"z. c #DFBAA7",
"x. c #DFBBA7",
"c. c #DABCAC",
"v. c #E9BAA0",
"b. c #E8BAA1",
"n. c #EABAA0",
"m. c #EABAA1",
"M. c #EBBBA1",
"N. c #EBBBA2",
"B. c #EBBCA3",
"V. c #ECBCA2",
"C. c #ECBCA3",
"Z. c #ECBDA3",
"A. c #EDBDA3",
"S. c #EEBCA2",
"D. c #EDBDA4",
"F. c #EDBEA4",
"G. c #ECBEA5",
"H. c #EEBEA4",
"J. c #EEBEA5",
"K. c #EFBFA5",
"L. c #E1BCA9",
"P. c #E1BDA9",
"I. c #E1BDAA",
"U. c #E2BEAA",
"Y. c #E2BEAB",
"T. c #E3BFAC",
"R. c #F0BDA3",
"E. c #DEC0AF",
"W. c #E3C0AD",
"Q. c #E4C0AD",
"!. c #E4C1AE",
"~. c #E5C1AE",
"^. c #E5C2AF",
"/. c #E6C2AF",
"(. c #F2C0A5",
"). c #F0C0A6",
"_. c #F0C0A7",
"`. c #F1C1A7",
"'. c #F4C1A7",
"]. c #F1C1A8",
"[. c #F2C2A8",
"{. c #F3C3A9",
"}. c #F1C3AA",
"|. c #F6C3A9",
" X c #F4C4AA",
".X c #F5C5AB",
"XX c #F6C5AB",
"oX c #F7C6AB",
"OX c #F5C5AC",
"+X c #F6C6AC",
"@X c #FAC8AE",
"#X c #FFD4AC",
"$X c #E0C1B1",
"%X c #E6C3B0",
"&X c #E7C4B1",
"*X c #E8C5B2",
"=X c #E8C6B3",
"-X c #E9C6B3",
";X c #E9C7B4",
":X c #EAC8B5",
">X c #EBC8B6",
",X c #EBC9B6",
"<X c #EBC9B7",
"1X c #ECCAB7",
"2X c #E9C9B8",
"3X c #EACAB9",
"4X c #EDCDBB",
"5X c #FDCAB0",
"6X c #FECBB0",
"7X c #FFCCB1",
"8X c #F0CFBD",
"9X c #F1D0BE",
"0X c #FFE2A4",
/* pixels */
"_ l.9X9X9X9X9X9X9X9X9X9X9X9X9X9X9X                  9X9X9X9XI.F / W.9X9X9X9X9X9X9X9X9X9X9X9X9X9X9X9X9X9X9X9X9X9X9X9X9X9X9X9Xh.} ",
"|.&.j.9X9X9X9X9X9X9X9X9X9X9X9X    . . . . . . . . .   9X9XT.$.Z.b.#.%X9X9X9X9X9X9X9X          9X9X9X            9X9X9X9X9Xj.=.'.",
"7X`.o.h.9X9X9X9X9X9X9X9X9X9X    . . . . . . . . . .     T.H ).7X7XV.I ~.9X9X9X9X    0X0Xj 0X0X  9X  0X0X0Xj j 0X  9X9X9Xg.`  X7X",
"7X7XOXO.h.9X9X9X9X9X9X9X9X9X  . . . . . . . . . . . .   &.K.7X7X7X7XN.&.^.      0X0Xj j 0X0X0X0X  0X0X0X0X0X0Xj j     f.&.OX7X7X",
"7X7X7X`.&.k.9X9X9X9X9X9X9X  . . . . . . . . . . . . .   F.7X7X7X7X7X7X    0X0X0X0Xj j 0X0X0X0X0X  0X0X0X0X0X0X0Xj 0X0X  [.7X7X7X",
"7X7X7X7X.X) x.9X9X9X9X9X9X  . . . . . . . . . . . . .   7X7X7X7X7X7X  0X0X0X0Xj j 0X0X0X0X0X0X0X0X0X0Xj j 0X0X0X0Xj 0X0X  7X7X7X",
"7X7X7X7X7X{.&.z.9X9X9X9X9X  . . . . . . . . . . . . .   7X7X7X7X7X  0X0X0X0Xj j 0X0X0X0X0X0X0X0X0X0X0X0X0Xj j 0X0X0X0X0X  7X7X7X",
"7X7X7X7X7X7X[.{ j.9X9X9X9X  . . . . . . . . . . . . .     7X7X7X7X  0X0X0Xj j 0X0X0X0X0Xj j j j 0X0X0X0X0X0X0Xj j 0X0X0X  7X7X7X",
"7X7X7X7X7X7X7X+X$.h.        . . . . . . . . . . . . .   .   7X7X  0X0X0Xj j 0X0X0X0Xj j 0X0X0X0X0X      0X0X0X0X0Xj 0X0X0X  7X7X",
"7X7X7X7X7X7X7X7X_.#.  . .   . . . . . . . . . . . . .   . .   7X  0X0Xj j 0Xj j j 0Xj 0X0X0X0X      #X#X    0X0X0Xj j 0X0X  7X7X",
"7X7X7X7X7X7X7X7X7X    . . . . . . . . . . . . . . . . . . .       0X0X0Xj j 0X0X0Xj 0X0X0X0X  #X#X#X#X#X#X#X  0X0X0X0X0X0X  7X7X",
"7X7X7X7X7X7X7X7X7X7X  . . . . . . . . . . . . . . . . . . . .     0X0X0Xj 0X0X0Xj 0X0X0X0X0X  #X#X#X#X#X#X#X#X  0X0X0X0X0X  7X7X",
"7X7X7X7X7X7X7X7X7X7X7X  . . . . . . . . . . . . . . . . . .     0X0Xj j 0X0X0Xj j 0X0X0X0X  #X#X#X#X#X#X#X#X#X#X  0X0X0X0X  7X7X",
"7X7X7X7X7X7X7X7X7X7X7X7X        . . . . . . . . . .         7X  0X0Xj 0X0X0Xj j 0X0X0X0X  #X#X#X#X#X#X#X#X#X#X#X#X  0X0X0X  7X7X",
"7X7X7X7X7X7X7X7X7X7X7X7X7X  + +                     + +   7X7X  0Xj j 0X0X0Xj 0X0X0X0X  #X#X#X#X#X#X#X#X#X#X#X#X#X  0X0X  7X7X7X",
"7X7X7X7X7X7X7X7X7X7X7X7X7X  + + + + + + + + + + +         7X7X  0Xj 0X0X0X0X0X        7X  #X#X#X#X#X#X  7X  #X#X#X#X      7X7X7X",
"7X7X7X7X7X7X7X7X7X7X7X7X7X  + + + + + + + + + + + + + +   7X7X  0Xj 0X0X      #X#X7X7X  7X#X#X#X#X#X#X7X  7X#X#X#X#X#X#X  7X7X7X",
"7X7X7X7X7X7X7X7X7X7X7X7X7X  + + + + + + + + + + + + + +   7X7X  0X0X0X  #X#X#X#X#X#X  #X  #X#X#X#X#X#X  #X  #X#X#X#X#X#X  7X7X7X",
"7X7X7X7X7X7X7X7X7X7X7X7XA.  + + + + + + + + + + + + + +   7X7X  0X0X0X  #X#X#X#X#X#X#X#X#X#X#X#X#X#X#X#X#X#X#X#X#X#X      7X7X7X",
"7X7X7X7X7X7X7X7X7X7X7XC.P   + + + + + + + + + + + + + +   7X7X  0X0X0X  #X#X#X#X#X#X#X#X#X#X#X#X#X#X#X#X#X#X#X#X#X#X  7X7X7X7X7X",
"7X7X7X7X7X7X7X7X7X7XZ.&.          + + + + + + +   + +     7X7X7X      #X#X#X#X#X#X#X#X#X#X              #X#X#X#X#X  7X7X7X7X7X7X",
"7X7X7X7X7X7X7X7X7XA.K     . . . .   + + + + + + +       7X7X7X7X7X7X7X  #X#X#X#X#X#X#X#X#X9X#X#X  #X  #X#X#X      7X7X7X7X7X7X7X",
"7X7X7X7X7X7X7X7XM.$.    . . . . . .   + + + + + + + +   7X7X7X7X7X7X7X7X        #X#X#X#X#X#X#X#X#X  #X#X#X  %.F.7X7X7X7X7X7X7X7X",
"7X7X7X7X7X7X7XZ.O.    . . . . . . . .       + + + +   .   7X7X7X7X7X7X7X7X7X7X7.  #X#X#X#X#X#X#X#X#X#X#X  9XL..._.7X7X7X7X7X7X7X",
"7X7X7X7X7X7XN.{ ^.  . . . . . . . . . . . .               7X7X7X7X7X7X7X7X7Xw.] ,X        #X#X#X#X#X#X  9X9X9XU.X.F.7X7X7X7X7X7X",
"7X7X7X7X7XF.&.T.9X  . . . . . . . . . . . . . . . . . .   7X7X7X7X7X7X7X7Xw.=.-X9X9X9X9X9X  #X#X#X#X  9X    9X9XL.%.].7X7X7X7X7X",
"7X7X7X7XF.D /.9X9X  . . . . . . . . . .     . . . . . .   7X7X7X7X7X7X7X7.{ =X9X          #X#X#X#X      o o   9X9XY.H ).7X7X7X7X",
"7X7X7XN.%.%X9X9X9X    . . . . . .       . .     . . . .   7X7X7X7X7X7X  $.      O O O O     #X#X#X    O     O       T.  J.7X7X7X",
"7X7XZ. .T.9X9X9X9X  .   . . . .   . . . . . .   . . .     t.7X7X7X7X  O   U U   O                       O O O   U U   O   `.7X7X",
"7XM.O.^.9X9X9X9X9X  . .           . . . . . . .             r.7X7X  O O           .     . . . . . . . .       U U U   O O   D.7X",
"S.$.T.9X9X9X9X9X9X  . . . . .   . . . . . . . . .     . .   &.            . . . . . . . . . . . . . . . . .   U U U   O O O   (.",
"A /.9X9X9X9X9X9X9X  . . . . .   . . . . . . . . . .           . . . . . . . . . . . . . . . . . . . . . . . .   U   U   O O   S ",
"( *X9X9X9X9X9X9X9X  . . . . .   . . . . . . . . . . . . . . . . . . . . . . . . . . . . . . . . . . . . . . .   U   U U     ~.L ",
"i.) /.9X9X9X9X9X9X  . . . . . .   . . . . . . . . . . . . . . . . . . . . . . . . . . . . . . . . . . . . . .   U   U U U   G R.",
"7Xm.&.%X9X9X9X9X    . . . . . . .     . . . . . . . . . . . . . . . . . . . . . . . . . . . . . . . . . . . .       U U U   H.7X",
"7X7XM.P *X9X9X9X  . . . . . . . . .       . . . . . . . . . . . . . . . . . . . . . . . . . . . . . . . . . .     9X        7X7X",
"7X7X7Xm.$.!.9X9X  . . . . . . . . . . . .   . . . . . . . . . . . . . . . . . . . . . . . . . . . . . . . . .     9X  X X   7X7X",
"7X7X7X7Xu.O.*X9X  . . . . . . . . . . . .     . . . . . . . . . . . . . . . . . . . . . . . . . . . . . . . .     !.  X X   7X7X",
"7X7X7X7X7Xn.{ ~.  . . . . . . . . . . . . . .   . . . . . . . . . . . . . . . . . . . . . . . . . . . . . .       )         7X7X",
"7X7X7X7X7X7Xv.&.  . . . . . . . . . . . . . . .     . . . . . . . . . . . . .                   . . . . .   O O   Z.7X7X7X7X7X7X",
"7X7X7X7X7X7X7X    . . . . . . . . . . . . . . . .     . . . . . . . .         O O O O O O   U U           O O O O   7X7X7X7X7X7X",
"7X7X7X7X7X7X7X  . . . . . . . . . . . . . . . . . .     . . .         7X7X            O             O               7X7X7X7X7X7X",
"7X7X7X7X7X7X7X  . . . . . . . . . . . . . . . . . . . .       .   7X7X7X7X7X  U U U     U U     U U       U U U   7X7X7X7X7X7X7X",
"7X7X7X7X7X7X7X  . . . . . . . . . . . . . . . . . . . . . . . .   7X7X7X7X7X7X  U   O O     9X9X    O O O   U   7X7X7X7X7X7X7X7X",
"7X7X7X7X7X7X  . . . . . . . . . . . . . . . . . . . . . . . . .   7X7X7X7X7X7X[.  O O O O   9X9X  O O O O O   7X7X7X7X7X7X7X7X7X",
"7X7X7X7X7X7X  . . . . . . . . . . . . . . . . . . . . . . . .   7X7X7X7X7X7X7X7X            k.9X              7X7X7X7X7X7X7X7X7X",
"7X7X7X7X7X7X    . . . . . . . . . . . . . . . . . . . . . . .   7X7X7X7X7X7X7X  U U U U U   ) x.  U U U U U U   7X7X7X7X7X7X7X7X",
"7X7X7X7X7X7X7X  . . . . . . . . . . . . . . . . . . . . . . .   7X7X7X7X7X7X  U U U U U U   }.[   U U U U U U U   7X7X7X7X7X7X7X",
"7X7X7X7X7X7X7X  . . . . . . . . . . . . . . . . . . . . . . .   7X7X7X7X7X7X                V./                   7X7X7X7X7X7X7X",
"7X7X7X7X7X7X7X  . . . . . . . . . . . . . . . . . . . . . . .   7X7X7X7X7X7X7X7X7X7X7X7X7XJ.#.U.,X#.9.7X7X7X7X7X7X7X7X7X7X7X7X7X",
"7X7X7X7X7X7X7X        . . . . . . . . . . . . . . . . .       7X7X7X7X7X7X7X7X7X7X7X7X7XD.P Q.9X9X%X$.w.7X7X7X7X7X7X7X7X7X7X7X7X",
"7X7X7X7X7X7X7X7X7X7X7X                                  7X7X7X7X7X7X7X7X7X7X7X7X7X7X7XF.&.T.9X9X9X9X,X` t.7X7X7X7X7X7X7X7X7X7X7X",
"7X7X7X7X7X7X7X7X7X7X7.%.  . . . . . . . . . . . . .   7X7X7X7X7X7X7X7X7X7X7X7X7X7X7XJ.K W.9X3Xc.$X8X9X&X&.y.7X7X7X7X7X7X7X7X7X7X",
"7X7X7X7X7X7X7X7X7Xr.] <X  . . . . . . . . . . . . .   7X7X7X7X7X7X7X7X7X7X7X6Xb.,.N , y g g g g g g g g n > B 1.`.7X7X7X7X7X7X7X",
"7X7X7X7X7X7X7X7Xr.=.=X9X  . . . . . . . . . . . . . .   7X7X7X7X7X7X7X@X<.Z x z 9 * 6 g g g g g g g g g g s ; < z v *.B.6X7X7X7X",
"7X7X7X7X7X7X7X7.] =X8X  . . . . . . . . . . . . . . . .   7X7X7X7X5X1.z z z z 8 $ r g g g g g g g g g g g g y = < z z z V J.7X7X",
"7X7X7X7X7X7X6.| :.R     . . . . . . . . . . . . . . . . .   *.B.6Xq.z z z z 0 : 6 g g g g g g g g g g g g g g d & 1 z z z b XX7X",
"7X7X7X7X7X4.c u g g   . . . . . . . . . . . . . . . . . .   z z V C z z z q @ t g g g g g g g g g g g g g g g g u : 3 z z z J.7X",
"7X7X7X7X9.m f g g     . . . . . . . . . . . . . . . . . . .   z z w k z 7 ; t g g g g g g g g g g g g g g g g g g a # 4 z M oX7X",
"7X7X7X0.&.W g g g   . . . . . . . . . . . . . . . . . . . .   z z z >.9 % 6 g g g g g g g g g g g g g g g g g g g g p : l _.7X7X",
"7X7X9.` ;Xc.g g g                                           z z z M 8.' ;.Q h g g g g g g g g g g g g g g g g g g Y ^ d...0.7X7X",
"7X9.&.:X9X8Xs.g g g g g g g g g g g g g g g g g g g g g 5 - e z E 3.$.U.9X9X8XE.p.~ ! T g g g g g g g g R Q -.a.2X9X9X9X>X@.0.7X",
"5.O.*X9X9X9X9X4Xs.Q h g g g g g g g g g g g g g g g g g g i 2 2.G.J !.9X9X9X9X9X9X9X9X9X9X9X9X9X9X9X9X9X9X9X9X9X9X9X9X9X9X%X%.e.",
"+.1X9X9X9X9X9X9X9X9X8XE.p.~ ! T g g g g g g g g R Q -.a.2X9XP._ { Q.9X9X9X9X9X9X9X9X9X9X9X9X9X9X9X9X9X9X9X9X9X9X9X9X9X9X9X9X>X_ "
};
