/* XPM */
static char *result[] = {
/* columns rows colors chars-per-pixel */
"64 64 99 2 ",
"   c #156E06",
".  c #117600",
"X  c #167905",
"o  c #187A07",
"O  c #177009",
"+  c #1B730D",
"@  c #1B7C0B",
"#  c #1F7511",
"$  c #217613",
"%  c #217D12",
"&  c #277A19",
"*  c #297B1C",
"=  c #307F23",
"-  c #238114",
";  c #2A841B",
":  c #2F8820",
">  c #348227",
",  c #338A24",
"<  c #368B28",
"1  c #3A8E2C",
"2  c #3D8731",
"3  c #3E9030",
"4  c #418A35",
"5  c #468D3A",
"6  c #469539",
"7  c #49963C",
"8  c #4E9243",
"9  c #4E9941",
"0  c #529C46",
"q  c #559E4A",
"w  c #599F4D",
"e  c #5BA04F",
"r  c #5EA252",
"t  c #61A456",
"y  c #65A65A",
"u  c #69A85E",
"i  c #6FA666",
"p  c #6DAB63",
"a  c #71AD67",
"s  c #75AF6B",
"d  c #76B06C",
"f  c #7DB474",
"g  c #BE937C",
"h  c #80B677",
"j  c #82B27A",
"k  c #85B97C",
"l  c #C1957E",
"z  c #8BBD83",
"x  c #C29781",
"c  c #C59B84",
"v  c #C89D87",
"b  c #C89E88",
"n  c #E6B69D",
"m  c #E9B79C",
"M  c #E7B89E",
"N  c #E9B99F",
"B  c #DEB9A5",
"V  c #ECBDA3",
"C  c #E2BEAA",
"Z  c #F0BDA3",
"A  c #93C18B",
"S  c #99C492",
"D  c #A3CA9D",
"F  c #A7CCA1",
"G  c #A9CEA3",
"H  c #ADD0A7",
"J  c #AFD1A9",
"K  c #B1D2AC",
"L  c #B5D5B0",
"P  c #B9D7B4",
"I  c #BCD8B7",
"U  c #BFDABA",
"Y  c #C1DBBC",
"T  c #EFC0A6",
"R  c #E4C1AE",
"E  c #F1C0A7",
"W  c #F4C4AA",
"Q  c #E6C3B0",
"!  c #E8C6B3",
"~  c #EBC9B6",
"^  c #ECCAB8",
"/  c #FFCCB1",
"(  c #F1D0BE",
")  c #C7DFC3",
"_  c #C8DFC4",
"`  c #CAE0C6",
"'  c #CEE3CA",
"]  c #D5E6D2",
"[  c #DAEAD7",
"{  c #DDECDB",
"}  c #E0EDDE",
"|  c #E2EEE0",
" . c #E5F0E4",
".. c #E9F2E7",
"X. c #ECF4EB",
"o. c #F0F6EF",
"O. c #F5F9F4",
"+. c #F8FBF7",
"@. c #FFFFFF",
/* pixels */
"x C ( ( ( ( ( ( ( ( ( ( ( ( ( ( ( ( ( ( ( ( ( ( ( ( ( ( ( ( C g l R ( ( ( ( ( ( ( ( ( ( ( ( ( ( ( ( ( ( ( ( ( ( ( ( ( ( ( ( B x ",
"W v B ( ( ( ( ( ( ( ( ( ( ( ( ( ( ( ( ( ( ( ( ( ( ( ( ( ( R c V V v R ( ( ( ( ( ( ( ( ( ( ( ( ( ( ( ( ( ( ( ( ( ( ( ( ( ( B v W ",
"/ W x B ( ( ( ( ( ( ( ( ( ( ( ( ( ( ( ( ( ( ( ( ( ( ( ( C l T / / V g R ( ( ( ( ( ( ( ( ( ( ( ( ( ( ( ( ( ( ( ( ( ( ( ( B x W / ",
"/ / W x B ( ( ( ( ( ( ( ( ( ( ( ( ( ( ( ( ( ( ( ( ( ( C v T / / / / V v R ( ( ( ( ( ( ( ( ( ( ( ( ( ( ( ( ( ( ( ( ( ( B b W / / ",
"/ / / E b B ( ( ( ( ( ( ( ( ( ( ( ( ( ( ( ( ( ( ( ( R l T / / / / / / V g ! ( ( ( ( ( ( ( ( ( ( ( ( ( ( ( ( ( ( ( ( B v W / / / ",
"/ / / / W x B ( ( ( ( ( ( ( ( ( ( ( ( ( ( ( ( ( ( C x T / / / / / / / / V v R ( ( ( ( ( ( ( ( ( ( ( ( ( ( ( ( ( ( B x W / / / / ",
"/ / / / / W v B ( ( ( ( ( ( ( ( ( ( ( ( ( ( ( ( R v V / / / / / / / / / / V x ! ( ( ( ( ( ( ( ( ( ( ( ( ( ( ( ( B v E / / / / / ",
"/ / / / / / W x B ( ( ( ( ( ( ( ( ( ( ( ( ( ( C l T / / / / / / / / / / / / V x R ( ( ( ( ( ( ( ( ( ( ( ( ( ( B x W / / / / / / ",
"/ / / / / / / W b B ( ( ( ( ( ( ( ( ( ( ( ( R v V / / / / / / / / / / / / / / M v ! ^ ( ( ( ( ( ( ( ( ( ( ( B b W / / / / / / / ",
"/ / / / / / / / T v B ( ( ( ( ( ( ( ( ( ^ R g T / / / / / / / / / / / / / / / / V g ! ( ( ( ( ( ( ( ( ( ( B c T / / / / / / / / ",
"/ / / / / / / / / W x C ( ( ( ( ( ( ( ( R v E / / / / / / / / / / / / / / / / / / V v R ( ( ( ( ( ( ( ( B c / / / / / / / / / / ",
"/ / / / / / / / / / W b B ( ( ( ( ( ( R x V / / / / / / / / / / / / / / / / / / / / V x R ( ( ( ( ( ( B v T / / / / / / / / / / ",
"/ / / / / / / / / / / W x B ( ( ( ( C x T / / / / / / / / / / / / / / / / / / / / / / V x R ( ( ( ( B x W / / / / / / / / / / / ",
"/ / / / / / / / / / / / W v B ( ( R v V / / / / / / / / / / / / / / / / / / / / / / / / V v ! ( ( B b W / / / / / / / / / / / / ",
"/ / / / / / / / / / / / / W v B R g E / / / / / / / / / / / / / / / / / / / / / / / / / / V g R B c T / / / / / / / / / / / / / ",
"/ / / / / / / / / / / / / / W +   & & & & & & & & & & & & & & & & & & & & & & & & & & & & & & # # W / / / / / / / / / / / / / / ",
"/ / / / / / / / / / / / / / V O O i i i i i i i i i i i i i i i i i i i i i i i i i i i i i i 2 # T / / / / / / / / / / / / / / ",
"/ / / / / / / / / / / / / V v * 5 @.@.@.@.@.@.@.@.@.@.@.@.@.@.@.@.@.@.@.@.@.@.@.@.@.@.@.@.@.@.j * b T / / / / / / / / / / / / / ",
"/ / / / / / / / / / / / V v R * 8 @.@.@.@.@.@.@.@.@.@.@.@.@.@.@.@.@.@.@.@.@.@.@.@.@.@.@.@.@.@.j * B c T / / / / / / / / / / / / ",
"/ / / / / / / / / / / V g R ( > 8 @.@.@.@.@.@.@.@.@.@.@.@.@.@.@.@.@.@.@.@.@.@.@.@.@.@.@.@.@.@.j * ( R x V / / / / / / / / / / / ",
"/ / / / / / / / / / V v R ( ( * 8 @.@.@.@.@.@.@.@.@.@.@.@.@.@.+.f ; 1 D @.@.@.@.@.@.@.@.@.@.@.j * ( ( B b T / / / / / / / / / / ",
"/ / / / / / / / / V l R ( ( ( > 8 @.@.@.@.@.@.@.@.@.@.@.@.@.@.z . . . % o.@.@.@.@.@.@.@.@.@.@.j * ( ( ( R x T / / / / / / / / / ",
"/ / / / / / / / V v R ( ( ( ( > 8 @.@.@.@.@.@.@.@.@.@.@.@.@.@.f . . . o ] @.@.@.@.@.@.@.@.@.@.j * ( ( ( ( C v T / / / / / / / / ",
"/ / / / / / / V x R ( ( ( ( ^ = 8 @.@.@.@.@.@.@.@.@.@.@.@.@.@.+.< o o 9 @.@.@.@.@.@.@.@.@.@.@.j * ( ( ( ( ( B c T / / / / / / / ",
"/ / / / / / V x R ( ( ( ( ( ( > 8 @.@.@.@.@.@.@.@.@.@.@.@.@.@.@.{ F U @.@.@.@.@.@.@.@.@.@.@.@.j * ( ( ( ( ( ( C c V / / / / / / ",
"/ / / / / T v C ( ( ( ( ( ( ( > 8 @.@.@.@.@.@.@.@.@.@.@.@.@.@.@.@.@.S r L ) _ ' ' ' G ] @.@.@.j * ( ( ( ( ( ( ( C b W / / / / / ",
"/ / / / V g R ( ( ( ( ( ( ( ^ = 8 @.@.@.@.@.@.@.@.@.@.@.@.@.@.@.@.[ o . o ; ; ; ; ; X - @.@.@.j * ( ( ( ( ( ( ( ( C g T / / / / ",
"/ / / V v Q ( ( ( ( ( ( ( ( ( = 8 @.@.@.@.@.@.@.@.@.@.@.@.@.@.@.@.q o o , a i p p u @ - O.@.@.j * ( ( ( ( ( ( ( ( ( R b V / / / ",
"/ / V x R ( ( ( ( ( ( ( ( ( ( > 8 @.@.@.@.@.@.@.@.@.@.@.@.@.@.@.f ; r 3 1 o.@.@.@.@.t ; [ @.@.j * ( ( ( ( ( ( ( ( ( ( C x W / / ",
"/ V c R ( ( ( ( ( ( ( ( ( ( ( * 8 @.@.@.@.@.L p O.@.@.@.@.@.@.D - 7 ..d - S @.@.@.@.f % P @.@.j * ( ( ( ( ( ( ( ( ( ( ( C c V / ",
"V x R ( ( ( ( ( ( ( ( ( ( ( ( > 8 @.@.@.@.@.0 X S @.U r h z y % ; I @.[ < 6 @.@.@.@.D @ k @.@.j * ( ( ( ( ( ( ( ( ( ( ( ( C c Z ",
"g R ( ( ( ( ( ( ( ( ( ( ( ( ( > 8 @.@.@.@.@.s o U @.u . o o o . 9 @.@.@.u @ G @.@.@.` ; p @.@.j * ( ( ( ( ( ( ( ( ( ( ( ( ( C g ",
"x Q ( ( ( ( ( ( ( ( ( ( ( ( ( = 8 @.@.@.@.@.h @ I @.| z L L H d @.@.@.@.P - < @.@.@.@.D ) @.@.j * ( ( ( ( ( ( ( ( ( ( ( ( ( R x ",
"V x R ( ( ( ( ( ( ( ( ( ( ( ( = 8 @.@.@.@.@.k @ P @.@.@.@.@.@.@.@.@.@.@.@.o . s @.@.@.@.@.@.@.j * ( ( ( ( ( ( ( ( ( ( ( ( C g Z ",
"/ V v Q ( ( ( ( ( ( ( ( ( ( ( = 8 @.@.@.@.@.k o L @.@.@.@.@.@.@.@.@.@.@.` @ . y @.@.@.@.@.@.@.j * ( ( ( ( ( ( ( ( ( ( ( R b V / ",
"/ / V x Q ( ( ( ( ( ( ( ( ( ( = 8 @.} ) @.@.z @ K @...Y @.@.@.@.@.@.@.@.0 ; ; 6 @.@.@.@.@.@.@.j * ( ( ( ( ( ( ( ( ( ( R x V / / ",
"/ / / N c R ( ( ( ( ( ( ( ( ( = 8 @.e @ z @.z o K @.3 o J @.@.@.@.@.@.z @ y w ; [ @.@.@.@.@.@.j * ( ( ( ( ( ( ( ( ( C c V / / / ",
"/ / / / N c Q ( ( ( ( ( ( ( ( = 8 @.r . . A z o H U X o [ @.@.@.@.@.[ 1 1 { z o S @.@.@.@.@.@.j * ( ( ( ( ( ( ( ( R v V / / / / ",
"/ / / / / N x R ( ( ( ( ( ( ( = 8 @.X.o . o A o G , . 6 @.@.@.@.@.@.t @ z @.) - r @.@.@.@.@.@.j * ( ( ( ( ( ( ( C x V / / / / / ",
"/ / / / / / V v ! ( ( ( ( ( ( = 8 @.@.| o . @ o p . o ] @.@.@.@.@.D : q @.@.@.@ . w q 1 , Y @.j * ( ( ( ( ( ( R v V / / / / / / ",
"/ / / / / / / V g Q ( ( ( ( ( = 8 @.@.@.D . . . o . 9 @.@.@.@.@. .1 < ` @.@.@.@ . - < ; ; U @.j * ( ( ( ( ( R l V / / / / / / / ",
"/ / / / / / / / V c R ( ( ( ( = 8 @.@.@.@.r . . . ; @.@.@.@.@.@.q - k @.@.@.@.| A { ..O.@.@.@.j * ( ( ( ( C v V / / / / / / / / ",
"/ / / / / / / / / V x Q ( ( ( = 8 @.@.@.@.@.0 o 3 @.@.@.@.@.@.L o , +.@.@.@.@.@.@.@.@.@.@.@.@.j * ( ( ( R x V / / / / / / / / / ",
"/ / / / / / / / / / V c R ( ( = 8 @.@.@.@.@.@.@.@.@.@.@.@.@.@.@.s G @.@.@.@.@.@.@.@.@.@.@.@.@.j * ( ( R x T / / / / / / / / / / ",
"/ / / / / / / / / / / n b Q ( = 8 @.@.@.@.@.@.@.@.@.@.@.@.@.@.@.@.@.@.@.@.@.@.@.@.@.@.@.@.@.@.j * ( R v V / / / / / / / / / / / ",
"/ / / / / / / / / / / / V g Q = 8 @.@.@.@.@.@.@.@.@.@.@.@.@.@.@.@.@.@.@.@.@.@.@.@.@.@.@.@.@.@.j * R g T / / / / / / / / / / / / ",
"/ / / / / / / / / / / / / V v = 8 @.@.@.@.@.@.@.@.@.@.@.@.@.@.@.@.@.@.@.@.@.@.@.@.@.@.@.@.@.@.j * v V / / / / / / / / / / / / / ",
"/ / / / / / / / / / / / / / V + + 4 4 4 4 4 4 2 4 4 4 4 4 4 4 4 2 4 4 4 4 4 4 4 4 4 4 4 4 4 4 &   V / / / / / / / / / / / / / / ",
"/ / / / / / / / / / / / / / n $ & 5 5 5 5 5 5 5 5 5 5 5 5 5 5 5 5 5 5 5 5 5 5 5 5 5 5 5 5 5 5 > # M / / / / / / / / / / / / / / ",
"/ / / / / / / / / / / / / n b ! B v E / / / / / / / / / / / / / / / / / / / / / / / / / / T v B ~ v n / / / / / / / / / / / / / ",
"/ / / / / / / / / / / / n c ! ( ( C x T / / / / / / / / / / / / / / / / / / / / / / / / V g R ( ( R v n / / / / / / / / / / / / ",
"/ / / / / / / / / / / n c ^ ( ( ( ( B v E / / / / / / / / / / / / / / / / / / / / / / V b R ( ( ( ( ~ x M / / / / / / / / / / / ",
"/ / / / / / / / / / n v Q ( ( ( ( ( ( R g W / / / / / / / / / / / / / / / / / / / / V l R ( ( ( ( ( ( ! v M / / / / / / / / / / ",
"/ / / / / / / / / n x ~ ( ( ( ( ( ( ( ( C v V / / / / / / / / / / / / / / / / / / V v R ( ( ( ( ( ( ( ( ! x M / / / / / / / / / ",
"/ / / / / / / / M b ! ( ( ( ( ( ( ( ( ( ( B c W / / / / / / / / / / / / / / / / T x R ( ( ( ( ( ( ( ( ( ( ~ v M / / / / / / / / ",
"/ / / / / / / n x ! ( ( ( ( ( ( ( ( ( ( ( ( C x T / / / / / / / / / / / / / / V x R ( ( ( ( ( ( ( ( ( ( ( ( R c M / / / / / / / ",
"/ / / / / / n b ^ ( ( ( ( ( ( ( ( ( ( ( ( ( ( B v W / / / / / / / / / / / / T v C ( ( ( ( ( ( ( ( ( ( ( ( ( ( ~ x M / / / / / / ",
"/ / / / / n v Q ( ( ( ( ( ( ( ( ( ( ( ( ( ( ( ( B l E / / / / / / / / / / T g R ( ( ( ( ( ( ( ( ( ( ( ( ( ( ( ( ! v M / / / / / ",
"/ / / / n x ^ ( ( ( ( ( ( ( ( ( ( ( ( ( ( ( ( ( ( R b T / / / / / / / / V v R ( ( ( ( ( ( ( ( ( ( ( ( ( ( ( ( ( ( ! x N / / / / ",
"/ / / n b Q ( ( ( ( ( ( ( ( ( ( ( ( ( ( ( ( ( ( ( ( B x W / / / / / / V x C ( ( ( ( ( ( ( ( ( ( ( ( ( ( ( ( ( ( ( ( ! v M / / / ",
"/ / n x ! ( ( ( ( ( ( ( ( ( ( ( ( ( ( ( ( ( ( ( ( ( ( C v T / / / / V x R ( ( ( ( ( ( ( ( ( ( ( ( ( ( ( ( ( ( ( ( ( ( ! x n / / ",
"/ n b ~ ( ( ( ( ( ( ( ( ( ( ( ( ( ( ( ( ( ( ( ( ( ( ( ( B v E / / E v C ( ( ( ( ( ( ( ( ( ( ( ( ( ( ( ( ( ( ( ( ( ( ( ( ^ v n / ",
"m c Q ( ( ( ( ( ( ( ( ( ( ( ( ( ( ( ( ( ( ( ( ( ( ( ( ( ( B l T T g R ( ( ( ( ( ( ( ( ( ( ( ( ( ( ( ( ( ( ( ( ( ( ( ( ( ( R v m ",
"c ^ ( ( ( ( ( ( ( ( ( ( ( ( ( ( ( ( ( ( ( ( ( ( ( ( ( ( ( ( R x x R ( ( ( ( ( ( ( ( ( ( ( ( ( ( ( ( ( ( ( ( ( ( ( ( ( ( ( ( ~ x "
};
