/* XPM */
static char *result[] = {
/* columns rows colors chars-per-pixel */
"64 64 208 2 ",
"   c black",
".  c #0F1226",
"X  c #20222B",
"o  c #282C49",
"O  c #7D6052",
"+  c #7E6152",
"@  c #7F6354",
"#  c #806455",
"$  c #806456",
"%  c #826556",
"&  c #826657",
"*  c #826658",
"=  c #88695A",
"-  c #927A6D",
";  c #927B6E",
":  c #937C6F",
">  c #9A7A69",
",  c #9A7A6A",
"<  c #9A7B6B",
"1  c #9A7C6B",
"2  c #9B7C6B",
"3  c #9D7E6D",
"4  c #9E7E6D",
"5  c #9E7E6E",
"6  c #947C70",
"7  c #947D71",
"8  c #947E71",
"9  c #A27F6E",
"0  c #9D877C",
"q  c #B99F67",
"w  c #A68573",
"e  c #A78674",
"r  c #A98775",
"t  c #A58B7D",
"y  c #B08D7A",
"u  c #B18E7B",
"i  c #B7917B",
"p  c #B7927F",
"a  c #BB9079",
"s  c #BC907A",
"d  c #BC917A",
"f  c #BD917B",
"g  c #BD927B",
"h  c #BE927B",
"j  c #BE927C",
"k  c #BE937C",
"l  c #BF937D",
"z  c #BF947D",
"x  c #BF947E",
"c  c #C0947D",
"v  c #C0947E",
"b  c #C0957E",
"n  c #C1957E",
"m  c #C0957F",
"M  c #C1957F",
"N  c #C1967F",
"B  c #475091",
"V  c #0044FF",
"C  c #A38C80",
"Z  c #A48D81",
"A  c #A69083",
"S  c #AE9689",
"D  c #BE9884",
"F  c #B89F91",
"G  c #BFA597",
"H  c #C19680",
"J  c #C19781",
"K  c #C29680",
"L  c #C29780",
"P  c #C29781",
"I  c #C39781",
"U  c #C39881",
"Y  c #C29882",
"T  c #C39882",
"R  c #C39983",
"E  c #C49882",
"W  c #C49982",
"Q  c #C49983",
"!  c #C59983",
"~  c #C59A83",
"^  c #C59A84",
"/  c #C59B85",
"(  c #C69B84",
")  c #C69B85",
"_  c #C69C85",
"`  c #C79C86",
"'  c #C79D86",
"]  c #C89D87",
"[  c #C59E89",
"{  c #C89E88",
"}  c #C4A594",
"|  c #CFA690",
" . c #C9A998",
".. c #DBAF98",
"X. c #DDB199",
"o. c #E7B59B",
"O. c #E5B59C",
"+. c #E5B69C",
"@. c #E6B69D",
"#. c #E6B79D",
"$. c #E5B79E",
"%. c #E7B79E",
"&. c #E9B79C",
"*. c #E7B89E",
"=. c #E8B89F",
"-. c #E8B99F",
";. c #E9B99F",
":. c #EBB99F",
">. c #D5B3A1",
",. c #D4B7A7",
"<. c #DDB8A4",
"1. c #DDB8A5",
"2. c #DEB9A5",
"3. c #DEB9A6",
"4. c #DEBAA6",
"5. c #DFBAA6",
"6. c #DFBAA7",
"7. c #DFBBA7",
"8. c #DABCAC",
"9. c #E7B9A0",
"0. c #E9B9A0",
"q. c #E9BAA0",
"w. c #E8BAA1",
"e. c #EABAA0",
"r. c #EABAA1",
"t. c #EBBBA1",
"y. c #EBBBA2",
"u. c #EBBCA3",
"i. c #ECBCA2",
"p. c #ECBCA3",
"a. c #ECBDA3",
"s. c #EDBDA3",
"d. c #EEBCA2",
"f. c #EBBCA4",
"g. c #EBBDA4",
"h. c #EDBDA4",
"j. c #EDBEA4",
"k. c #ECBEA5",
"l. c #EEBEA4",
"z. c #EEBEA5",
"x. c #EEBFA5",
"c. c #EFBFA5",
"v. c #EFBFA6",
"b. c #E0BBA8",
"n. c #E0BCA9",
"m. c #E1BCA9",
"M. c #E1BDA9",
"N. c #E1BDAA",
"B. c #E2BEAA",
"V. c #E2BEAB",
"C. c #E3BFAC",
"Z. c #F0BDA3",
"A. c #EFC0A6",
"S. c #E3C0AD",
"D. c #E4C0AD",
"F. c #E4C1AE",
"G. c #E5C1AE",
"H. c #E5C2AF",
"J. c #E6C2AF",
"K. c #F2C0A5",
"L. c #F0C0A6",
"P. c #F0C0A7",
"I. c #F1C1A7",
"U. c #F4C1A7",
"Y. c #F1C1A8",
"T. c #F0C2A9",
"R. c #F2C2A8",
"E. c #F2C2A9",
"W. c #F3C3A9",
"Q. c #F1C3AA",
"!. c #F3C3AA",
"~. c #F6C3A9",
"^. c #F3C4AA",
"/. c #F4C4AA",
"(. c #F4C5AB",
"). c #F5C5AB",
"_. c #F5C5AC",
"`. c #F4C5AD",
"'. c #F4C6AD",
"]. c #F6C6AC",
"[. c #F7C7AD",
"{. c #F8C6AC",
"}. c #FAC8AE",
"|. c #FDD2AB",
" X c #FFD4AC",
".X c #E1C2B1",
"XX c #E6C3B0",
"oX c #E3C4B3",
"OX c #E7C4B1",
"+X c #E8C5B2",
"@X c #E8C6B3",
"#X c #E9C6B4",
"$X c #E9C7B4",
"%X c #EAC8B5",
"&X c #E8C9B7",
"*X c #EBC8B6",
"=X c #EBC9B6",
"-X c #EBC9B7",
";X c #ECC9B7",
":X c #ECCAB7",
">X c #E9C9B8",
",X c #ECCAB8",
"<X c #EDCDBB",
"1X c #FECBB0",
"2X c #FFCCB1",
"3X c #F0CFBD",
"4X c #F1D0BE",
"5X c #FFE2A4",
/* pixels */
"P 5.4X4X4X4X4X4X4X4X4X4X4X4X4X4X4X4X4X4X4X4X4X4X4X4X4X4X4X4XN.l H S.4X4X4X4X4X4X4X4X4X4X4X4X4X4X4X4X4X4X4X4X4X4X4X4X4X4X4X4X2.R ",
"~.] 3.4X4X4X4X4X4X4X4X4X4X4X4X4X4X4X4X4X4X4X4X4X4X4X4X4X4XC.` a.w._ XX4X4X4X4X4X4X4X4X4X4X4X4X4X4X4X4X4X4X4X4X4X4X4X4X4X4X3.{ U.",
"2XI.~ 2.4X4X4X4X4X4X4X4X4X4X4X4X4X4X4X4X4X4X4X4X4X4X4X4XC.c L.2X2Xi.N G.4X4X4X4X4X4X4X4X4X4X4X4X4X4X4X4X4X4X4X4X4X4X4X4X1.I /.2X",
"2X2X_.^ 2.4X4X4X4X4X4X4X4X4X4X4X4X4X4X4X4X4X4X4X4X4X4XV.] c.2X2X2X2Xy.] H.4X4X4X4X4X4X4X4X4X4X4X4X4X4X4X4X4X4X4X4X4X4X<.] _.2X2X",
"2X2X2XI.] 4.4X4X4X4X4X4X4X4X4X4X4X4X4X4X4X4X4X4X4X4XC.K j.2X2X2X2X2X2Xi.n OX4X4X4X4X4X4X4X4X4X4X4X4X4X4X4X4X4X4X4X4X<.( R.2X2X2X",
"2X2X2X2X).K 7.4X4X4X4X4X4X4X4X4X4X4X4X4X4X4X4X4X4XM.)           2X2X2X            4X4X4X4X4X4X4X4X4X4X4X4X4X4X4X4X<.^ [.2X2X2X2X",
"2X2X2X2X2XW.] 6.4X4X4X4X4X4X4X4X4X4X4X4X4X4X4X4XC.    5X5Xq 5X5X  2X  5X5X5Xq q 5X  4X4X4X4X4X4X4X4X4X4X4X4X4X4X1.] R.2X2X2X2X2X",
"2X2X2X2X2X2XR.T 3.4X4X4X4X4X4X4X4X4X4X4X4X4X      5X5Xq q 5X5X5X5X  5X5X5X5X5X5Xq q     4X4X4X4X4X4X4X4X4X4X4X2.I ).2X2X2X2X2X2X",
"2X2X2X2X2X2X2X].` 2.4X4X4X4X4X4X4X4X4X4X    5X5X5X5Xq q 5X5X5X5X5X  5X5X5X5X5X5X5Xq 5X5X  4X4X4X4X4X4X4X4X4X2.] /.2X2X2X2X2X2X2X",
"2X2X2X2X2X2X2X2XP._ 3.4X4X4X4X4X4X4X4X  5X5X5X5Xq q 5X5X5X5X5X5X5X5X5X5Xq q 5X5X5X5Xq 5X5X  4X4X4X4X4X4X4X<.Q E.2X2X2X2X2X2X2X2X",
"2X2X2X2X2X2X2X2X2X].T 6.4X4X4X4X4X4X  5X5X5X5Xq q 5X5X5X5X5X5X5X5X5X5X5X5X5Xq q 5X5X5X5X5X  4X4X4X4X4X4X<._ [.2X2X2X2X2X2X2X2X2X",
"2X2X2X2X2X2X2X2X2X2XR.] 7.4X4X4X4X4X  5X5X5Xq q 5X5X5X5X5Xq q q q 5X5X5X5X5X5X5Xq q 5X5X5X  4X4X4X4X4X<.` Y.2X2X2X2X2X2X2X2X2X2X",
"2X2X2X2X2X2X2X2X2X2X2XW.K 4.4X4X4X  5X5X5Xq q 5X5X5X5Xq q 5X5X5X5X5X      5X5X5X5X5Xq 5X5X5X  4X4X4X4.T [.2X2X2X2X2X2X2X2X2X2X2X",
"2X2X2X2X2X2X2X2X2X2X2X2X).] 2.4X4X  5X5Xq q 5Xq q q 5Xq 5X5X5X5X       X X    5X5X5Xq q 5X5X  4X4X4.{ W.2X2X2X2X2X2X2X2X2X2X2X2X",
"2X2X2X2X2X2X2X2X2X2X2X2X2XI.^ 2.D.  5X5X5Xq q 5X5X5Xq 5X5X5X5X   X X X X X X X  5X5X5X5X5X5X  H.<.U !.2X2X2X2X2X2X2X2X2X2X2X2X2X",
"2X2X2X2X2X2X2X2X2X2X2X2X2X2X`.l v   5X5X5Xq 5X5X5Xq 5X5X5X5X5X   X X X X X X X X  5X5X5X5X5X  x P '.2X2X2X2X2X2X2X2X2X2X2X2X2X2X",
"2X2X2X2X2X2X2X2X2X2X2X2X2X2Xg.l   5X5Xq q 5X5X5Xq q 5X5X5X5X   X X X X X X X X X X  5X5X5X5X  b k I.2X2X2X2X2X2X2X2X2X2X2X2X2X2X",
"2X2X2X2X2X2X2X2X2X2X2X2X2Xr.( H.  5X5Xq 5X5X5Xq q 5X5X5X5X   X X X X X X X X X X X X  5X5X5X  :XB._ h.2X2X2X2X2X2X2X2X2X2X2X2X2X",
"2X2X2X2X2X2X2X2X2X2X2X2Xs._ C.4X  5Xq q 5X5X5Xq 5X5X5X5X   X X X X X X X X X X X X X  5X5X  +X4X4Xn.) P.2X2X2X2X2X2X2X2X2X2X2X2X",
"2X2X2X2X2X2X2X2X2X2X2Xp.M H.4X4X  5Xq 5X5X5X5X5X        V V  X X X X X XV V V  X X X X      4X4X4X4XB.I z.2X2X2X2X2X2X2X2X2X2X2X",
"2X2X2X2X2X2X2X2X2X2Xa.] D.4X4X4X  5Xq 5X5X       X XV V V V  X X X X X XV V V  X X X X X X  4X4X4X4X4XN.] L.2X2X2X2X2X2X2X2X2X2X",
"2X2X2X2X2X2X2X2X2Xs.n F.4X4X4X4X  5X5X5X   X X X X X X X X X X X X X X X X X X X X X X X X  4X4X4X4X4X4XC.z Y.2X2X2X2X2X2X2X2X2X",
"2X2X2X2X2X2X2X2Xt.` H.4X4X4X4X4X  5X5X5X   X X X X X X X X X X X X X X X X X X X X X X      4X4X4X4X4X4X4XV.' j.2X2X2X2X2X2X2X2X",
"2X2X2X2X2X2X2Xa.^ C.4X4X4X4X4X4X  5X5X5X   X X X X X X X X X X X X X X X X X X X X X X  4X4X4X4X4X4X4X4X4X4Xm.Q P.2X2X2X2X2X2X2X",
"2X2X2X2X2X2Xy.T H.4X4X4X4X4X4X4X4X       X X X X X X X X X X   X X X X   X X X X X X  4X4X4X4X4X4X4X4X4X4X4X4XB.! j.2X2X2X2X2X2X",
"2X2X2X2X2Xj.] C.4X4X4X4X4X4X4X4X4X4X4X4X   X X X X X X X X X X        |. X X X      4X4X4X4X4X4X4X4X4X4X4X4X4X4Xm.' Y.2X2X2X2X2X",
"2X2X2X2Xj.j J.4X4X4X4X4X4X4X4X4X4X4X4X4X4X         X X X X X X X X X X X X X  4X4X4X4X4X4X4X    4X4X4X4X4X4X4X4X4XV.c L.2X2X2X2X",
"2X2X2Xy.' XX4X4X4X4X4X4X4X4X4X4X4X4X4X4X4X4X4X4X4X   X X X X X X X X X X X  4X4X4X4X4X4X4X  . .   4X4X4X4X4X4X4X4X4XC.] z.2X2X2X",
"2X2Xa.E C.4X4X4X4X4X4X4X4X4X4X4X4X4X4X4X4X4X4X4X4X4X         X X X X X X  4X4X4X4X4X4X4X4X  . .   4X4X4X4X4X4X4X4X4X4XN.I I.2X2X",
"2Xt.^ H.4X4X4X4X4X4X4X4X4X4X4X4X4X4X4X4X4X4X4X4X4X4X4X4X#XK    X X X X  4X    4X4X4X4X4X4X  . .   4X4X4X4X4X4X4X4X4X4X4XB.) h.2X",
"d.` C.4X4X4X4X4X4X4X4X4X4X4X4X4X4X4X4X4X4X4X4X4X4X           X X X X      X X   4X4X4X4X4X  . .   4X4X4X4X4X4X4X4X4X4X4X4Xn.) K.",
"s J.4X4X4X4X4X4X4X4X4X4X4X4X4X4X4X4X4X4X  4X      o o o o      X X X    o     o       4X4X  . .   4X4X4X4X4X4X4X4X4X4X4X4X4XB.f ",
"J +X4X4X4X4X4X4X4X4X4X4X4X4X4X4X4X4X4X  o   B B   o o o o   B       B   o o o o   B B     . . .   4X4X4X4X4X4X4X4X4X4X4X4X4XG.m ",
":.K J.4X4X4X4X4X4X4X4X4X4X4X4X4X4X4X  o o   B B B         B B B B B B B         B B B   . . . .   4X4X4X4X4X4X4X4X4X4X4X4XD.z Z.",
"2Xr.] XX4X4X4X4X4X4X4X4X4X4X4X4X4X  o o o   B B B B B B B B B B B B B B B B B B B B   . . . .   4X4X4X4X4X4X4X4X4X4X4X4XC.] l.2X",
"2X2Xt.M +X4X4X4X4X4X4X4X4X4X4X4X4X  o o   B   B B B B B B             B B B B B B B       . .   4X4X4X4X4X4X4X4X4X4X4XF.K a.2X2X",
"2X2X2Xr.` F.4X4X4X4X4X4X4X4X4X4X4X4X    B B   B B         o o o o o o           B B   . . . .   4X4X4X4X4X4X4X4X4X4XV.) l.2X2X2X",
"2X2X2X2X;.^ +X4X4X4X4X4X4X4X4X4X4X4X  B B B   B   o . . o o o . o o . . o o o o   B       . .   4X4X4X4X4X4X4X4X4XF.) y.2X2X2X2X",
"2X2X2X2X2Xe.T G.4X4X4X4X4X4X4X4X4X4X  B B B     o o . o . o . o . o . o . o o o o     . . . .   4X4X4X4X4X4X4X4XC.K l.2X2X2X2X2X",
"2X2X2X2X2X2Xq.] OX4X4X4X4X4X4X4X4X4X        4X  o o . o . o . o . o . o . o o o o   4X        4X4X4X4X4X4X4X4XD.] a.2X2X2X2X2X2X",
"2X2X2X2X2X2X2Xy.v OX4X4X4X4X4X4X4X4X  . .   <.  o o . . o o . . o o . o . o o o o   4X4X4X4X4X4X4X4X4X4X4X4XG.c l.2X2X2X2X2X2X2X",
"2X2X2X2X2X2X2X2Xt.] G.4X4X4X4X4X4X4X  . .   E   o o . o . o . o o o . . o o o o o   4.4X4X4X4X4X4X4X4X4X4XV.` z.2X2X2X2X2X2X2X2X",
"2X2X2X2X2X2X2X2X2X0.W +X4X4X4X4X4X4X        W.  o o o o o o o o o o o o o o o o o   ] 2.4X4X4X4X4X4X4X4XD.! i.2X2X2X2X2X2X2X2X2X",
"2X2X2X2X2X2X2X2X2X2Xe.^ F.4X4X4X4X4X4X1.I ^.2X  o o o o o             o o o o o o   I.^ 2.4X4X4X4X4X4XV.W j.2X2X2X2X2X2X2X2X2X2X",
"2X2X2X2X2X2X2X2X2X2X2X;.` +X4X4X4X4X<.] ].2X  o o o o o o o   B B   o o o o o o o o   _.^ 2.4X4X4X4XG.' i.2X2X2X2X2X2X2X2X2X2X2X",
"2X2X2X2X2X2X2X2X2X2X2X2Xr.M XX4X4X<.) R.2X2X            o             o               2XI.] 4.4X4XG.j x.2X2X2X2X2X2X2X2X2X2X2X2X",
"2X2X2X2X2X2X2X2X2X2X2X2X2Xy.] H.1.^ [.2X2X2X2X  B B B     B B     B B       B B B   2X2X2X(.K 7.C.] x.2X2X2X2X2X2X2X2X2X2X2X2X2X",
"2X2X2X2X2X2X2X2X2X2X2X2X2X2Xw.a Q T.2X2X2X2X2X2X  B   o o     {.9.    o o o   B   2X2X2X2X2XQ.Y d f.2X2X2X2X2X2X2X2X2X2X2X2X2X2X",
"2X2X2X2X2X2X2X2X2X2X2X2X2X2X$.g R z.2X2X2X2X2X1XX.  o o o o   w w   o o o o o   X.I.2X2X2X2Xi.H l $.2X2X2X2X2X2X2X2X2X2X2X2X2X2X",
"2X2X2X2X2X2X2X2X2X2X2X2X2X@.] $Xb.) R.2X}...p e w             w w               w w r [ u.h._ B.=X_ @.2X2X2X2X2X2X2X2X2X2X2X2X2X",
"2X2X2X2X2X2X2X2X2X2X2X2XO.! +X4X4Xm.H | w w w w   B B B B B   w w   B B B B B B   w w w < = >.4X4XXX` %.2X2X2X2X2X2X2X2X2X2X2X2X",
"2X2X2X2X2X2X2X2X2X2X2XO.) ,X4X4X4X4X .* 3 w w   B B B B B B   w w   B B B B B B B   w 1 * 6 C &X4X4X=XI =.2X2X2X2X2X2X2X2X2X2X2X",
"2X2X2X2X2X2X2X2X2X2X+.' OX4X4X4X4X4XF : O 5 w                 w w                   2 + 7 0 0 .X4X4X4XOX] -.2X2X2X2X2X2X2X2X2X2X",
"2X2X2X2X2X2X2X2X2X*.U -X4X4X4X4X4X4X8.0 ; & 2 w w w w w w w w w w w w w w w w w w > & 8 0 0 A >X4X4X4X4X+XL %.2X2X2X2X2X2X2X2X2X",
"2X2X2X2X2X2X2X2X*.{ @X4X4X4X4X4X4X4X3X,.0 - # 4 w w w w w w w w w w w w w w w w 2 $ : 0 0 S oX4X4X4X4X4X4X%X' #.2X2X2X2X2X2X2X2X",
"2X2X2X2X2X2X2X+.U @X4X4X4X4X4X4X4X4X4X4X<X,.t % 2 w w w w w w w w w w w w w w , @ 7 Z G .X4X4X4X4X4X4X4X4X4XXX( #.2X2X2X2X2X2X2X",
"2X2X2X2X2X2XO.' ;X4X4X4X4X4X4X4X4X4X4X4X4X4X4X6.i | [ D u w w w w w w w w p y 9 } >X4X4X4X4X4X4X4X4X4X4X4X4X4X*X! %.2X2X2X2X2X2X",
"2X2X2X2X2XO._ OX4X4X4X4X4X4X4X4X4X4X4X4X4X4X4X4XM.v I.2X2X2X2X2X2X2X2X2X2Xv.h G.4X4X4X4X4X4X4X4X4X4X4X4X4X4X4X4XOX] *.2X2X2X2X2X",
"2X2X2X2X@.! ,X4X4X4X4X4X4X4X4X4X4X4X4X4X4X4X4X4X4XB.] v.2X2X2X2X2X2X2X2Xi.' G.4X4X4X4X4X4X4X4X4X4X4X4X4X4X4X4X4X4X$XK =.2X2X2X2X",
"2X2X2X#.] +X4X4X4X4X4X4X4X4X4X4X4X4X4X4X4X4X4X4X4X4Xn.I R.2X2X2X2X2X2Xl.E V.4X4X4X4X4X4X4X4X4X4X4X4X4X4X4X4X4X4X4X4X#X] %.2X2X2X",
"2X2X@.I $X4X4X4X4X4X4X4X4X4X4X4X4X4X4X4X4X4X4X4X4X4X4Xm.) z.2X2X2X2Xi.~ D.4X4X4X4X4X4X4X4X4X4X4X4X4X4X4X4X4X4X4X4X4X4XOXQ #.2X2X",
"2X@.] %X4X4X4X4X4X4X4X4X4X4X4X4X4X4X4X4X4X4X4X4X4X4X4X4Xb._ E.2X2Xx.` B.4X4X4X4X4X4X4X4X4X4X4X4X4X4X4X4X4X4X4X4X4X4X4X4X*X) #.2X",
"o.^ +X4X4X4X4X4X4X4X4X4X4X4X4X4X4X4X4X4X4X4X4X4X4X4X4X4X4Xm.K A.k.v F.4X4X4X4X4X4X4X4X4X4X4X4X4X4X4X4X4X4X4X4X4X4X4X4X4X4XXX' &.",
"/ :X4X4X4X4X4X4X4X4X4X4X4X4X4X4X4X4X4X4X4X4X4X4X4X4X4X4X4X4XM.P T D.4X4X4X4X4X4X4X4X4X4X4X4X4X4X4X4X4X4X4X4X4X4X4X4X4X4X4X4X*XP "
};
