/* XPM */
static char *result[] = {
/* columns rows colors chars-per-pixel */
"64 64 126 2 ",
"   c #000000",
".  c #080702",
"X  c #0B0902",
"o  c #110F03",
"O  c #1B1705",
"+  c #1E1906",
"@  c #201B06",
"#  c #2D2609",
"$  c #332B0A",
"%  c #3B320C",
"&  c #443A0E",
"*  c #493E0F",
"=  c #513F01",
"-  c #554305",
";  c #594605",
":  c #5D4906",
">  c #574408",
",  c #5A470A",
"<  c #5C490C",
"1  c #4F4310",
"2  c #524510",
"3  c #564911",
"4  c #5B4C13",
"5  c #5F5113",
"6  c #614D0C",
"7  c #64510C",
"8  c #68530C",
"9  c #6F5A0F",
"0  c #705A0F",
"q  c #624D12",
"w  c #634F1D",
"e  c #645116",
"r  c #695613",
"t  c #6B5A14",
"y  c #6B541A",
"u  c #6D591C",
"i  c #725D13",
"p  c #715E1E",
"a  c #726017",
"s  c #7A6412",
"d  c #7E6815",
"f  c #77601C",
"g  c #796618",
"h  c #7E6919",
"j  c #6D5B21",
"k  c #6E5A2D",
"l  c #715C21",
"z  c #765E2B",
"x  c #7A5F2C",
"c  c #756125",
"v  c #7C6325",
"b  c #7E6A26",
"n  c #7B652A",
"m  c #7B6331",
"M  c #806A17",
"N  c #826D1A",
"B  c #85711B",
"V  c #8B761C",
"C  c #957E1E",
"Z  c #816B26",
"A  c #82672A",
"S  c #836B2E",
"D  c #896E2D",
"F  c #8C7524",
"G  c #8B712F",
"H  c #957C24",
"J  c #997E29",
"K  c #826437",
"L  c #856E31",
"P  c #8A6E33",
"I  c #866A3C",
"U  c #8C6F3E",
"Y  c #887134",
"T  c #8D703F",
"R  c #90733F",
"E  c #896F40",
"W  c #8D7648",
"Q  c #937443",
"!  c #947449",
"~  c #94794C",
"^  c #9F7E4F",
"/  c #977550",
"(  c #9F7F50",
")  c #97801E",
"_  c #9C841F",
"`  c #9E8520",
"'  c #9D8428",
"]  c #9B8333",
"[  c #A18723",
"{  c #A58B21",
"}  c #AA8F22",
"|  c #A78C29",
" . c #A88C29",
".. c #AE9323",
"X. c #A28932",
"o. c #998056",
"O. c #A88363",
"+. c #AC8C65",
"@. c #AA8D69",
"#. c #B59069",
"$. c #B9936A",
"%. c #B09571",
"&. c #BE927C",
"*. c #C1957E",
"=. c #C29781",
"-. c #C69B84",
";. c #C89D87",
":. c #C89E88",
">. c #CDA283",
",. c #E6B69D",
"<. c #E9B79C",
"1. c #E9B99F",
"2. c #DEB9A5",
"3. c #ECBDA3",
"4. c #E2BEAA",
"5. c #F0BDA3",
"6. c #EFC0A6",
"7. c #E5C1AE",
"8. c #F1C1A6",
"9. c #F4C4AA",
"0. c #E6C3B0",
"q. c #E8C6B3",
"w. c #EBC9B6",
"e. c #ECCAB8",
"r. c #FFCCB1",
"t. c #F1D0BE",
/* pixels */
"=.4.t.t.t.t.t.t.t.t.t.t.t.t.t.t.t.t.t.t.t.t.t.t.t.t.t.t.t.t.4.*.=.4.t.t.t.t.t.t.t.t.t.t.t.t.t.t.t.t.t.t.t.t.t.t.t.t.t.t.t.t.2.=.",
"9.;.2.t.t.t.t.t.t.t.t.t.t.t.t.t.t.t.t.t.t.t.t.t.t.t.t.t.t.4.;.3.3.-.0.t.t.t.t.t.t.t.t.t.t.t.t.t.t.t.t.t.t.t.t.t.t.t.t.t.t.2.:.9.",
"r.9.=.2.t.t.t.t.t.t.t.t.t.t.t.t.t.t.t.t.t.t.t.t.t.t.t.t.4.*.5.r.r.3.&.4.t.t.t.t.t.t.t.t.t.t.t.t.t.t.t.t.t.t.t.t.t.t.t.t.2.=.9.r.",
"r.r.9.=.2.t.t.t.t.t.t.t.t.t.t.t.t.t.t.t.t.t.t.t.t.t.t.4.;.3.r.r.r.r.3.;.0.t.t.t.t.t.t.t.t.t.t.t.t.t.t.t.t.t.t.t.t.t.t.2.:.9.r.r.",
"r.r.r.8.;.2.t.t.t.t.t.t.t.t.t.t.t.t.t.t.t.t.t.t.t.t.7.*.3.r.r.r.r.r.r.3.=.q.t.t.t.t.t.t.t.t.t.t.t.t.t.t.t.t.t.t.t.t.2.;.6.r.r.r.",
"r.r.r.r.9./ y W o.o.o.o.o.o.o.o.o.o.o.o.o.o.o.o.o.W I ~ o.o.^ ^ ( ( ^ ^ ! I ~ ( o.o.o.o.o.o.o.o.o.o.o.o.o.o.o.o.o.E O.9.r.r.r.r.",
"r.r.r.r.r.l - = - > , , , , , , < < < < < ; < < < > , , 6 6 ; ; , : , , , , > , < ; < 3 ; ; 3 < < ; < 3 , ; ; > - - c r.r.r.r.r.",
"r.r.r.r.r.E = - - e r g b Z Z b b b b b b b b b g b Z Z Z Z Z Z Z Z Z Z Z b b c b b b b b b b b b b c c c u m 5 - - I r.r.r.r.r.",
"r.r.r.r.r.! - : - - 9 a a a a a a a a a a a a a a a a a a a a i p i a a a a a a a a t a a a a a a a a a a a 6 - - - Q r.r.r.r.r.",
"r.r.r.r.r.^ - r 7 - : a d g g d g g h g g g g g g g g g g g g d g g g g g g g g g g g g g h g g g g a g g 7 - : e - R r.r.r.r.r.",
"r.r.r.r.r.o.- r s a - 6 h h h B B h B B B h B B N N N N N N N N N N N N N N N h h B N h h h h h h h h B 9 ; , t t - G r.r.r.r.r.",
"r.r.r.r.r.^ - t g h g - 6 B V V V V V V V V V V V V V V V V V V V V V V V V V V V V V V V V V V V V V s ; : h g t - Y r.r.r.r.r.",
"r.r.r.r.r.^ - i g N V f ; 7 V ) ) ) ) ) C ) C ) ` C C C C C C C C C C C C C C C ` C ) ) C C ) C ) ) s ; 7 F h g p , Q r.r.r.r.r.",
"r.r.r.r.r.o.- p g N V C Z - 6 C _ _ ` ` ` ` ` ` ` ` ` ` _ _ ` ` _ ` ) ` ` ` _ _ ` ` _ ` ` ) _ _ ` d - r F V B g f < Q r.r.r.r.r.",
"r.r.r.r.r.^ - l g h V C ) F : 7 ) { { { { { { { { { { { { { { { { { { { { { { { ` { { { { { ` { h ; 7 ' ) V B g f , Q r.r.r.r.r.",
"r.r.r.r.r.o.> l g N V C _ { G - 8 _ } } } ..} ....{ ..} ..} } } } ..{ ....} } } } } } } } } ..h - 6 ' _ ) V h g c , Q r.r.r.r.r.",
"r.r.r.r.r.^ - p g h ) ) ` ` } b ; 7 V ................................} ..............} ....B : 8 ` { _ ) ) g g p 5 Q r.r.r.r.r.",
"r.r.r.r.r.^ ; p h h B ) ` { } ..g - - 7 9 0 i g f f v v v v v x v v A A v x A A i 0 i i p : - 6 _ } { ` ) h h g a 3 Q r.r.r.r.r.",
"r.r.r.r.r.^ - p g h V V ` { } ....; - - : : : : : : 6 : 6 : 6 6 6 6 q q 6 6 q 6 : : 6 6 6 = = f ..} { _ ) ) h g a 4 Q r.r.r.r.r.",
"r.r.r.r.r.^ > p g h V ) ` { } ....s ; V { { { { { { { } { { { { { { { { { { { { { { } { { 6 6 ] ....} ` ) ) h h p 4 Q r.r.r.r.r.",
"r.r.r.r.r.^ - l g h V ) _ { } ....i : _ ..................` h t r g C ....................y u ....} { _ ) V h h f < Q r.r.r.r.r.",
"r.r.r.r.r.^ ; l h h V ` _ { } ....s : ) ................r $ X     . # e { ................l u ......} ` ) V h g p < Q r.r.r.r.r.",
"r.r.r.r.r.^ ; l g h V ) _ { } ....s : _ ............{ 2 .               * C ..............l p ....} { ` ) V h h f 3 Q r.r.r.r.r.",
"r.r.r.r.r.^ > p g h V ) _ { } ....s 6 { ............4                     4 ..............l u ....} { _ ) V h h p < R r.r.r.r.r.",
"r.r.r.r.r.^ - u g h V ) _ { ......s : ) ..........H @                     o g ............b u ....} { ` ) V h g u < Q r.r.r.r.r.",
"r.r.r.r.r.~ - l g N V C _ { } ....M 6 ' ..........a                         2 ............c u ......{ ` ) V B h p ; T r.r.r.r.r.",
"r.r.r.r.4.K > j g B V C ` { } ....D q X...........1                         % ............l u ....} { ` ) V h g p 3 n 6.r.r.r.r.",
"r.r.r.3.>.~ > l g h V C ` { } ....L e X...........&                         $ { ..........f u ....} { ` ) V B g p 4 E ;.3.r.r.r.",
"r.r.3.=.4.( > j g h V C _ { } ....L e X...........1                         % ............j u ....} { ` ) V h g f 4 W 4.=.6.r.r.",
"r.3.-.0.t.o.> c g B V C _ { } ....L e X...........t                         4 ............j u ....} { ` ) V h g j , W t.7.-.3.r.",
"3.-.4.t.t.o.> j g B V C ` { } ....L e X...........C #                     + B ............l u ....} { ` ) V h g l < W t.t.2.;.8.",
"&.4.t.t.t.o.> j g h V ) ` { } ....Y e X.............t o                 . e ..............j j ....} { ` ) V B g l < W t.t.t.4.&.",
"*.q.t.t.t.o.> j g B B ) _ { } ....L y X...............t O             o 4 ................A y ....} { [ C V N g p , W t.t.t.7.&.",
"3.*.7.t.t.o.> c g h V ) ` { } ....Y y X.................h # .       X t ..................p p ......} J C V N g c , W t.t.7.&.6.",
"r.3.>.7.t.o.> j g h V ) ` { ......Y u X...................4         o { ..................l p ....} { ` C V N g u < W t.7.;.6.r.",
"r.r.6.&.q.o.> j h B V ) ` { } ....S v ....................&         . ....................l y ....} { ` C V N g c , W 0.&.3.r.r.",
"r.r.r.4.>.~ > j g h ) ) ` { } ....Y e X...................3         o ....................l u ....} { ` C V M g j < U -.6.r.r.r.",
"r.r.r.r.1.Y > j g h V ) ` { } ....Y e X...................4         X C ..................l j ....} { ` C V N g l < m 3.r.r.r.r.",
"r.r.r.r.r.W - p g h V ) ` { } ....L e X...................3         . ) ..................l y ....} { ` C V M g p ; T r.r.r.r.r.",
"r.r.r.r.r.o.- j g h V ) _ { ......L e X...................4         O ....................l j ....} { ` C V M d u < Q r.r.r.r.r.",
"r.r.r.r.r.^ - t g h V ) ` } } ....Y e X.....................% . . O V ....................j u ....} { ` ` V h g j < Q r.r.r.r.r.",
"r.r.r.r.r.^ - c g B V ) ` { ......S e X...................................................j u ....} { ` ) V B g p < Q r.r.r.r.r.",
"r.r.r.r.r.^ > l g h V ) ` { ......Y e X...................................................l j ....} ` ` C B h g p < W r.r.r.r.r.",
"r.r.r.r.r.^ - c g B V ) ` { } ....S - j l n S D A A Z S D S A A A A A A A A A A A A A v y > q ....} ` ` ) V h g p < Q r.r.r.r.r.",
"r.r.r.r.r.^ - c g h V ) _ { .... .y = < y y y y y y y y y y y y y y y y y y y y y y y e q 4 < P ..} { _ C V h g c < Q r.r.r.r.r.",
"r.r.r.r.r.^ > f g B V ) ` { } | m 6 x  . . . . .| | | | | | | |  . .| |  . .| |  .}  .| } [ l < Y } { _ C V h g u , Q r.r.r.r.r.",
"r.r.r.r.r.o.- l g B V C { { [ x - v ........................................................| x < v { _ ) V h g f , Q r.r.r.r.r.",
"r.r.r.r.r.o.> l g h V ` ` ` z , v ..} } } } } ..} } } } } ..} ......} ..} ..} } ....} ....} } [ y 5 Y _ ) V h g c , Q r.r.r.r.r.",
"r.r.r.r.r.^ - l d N V H ' n : z { { { { { { { { { { { { ` { { { { { { { { { { { { { { } { { { { ` c > L C V h g u , Q r.r.r.r.r.",
"r.r.r.r.r.^ > p g N V H x : x _ ) ` _ _ _ _ ` ` _ _ _ ` ` ` ` ` _ _ _ _ ` { _ _ ` ` _ _ ` ` ` ` ` H l q S V B g f , Q r.r.r.r.r.",
"r.r.r.r.r.^ > p g N F n 6 p C C ) ) ) ) ) ) ) ) ) ) ) ) ) ) ) ) ` ) ` ) ) ) ) ) ) ) ) ) ) ) ) ) C ) H u , S h g u < W r.r.r.r.r.",
"r.r.r.r.r.^ > p g N l > l V V V V B V V B V V V B V V B V V V V V V h V V V B ) V V V V V V F ) V V V N 8 : t g t ; Q r.r.r.r.r.",
"r.r.r.r.r.^ - l g e < u M M N N h h B h N N N N h h h h h B h h h h h h h h B h h h h h h B h h N N B N h < : 7 t , Q r.r.r.r.r.",
"r.r.r.r.r.^ = p : - 7 g h g g g g a h g g g g g g h g g g g g g g g h h g g h g h g h h g g h g h h g g g g < - 6 - U r.r.r.r.r.",
"r.r.r.r.r.o.; ; - : a i a a p i a a a a t a a i a a a a a a a a p a a a a a a a a a g a a a a i g a a a a a t , - - I r.r.r.r.r.",
"r.r.r.r.r.R = ; - 7 5 u u l c n m m n n n n z l c b m n b n n b n n b b n n n n j c n b n n n m c n n n n j k w < - e r.r.r.r.r.",
"r.r.r.r.r.n = - - , , , , 4 < , , , , 4 < , < < > < < 4 < , , , 3 3 : ; 6 ; < ; , < , 4 , < , < , < < < < < < < - = , r.r.r.r.r.",
"r.r.r.r.r.>.z @.%.%.%.%.%.%.%.%.%.%.%.%.%.%.%.%.O.! +.#.$.$.$.#.$.$.$.$.$.+.! @.%.%.%.%.%.%.%.%.%.%.%.%.%.%.%.%.@.I #.r.r.r.r.r.",
"r.r.r.r.,.-.e.t.t.t.t.t.t.t.t.t.t.t.t.t.t.t.t.t.t.4.>.9.r.r.r.r.r.r.r.r.3.-.7.t.t.t.t.t.t.t.t.t.t.t.t.t.t.t.t.t.t.w.=.3.r.r.r.r.",
"r.r.r.,.;.0.t.t.t.t.t.t.t.t.t.t.t.t.t.t.t.t.t.t.t.t.2.=.9.r.r.r.r.r.r.6.=.7.t.t.t.t.t.t.t.t.t.t.t.t.t.t.t.t.t.t.t.t.w.-.,.r.r.r.",
"r.r.,.=.w.t.t.t.t.t.t.t.t.t.t.t.t.t.t.t.t.t.t.t.t.t.t.4.:.3.r.r.r.r.3.;.7.t.t.t.t.t.t.t.t.t.t.t.t.t.t.t.t.t.t.t.t.t.t.0.=.,.r.r.",
"r.,.;.w.t.t.t.t.t.t.t.t.t.t.t.t.t.t.t.t.t.t.t.t.t.t.t.t.2.>.9.r.r.6.;.2.t.t.t.t.t.t.t.t.t.t.t.t.t.t.t.t.t.t.t.t.t.t.t.t.w.-.,.r.",
",.-.0.t.t.t.t.t.t.t.t.t.t.t.t.t.t.t.t.t.t.t.t.t.t.t.t.t.t.2.=.6.3.&.7.t.t.t.t.t.t.t.t.t.t.t.t.t.t.t.t.t.t.t.t.t.t.t.t.t.t.0.;.<.",
"-.e.t.t.t.t.t.t.t.t.t.t.t.t.t.t.t.t.t.t.t.t.t.t.t.t.t.t.t.t.4.=.=.7.t.t.t.t.t.t.t.t.t.t.t.t.t.t.t.t.t.t.t.t.t.t.t.t.t.t.t.t.w.=."
};
