/* XPM */
static char *result[] = {
/* columns rows colors chars-per-pixel */
"64 64 227 2 ",
"   c black",
".  c #030202",
"X  c #040303",
"o  c #050404",
"O  c #050507",
"+  c #0C0D16",
"@  c #0F111C",
"#  c #1E1A18",
"$  c #0F1226",
"%  c #101327",
"&  c #20222B",
"*  c #493F39",
"=  c #232747",
"-  c #282C49",
";  c #2D335C",
":  c #6C5A49",
">  c #7D6052",
",  c #7E6152",
"<  c #7F6354",
"1  c #7C6B62",
"2  c #806455",
"3  c #806456",
"4  c #826556",
"5  c #826657",
"6  c #826658",
"7  c #88695A",
"8  c #927A6D",
"9  c #927B6E",
"0  c #937C6F",
"q  c #9A7A69",
"w  c #9A7A6A",
"e  c #9A7B6B",
"r  c #9A7C6B",
"t  c #9B7C6B",
"y  c #9D7E6D",
"u  c #9E7E6D",
"i  c #9E7E6E",
"p  c #947C70",
"a  c #947D71",
"s  c #947E71",
"d  c #A27F6E",
"f  c #9D877C",
"g  c #B99F67",
"h  c #A68573",
"j  c #A78674",
"k  c #A98775",
"l  c #A58B7D",
"z  c #B08D7A",
"x  c #B18E7B",
"c  c #B7917B",
"v  c #B7927F",
"b  c #BB9079",
"n  c #BC907A",
"m  c #BC917A",
"M  c #BD917B",
"N  c #BD927B",
"B  c #BE927B",
"V  c #BE927C",
"C  c #BE937C",
"Z  c #BF937D",
"A  c #BF947D",
"S  c #BF947E",
"D  c #C0947D",
"F  c #C0947E",
"G  c #C0957E",
"H  c #C1957E",
"J  c #C0957F",
"K  c #C1957F",
"L  c #C1967F",
"P  c #464C81",
"I  c #434C89",
"U  c #475091",
"Y  c #505793",
"T  c #545993",
"R  c #0044FF",
"E  c #A38C80",
"W  c #A48D81",
"Q  c #A69083",
"!  c #AE9689",
"~  c #BE9884",
"^  c #B89F91",
"/  c #BFA597",
"(  c #C19680",
")  c #C19781",
"_  c #C29680",
"`  c #C29780",
"'  c #C29781",
"]  c #C39781",
"[  c #C39881",
"{  c #C29882",
"}  c #C39882",
"|  c #C39983",
" . c #C49882",
".. c #C49982",
"X. c #C49983",
"o. c #C59983",
"O. c #C59A83",
"+. c #C19A86",
"@. c #C59A84",
"#. c #C59B85",
"$. c #C69B84",
"%. c #C69B85",
"&. c #C69C85",
"*. c #C79C86",
"=. c #C79D86",
"-. c #C89D87",
";. c #C59E89",
":. c #C89E88",
">. c #C4A594",
",. c #CFA690",
"<. c #C9A998",
"1. c #D7AC95",
"2. c #DBAF98",
"3. c #E7B59B",
"4. c #E5B59C",
"5. c #E5B69C",
"6. c #E6B69D",
"7. c #E6B79D",
"8. c #E5B79E",
"9. c #E7B79E",
"0. c #E9B79C",
"q. c #E7B89E",
"w. c #E8B89F",
"e. c #E8B99F",
"r. c #E9B99F",
"t. c #EBB99F",
"y. c #D5B3A1",
"u. c #D4B7A7",
"i. c #DDB8A4",
"p. c #DDB8A5",
"a. c #DEB9A5",
"s. c #DEB9A6",
"d. c #DEBAA6",
"f. c #DFBAA6",
"g. c #DFBAA7",
"h. c #DFBBA7",
"j. c #DABCAC",
"k. c #E7B9A0",
"l. c #E9B9A0",
"z. c #E9BAA0",
"x. c #E8BAA1",
"c. c #EABAA0",
"v. c #EABAA1",
"b. c #EBBBA1",
"n. c #EBBBA2",
"m. c #EBBCA3",
"M. c #ECBCA2",
"N. c #ECBCA3",
"B. c #ECBDA3",
"V. c #EDBDA3",
"C. c #EEBCA2",
"Z. c #EBBCA4",
"A. c #EBBDA4",
"S. c #EDBDA4",
"D. c #EDBEA4",
"F. c #ECBEA5",
"G. c #EEBEA4",
"H. c #EEBEA5",
"J. c #EEBFA5",
"K. c #EFBFA5",
"L. c #EFBFA6",
"P. c #E0BBA8",
"I. c #E0BCA9",
"U. c #E1BCA9",
"Y. c #E1BDA9",
"T. c #E1BDAA",
"R. c #E2BEAA",
"E. c #E2BEAB",
"W. c #E3BFAC",
"Q. c #F0BDA3",
"!. c #EFC0A6",
"~. c #E3C0AD",
"^. c #E4C0AD",
"/. c #E4C1AE",
"(. c #E5C1AE",
"). c #E5C2AF",
"_. c #E6C2AF",
"`. c #F2C0A5",
"'. c #F0C0A6",
"]. c #F0C0A7",
"[. c #F1C1A7",
"{. c #F4C1A7",
"}. c #F1C1A8",
"|. c #F0C2A9",
" X c #F2C2A8",
".X c #F2C2A9",
"XX c #F3C3A9",
"oX c #F1C3AA",
"OX c #F3C3AA",
"+X c #F6C3A9",
"@X c #F3C4AA",
"#X c #F4C4AA",
"$X c #F4C5AB",
"%X c #F5C5AB",
"&X c #F5C5AC",
"*X c #F4C5AD",
"=X c #F4C6AD",
"-X c #F6C6AC",
";X c #F7C7AD",
":X c #F8C6AC",
">X c #FAC8AE",
",X c #FFD4AC",
"<X c #E1C2B1",
"1X c #E6C3B0",
"2X c #E3C4B3",
"3X c #E7C4B1",
"4X c #E8C5B2",
"5X c #E8C6B3",
"6X c #E9C6B4",
"7X c #E9C7B4",
"8X c #EAC8B5",
"9X c #E8C9B7",
"0X c #EBC8B6",
"qX c #EBC9B6",
"wX c #EBC9B7",
"eX c #ECC9B7",
"rX c #ECCAB7",
"tX c #E9C9B8",
"yX c #ECCAB8",
"uX c #EDCDBB",
"iX c #EECEBC",
"pX c #EFCEBD",
"aX c #FECBB0",
"sX c #FFCCB1",
"dX c #F0CFBD",
"fX c #F1D0BE",
"gX c #FFE2A4",
/* pixels */
"' f.fXfXfXfXfXfXfXfXfXfXfXfXfXfXfXfXfXfXfXfXfXfXfXfXfXfXfXfXT.Z ( ~.fXfXfXfXfXfXfXfXfXfXfXfXfXfXfXfXfXfXfXfXfXfXfXfXfXfXfXfXa.| ",
"+X-.s.fXfXfXfXfXfXfXfXfXfXfXfXfXfXfXfXfXfXfXfXfXfXfXfXfXfXW.*.B.x.&.1XfXfXfXfXfXfXfXfXfXfXfXfXfXfXfXfXfXfXfXfXfXfXfXfXfXfXs.:.{.",
"sX[.O.a.fXfXfXfXfXfXfXfXfXfXfXfXfXfXfXfXfXfXfXfXfXfXfXfXW.D '.sXsXM.L (.fXfXfXfXfXfXfXfXfXfXfXfXfXfXfXfXfXfXfXfXfXfXfXfXp.] #XsX",
"sXsX&X@.a.fXfXfXfXfXfXfXfXfXfXfXfXfXfXfXfXfXfXfXfXfXfXE.-.K.sXsXsXsXn.-.).fXfXfXfXfXfXfXfXfXfXfXfXfXfXfXfXfXfXfXfXfXfXi.-.&XsXsX",
"sXsXsX[.-.d.fXfXfXfXfXfXfXfXfXfXfXfXfXfXfXfXfXfXfXfXW._ D.sXsXsXsXsXsXM.H 3XfXfXfXfXfXfXfXfXfXfXfXfXfXfXfXfXfXfXfXfXi.$. XsXsXsX",
"sXsXsXsX%X_ h.fXfXfXfXfXfXfXfXfXfXfXfXfXfXfXfXfXfXY.%.!.sXsXsXsXsXsXsXsXM.*.~.fXfXfXfXfXfXfXfXfXfXfXfXfXfXfXfXfXfXi.@.;XsXsXsXsX",
"sXsXsXsXsXXX-.g.fXfXfXfXfXfXfXfXfXfXfXfXfXfXfXfXW.%.N.          sXsXsX            fXfXfXfXfXfXfXfXfXfXfXfXfXfXfXp.-. XsXsXsXsXsX",
"sXsXsXsXsXsX X} s.fXfXfXfXfXfXfXfXfXfXfXfXfXfXE._     gXgXg gXgX  sX  gXgXgXg g gX  fXfXfXfXfXfXfXfXfXfXfXfXfXa.] %XsXsXsXsXsXsX",
"sXsXsXsXsXsXsX-X*.a.fXfXfXfXfXfXfXfXfXfXfXfX      gXgXg g gXgXgXgX  gXgXgXgXgXgXg g     fXfXfXfXfXfXfXfXfXfXa.-.#XsXsXsXsXsXsXsX",
"sXsXsXsXsXsXsXsX].&.s.fXfXfXfXfXfXfXfXfX    gXgXgXgXg g gXgXgXgXgX  gXgXgXgXgXgXgXg gXgX  fXfXfXfXfXfXfXfXi.X..XsXsXsXsXsXsXsXsX",
"sXsXsXsXsXsXsXsXsX-X} g.fXfXfXfXfXfXfX  gXgXgXgXg g gXgXgXgXgXgXgXgXgXgXg g gXgXgXgXg gXgX  fXfXfXfXfXfXi.&.;XsXsXsXsXsXsXsXsXsX",
"sXsXsXsXsXsXsXsXsXsX X-.h.fXfXfXfXfX  gXgXgXgXg g gXgXgXgXgXgXgXgXgXgXgXgXgXg g gXgXgXgXgX  fXfXfXfXfXi.*.}.sXsXsXsXsXsXsXsXsXsX",
"sXsXsXsXsXsXsXsXsXsXsXXX_ d.fXfXfXfX  gXgXgXg g gXgXgXgXgXg g g g gXgXgXgXgXgXgXg g gXgXgX  fXfXfXfXd.} ;XsXsXsXsXsXsXsXsXsXsXsX",
"sXsXsXsXsXsXsXsXsXsXsXsX%X-.a.fXfX  gXgXgXg g gXgXgXgXg g gXgXgXgXgX      gXgXgXgXgXg gXgXgX  fXfXd.:.XXsXsXsXsXsXsXsXsXsXsXsXsX",
"sXsXsXsXsXsXsXsXsXsXsXsXsX[.@.a.^.  gXgXg g gXg g g gXg gXgXgXgX      ,X,X    gXgXgXg g gXgX  ).i.[ OXsXsXsXsXsXsXsXsXsXsXsXsXsX",
"sXsXsXsXsXsXsXsXsXsXsXsXsXsX*XZ F   gXgXgXg g gXgXgXg gXgXgXgX  ,X,X,X,X,X,X,X  gXgXgXgXgXgX  S ' =XsXsXsXsXsXsXsXsXsXsXsXsXsXsX",
"sXsXsXsXsXsXsXsXsXsXsXsXsXsXA.Z '   gXgXgXg gXgXgXg gXgXgXgXgX  ,X,X,X,X,X,X,X,X  gXgXgXgXgX  G C [.sXsXsXsXsXsXsXsXsXsXsXsXsXsX",
"sXsXsXsXsXsXsXsXsXsXsXsXsXv.$.).  gXgXg g gXgXgXg g gXgXgXgX  ,X,X,X,X,X,X,X,X,X,X  gXgXgXgX  rXR.&.S.sXsXsXsXsXsXsXsXsXsXsXsXsX",
"sXsXsXsXsXsXsXsXsXsXsXsXV.&.W.fX  gXgXg gXgXgXg g gXgXgXgX  ,X,X,X,X,X,X,X,X,X,X,X,X  gXgXgX  fXfXI.%.].sXsXsXsXsXsXsXsXsXsXsXsX",
"sXsXsXsXsXsXsXsXsXsXsXN.K ).fXfX  gXg g gXgXgXg gXgXgXgX  ,X,X,X,X,X,X,X,X,X,X,X,X,X  gXgX  fXfXfXfXR.] H.sXsXsXsXsXsXsXsXsXsXsX",
"sXsXsXsXsXsXsXsXsXsXB.-.^.fXfXfX  gXg gXgXgXgXgX        R R ,X,X,X,X,X,XR R R ,X,X,X,X      fXfXfXfXfXT.-.'.sXsXsXsXsXsXsXsXsXsX",
"sXsXsXsXsXsXsXsXsXV.H /.fXfXfXfX  gXg gXgX      ,X,XR R R R ,X,X,X,X,X,XR R R ,X,X,X,X,X,X  fXfXfXfXfXfXW.A }.sXsXsXsXsXsXsXsXsX",
"sXsXsXsXsXsXsXsXb.*.).fXfXfXfXfX  gXgXgX  ,X,X,X,X,X,X,X,X,X,X,X,X,X,X,X,X,X,X,X,X,X,X,X,X  fXfXfXfXfXfXfXE.=.D.sXsXsXsXsXsXsXsX",
"sXsXsXsXsXsXsXB.@.W.fXfXfXfXfXfX  gXgXgX  ,X,X,X,X,X,X,X,X,X,X,X,X,X,X,X,X,X,X,X,X,X,X      fXfXfXfXfXfXfXfXU.X.].sXsXsXsXsXsXsX",
"sXsXsXsXsXsXn.} ).fXfXfXfXfXfXfX  gXgXgX  ,X,X,X,X,X,X,X,X,X,X,X,X,X,X,X,X,X,X,X,X,X,X  fXfXfXfXfXfXfXfXfXfXfXR.o.D.sXsXsXsXsXsX",
"sXsXsXsXsXD.-.W.fXfXfXfXfXfXfXfXfX      ,X,X,X,X,X,X,X,X,X,X,X        ,X,X,X,X,X,X,X  fXfXfXfXfXfXfXfXfXfXfXfXfXU.=.}.sXsXsXsXsX",
"sXsXsXsXD.V _.fXfXfXfXfXfXfXfXfXfXfXfXfX  ,X,X,X,X,X,X,X,X,X  ,X,X,X,X  ,X,X,X      fXfXfXfXfXfXfXfXfXfXfXfXfXfXfXE.D '.sXsXsXsX",
"sXsXsXn.=.1XfXfXfXfXfXfXfXfXfXfXfXfXfXfXfX        ,X,X,X,X,X,X,X,X,X,X,X,X,X  fXfXfXfXfXfXfXfXfXfXfXfXfXfXfXfXfXfXfXW.-.H.sXsXsX",
"sXsXB. .W.fXfXfXfXfXfXfXfXfXfXfXfXfXfXfXfXfXfXfXfX  ,X,X,X,X,X,X,X,X,X,X,X  fXfXfXfXfXfXfXfXfXfXfXfXfXfXfXfXfXfXfXfXfXT.] [.sXsX",
"sXb.@.).fXfXfXfXfXfXfXfXfXfXfXfXfXfXfXfXfXfXfXfXfXfX        ,X,X,X,X,X:   X   fXfXfXfXfXfXfXfXfXfXfXfXfXfXfXfXfXfXfXfXfXR.%.S.sX",
"C.*.W.fXfXfXfXfXfXfXfXfXfXfXfXfXfXfXfXfX  fX1 iXfX            ,X,X,X      & &   fXpX# fX  fXfXfXfXfXfXfXfXfXfXfXfXfXfXfXfXI.%.`.",
"n _.fXfXfXfXfXfXfXfXfXfXfXfXfXfXfXfXfX  -   P .   - - - -     ,X,X,X    -     - * ; =   -   fXfXfXfXfXfXfXfXfXfXfXfXfXfXfXfXR.M ",
") 4XfXfXfXfXfXfXfXfXfXfXfXfXfXfXfXfX  - -   U U   - - - -   U       U   - - - - o U U   - -   fXfXfXfXfXfXfXfXfXfXfXfXfXfXfX(.J ",
"t._ _.fXfXfXfXfXfXfXfXfXfXfXfXfXfX  - - -   U U U         U U U U U U Y         U U U   - - -   fXfXfXfXfXfXfXfXfXfXfXfXfX^.A Q.",
"sXv.-.1XfXfXfXfXfXfXfXfXfXfXfXfXfX  - -   U   U U U U U T O           I U U U U U U   U   - -   fXfXfXfXfXfXfXfXfXfXfXfXW.-.G.sX",
"sXsXb.K 4XfXfXfXfXfXfXfXfXfXfXfXfX      U U   U U         - - - - - -     + @   U U   U U     fXfXfXfXfXfXfXfXfXfXfXfX/._ B.sXsX",
"sXsXsXv.*./.fXfXfXfXfXfXfXfXfXfXfXfX  U       U   - - $ $ - - - $ - - $ % - - -   U   U U U   fXfXfXfXfXfXfXfXfXfXfXE.%.G.sXsXsX",
"sXsXsXsXr.@.4XfXfXfXfXfXfXfXfXfXfXfXfX  $ $ $   - - - $ - $ - $ - $ - $ - $ - - -         U   fXfXfXfXfXfXfXfXfXfX/.%.n.sXsXsXsX",
"sXsXsXsXsXc.} (.fXfXfXfXfXfXfXfXfXfX  $ $ $ $ $   - - $ - $ - $ - $ - $ - $ - - -     $ $   fXfXfXfXfXfXfXfXfXfXW._ G.sXsXsXsXsX",
"sXsXsXsXsXsXz.-.3XfXfXfXfXfXfXfXfXfX  $ $ $ $ $   - - $ $ - - $ $ - - $ - $ - - -   fX    fXfXfXfXfXfXfXfXfXfX^.-.B.sXsXsXsXsXsX",
"sXsXsXsXsXsXsXn.F 3XfXfXfXfXfXfXfXfX  $ $ $ $ $   - - $ - $ - $ - - - $ $ - - - -   fXfXfXfXfXfXfXfXfXfXfXfX(.D G.sXsXsXsXsXsXsX",
"sXsXsXsXsXsXsXsXb.-.(.fXfXfXfXfXfXfXfX  $ $ $   - - - - - - - - - - - - - - - - -   d.fXfXfXfXfXfXfXfXfXfXE.*.H.sXsXsXsXsXsXsXsX",
"sXsXsXsXsXsXsXsXsXl...4XfXfXfXfXfXfXfXfX        - - - - -             - - - - - -   -.a.fXfXfXfXfXfXfXfX^.o.M.sXsXsXsXsXsXsXsXsX",
"sXsXsXsXsXsXsXsXsXsXc.@./.fXfXfXfXfXfXp.] @X  - - - - - - -   U U   - -       - - -   @.a.fXfXfXfXfXfXE...D.sXsXsXsXsXsXsXsXsXsX",
"sXsXsXsXsXsXsXsXsXsXsXr.*.4XfXfXfXfXi.-.-XsX            -               $ $ $         &X@.a.fXfXfXfX(.=.M.sXsXsXsXsXsXsXsXsXsXsX",
"sXsXsXsXsXsXsXsXsXsXsXsXv.K 1XfXfXi.%. XsXsXsXsXsX  U U U U U     sX  $ $ $ $ $     sXsX[.-.d.fXfX(.V J.sXsXsXsXsXsXsXsXsXsXsXsX",
"sXsXsXsXsXsXsXsXsXsXsXsXsXn.-.).p.@.;XsXsXsXsXsXsX  U U U U U   sXsX  $ $ $ $ $   sXsXsXsX$X_ h.W.-.J.sXsXsXsXsXsXsXsXsXsXsXsXsX",
"sXsXsXsXsXsXsXsXsXsXsXsXsXsXx.b X.|.sXsXsXsXsXsXsXsX  U U U   :Xk.  $ $ $ $ $ $ $   sXsXsXsXoX{ m Z.sXsXsXsXsXsXsXsXsXsXsXsXsXsX",
"sXsXsXsXsXsXsXsXsXsXsXsXsXsX8.N | H.sXsXsXsXsXaXx.1.+.      h h h   $ $ $ $ $ $ $   sXsXsXsXM.( Z 8.sXsXsXsXsXsXsXsXsXsXsXsXsXsX",
"sXsXsXsXsXsXsXsXsXsXsXsXsX6.-.7XP.%. XsX>X2.v j h h h h h h h h h   $ $ $ $ $ $ $   k ;.m.S.&.R.qX&.6.sXsXsXsXsXsXsXsXsXsXsXsXsX",
"sXsXsXsXsXsXsXsXsXsXsXsX4.o.4XfXfXU.( ,.h h h h h h h h h h h h h   $ $ $ $ $ $ $   h h e 7 y.fXfX1X*.9.sXsXsXsXsXsXsXsXsXsXsXsX",
"sXsXsXsXsXsXsXsXsXsXsX4.%.yXfXfXfXfX<.6 y h h h h h h h h h h h h h   $ $ $ $ $   h h r 6 p E 9XfXfXqX] w.sXsXsXsXsXsXsXsXsXsXsX",
"sXsXsXsXsXsXsXsXsXsX5.=.3XfXfXfXfXfX^ 0 > i h h h h h h h h h h h h h           h h t , a f f <XfXfXfX3X-.e.sXsXsXsXsXsXsXsXsXsX",
"sXsXsXsXsXsXsXsXsXq.[ wXfXfXfXfXfXfXj.f 9 5 t h h h h h h h h h h h h h h h h h h q 5 s f f Q tXfXfXfXfX4X` 9.sXsXsXsXsXsXsXsXsX",
"sXsXsXsXsXsXsXsXq.:.5XfXfXfXfXfXfXfXdXu.f 8 2 u h h h h h h h h h h h h h h h h t 3 0 f f ! 2XfXfXfXfXfXfX8X=.7.sXsXsXsXsXsXsXsX",
"sXsXsXsXsXsXsX5.[ 5XfXfXfXfXfXfXfXfXfXfXuXu.l 4 t h h h h h h h h h h h h h h w < a W / <XfXfXfXfXfXfXfXfXfX1X$.7.sXsXsXsXsXsXsX",
"sXsXsXsXsXsX4.=.eXfXfXfXfXfXfXfXfXfXfXfXfXfXfXg.c ,.;.~ x h h h h h h h h v z d >.tXfXfXfXfXfXfXfXfXfXfXfXfXfX0Xo.9.sXsXsXsXsXsX",
"sXsXsXsXsX4.&.3XfXfXfXfXfXfXfXfXfXfXfXfXfXfXfXfXY.F [.sXsXsXsXsXsXsXsXsXsXL.B (.fXfXfXfXfXfXfXfXfXfXfXfXfXfXfXfX3X-.q.sXsXsXsXsX",
"sXsXsXsX6.o.yXfXfXfXfXfXfXfXfXfXfXfXfXfXfXfXfXfXfXR.-.L.sXsXsXsXsXsXsXsXM.=.(.fXfXfXfXfXfXfXfXfXfXfXfXfXfXfXfXfXfX7X_ w.sXsXsXsX",
"sXsXsX7.-.4XfXfXfXfXfXfXfXfXfXfXfXfXfXfXfXfXfXfXfXfXI.]  XsXsXsXsXsXsXG. .E.fXfXfXfXfXfXfXfXfXfXfXfXfXfXfXfXfXfXfXfX6X-.9.sXsXsX",
"sXsX6.] 7XfXfXfXfXfXfXfXfXfXfXfXfXfXfXfXfXfXfXfXfXfXfXU.%.H.sXsXsXsXM.O.^.fXfXfXfXfXfXfXfXfXfXfXfXfXfXfXfXfXfXfXfXfXfX3XX.7.sXsX",
"sX6.-.8XfXfXfXfXfXfXfXfXfXfXfXfXfXfXfXfXfXfXfXfXfXfXfXfXP.&..XsXsXJ.*.R.fXfXfXfXfXfXfXfXfXfXfXfXfXfXfXfXfXfXfXfXfXfXfXfX0X%.7.sX",
"3.@.4XfXfXfXfXfXfXfXfXfXfXfXfXfXfXfXfXfXfXfXfXfXfXfXfXfXfXU._ !.F.F /.fXfXfXfXfXfXfXfXfXfXfXfXfXfXfXfXfXfXfXfXfXfXfXfXfXfX1X=.0.",
"#.rXfXfXfXfXfXfXfXfXfXfXfXfXfXfXfXfXfXfXfXfXfXfXfXfXfXfXfXfXY.' } ^.fXfXfXfXfXfXfXfXfXfXfXfXfXfXfXfXfXfXfXfXfXfXfXfXfXfXfXfX0X' "
};
