/* XPM */
static char *result[] = {
/* columns rows colors chars-per-pixel */
"64 64 213 2 ",
"   c black",
".  c #0F1226",
"X  c #1A1D30",
"o  c #1C1E32",
"O  c #1D2036",
"+  c #1E2136",
"@  c #1E2137",
"#  c #20222B",
"$  c #282C49",
"%  c #2E345E",
"&  c #7D6052",
"*  c #7E6152",
"=  c #7F6354",
"-  c #806455",
";  c #806456",
":  c #826556",
">  c #826657",
",  c #826658",
"<  c #88695A",
"1  c #927A6D",
"2  c #927B6E",
"3  c #937C6F",
"4  c #9A7A69",
"5  c #9A7A6A",
"6  c #9A7B6B",
"7  c #9A7C6B",
"8  c #9B7C6B",
"9  c #9D7E6D",
"0  c #9E7E6D",
"q  c #9E7E6E",
"w  c #947C70",
"e  c #947D71",
"r  c #947E71",
"t  c #A27F6E",
"y  c #9D877C",
"u  c #B99F67",
"i  c #A68573",
"p  c #A78674",
"a  c #A98775",
"s  c #A58B7D",
"d  c #B08D7A",
"f  c #B18E7B",
"g  c #B7917B",
"h  c #B7927F",
"j  c #BB9079",
"k  c #BC907A",
"l  c #BC917A",
"z  c #BD917B",
"x  c #BD927B",
"c  c #BE927B",
"v  c #BE927C",
"b  c #BE937C",
"n  c #BF937D",
"m  c #BF947D",
"M  c #BF947E",
"N  c #C0947D",
"B  c #C0947E",
"V  c #C0957E",
"C  c #C1957E",
"Z  c #C0957F",
"A  c #C1957F",
"S  c #C1967F",
"D  c #475091",
"F  c #0044FF",
"G  c #A38C80",
"H  c #A48D81",
"J  c #A69083",
"K  c #AE9689",
"L  c #BE9884",
"P  c #B89F91",
"I  c #BFA597",
"U  c #C19680",
"Y  c #C19781",
"T  c #C29680",
"R  c #C29780",
"E  c #C29781",
"W  c #C39781",
"Q  c #C39881",
"!  c #C29882",
"~  c #C39882",
"^  c #C39983",
"/  c #C49882",
"(  c #C49982",
")  c #C49983",
"_  c #C59983",
"`  c #C59A83",
"'  c #C59A84",
"]  c #C59B85",
"[  c #C69B84",
"{  c #C69B85",
"}  c #C69C85",
"|  c #C79C86",
" . c #C79D86",
".. c #C89D87",
"X. c #C59E89",
"o. c #C89E88",
"O. c #C4A594",
"+. c #CFA690",
"@. c #C9A998",
"#. c #DBAF98",
"$. c #DDB199",
"%. c #E7B59B",
"&. c #E5B59C",
"*. c #E5B69C",
"=. c #E6B69D",
"-. c #E6B79D",
";. c #E5B79E",
":. c #E7B79E",
">. c #E9B79C",
",. c #E7B89E",
"<. c #E8B89F",
"1. c #E8B99F",
"2. c #E9B99F",
"3. c #EBB99F",
"4. c #D5B3A1",
"5. c #D4B7A7",
"6. c #DDB8A4",
"7. c #DDB8A5",
"8. c #DEB9A5",
"9. c #DEB9A6",
"0. c #DEBAA6",
"q. c #DFBAA6",
"w. c #DFBAA7",
"e. c #DFBBA7",
"r. c #DABCAC",
"t. c #E7B9A0",
"y. c #E9B9A0",
"u. c #E9BAA0",
"i. c #E8BAA1",
"p. c #EABAA0",
"a. c #EABAA1",
"s. c #EBBBA1",
"d. c #EBBBA2",
"f. c #EBBCA3",
"g. c #ECBCA2",
"h. c #ECBCA3",
"j. c #ECBDA3",
"k. c #EDBDA3",
"l. c #EEBCA2",
"z. c #EBBCA4",
"x. c #EBBDA4",
"c. c #EDBDA4",
"v. c #EDBEA4",
"b. c #ECBEA5",
"n. c #EEBEA4",
"m. c #EEBEA5",
"M. c #EEBFA5",
"N. c #EFBFA5",
"B. c #EFBFA6",
"V. c #E0BBA8",
"C. c #E0BCA9",
"Z. c #E1BCA9",
"A. c #E1BDA9",
"S. c #E1BDAA",
"D. c #E2BEAA",
"F. c #E2BEAB",
"G. c #E3BFAC",
"H. c #F0BDA3",
"J. c #EFC0A6",
"K. c #E3C0AD",
"L. c #E4C0AD",
"P. c #E4C1AE",
"I. c #E5C1AE",
"U. c #E5C2AF",
"Y. c #E6C2AF",
"T. c #F2C0A5",
"R. c #F0C0A6",
"E. c #F0C0A7",
"W. c #F1C1A7",
"Q. c #F4C1A7",
"!. c #F1C1A8",
"~. c #F0C2A9",
"^. c #F2C2A8",
"/. c #F2C2A9",
"(. c #F3C3A9",
"). c #F1C3AA",
"_. c #F3C3AA",
"`. c #F6C3A9",
"'. c #F3C4AA",
"]. c #F4C4AA",
"[. c #F4C5AB",
"{. c #F5C5AB",
"}. c #F5C5AC",
"|. c #F4C5AD",
" X c #F4C6AD",
".X c #F6C6AC",
"XX c #F7C7AD",
"oX c #F8C6AC",
"OX c #FAC8AE",
"+X c #FFD4AC",
"@X c #E1C2B1",
"#X c #E6C3B0",
"$X c #E3C4B3",
"%X c #E7C4B1",
"&X c #E8C5B2",
"*X c #E8C6B3",
"=X c #E9C6B4",
"-X c #E9C7B4",
";X c #EAC8B5",
":X c #E8C9B7",
">X c #EBC8B6",
",X c #EBC9B6",
"<X c #EBC9B7",
"1X c #ECC9B7",
"2X c #ECCAB7",
"3X c #E9C9B8",
"4X c #ECCAB8",
"5X c #EDCDBB",
"6X c #FECBB0",
"7X c #FFCCB1",
"8X c #F0CFBD",
"9X c #F1D0BE",
"0X c #FFE2A4",
/* pixels */
"E q.9X9X9X9X9X9X9X9X9X9X9X9X9X9X9X9X9X9X9X9X9X9X9X9X9X9X9X9XS.n U K.9X9X9X9X9X9X9X9X9X9X9X9X9X9X9X9X9X9X9X9X9X9X9X9X9X9X9X9X8.^ ",
"`...9.9X9X9X9X9X9X9X9X9X9X9X9X9X9X9X9X9X9X9X9X9X9X9X9X9X9XG.| j.i.} #X9X9X9X9X9X9X9X9X9X9X9X9X9X9X9X9X9X9X9X9X9X9X9X9X9X9X9.o.Q.",
"7XW.` 8.9X9X9X9X9X9X9X9X9X9X9X9X9X9X9X9X9X9X9X9X9X9X9X9XG.N R.7X7Xg.S I.9X9X9X9X9X9X9X9X9X9X9X9X9X9X9X9X9X9X9X9X9X9X9X9X7.W ].7X",
"7X7X}.' 8.9X9X9X9X9X9X9X9X9X9X9X9X9X9X9X9X9X9X9X9X9X9XF...N.7X7X7X7Xd...U.9X9X9X9X9X9X9X9X9X9X9X9X9X9X9X9X9X9X9X9X9X9X6...}.7X7X",
"7X7X7XW...0.9X9X9X9X9X9X9X9X9X9X9X9X9X9X9X9X9X9X9X9XG.T v.7X7X7X7X7X7Xg.C %X9X9X9X9X9X9X9X9X9X9X9X9X9X9X9X9X9X9X9X9X6.[ ^.7X7X7X",
"7X7X7X7X{.T e.9X9X9X9X9X9X9X9X9X9X9X9X9X9X9X9X9X9XA.{           7X7X7X            9X9X9X9X9X9X9X9X9X9X9X9X9X9X9X9X6.' XX7X7X7X7X",
"7X7X7X7X7X(...w.9X9X9X9X9X9X9X9X9X9X9X9X9X9X9X9XG.    0X0Xu 0X0X  7X  0X0X0Xu u 0X  9X9X9X9X9X9X9X9X9X9X9X9X9X9X7...^.7X7X7X7X7X",
"7X7X7X7X7X7X^.~ 9.9X9X9X9X9X9X9X9X9X9X9X9X9X      0X0Xu u 0X0X0X0X  0X0X0X0X0X0Xu u     9X9X9X9X9X9X9X9X9X9X9X8.W {.7X7X7X7X7X7X",
"7X7X7X7X7X7X7X.X| 8.9X9X9X9X9X9X9X9X9X9X    0X0X0X0Xu u 0X0X0X0X0X  0X0X0X0X0X0X0Xu 0X0X  9X9X9X9X9X9X9X9X9X8...].7X7X7X7X7X7X7X",
"7X7X7X7X7X7X7X7XE.} 9.9X9X9X9X9X9X9X9X  0X0X0X0Xu u 0X0X0X0X0X0X0X0X0X0Xu u 0X0X0X0Xu 0X0X  9X9X9X9X9X9X9X6.) /.7X7X7X7X7X7X7X7X",
"7X7X7X7X7X7X7X7X7X.X~ w.9X9X9X9X9X9X  0X0X0X0Xu u 0X0X0X0X0X0X0X0X0X0X0X0X0Xu u 0X0X0X0X0X  9X9X9X9X9X9X6.} XX7X7X7X7X7X7X7X7X7X",
"7X7X7X7X7X7X7X7X7X7X^...e.9X9X9X9X9X  0X0X0Xu u 0X0X0X0X0Xu u u u 0X0X0X0X0X0X0Xu u 0X0X0X  9X9X9X9X9X6.| !.7X7X7X7X7X7X7X7X7X7X",
"7X7X7X7X7X7X7X7X7X7X7X(.T 0.9X9X9X  0X0X0Xu u 0X0X0X0Xu u 0X0X0X0X0X      0X0X0X0X0Xu 0X0X0X  9X9X9X0.~ XX7X7X7X7X7X7X7X7X7X7X7X",
"7X7X7X7X7X7X7X7X7X7X7X7X{...8.9X9X  0X0Xu u 0Xu u u 0Xu 0X0X0X0X      +X+X    0X0X0Xu u 0X0X  9X9X0.o.(.7X7X7X7X7X7X7X7X7X7X7X7X",
"7X7X7X7X7X7X7X7X7X7X7X7X7XW.' 8.L.  0X0X0Xu u 0X0X0Xu 0X0X0X0X  +X+X+X+X+X+X+X  0X0X0X0X0X0X  U.6.Q _.7X7X7X7X7X7X7X7X7X7X7X7X7X",
"7X7X7X7X7X7X7X7X7X7X7X7X7X7X|.n B   0X0X0Xu 0X0X0Xu 0X0X0X0X0X  +X+X+X+X+X+X+X+X  0X0X0X0X0X  M E  X7X7X7X7X7X7X7X7X7X7X7X7X7X7X",
"7X7X7X7X7X7X7X7X7X7X7X7X7X7Xx.n   0X0Xu u 0X0X0Xu u 0X0X0X0X  +X+X+X+X+X+X+X+X+X+X  0X0X0X0X  V b W.7X7X7X7X7X7X7X7X7X7X7X7X7X7X",
"7X7X7X7X7X7X7X7X7X7X7X7X7Xa.[ U.  0X0Xu 0X0X0Xu u 0X0X0X0X  +X+X+X+X+X+X+X+X+X+X+X+X  0X0X0X  2XD.} c.7X7X7X7X7X7X7X7X7X7X7X7X7X",
"7X7X7X7X7X7X7X7X7X7X7X7Xk.} G.9X  0Xu u 0X0X0Xu 0X0X0X0X  +X+X+X+X+X+X+X+X+X+X+X+X+X  0X0X  &X9X9XC.{ E.7X7X7X7X7X7X7X7X7X7X7X7X",
"7X7X7X7X7X7X7X7X7X7X7Xh.A U.9X9X  0Xu 0X0X0X0X0X        F F +X+X+X+X+X+XF F F +X+X+X+X      9X9X9X9XD.W m.7X7X7X7X7X7X7X7X7X7X7X",
"7X7X7X7X7X7X7X7X7X7Xj...L.9X9X9X  0Xu 0X0X      +X+XF F F F +X+X+X+X+X+XF F F +X+X+X+X+X+X  9X9X9X9X9XS...R.7X7X7X7X7X7X7X7X7X7X",
"7X7X7X7X7X7X7X7X7Xk.C P.9X9X9X9X  0X0X0X  +X+X+X+X+X+X+X+X+X+X+X+X+X+X+X+X+X+X+X+X+X+X+X+X  9X9X9X9X9X9XG.m !.7X7X7X7X7X7X7X7X7X",
"7X7X7X7X7X7X7X7Xs.| U.9X9X9X9X9X  0X0X0X  +X+X+X+X+X+X+X+X+X+X+X+X+X+X+X+X+X+X+X+X+X+X      9X9X9X9X9X9X9XF. .v.7X7X7X7X7X7X7X7X",
"7X7X7X7X7X7X7Xj.' G.9X9X9X9X9X9X  0X0X0X  +X+X+X+X+X+X+X+X+X+X+X+X+X+X+X+X+X+X+X+X+X+X  9X9X9X9X9X9X9X9X9X9XZ.) E.7X7X7X7X7X7X7X",
"7X7X7X7X7X7Xd.~ U.9X9X9X9X9X9X9X9X      +X+X+X+X+X+X+X+X+X+X+X        +X+X+X+X+X+X+X  9X9X9X9X9X9X9X9X9X9X9X9XD._ v.7X7X7X7X7X7X",
"7X7X7X7X7Xv...G.9X9X9X9X9X9X9X9X9X9X9X9X  +X+X+X+X+X+X+X+X+X  +X+X+X+X  +X+X+X      9X9X9X9X9X9X9X9X9X9X9X9X9X9XZ. .!.7X7X7X7X7X",
"7X7X7X7Xv.v Y.9X9X9X9X9X9X9X9X9X9X9X9X9X9X        +X+X+X+X+X+X+X+X+X+X+X+X+X  9X9X9X9X9X9X9X9X9X9X9X9X9X9X9X9X9X9XF.N R.7X7X7X7X",
"7X7X7Xd. .#X9X9X9X9X9X9X9X9X9X9X9X9X9X9X9X9X9X9X9X  +X+X+X+X+X+X+X+X+X+X+X  9X9X9X9X9X9X9X9X9X9X9X9X9X9X9X9X9X9X9X9XG...m.7X7X7X",
"7X7Xj./ G.9X9X9X9X9X9X9X9X9X9X9X9X9X9X9X9X9X9X9X9X9X        +X+X+X+X+X+X  9X9X9X9X9X9X9X9X9X9X9X9X9X9X9X9X9X9X9X9X9X9XS.W W.7X7X",
"7Xs.' U.9X9X9X9X9X9X9X9X9X9X9X9X9X9X9X9X9X9X9X9X9X9X9X9X=XT   +X+X+X+X  9X    9X9X9X9X9X9X9X9X9X9X9X9X9X9X9X9X9X9X9X9X9XD.{ c.7X",
"l.| G.9X9X9X9X9X9X9X9X9X9X9X9X9X9X9X9X9X9X9X9X9X9X          +X+X+X+X      # #   9X9X9X9X9X9X9X9X9X9X9X9X9X9X9X9X9X9X9X9X9XC.{ T.",
"k Y.9X9X9X9X9X9X9X9X9X9X9X9X9X9X9X9X9X9X  9X      $ $ $ $     +X+X+X    $     $       9X  9X9X9X9X9X9X9X9X9X9X9X9X9X9X9X9X9XD.z ",
"Y &X9X9X9X9X9X9X9X9X9X9X9X9X9X9X9X9X9X  $   D D   $ $ $ $   D       D   $ $ $ $   D D   $   9X9X9X9X9X9X9X9X9X9X9X9X9X9X9X9XI.Z ",
"3.T Y.9X9X9X9X9X9X9X9X9X9X9X9X9X9X9X  $ $   D D D         D D D D D D D         D D D   $ $   9X9X9X9X9X9X9X9X9X9X9X9X9X9XL.m H.",
"7Xa...#X9X9X9X9X9X9X9X9X9X9X9X9X9X  $ $ $   D D D D D D D D D D D D D D D D D D D D D   $ $ $   9X9X9X9X9X9X9X9X9X9X9X9XG...n.7X",
"7X7Xs.A &X9X9X9X9X9X9X9X9X9X9X9X9X  $ $   D   D D D D D D             D D D D D D D   D   $ $   9X9X9X9X9X9X9X9X9X9X9XP.T j.7X7X",
"7X7X7Xa.| P.9X9X9X9X9X9X9X9X9X9X9X9X    D D   D D         $ $ $ $ $ $           D D   D D     9X9X9X9X9X9X9X9X9X9X9XF.{ n.7X7X7X",
"7X7X7X7X2.' &X9X9X9X9X9X9X9X9X9X9X9X  D D D   D   $ . . $ $ $ . $ $ . . $ $ $ $   D   D D D   9X9X9X9X9X9X9X9X9X9XP.{ d.7X7X7X7X",
"7X7X7X7X7Xp.~ I.9X9X9X9X9X9X9X9X9X9X  D D D     $ $ . $ . $ . $ . $ . $ . $ $ $ $     D D D   9X9X9X9X9X9X9X9X9XG.T n.7X7X7X7X7X",
"7X7X7X7X7X7Xu...%X9X9X9X9X9X9X9X9X9X        9X  $ $ . $ . $ . $ . $ . $ . $ $ $ $   9X        9X9X9X9X9X9X9X9XL...j.7X7X7X7X7X7X",
"7X7X7X7X7X7X7Xd.B %X9X9X9X9X9X9X9X9X  . .   6.  $ $ . . $ $ . . $ $ . $ . $ $ $ $   9X  . .   9X9X9X9X9X9X9XI.N n.7X7X7X7X7X7X7X",
"7X7X7X7X7X7X7X7Xs...I.9X9X9X9X9X9X9X  . .   /   $ $ . $ . $ . $ $ $ . . $ $ $ $ $   0.  . .   9X9X9X9X9X9XF.| m.7X7X7X7X7X7X7X7X",
"7X7X7X7X7X7X7X7X7Xy.( &X9X9X9X9X9X9X        (.  $ $ $ $ $ $ $ $ $ $ $ $ $ $ $ $ $   ..        9X9X9X9X9XL._ g.7X7X7X7X7X7X7X7X7X",
"7X7X7X7X7X7X7X7X7X7Xp.' P.9X9X9X9X9X9X7.W '.7X  $ $ $ $ $             $ $ $ $ $ $   W.' 8.9X9X9X9X9X9XF.( v.7X7X7X7X7X7X7X7X7X7X",
"7X7X7X7X7X7X7X7X7X7X7X2.| &X9X9X9X9X6....X7X  $ $ $ $ $ $ $   D D   $ $ $ $ $ $ $ $   }.' 8.9X9X9X9XI. .g.7X7X7X7X7X7X7X7X7X7X7X",
"7X7X7X7X7X7X7X7X7X7X7X7Xa.A #X9X9X6.{ ^.7X7X            $             $               7XW...0.9X9XI.v M.7X7X7X7X7X7X7X7X7X7X7X7X",
"7X7X7X7X7X7X7X7X7X7X7X7X7Xd...U.7.' XX7X7X7X7X  D D D     D D     D D       D D D   7X7X7X[.T e.G...M.7X7X7X7X7X7X7X7X7X7X7X7X7X",
"7X7X7X7X7X7X7X7X7X7X7X7X7X7Xi.j ) ~.7X7X7X7X7X7X  D   $ $     oXt.    $ $ $   D   7X7X7X7X7X).! l z.7X7X7X7X7X7X7X7X7X7X7X7X7X7X",
"7X7X7X7X7X7X7X7X7X7X7X7X7X7X;.x ^ m.7X7X7X7X7X6X$.  @ O X X   i i   X X X o +   $.W.7X7X7X7Xg.U n ;.7X7X7X7X7X7X7X7X7X7X7X7X7X7X",
"7X7X7X7X7X7X7X7X7X7X7X7X7X=...-XV.{ ^.7XOX#.h p i             i i               i i a X.f.c.} D.,X} =.7X7X7X7X7X7X7X7X7X7X7X7X7X",
"7X7X7X7X7X7X7X7X7X7X7X7X&._ &X9X9XZ.U +.i i i i   % % % % %   i i   % % % % % %   i i i 6 < 4.9X9X#X| :.7X7X7X7X7X7X7X7X7X7X7X7X",
"7X7X7X7X7X7X7X7X7X7X7X&.{ 4X9X9X9X9X@., 9 i i   % % % % % %   i i   % % % % % % %   i 7 , w G :X9X9X,XW <.7X7X7X7X7X7X7X7X7X7X7X",
"7X7X7X7X7X7X7X7X7X7X*. .%X9X9X9X9X9XP 3 & q i                 i i                   8 * e y y @X9X9X9X%X..1.7X7X7X7X7X7X7X7X7X7X",
"7X7X7X7X7X7X7X7X7X,.Q <X9X9X9X9X9X9Xr.y 2 > 8 i i i i i i i i i i i i i i i i i i 4 > r y y J 3X9X9X9X9X&XR :.7X7X7X7X7X7X7X7X7X",
"7X7X7X7X7X7X7X7X,.o.*X9X9X9X9X9X9X9X8X5.y 1 - 0 i i i i i i i i i i i i i i i i 8 ; 3 y y K $X9X9X9X9X9X9X;X .-.7X7X7X7X7X7X7X7X",
"7X7X7X7X7X7X7X*.Q *X9X9X9X9X9X9X9X9X9X9X5X5.s : 8 i i i i i i i i i i i i i i 5 = e H I @X9X9X9X9X9X9X9X9X9X#X[ -.7X7X7X7X7X7X7X",
"7X7X7X7X7X7X&. .1X9X9X9X9X9X9X9X9X9X9X9X9X9X9Xw.g +.X.L f i i i i i i i i h d t O.3X9X9X9X9X9X9X9X9X9X9X9X9X9X>X_ :.7X7X7X7X7X7X",
"7X7X7X7X7X&.} %X9X9X9X9X9X9X9X9X9X9X9X9X9X9X9X9XA.B W.7X7X7X7X7X7X7X7X7X7XB.c I.9X9X9X9X9X9X9X9X9X9X9X9X9X9X9X9X%X..,.7X7X7X7X7X",
"7X7X7X7X=._ 4X9X9X9X9X9X9X9X9X9X9X9X9X9X9X9X9X9X9XD...B.7X7X7X7X7X7X7X7Xg. .I.9X9X9X9X9X9X9X9X9X9X9X9X9X9X9X9X9X9X-XT <.7X7X7X7X",
"7X7X7X-...&X9X9X9X9X9X9X9X9X9X9X9X9X9X9X9X9X9X9X9X9XC.W ^.7X7X7X7X7X7Xn./ F.9X9X9X9X9X9X9X9X9X9X9X9X9X9X9X9X9X9X9X9X=X..:.7X7X7X",
"7X7X=.W -X9X9X9X9X9X9X9X9X9X9X9X9X9X9X9X9X9X9X9X9X9X9XZ.{ m.7X7X7X7Xg.` L.9X9X9X9X9X9X9X9X9X9X9X9X9X9X9X9X9X9X9X9X9X9X%X) -.7X7X",
"7X=...;X9X9X9X9X9X9X9X9X9X9X9X9X9X9X9X9X9X9X9X9X9X9X9X9XV.} /.7X7XM.| D.9X9X9X9X9X9X9X9X9X9X9X9X9X9X9X9X9X9X9X9X9X9X9X9X>X{ -.7X",
"%.' &X9X9X9X9X9X9X9X9X9X9X9X9X9X9X9X9X9X9X9X9X9X9X9X9X9X9XZ.T J.b.B P.9X9X9X9X9X9X9X9X9X9X9X9X9X9X9X9X9X9X9X9X9X9X9X9X9X9X#X .>.",
"] 2X9X9X9X9X9X9X9X9X9X9X9X9X9X9X9X9X9X9X9X9X9X9X9X9X9X9X9X9XA.E ~ L.9X9X9X9X9X9X9X9X9X9X9X9X9X9X9X9X9X9X9X9X9X9X9X9X9X9X9X9X>XE "
};
