/* XPM */
static char *result[] = {
/* columns rows colors chars-per-pixel */
"64 64 218 2 ",
"   c black",
".  c #060504",
"X  c #181413",
"o  c #1E1A18",
"O  c #0F1226",
"+  c #101327",
"@  c #191C33",
"#  c #1F233D",
"$  c #20222B",
"%  c #232747",
"&  c #282C49",
"*  c #7D6052",
"=  c #7E6152",
"-  c #7F6354",
";  c #7C6B62",
":  c #806455",
">  c #806456",
",  c #826556",
"<  c #826657",
"1  c #826658",
"2  c #88695A",
"3  c #927A6D",
"4  c #927B6E",
"5  c #937C6F",
"6  c #9A7A69",
"7  c #9A7A6A",
"8  c #9A7B6B",
"9  c #9A7C6B",
"0  c #9B7C6B",
"q  c #9D7E6D",
"w  c #9E7E6D",
"e  c #9E7E6E",
"r  c #947C70",
"t  c #947D71",
"y  c #947E71",
"u  c #A27F6E",
"i  c #9D877C",
"p  c #B99F67",
"a  c #A68573",
"s  c #A98775",
"d  c #A58B7D",
"f  c #B08D7A",
"g  c #B18E7B",
"h  c #B7917B",
"j  c #B7927F",
"k  c #BB9079",
"l  c #BC907A",
"z  c #BC917A",
"x  c #BD917B",
"c  c #BD927B",
"v  c #BE927B",
"b  c #BE927C",
"n  c #BE937C",
"m  c #BF937D",
"M  c #BF947D",
"N  c #BF947E",
"B  c #C0947D",
"V  c #C0947E",
"C  c #C0957E",
"Z  c #C1957E",
"A  c #C0957F",
"S  c #C1957F",
"D  c #C1967F",
"F  c #464C81",
"G  c #475091",
"H  c #0044FF",
"J  c #A38C80",
"K  c #A48D81",
"L  c #A69083",
"P  c #AE9689",
"I  c #BD9783",
"U  c #BF9F81",
"Y  c #BE9884",
"T  c #B89F91",
"R  c #BFA597",
"E  c #C19680",
"W  c #C19781",
"Q  c #C29680",
"!  c #C29780",
"~  c #C29781",
"^  c #C39781",
"/  c #C39881",
"(  c #C29882",
")  c #C39882",
"_  c #C39983",
"`  c #C49882",
"'  c #C49982",
"]  c #C49983",
"[  c #C59983",
"{  c #C59A83",
"}  c #C59A84",
"|  c #C59B85",
" . c #C69B84",
".. c #C69B85",
"X. c #C69C85",
"o. c #C79C86",
"O. c #C79D86",
"+. c #C89D87",
"@. c #C59E89",
"#. c #C89E88",
"$. c #C8A08B",
"%. c #C4A594",
"&. c #CFA690",
"*. c #C9A998",
"=. c #DBAF98",
"-. c #DDB199",
";. c #E7B59B",
":. c #E5B59C",
">. c #E5B69C",
",. c #E6B69D",
"<. c #E6B79D",
"1. c #E5B79E",
"2. c #E7B79E",
"3. c #E9B79C",
"4. c #E7B89E",
"5. c #E8B89F",
"6. c #E8B99F",
"7. c #E9B99F",
"8. c #EBB99F",
"9. c #D5B3A1",
"0. c #D4B7A7",
"q. c #DDB8A4",
"w. c #DDB8A5",
"e. c #DEB9A5",
"r. c #DEB9A6",
"t. c #DEBAA6",
"y. c #DFBAA6",
"u. c #DFBAA7",
"i. c #DFBBA7",
"p. c #DABCAC",
"a. c #E7B9A0",
"s. c #E9B9A0",
"d. c #E9BAA0",
"f. c #E8BAA1",
"g. c #EABAA0",
"h. c #EABAA1",
"j. c #EBBBA1",
"k. c #EBBBA2",
"l. c #EBBCA3",
"z. c #ECBCA2",
"x. c #ECBCA3",
"c. c #ECBDA3",
"v. c #EDBDA3",
"b. c #EEBCA2",
"n. c #EBBCA4",
"m. c #EBBDA4",
"M. c #EDBDA4",
"N. c #EDBEA4",
"B. c #ECBEA5",
"V. c #EDBEA5",
"C. c #EEBEA4",
"Z. c #EEBEA5",
"A. c #EEBFA5",
"S. c #EFBFA5",
"D. c #EFBFA6",
"F. c #E0BBA8",
"G. c #E0BCA9",
"H. c #E1BCA9",
"J. c #E1BDA9",
"K. c #E1BDAA",
"L. c #E2BEAA",
"P. c #E2BEAB",
"I. c #E3BFAC",
"U. c #F0BDA3",
"Y. c #EFC0A6",
"T. c #E3C0AD",
"R. c #E4C0AD",
"E. c #E4C1AE",
"W. c #E5C1AE",
"Q. c #E5C2AF",
"!. c #E6C2AF",
"~. c #F2C0A5",
"^. c #F0C0A6",
"/. c #F0C0A7",
"(. c #F1C1A7",
"). c #F4C1A7",
"_. c #F1C1A8",
"`. c #F0C2A9",
"'. c #F2C2A8",
"]. c #F2C2A9",
"[. c #F3C3A9",
"{. c #F1C3AA",
"}. c #F3C3AA",
"|. c #F6C3A9",
" X c #F3C4AA",
".X c #F4C4AA",
"XX c #F4C5AB",
"oX c #F5C5AB",
"OX c #F5C5AC",
"+X c #F4C5AD",
"@X c #F4C6AD",
"#X c #F6C6AC",
"$X c #F7C7AD",
"%X c #FAC8AE",
"&X c #FFD4AC",
"*X c #E1C2B1",
"=X c #E6C3B0",
"-X c #E3C4B3",
";X c #E7C4B1",
":X c #E8C5B2",
">X c #E8C6B3",
",X c #E9C6B4",
"<X c #E9C7B4",
"1X c #EAC8B5",
"2X c #E8C9B7",
"3X c #EBC8B6",
"4X c #EBC9B6",
"5X c #EBC9B7",
"6X c #ECC9B7",
"7X c #ECCAB7",
"8X c #E9C9B8",
"9X c #EBCBBA",
"0X c #ECCAB8",
"qX c #EDCDBB",
"wX c #FFCCB1",
"eX c #F0CFBD",
"rX c #F1D0BE",
"tX c #FFE2A4",
/* pixels */
"~ y.rXrXrXrXrXrXrXrXrXrXrXrXrXrXrXrXrXrXrXrXrXrXrXrXrXrXrXrXK.m E T.rXrXrXrXrXrXrXrXrXrXrXrXrXrXrXrXrXrXrXrXrXrXrXrXrXrXrXrXe._ ",
"|.+.r.rXrXrXrXrXrXrXrXrXrXrXrXrXrXrXrXrXrXrXrXrXrXrXrXrXrXI.o.c.f.X.=XrXrXrXrXrXrXrXrXrXrXrXrXrXrXrXrXrXrXrXrXrXrXrXrXrXrXr.#.).",
"wX(.{ e.rXrXrXrXrXrXrXrXrXrXrXrXrXrXrXrXrXrXrXrXrXrXrXrXI.B ^.wXwXz.D W.rXrXrXrXrXrXrXrXrXrXrXrXrXrXrXrXrXrXrXrXrXrXrXrXw.^ .XwX",
"wXwXOX} e.rXrXrXrXrXrXrXrXrXrXrXrXrXrXrXrXrXrXrXrXrXrXP.+.S.wXwXwXwXk.+.Q.rXrXrXrXrXrXrXrXrXrXrXrXrXrXrXrXrXrXrXrXrXrXq.+.OXwXwX",
"wXwXwX(.+.t.rXrXrXrXrXrXrXrXrXrXrXrXrXrXrXrXrXrXrXrXI.Q N.wXwXwXwXwXwXz.Z ;XrXrXrXrXrXrXrXrXrXrXrXrXrXrXrXrXrXrXrXrXq. .'.wXwXwX",
"wXwXwXwXoXQ i.rXrXrXrXrXrXrXrXrXrXrXrXrXrXrXrXrXrXJ...Y.wXwXwXwXwXwXwXwXz.o.T.rXrXrXrXrXrXrXrXrXrXrXrXrXrXrXrXrXrXq.} $XwXwXwXwX",
"wXwXwXwXwX[.+.u.rXrXrXrXrXrXrXrXrXrXrXrXrXrXrXrXI...x.          wXwXwX            rXrXrXrXrXrXrXrXrXrXrXrXrXrXrXw.+.'.wXwXwXwXwX",
"wXwXwXwXwXwX'.) r.rXrXrXrXrXrXrXrXrXrXrXrXrXrXP.Q     tXtXp tXtX  wX  tXtXtXp p tX  rXrXrXrXrXrXrXrXrXrXrXrXrXe.^ oXwXwXwXwXwXwX",
"wXwXwXwXwXwXwX#Xo.e.rXrXrXrXrXrXrXrXrXrXrXrX      tXtXp p tXtXtXtX  tXtXtXtXtXtXp p     rXrXrXrXrXrXrXrXrXrXe.+..XwXwXwXwXwXwXwX",
"wXwXwXwXwXwXwXwX/.X.r.rXrXrXrXrXrXrXrXrX    tXtXtXtXp p tXtXtXtXtX  tXtXtXtXtXtXtXp tXtX  rXrXrXrXrXrXrXrXq.] ].wXwXwXwXwXwXwXwX",
"wXwXwXwXwXwXwXwXwX#X) u.rXrXrXrXrXrXrX  tXtXtXtXp p tXtXtXtXtXtXtXtXtXtXp p tXtXtXtXp tXtX  rXrXrXrXrXrXq.X.$XwXwXwXwXwXwXwXwXwX",
"wXwXwXwXwXwXwXwXwXwX'.+.i.rXrXrXrXrX  tXtXtXtXp p tXtXtXtXtXtXtXtXtXtXtXtXtXp p tXtXtXtXtX  rXrXrXrXrXq.o._.wXwXwXwXwXwXwXwXwXwX",
"wXwXwXwXwXwXwXwXwXwXwX[.Q t.rXrXrXrX  tXtXtXp p tXtXtXtXtXp p p p tXtXtXtXtXtXtXp p tXtXtX  rXrXrXrXt.) $XwXwXwXwXwXwXwXwXwXwXwX",
"wXwXwXwXwXwXwXwXwXwXwXwXoX+.e.rXrX  tXtXtXp p tXtXtXtXp p tXtXtXtXtX      tXtXtXtXtXp tXtXtX  rXrXt.#.[.wXwXwXwXwXwXwXwXwXwXwXwX",
"wXwXwXwXwXwXwXwXwXwXwXwXwX(.} e.R.  tXtXp p tXp p p tXp tXtXtXtX      &X&X    tXtXtXp p tXtX  Q.q./ }.wXwXwXwXwXwXwXwXwXwXwXwXwX",
"wXwXwXwXwXwXwXwXwXwXwXwXwXwX+Xm V   tXtXtXp p tXtXtXp tXtXtXtX  &X&X&X&X&X&X&X  tXtXtXtXtXtX  N ~ @XwXwXwXwXwXwXwXwXwXwXwXwXwXwX",
"wXwXwXwXwXwXwXwXwXwXwXwXwXwXm.m ~   tXtXtXp tXtXtXp tXtXtXtXtX  &X&X&X&X&X&X&X&X  tXtXtXtXtX  C n (.wXwXwXwXwXwXwXwXwXwXwXwXwXwX",
"wXwXwXwXwXwXwXwXwXwXwXwXwXh. .Q.  tXtXp p tXtXtXp p tXtXtXtX  &X&X&X&X&X&X&X&X&X&X  tXtXtXtX  7XL.X.M.wXwXwXwXwXwXwXwXwXwXwXwXwX",
"wXwXwXwXwXwXwXwXwXwXwXwXv.X.I.rX  tXtXp tXtXtXp p tXtXtXtX  &X&X&X&X&X&X&X&X&X&X&X&X  tXtXtX  rXrXG.../.wXwXwXwXwXwXwXwXwXwXwXwX",
"wXwXwXwXwXwXwXwXwXwXwXx.S Q.rXrX  tXp p tXtXtXp tXtXtXtX  &X&X&X&X&X&X&X&X&X&X&X&X&X  tXtX  rXrXrXrXL.^ Z.wXwXwXwXwXwXwXwXwXwXwX",
"wXwXwXwXwXwXwXwXwXwXc.+.R.rXrXrX  tXp tXtXtXtXtX        H H &X&X&X&X&X&XH H H &X&X&X&X      rXrXrXrXrXK.+.^.wXwXwXwXwXwXwXwXwXwX",
"wXwXwXwXwXwXwXwXwXv.Z E.rXrXrXrX  tXp tXtX      &X&XH H H H &X&X&X&X&X&XH H H &X&X&X&X&X&X  rXrXrXrXrXrXI.M _.wXwXwXwXwXwXwXwXwX",
"wXwXwXwXwXwXwXwXj.o.Q.rXrXrXrXrX  tXtXtX  &X&X&X&X&X&X&X&X&X&X&X&X&X&X&X&X&X&X&X&X&X&X&X&X  rXrXrXrXrXrXrXP.O.N.wXwXwXwXwXwXwXwX",
"wXwXwXwXwXwXwXc.} I.rXrXrXrXrXrX  tXtXtX  &X&X&X&X&X&X&X&X&X&X&X&X&X&X&X&X&X&X&X&X&X&X      rXrXrXrXrXrXrXrXH.] /.wXwXwXwXwXwXwX",
"wXwXwXwXwXwXk.) Q.rXrXrXrXrXrXrX  tXtXtX  &X&X&X&X&X&X&X&X&X&X&X&X&X&X&X&X&X&X&X&X&X&X  rXrXrXrXrXrXrXrXrXrXrXL.[ N.wXwXwXwXwXwX",
"wXwXwXwXwXN.+.I.rXrXrXrXrXrXrXrXrX      &X&X&X&X&X&X&X&X&X&X&X        &X&X&X&X&X&X&X  rXrXrXrXrXrXrXrXrXrXrXrXrXH.O._.wXwXwXwXwX",
"wXwXwXwXN.b !.rXrXrXrXrXrXrXrXrXrXrXrXrX  &X&X&X&X&X&X&X&X&X  &X&X&X&X  &X&X&X      rXrXrXrXrXrXrXrXrXrXrXrXrXrXrXP.B ^.wXwXwXwX",
"wXwXwXk.O.=XrXrXrXrXrXrXrXrXrXrXrXrXrXrXrX        &X&X&X&X&X&X&X&X&X&X&X&X&X  rXrXrXrXrXrXrXrXrXrXrXrXrXrXrXrXrXrXrXI.+.Z.wXwXwX",
"wXwXc.` I.rXrXrXrXrXrXrXrXrXrXrXrXrXrXrXrXrXrXrXrX  &X&X&X&X&X&X&X&X&X&X&X  rXrXrXrXrXrXrXrXrXrXrXrXrXrXrXrXrXrXrXrXrXK.^ (.wXwX",
"wXj.} Q.rXrXrXrXrXrXrXrXrXrXrXrXrXrXrXrXrXrXrXrXrXrX        &X&X&X&X&X&X  X   rXrXrXrXrXrXrXrXrXrXrXrXrXrXrXrXrXrXrXrXrXL...M.wX",
"b.o.I.rXrXrXrXrXrXrXrXrXrXrXrXrXrXrXrXrX  rXo 9XrX            &X&X&XU     $ $   rXrX; rX  rXrXrXrXrXrXrXrXrXrXrXrXrXrXrXrXG...~.",
"l !.rXrXrXrXrXrXrXrXrXrXrXrXrXrXrXrXrX  &   %     & & & &     &X&X&X    &     &   . F   &   rXrXrXrXrXrXrXrXrXrXrXrXrXrXrXrXL.x ",
"W :XrXrXrXrXrXrXrXrXrXrXrXrXrXrXrXrX  & &   G G   & & & &   G       G   & & & &   G G   & &   rXrXrXrXrXrXrXrXrXrXrXrXrXrXrXW.A ",
"8.Q !.rXrXrXrXrXrXrXrXrXrXrXrXrXrX  & & &   G G G         G G G G G G G         G G G   & & &   rXrXrXrXrXrXrXrXrXrXrXrXrXR.M U.",
"wXh.+.=XrXrXrXrXrXrXrXrXrXrXrXrXrX  & &   G   G G G G G G G             G G G G G G   G   & &   rXrXrXrXrXrXrXrXrXrXrXrXI.+.C.wX",
"wXwXj.S :XrXrXrXrXrXrXrXrXrXrXrXrXrX    G G   G G           & & & & & &         G G   G G       rXrXrXrXrXrXrXrXrXrXrXE.Q c.wXwX",
"wXwXwXh.o.E.rXrXrXrXrXrXrXrXrXrXrXrX  G G G   G   & & O O & & & O & & O + # @ &   G       G   rXrXrXrXrXrXrXrXrXrXrXP...C.wXwXwX",
"wXwXwXwX7.} :XrXrXrXrXrXrXrXrXrXrXrX  G         & & & O & O & O & O & O & O & & &   O O O   rXrXrXrXrXrXrXrXrXrXrXE...k.wXwXwXwX",
"wXwXwXwXwXg.) W.rXrXrXrXrXrXrXrXrXrXrX  O O     & & & O & O & O & O & O & O & &   O O O O O   rXrXrXrXrXrXrXrXrXI.Q C.wXwXwXwXwX",
"wXwXwXwXwXwXd.+.;XrXrXrXrXrXrXrXrXrXrXrX    rX  & & & O O & & O O & & O & O & &   O O O O O   rXrXrXrXrXrXrXrXR.+.c.wXwXwXwXwXwX",
"wXwXwXwXwXwXwXk.V ;XrXrXrXrXrXrXrXrXrXrXrXrXq.  & & & O & O & O & & & O O & & &   O O O O O   rXrXrXrXrXrXrXW.B C.wXwXwXwXwXwXwX",
"wXwXwXwXwXwXwXwXj.+.W.rXrXrXrXrXrXrXrXrXrXr.`   & & & & & & & & & & & & & & & & &   O O O   rXrXrXrXrXrXrXP.o.Z.wXwXwXwXwXwXwXwX",
"wXwXwXwXwXwXwXwXwXs.' :XrXrXrXrXrXrXrXrXr.#.[.  & & & & & &             & & & & &         rXrXrXrXrXrXrXR.[ z.wXwXwXwXwXwXwXwXwX",
"wXwXwXwXwXwXwXwXwXwXg.} E.rXrXrXrXrXrXw.^  X  & & &       & &   G G   & & & & & & &   } e.rXrXrXrXrXrXP.' N.wXwXwXwXwXwXwXwXwXwX",
"wXwXwXwXwXwXwXwXwXwXwX7.o.:XrXrXrXrXq.+.#XwX        O O O               &             OX} e.rXrXrXrXW.O.z.wXwXwXwXwXwXwXwXwXwXwX",
"wXwXwXwXwXwXwXwXwXwXwXwXh.S =XrXrXq...'.wXwXwX    O O O O O   wX    G G G G G   wXwXwXwX(.+.t.rXrXW.b A.wXwXwXwXwXwXwXwXwXwXwXwX",
"wXwXwXwXwXwXwXwXwXwXwXwXwXk.+.Q.w.} $XwXwXwXwXwX  O O O O O   wXwX  G G G G G   wXwXwXwXwXXXQ i.I.+.A.wXwXwXwXwXwXwXwXwXwXwXwXwX",
"wXwXwXwXwXwXwXwXwXwXwXwXwXwXf.k ] `.wXwXwXwXwX  O O O O O O O   a.V.  G G G   wXwXwXwXwXwXwX{.( z n.wXwXwXwXwXwXwXwXwXwXwXwXwXwX",
"wXwXwXwXwXwXwXwXwXwXwXwXwXwX1.c _ Z.wXwXwXwXwX  O O O O O O O   a a a       I $.-.(.wXwXwXwXz.E m 1.wXwXwXwXwXwXwXwXwXwXwXwXwXwX",
"wXwXwXwXwXwXwXwXwXwXwXwXwX,.+.<XF...'.wX%X=.j   O O O O O O O   a a a a a a a a a a s @.l.M.X.L.4XX.,.wXwXwXwXwXwXwXwXwXwXwXwXwX",
"wXwXwXwXwXwXwXwXwXwXwXwX:.[ :XrXrXH.E &.a a a   O O O O O O O   a a a a a a a a a a a a 8 2 9.rXrX=Xo.2.wXwXwXwXwXwXwXwXwXwXwXwX",
"wXwXwXwXwXwXwXwXwXwXwX:...0XrXrXrXrX*.1 q a a a   O O O O O   a a a a a a a a a a a a 9 1 r J 2XrXrX4X^ 5.wXwXwXwXwXwXwXwXwXwXwX",
"wXwXwXwXwXwXwXwXwXwX>.O.;XrXrXrXrXrXT 5 * e a a a           a a a a a a a a a a a a 0 = t i i *XrXrXrX;X+.6.wXwXwXwXwXwXwXwXwXwX",
"wXwXwXwXwXwXwXwXwX4./ 5XrXrXrXrXrXrXp.i 4 < 0 a a a a a a a a a a a a a a a a a a 6 < y i i L 8XrXrXrXrX:X! 2.wXwXwXwXwXwXwXwXwX",
"wXwXwXwXwXwXwXwX4.#.>XrXrXrXrXrXrXrXeX0.i 3 : w a a a a a a a a a a a a a a a a 0 > 5 i i P -XrXrXrXrXrXrX1XO.<.wXwXwXwXwXwXwXwX",
"wXwXwXwXwXwXwX>./ >XrXrXrXrXrXrXrXrXrXrXqX0.d , 0 a a a a a a a a a a a a a a 7 - t K R *XrXrXrXrXrXrXrXrXrX=X .<.wXwXwXwXwXwXwX",
"wXwXwXwXwXwX:.O.6XrXrXrXrXrXrXrXrXrXrXrXrXrXrXu.h &.@.Y g a a a a a a a a j f u %.8XrXrXrXrXrXrXrXrXrXrXrXrXrX3X[ 2.wXwXwXwXwXwX",
"wXwXwXwXwX:.X.;XrXrXrXrXrXrXrXrXrXrXrXrXrXrXrXrXJ.V (.wXwXwXwXwXwXwXwXwXwXD.v W.rXrXrXrXrXrXrXrXrXrXrXrXrXrXrXrX;X+.4.wXwXwXwXwX",
"wXwXwXwX,.[ 0XrXrXrXrXrXrXrXrXrXrXrXrXrXrXrXrXrXrXL.+.D.wXwXwXwXwXwXwXwXz.O.W.rXrXrXrXrXrXrXrXrXrXrXrXrXrXrXrXrXrX<XQ 5.wXwXwXwX",
"wXwXwX<.+.:XrXrXrXrXrXrXrXrXrXrXrXrXrXrXrXrXrXrXrXrXG.^ '.wXwXwXwXwXwXC.` P.rXrXrXrXrXrXrXrXrXrXrXrXrXrXrXrXrXrXrXrX,X+.2.wXwXwX",
"wXwX,.^ <XrXrXrXrXrXrXrXrXrXrXrXrXrXrXrXrXrXrXrXrXrXrXH...Z.wXwXwXwXz.{ R.rXrXrXrXrXrXrXrXrXrXrXrXrXrXrXrXrXrXrXrXrXrX;X] <.wXwX",
"wX,.+.1XrXrXrXrXrXrXrXrXrXrXrXrXrXrXrXrXrXrXrXrXrXrXrXrXF.X.].wXwXA.o.L.rXrXrXrXrXrXrXrXrXrXrXrXrXrXrXrXrXrXrXrXrXrXrXrX3X..<.wX",
";.} :XrXrXrXrXrXrXrXrXrXrXrXrXrXrXrXrXrXrXrXrXrXrXrXrXrXrXH.Q Y.B.V E.rXrXrXrXrXrXrXrXrXrXrXrXrXrXrXrXrXrXrXrXrXrXrXrXrXrX=XO.3.",
"| 7XrXrXrXrXrXrXrXrXrXrXrXrXrXrXrXrXrXrXrXrXrXrXrXrXrXrXrXrXJ.~ ) R.rXrXrXrXrXrXrXrXrXrXrXrXrXrXrXrXrXrXrXrXrXrXrXrXrXrXrXrX3X~ "
};
