/* XPM */
static char *result[] = {
/* columns rows colors chars-per-pixel */
"64 64 207 2 ",
"   c black",
".  c #0F1226",
"X  c #1A1D30",
"o  c #2E345E",
"O  c #7E6152",
"+  c #806456",
"@  c #826657",
"#  c #846759",
"$  c #856959",
"%  c #8F6E5E",
"&  c #9A7A69",
"*  c #9A7C6B",
"=  c #9B7C6B",
"-  c #9E7E6E",
";  c #947D71",
":  c #947E71",
">  c #A17D6B",
",  c #A68573",
"<  c #A78674",
"1  c #AB8977",
"2  c #AD8A78",
"3  c #B08D7A",
"4  c #B88F79",
"5  c #B4907D",
"6  c #BB9079",
"7  c #BC907A",
"8  c #BC917A",
"9  c #BD917B",
"0  c #BD927B",
"q  c #BE927B",
"w  c #BE927C",
"e  c #BE937C",
"r  c #BF937C",
"t  c #BF937D",
"y  c #BF947D",
"u  c #BF947E",
"i  c #C0947D",
"p  c #C0947E",
"a  c #C0957E",
"s  c #C1957E",
"d  c #C0957F",
"f  c #C1957F",
"g  c #C1967F",
"h  c #0044FF",
"j  c #AC9181",
"k  c #AF978A",
"l  c #B99480",
"z  c #BA9581",
"x  c #BF9985",
"c  c #C19680",
"v  c #C19781",
"b  c #C29680",
"n  c #C29780",
"m  c #C29781",
"M  c #C39781",
"N  c #C39881",
"B  c #C29882",
"V  c #C39882",
"C  c #C39983",
"Z  c #C49882",
"A  c #C49982",
"S  c #C49983",
"D  c #C59983",
"F  c #C59A83",
"G  c #C19A86",
"H  c #C59A84",
"J  c #C59B85",
"K  c #C69B84",
"L  c #C69B85",
"P  c #C39C87",
"I  c #C69C85",
"U  c #C79C86",
"Y  c #C79D86",
"T  c #C89D87",
"R  c #C59E89",
"E  c #C89E88",
"W  c #CFA690",
"Q  c #D0A690",
"!  c #D6AB95",
"~  c #D8AD96",
"^  c #D4B19F",
"/  c #D4B29F",
"(  c #E7B59B",
")  c #E2B59D",
"_  c #E3B59D",
"`  c #E5B59C",
"'  c #E4B59D",
"]  c #E5B69C",
"[  c #E6B69D",
"{  c #E6B79D",
"}  c #E4B69E",
"|  c #E5B79E",
" . c #E5B79F",
".. c #E7B79E",
"X. c #E9B79C",
"o. c #E7B89E",
"O. c #E6B89F",
"+. c #E8B89F",
"@. c #E8B99F",
"#. c #E9B99F",
"$. c #EBB99F",
"%. c #D7B5A3",
"&. c #D0B3A4",
"*. c #DDB8A4",
"=. c #DDB8A5",
"-. c #DEB9A5",
";. c #DEB9A6",
":. c #DEBAA6",
">. c #DFBAA6",
",. c #DFBAA7",
"<. c #DFBBA7",
"1. c #DDBAA8",
"2. c #DABCAC",
"3. c #E6B8A0",
"4. c #E7B9A0",
"5. c #E9B9A0",
"6. c #E9BAA0",
"7. c #E8BAA1",
"8. c #EABAA0",
"9. c #EABAA1",
"0. c #EBBBA1",
"q. c #EBBBA2",
"w. c #ECBCA2",
"e. c #ECBCA3",
"r. c #ECBDA3",
"t. c #EDBDA3",
"y. c #EEBCA2",
"u. c #EBBCA4",
"i. c #EBBDA4",
"p. c #EDBDA4",
"a. c #EDBEA4",
"s. c #ECBEA5",
"d. c #EDBEA5",
"f. c #EEBEA4",
"g. c #EEBEA5",
"h. c #EEBFA5",
"j. c #EFBFA5",
"k. c #EFBFA6",
"l. c #E0BBA8",
"z. c #E0BCA9",
"x. c #E1BCA9",
"c. c #E1BDA9",
"v. c #E1BDAA",
"b. c #E2BDAA",
"n. c #E2BEAA",
"m. c #E2BEAB",
"M. c #E3BFAC",
"N. c #F0BDA3",
"B. c #EFC0A6",
"V. c #E3C0AD",
"C. c #E4C0AD",
"Z. c #E4C1AE",
"A. c #E5C1AE",
"S. c #E5C2AF",
"D. c #E6C2AF",
"F. c #F2C0A5",
"G. c #F0C0A6",
"H. c #F0C0A7",
"J. c #F1C1A7",
"K. c #F4C1A7",
"L. c #F1C1A8",
"P. c #F0C2A9",
"I. c #F2C2A8",
"U. c #F2C2A9",
"Y. c #F3C3A9",
"T. c #F1C3AA",
"R. c #F3C3AA",
"E. c #F4C3A9",
"W. c #F6C3A9",
"Q. c #F3C4AA",
"!. c #F4C4AA",
"~. c #F5C4AA",
"^. c #F4C5AB",
"/. c #F5C5AB",
"(. c #F6C5AB",
"). c #F7C6AB",
"_. c #F5C5AC",
"`. c #F4C5AD",
"'. c #F4C6AD",
"]. c #F6C6AC",
"[. c #F7C7AD",
"{. c #F8C6AC",
"}. c #FBC9AE",
"|. c #FCCAAF",
" X c #FFD4AC",
".X c #E6C3B0",
"XX c #E7C4B1",
"oX c #E8C5B2",
"OX c #E8C6B3",
"+X c #E9C6B3",
"@X c #E9C6B4",
"#X c #E9C7B4",
"$X c #EAC7B5",
"%X c #EAC8B5",
"&X c #EBC8B6",
"*X c #EBC9B6",
"=X c #EBC9B7",
"-X c #ECC9B7",
";X c #ECCAB7",
":X c #E9C9B8",
">X c #ECCAB8",
",X c #ECCCBA",
"<X c #EECEBC",
"1X c #FECBB0",
"2X c #FFCCB1",
"3X c #F1D0BE",
"4X c #FFE2A4",
/* pixels */
"m >.3X3X3X3X3X3X3X3X3X3X3X3X3X3X3X3X3X3X3X3X3X3X3X3X3X3X3X3Xv.t c V.3X3X3X3X3X3X3X3X3X3X3X3X3X3X3X3X3X3X3X3X3X3X3X3X3X3X3X3X-.C ",
"W.T ;.3X3X3X3X3X3X3X3X3X3X3X3X3X3X3X3X3X3X3X3X3X3X3X3X3X3XM.U r.7.I .X3X3X3X3X3X3X3X3X3X3X3X3X3X3X3X3X3X3X3X3X3X3X3X3X3X3X;.E K.",
"2XJ.F -.3X3X3X3X3X3X3X3X3X3X3X3X3X3X3X3X3X3X3X3X3X3X3X3XM.i G.2X2Xw.g A.3X3X3X3X3X3X3X3X3X3X3X3X3X3X3X3X3X3X3X3X3X3X3X3X=.M !.2X",
"2X2X_.H -.3X3X3X3X3X3X3X3X3X3X3X3X3X3X3X3X3X3X3X3X3X3Xm.T j.2X2X2X2Xq.T S.3X3X3X3X3X3X3X3X3X3X3X3X3X3X3X3X3X3X3X3X3X3X*.T _.2X2X",
"2X2X2XJ.T :.3X3X3X3X3X3X3X3X3X3X3X3X3X3X3X3X3X3X3X3XM.b a.2X2X2X2X2X2Xw.s XX3X3X3X3X3X3X3X3X3X3X3X3X3X3X3X3X3X3X3X3X*.K I.2X2X2X",
"2X2X2X2X/.b <.3X3X3X3X3X3X3X3X3X3X3X3X3X3X3X3X3X3Xc.L B.2X2X2X2X2X2X2X2Xw.U V.3X3X3X3X3X3X3X3X3X3X3X3X3X3X3X3X3X3X*.H [.2X2X2X2X",
"2X2X2X2X2XY.T ,.3X3X3X3X3X3X3X3X3X3X3X3X3X3X3X3XM.L e.2X2X2X2X2X2X2X2X2X2X8.H .X3X3X3X3X3X3X3X3X3X3X3X3X3X3X3X3X=.T I.2X2X2X2X2X",
"2X2X2X2X2X2XI.V ;.3X3X3X3X3X3X3X3X3X3X3X3X3X3Xm.b B.2X2X2X2X2X2X2X            V C.3X3X3X3X3X3X3X3X3X3X3X3X3X3X-.M /.2X2X2X2X2X2X",
"2X2X2X2X2X2X2X].U -.3X3X3X3X3X3X3X3X3X3X3X3XV.T a.2X2X2X2X        4X4X4X4X4X    T .X3X3X3X3X3X3X3X3X3X3X3X3X-.T !.2X2X2X2X2X2X2X",
"2X2X2X2X2X2X2X2XH.I ;.3X3X3X3X3X3X3X3X3X3XV.y j.2X2X2X2X  4X4X4X4X4X4X4X4X4X4X4X  t .X3X3X3X3X3X3X3X3X3X3X*.S U.2X2X2X2X2X2X2X2X",
"2X2X2X2X2X2X2X2X2X].V ,.3X3X3X3X3X3X3X3Xv.U G.2X2X2X2X  4X4X4X4X4X4X4X4X4X4X4X4X  e.T C.3X3X3X3X3X3X3X3X*.I [.2X2X2X2X2X2X2X2X2X",
"2X2X2X2X2X2X2X2X2X2XI.T <.3X3X3X3X3X3XM.D r.2X2X2X2X  4X4X4X4X4X4X4X4X4X4X4X4X4X4X  9.Z .X3X3X3X3X3X3X*.U L.2X2X2X2X2X2X2X2X2X2X",
"2X2X2X2X2X2X2X2X2X2X2XY.b :.3X3X3X3Xb.A k.2X2X2X2X  4X4X4X4X4X4X4X4X4X4X4X4X4X4X4X  2Xq.H V.3X3X3X3X:.V [.2X2X2X2X2X2X2X2X2X2X2X",
"2X2X2X2X2X2X2X2X2X2X2X2X/.T -.3X3XV.Y r.2X2X2X2X  4X4X4X4X      4X4X4X4X4X4X4X4X4X  2X2X8.U XX3X3X:.E Y.2X2X2X2X2X2X2X2X2X2X2X2X",
"2X2X2X2X2X2X2X2X2X2X2X2X2XJ.H -.C.r G.2X2X2X2X  4X4X4X4X     X X  4X4X4X4X4X4X4X4X  2X2X2Xw.s S.*.N R.2X2X2X2X2X2X2X2X2X2X2X2X2X",
"2X2X2X2X2X2X2X2X2X2X2X2X2X2X`.t p k.2X2X2X2X2X  4X4X4X   X X X X  4X4X4X4X4X4X4X4X  2X2X2X2Xw.u m '.2X2X2X2X2X2X2X2X2X2X2X2X2X2X",
"2X2X2X2X2X2X2X2X2X2X2X2X2X2Xi.t m O.2X2X2X2X2X  4X4X   X X X X X    4X4X4X4X4X4X4X  2X2X2X2X' a e J.2X2X2X2X2X2X2X2X2X2X2X2X2X2X",
"2X2X2X2X2X2X2X2X2X2X2X2X2X9.K S.#Xb +.2X2X2X2X  4X     X X X X X X  4X4X4X4X4X4X4X  2X2X2X[ F ;Xn.I p.2X2X2X2X2X2X2X2X2X2X2X2X2X",
"2X2X2X2X2X2X2X2X2X2X2X2Xt.I M.3X3X+XT ..2X2X2X  4X   X X X X X X X  4X4X4X4X4X4X4X  2X2X[ T oX3X3Xz.L H.2X2X2X2X2X2X2X2X2X2X2X2X",
"2X2X2X2X2X2X2X2X2X2X2Xe.f S.3X3X3X3XXXA ..2X2X  4X   Xh h h  X X X X  4X4X4X4X4X    2X[ N $X3X3X3X3Xn.M g.2X2X2X2X2X2X2X2X2X2X2X",
"2X2X2X2X2X2X2X2X2X2Xr.T C.3X3X3X3X3X3X*XL [ 2X  4X   Xh h h  X X X X  4X4X4X4X4X  2X[ T $X3X3X3X3X3X3Xv.T G.2X2X2X2X2X2X2X2X2X2X",
"2X2X2X2X2X2X2X2X2Xt.s Z.3X3X3X3X3X3X3X3X.XU ..  4X   X X X X X X X X X  4X4X4X4X  ` F oX3X3X3X3X3X3X3X3XM.y L.2X2X2X2X2X2X2X2X2X",
"2X2X2X2X2X2X2X2X0.U S.3X3X3X3X3X3X3X3X3X3X*XM +.   X X X X X X X X X X            L ;X3X3X3X3X3X3X3X3X3X3Xm.Y a.2X2X2X2X2X2X2X2X",
"2X2X2X2X2X2X2Xr.H M.3X3X3X3X3X3X3X3X3X3X3X3XoXT @.   X X X X X X X     X X X X X  XX3X3X3X3X3X3X3X3X3X3X3X3Xx.S H.2X2X2X2X2X2X2X",
"2X2X2X2X2X2Xq.V S.3X3X3X3X3X3X3X3X3X3X3X3X3X3XoXM    X X X X X X X X X X X X X  *X3X3X3X3X3X3X3X3X3X3X3X3X3X3Xn.D a.2X2X2X2X2X2X",
"2X2X2X2X2Xa.T M.3X3X3X3X3X3X3X3X3X3X3X3X3X3X3X3X&X   X       X X X X X X X X  +X3X3X3X3X3X3X3X3X3X3X3X3X3X3X3X3Xx.Y L.2X2X2X2X2X",
"2X2X2X2Xa.w D.3X3X3X3X3X3X3X3X3X3X3X3X3X3X3X3X3X3X   X X X X   X X X X X    OX3X3X3X3X3X3X3X3X3X3X3X3X3X3X3X3X3X3Xm.i G.2X2X2X2X",
"2X2X2Xq.Y .X3X3X3X3X3X3X3X3X3X3X3X3X3X3X3X3X3X3X3X3X   X X X X X X X X    ;X3X3X3X3X3X3X3X3X3X3X3X3X3X3X3X3X3X3X3X3XM.T g.2X2X2X",
"2X2Xr.Z M.3X3X3X3X3X3X3X3X3X3X3X3X3X3X3X3X3X3X3X3X3X3X       X X X X  I XX3X3X3X3X3X3X3X3X3X3X3X3X3X3X3X3X3X3X3X3X3X3Xv.M J.2X2X",
"2X0.H S.3X3X3X3X3X3X3X3X3X3X3X3X3X3X3X3X3X3X3X3X3X3X3X3X@Xb    X X X  >X3X3X3X3X3X3X3X3X3X3X3X3X3X3X3X3X3X3X3X3X3X3X3X3Xn.L p.2X",
"y.U M.3X3X3X3X3X3X3X3X3X3X3X3X3X3X3X3X3X3X3X3X3X3X3X3X         X X X  3X3X3X3X3X3X3X3X3X3X3X3X3X3X3X3X3X3X3X3X3X3X3X3X3X3Xz.L F.",
"7 D.3X3X3X3X3X3X3X3X3X3X3X3X3X3X3X3X3X3X3X3X3X3X3X3X3X  X X X        X  3X3X3X3X3X3X3X3X3X3X3X3X3X3X3X3X3X3X3X3X3X3X3X3X3X3Xn.9 ",
"v oX3X3X3X3X3X3X3X3X3X3X3X3X3X3X3X3X3X3X3X3X3X3X3X3X  X X X   X X X   o     3X3X3X3X3X3X3X3X3X3X3X3X3X3X3X3X3X3X3X3X3X3X3X3XA.d ",
"$.b D.3X3X3X3X3X3X3X3X3X3X3X3X3X3X3X3X3X3X3X3X3X3X3X3X      X X X X X   o   3X3X3X3X3X3X3X3X3X3X3X3X3X3X3X3X3X3X3X3X3X3X3XC.y N.",
"2X9.T .X3X3X3X3X3X3X3X3X3X3X3X3X3X3X3X3X3X3X3X3X3X3X  o   X X X X X X   o   3X3X3X3X3X3X3X3X3X3X3X3X3X3X3X3X3X3X3X3X3X3XM.T f.2X",
"2X2X0.f oX3X3X3X3X3X3X3X3X3X3X3X3X3X3X3X3X3X3X3X3X3X  o       X X     o   3X3X3X3X3X3X3X3X3X3X3X3X3X3X3X3X3X3X3X3X3X3XZ.b r.2X2X",
"2X2X2X9.U Z.3X3X3X3X3X3X3X3X3X3X3X3X3X3X3X3X3X3X3X3X  o o   o     o   o   ;.3X3X3X3X3X3X3X3X3X3X3X3X3X3X3X3X3X3X3X3Xm.L f.2X2X2X",
"2X2X2X2X#.H oX3X3X3X3X3X3X3X3X3X3X3X3X3X3X3X3X3X3X-.  o o   o o o o   o   U -.3X3X3X3X3X3X3X3X3X3X3X3X3X3X3X3X3X3XZ.L q.2X2X2X2X",
"2X2X2X2X2X8.V A.3X3X3X3X3X3X3X3X3X3X3X3X3X3X3X3X*.A   o o   o o o o   o   H.I ;.3X3X3X3X3X3X3X3X3X3X3X3X3X3X3X3XM.b f.2X2X2X2X2X",
"2X2X2X2X2X2X6.T XX3X3X3X3X3X3X3X3X3X3X3X3X3X3X*.U [.  o o   o o o o   o   2X].Z >.3X3X3X3X3X3X3X3X3X3X3X3X3X3XC.T r.2X2X2X2X2X2X",
"2X2X2X2X2X2X2Xq.p XX3X3X3X3X3X3X3X3X3X3X3X3X*.U L.2X  o o o         o o   2X2XL.T <.3X3X3X3X3X3X3X3X3X3X3X3XA.i f.2X2X2X2X2X2X2X",
"2X2X2X2X2X2X2X2X0.T A.3X3X3X3X3X3X3X3X3X3X;.Z [.2X2X  o o   . . . .   o o   2X2XY.b :.3X3X3X3X3X3X3X3X3X3Xm.U g.2X2X2X2X2X2X2X2X",
"2X2X2X2X2X2X2X2X2X5.A oX3X3X3X3X3X3X3X3X;.E Y.2X2X2X  o o   . . . .   o o o   2X2X^.T -.3X3X3X3X3X3X3X3XC.D w.2X2X2X2X2X2X2X2X2X",
"2X2X2X2X2X2X2X2X2X2X8.H Z.3X3X3X3X3X3X=.M Q.2X2X2X2X2X  o o         o o o o   2X2X2XJ.H -.3X3X3X3X3X3Xm.A a.2X2X2X2X2X2X2X2X2X2X",
"2X2X2X2X2X2X2X2X2X2X2X#.U oX3X3X3X3X*.T ].2X2X2X2X2X2X2X  o o o o o o o o o   2X2X2X2X_.H -.3X3X3X3XA.Y w.2X2X2X2X2X2X2X2X2X2X2X",
"2X2X2X2X2X2X2X2X2X2X2X2X9.f .X3X3X*.L I.2X2X2X2X2X2X2X2X2X  o       o       2X2X2X2X2X2XJ.T :.3X3XA.w h.2X2X2X2X2X2X2X2X2X2X2X2X",
"2X2X2X2X2X2X2X2X2X2X2X2X2Xq.T S.=.H [.2X2X2X2X2X2X2X2X2X2X2X  X X X   2X2X2X2X2X2X2X2X2X2X^.b <.M.T h.2X2X2X2X2X2X2X2X2X2X2X2X2X",
"2X2X2X2X2X2X2X2X2X2X2X2X2X2X7.6 S P.2X2X2X2X2X2X2X2X2X2X2X2X  X X X   2X2X2X2X2X2X2X2X2X2X2XT.B 8 u.2X2X2X2X2X2X2X2X2X2X2X2X2X2X",
"2X2X2X2X2X2X2X2X2X2X2X2X2X2X| 0 C g.2X2X2X2X2X2X2X1X}.).(.E.  X X X   E.~.).{.|.2X2X2X2X2X2Xw.c t | 2X2X2X2X2X2X2X2X2X2X2X2X2X2X",
"2X2X2X2X2X2X2X2X2X2X2X2X2X[ T #Xl.L I.2X2X2X2Xd.) W x 1 ,   o       o   , < 3 P ! } ~.2X2Xg.I n.*XI [ 2X2X2X2X2X2X2X2X2X2X2X2X2X",
"2X2X2X2X2X2X2X2X2X2X2X2X` D oX3X3Xx.M k.2X3.z 2 , , , ,   o o o o o o o   , , , , , 5 R _ f C.3X3X.XU ..2X2X2X2X2X2X2X2X2X2X2X2X",
"2X2X2X2X2X2X2X2X2X2X2X` L >X3X3X3X3Xz.T ~ , , , , , ,   o o o o o o o o   , , , , , , * # %.3X3X3X3X*XM +.2X2X2X2X2X2X2X2X2X2X2X",
"2X2X2X2X2X2X2X2X2X2X] Y XX3X3X3X3X3X3Xn.% - , , , , , ,                   , , , , , = O ; 2.3X3X3X3X3XXXT @.2X2X2X2X2X2X2X2X2X2X",
"2X2X2X2X2X2X2X2X2Xo.N =X3X3X3X3X3X3X3X3X/ $ = , , , , , , , , , , , , , , , , , , & @ : k :X3X3X3X3X3X3XoXn ..2X2X2X2X2X2X2X2X2X",
"2X2X2X2X2X2X2X2Xo.E OX3X3X3X3X3X3X3X3X3X3X^ > 2 , , , , , , , , , , , , , , , , = + j &.,X3X3X3X3X3X3X3X3X%XY { 2X2X2X2X2X2X2X2X",
"2X2X2X2X2X2X2X] N OX3X3X3X3X3X3X3X3X3X3X3X3Xz.c 4. .Q l 3 , , , , , , , , 3 G P 4 1.<X3X3X3X3X3X3X3X3X3X3X3X.XK { 2X2X2X2X2X2X2X",
"2X2X2X2X2X2X` Y -X3X3X3X3X3X3X3X3X3X3X3X3X3X3Xl.Y U.2X2X2X2X2X2X2X2X2X2X2X2Xj.T m.3X3X3X3X3X3X3X3X3X3X3X3X3X3X&XD ..2X2X2X2X2X2X",
"2X2X2X2X2X` I XX3X3X3X3X3X3X3X3X3X3X3X3X3X3X3X3Xc.p J.2X2X2X2X2X2X2X2X2X2Xk.q A.3X3X3X3X3X3X3X3X3X3X3X3X3X3X3X3XXXT o.2X2X2X2X2X",
"2X2X2X2X[ D >X3X3X3X3X3X3X3X3X3X3X3X3X3X3X3X3X3X3Xn.T k.2X2X2X2X2X2X2X2Xw.Y A.3X3X3X3X3X3X3X3X3X3X3X3X3X3X3X3X3X3X#Xb +.2X2X2X2X",
"2X2X2X{ T oX3X3X3X3X3X3X3X3X3X3X3X3X3X3X3X3X3X3X3X3Xz.M I.2X2X2X2X2X2Xf.Z m.3X3X3X3X3X3X3X3X3X3X3X3X3X3X3X3X3X3X3X3X@XT ..2X2X2X",
"2X2X[ M #X3X3X3X3X3X3X3X3X3X3X3X3X3X3X3X3X3X3X3X3X3X3Xx.L g.2X2X2X2Xw.F C.3X3X3X3X3X3X3X3X3X3X3X3X3X3X3X3X3X3X3X3X3X3XXXS { 2X2X",
"2X[ T %X3X3X3X3X3X3X3X3X3X3X3X3X3X3X3X3X3X3X3X3X3X3X3X3Xl.I U.2X2Xh.U n.3X3X3X3X3X3X3X3X3X3X3X3X3X3X3X3X3X3X3X3X3X3X3X3X&XL { 2X",
"( H oX3X3X3X3X3X3X3X3X3X3X3X3X3X3X3X3X3X3X3X3X3X3X3X3X3X3Xx.b B.s.p Z.3X3X3X3X3X3X3X3X3X3X3X3X3X3X3X3X3X3X3X3X3X3X3X3X3X3X.XY X.",
"J ;X3X3X3X3X3X3X3X3X3X3X3X3X3X3X3X3X3X3X3X3X3X3X3X3X3X3X3X3Xc.m V C.3X3X3X3X3X3X3X3X3X3X3X3X3X3X3X3X3X3X3X3X3X3X3X3X3X3X3X3X&Xm "
};
