/* XPM */
static char *result[] = {
/* columns rows colors chars-per-pixel */
"64 64 207 2 ",
"   c black",
".  c #0F1226",
"X  c #1A1D30",
"o  c #28293A",
"O  c #302F40",
"+  c #313042",
"@  c #2E345E",
"#  c #45435D",
"$  c #7E6152",
"%  c #806456",
"&  c #826657",
"*  c #846759",
"=  c #856959",
"-  c #8F6E5E",
";  c #88756B",
":  c #9A7A69",
">  c #9A7C6B",
",  c #9B7C6B",
"<  c #9E7E6E",
"1  c #947D71",
"2  c #947E71",
"3  c #A17D6B",
"4  c #A68573",
"5  c #AD8A78",
"6  c #B08D7A",
"7  c #B88F79",
"8  c #B4907D",
"9  c #BB9079",
"0  c #BC907A",
"q  c #BC917A",
"w  c #BD917B",
"e  c #BD927B",
"r  c #BE927B",
"t  c #BE927C",
"y  c #BE937C",
"u  c #BF937C",
"i  c #BF937D",
"p  c #BF947D",
"a  c #BF947E",
"s  c #C0947D",
"d  c #C0947E",
"f  c #C0957E",
"g  c #C1957E",
"h  c #C0957F",
"j  c #C1957F",
"k  c #C1967F",
"l  c #0044FF",
"z  c #AC9181",
"x  c #AF978A",
"c  c #B99480",
"v  c #BA9581",
"b  c #BF9985",
"n  c #C19680",
"m  c #C19781",
"M  c #C29680",
"N  c #C29780",
"B  c #C29781",
"V  c #C39781",
"C  c #C39881",
"Z  c #C29882",
"A  c #C39882",
"S  c #C39983",
"D  c #C49882",
"F  c #C49982",
"G  c #C49983",
"H  c #C59983",
"J  c #C59A83",
"K  c #C19A86",
"L  c #C59A84",
"P  c #C59B85",
"I  c #C69B84",
"U  c #C69B85",
"Y  c #C39C87",
"T  c #C69C85",
"R  c #C79C86",
"E  c #C79D86",
"W  c #C89D87",
"Q  c #C59E89",
"!  c #C89E88",
"~  c #CFA690",
"^  c #D0A690",
"/  c #D6AB95",
"(  c #D8AD96",
")  c #D4B19F",
"_  c #D4B29F",
"`  c #E7B59B",
"'  c #E2B59D",
"]  c #E3B59D",
"[  c #E5B59C",
"{  c #E4B59D",
"}  c #E5B69C",
"|  c #E6B69D",
" . c #E6B79D",
".. c #E4B69E",
"X. c #E5B79E",
"o. c #E5B79F",
"O. c #E7B79E",
"+. c #E9B79C",
"@. c #E7B89E",
"#. c #E6B89F",
"$. c #E8B89F",
"%. c #E8B99F",
"&. c #E9B99F",
"*. c #EBB99F",
"=. c #D7B5A3",
"-. c #D0B3A4",
";. c #DDB8A4",
":. c #DDB8A5",
">. c #DEB9A5",
",. c #DEB9A6",
"<. c #DEBAA6",
"1. c #DFBAA6",
"2. c #DFBAA7",
"3. c #DFBBA7",
"4. c #DDBAA8",
"5. c #DABCAC",
"6. c #E6B8A0",
"7. c #E7B9A0",
"8. c #E9B9A0",
"9. c #E9BAA0",
"0. c #E8BAA1",
"q. c #EABAA0",
"w. c #EABAA1",
"e. c #EBBBA1",
"r. c #EBBBA2",
"t. c #ECBCA2",
"y. c #ECBCA3",
"u. c #ECBDA3",
"i. c #EDBDA3",
"p. c #EEBCA2",
"a. c #EBBCA4",
"s. c #EBBDA4",
"d. c #EDBDA4",
"f. c #EDBEA4",
"g. c #ECBEA5",
"h. c #EDBEA5",
"j. c #EEBEA4",
"k. c #EEBEA5",
"l. c #EEBFA5",
"z. c #EFBFA5",
"x. c #EFBFA6",
"c. c #E0BBA8",
"v. c #E0BCA9",
"b. c #E1BCA9",
"n. c #E1BDA9",
"m. c #E1BDAA",
"M. c #E2BDAA",
"N. c #E2BEAA",
"B. c #E2BEAB",
"V. c #E3BFAC",
"C. c #F0BDA3",
"Z. c #EFC0A6",
"A. c #E3C0AD",
"S. c #E4C0AD",
"D. c #E4C1AE",
"F. c #E5C1AE",
"G. c #E5C2AF",
"H. c #E6C2AF",
"J. c #F2C0A5",
"K. c #F0C0A6",
"L. c #F0C0A7",
"P. c #F1C1A7",
"I. c #F4C1A7",
"U. c #F1C1A8",
"Y. c #F0C2A9",
"T. c #F2C2A8",
"R. c #F2C2A9",
"E. c #F3C3A9",
"W. c #F1C3AA",
"Q. c #F3C3AA",
"!. c #F6C3A9",
"~. c #F3C4AA",
"^. c #F4C4AA",
"/. c #F5C4AA",
"(. c #F4C5AB",
"). c #F5C5AB",
"_. c #F7C6AB",
"`. c #F5C5AC",
"'. c #F4C5AD",
"]. c #F4C6AD",
"[. c #F6C6AC",
"{. c #F7C7AD",
"}. c #FBC9AE",
"|. c #FCCAAF",
" X c #FFD4AC",
".X c #E6C3B0",
"XX c #E7C4B1",
"oX c #E8C5B2",
"OX c #E8C6B3",
"+X c #E9C6B3",
"@X c #E9C6B4",
"#X c #E9C7B4",
"$X c #EAC7B5",
"%X c #EAC8B5",
"&X c #EBC8B6",
"*X c #EBC9B6",
"=X c #EBC9B7",
"-X c #ECC9B7",
";X c #ECCAB7",
":X c #E9C9B8",
">X c #ECCAB8",
",X c #ECCCBA",
"<X c #EECEBC",
"1X c #FECBB0",
"2X c #FFCCB1",
"3X c #F1D0BE",
"4X c #FFE2A4",
/* pixels */
"B 1.3X3X3X3X3X3X3X3X3X3X3X3X3X3X3X3X3X3X3X3X3X3X3X3X3X3X3X3Xm.i n A.3X3X3X3X3X3X3X3X3X3X3X3X3X3X3X3X3X3X3X3X3X3X3X3X3X3X3X3X>.S ",
"!.W ,.3X3X3X3X3X3X3X3X3X3X3X3X3X3X3X3X3X3X3X3X3X3X3X3X3X3XV.R u.0.T .X3X3X3X3X3X3X3X3X3X3X3X3X3X3X3X3X3X3X3X3X3X3X3X3X3X3X,.! I.",
"2XP.J >.3X3X3X3X3X3X3X3X3X3X3X3X3X3X3X3X3X3X3X3X3X3X3X3XV.s K.2X2Xt.k F.3X3X3X3X3X3X3X3X3X3X3X3X3X3X3X3X3X3X3X3X3X3X3X3X:.V ^.2X",
"2X2X`.L >.3X3X3X3X3X3X3X3X3X3X3X3X3X3X3X3X3X3X3X3X3X3XB.W z.2X2X2X2Xr.W G.3X3X3X3X3X3X3X3X3X3X3X3X3X3X3X3X3X3X3X3X3X3X;.W `.2X2X",
"2X2X2XP.W <.3X3X3X3X3X3X3X3X3X3X3X3X3X3X3X3X3X3X3X3XV.M f.2X2X2X2X2X2Xt.g XX3X3X3X3X3X3X3X3X3X3X3X3X3X3X3X3X3X3X3X3X;.I T.2X2X2X",
"2X2X2X2X).M 3.3X3X3X3X3X3X3X3X3X3X3X3X3X3X3X3X3X3Xn.U Z.2X2X2X2X2X2X2X2Xt.R A.3X3X3X3X3X3X3X3X3X3X3X3X3X3X3X3X3X3X;.L {.2X2X2X2X",
"2X2X2X2X2XE.W 2.3X3X3X3X3X3X3X3X3X3X3X3X3X3X3X3XV.U y.2X2X2X2X2X2X2X2X2X2Xq.L .X3X3X3X3X3X3X3X3X3X3X3X3X3X3X3X3X:.W T.2X2X2X2X2X",
"2X2X2X2X2X2XT.A ,.3X3X3X3X3X3X3X3X3X3X3X3X3X3XB.M Z.2X2X2X2X2X2X2X2X2X2X2X2Xr.A S.3X3X3X3X3X3X3X3X3X3X3X3X3X3X>.V ).2X2X2X2X2X2X",
"2X2X2X2X2X2X2X[.R >.3X3X3X3X3X3X3X3X3X3X3X3XA.W f.2X2X2X2X2X2X2X2X            w.W .X3X3X3X3X3X3X3X3X3X3X3X3X>.W ^.2X2X2X2X2X2X2X",
"2X2X2X2X2X2X2X2XL.T ,.3X3X3X3X3X3X3X3X3X3XA.p z.2X2X2X2X2X        4X4X4X4X4X    y.i .X3X3X3X3X3X3X3X3X3X3X;.G R.2X2X2X2X2X2X2X2X",
"2X2X2X2X2X2X2X2X2X[.A 2.3X3X3X3X3X3X3X3Xm.R K.2X2X2X2X2X  4X4X4X4X4X4X4X4X4X4X4X  y.W S.3X3X3X3X3X3X3X3X;.T {.2X2X2X2X2X2X2X2X2X",
"2X2X2X2X2X2X2X2X2X2XT.W 3.3X3X3X3X3X3XV.H u.2X2X2X2X2X  4X4X4X4X4X4X4X4X4X4X4X4X  2Xw.D .X3X3X3X3X3X3X;.R U.2X2X2X2X2X2X2X2X2X2X",
"2X2X2X2X2X2X2X2X2X2X2XE.M <.3X3X3X3XM.F x.2X2X2X2X2X  4X4X4X4X4X4X4X4X4X4X4X4X4X4X  2Xr.L A.3X3X3X3X<.A {.2X2X2X2X2X2X2X2X2X2X2X",
"2X2X2X2X2X2X2X2X2X2X2X2X).W >.3X3XA.E u.2X2X2X2X2X  4X4X4X4X4X4X4X4X4X4X4X4X4X4X4X  2X2Xq.R XX3X3X<.! E.2X2X2X2X2X2X2X2X2X2X2X2X",
"2X2X2X2X2X2X2X2X2X2X2X2X2XP.L >.S.u K.2X2X2X2X2X  4X4X4X4X      4X4X4X4X4X4X4X4X4X  2X2X2Xt.g G.;.C Q.2X2X2X2X2X2X2X2X2X2X2X2X2X",
"2X2X2X2X2X2X2X2X2X2X2X2X2X2X'.i d x.2X2X2X2X2X  4X4X4X4X     X X  4X4X4X4X4X4X4X4X  2X2X2X2Xt.a B ].2X2X2X2X2X2X2X2X2X2X2X2X2X2X",
"2X2X2X2X2X2X2X2X2X2X2X2X2X2Xs.i B #.2X2X2X2X2X  4X4X4X   X X X X  4X4X4X4X4X4X4X4X  2X2X2X2X{ f y P.2X2X2X2X2X2X2X2X2X2X2X2X2X2X",
"2X2X2X2X2X2X2X2X2X2X2X2X2Xw.I G.#XM $.2X2X2X2X  4X4X   X X X X X    4X4X4X4X4X4X4X  2X2X2X| J ;XN.T d.2X2X2X2X2X2X2X2X2X2X2X2X2X",
"2X2X2X2X2X2X2X2X2X2X2X2Xi.T V.3X3X+XW O.2X2X2X  4X     X X X X X X  4X4X4X4X4X4X4X  2X2X| W oX3X3Xv.U L.2X2X2X2X2X2X2X2X2X2X2X2X",
"2X2X2X2X2X2X2X2X2X2X2Xy.j G.3X3X3X3XXXF O.2X2X  4X   X X X X X X X  4X4X4X4X4X4X4X  2X| C $X3X3X3X3XN.V k.2X2X2X2X2X2X2X2X2X2X2X",
"2X2X2X2X2X2X2X2X2X2Xu.W S.3X3X3X3X3X3X*XU | 2X  4X   Xl l l  X X X X  4X4X4X4X4X    | W $X3X3X3X3X3X3Xm.W K.2X2X2X2X2X2X2X2X2X2X",
"2X2X2X2X2X2X2X2X2Xi.g D.3X3X3X3X3X3X3X3X.XR O.  4X   Xl l l  X X X X  4X4X4X4X4X  [ J oX3X3X3X3X3X3X3X3XV.p U.2X2X2X2X2X2X2X2X2X",
"2X2X2X2X2X2X2X2Xe.R G.3X3X3X3X3X3X3X3X3X3X*XV   4X   X X X X X X X X X  4X4X4X4X  U ;X3X3X3X3X3X3X3X3X3X3XB.E f.2X2X2X2X2X2X2X2X",
"2X2X2X2X2X2X2Xu.L V.3X3X3X3X3X3X3X3X3X3X3X3XoXW    X X X X X X X X X X            XX3X3X3X3X3X3X3X3X3X3X3X3Xb.G L.2X2X2X2X2X2X2X",
"2X2X2X2X2X2Xr.A G.3X3X3X3X3X3X3X3X3X3X3X3X3X3XoXV    X X X X X X X     X X X X X  3X3X3X3X3X3X3X3X3X3X3X3X3X3XN.H f.2X2X2X2X2X2X",
"2X2X2X2X2Xf.W V.3X3X3X3X3X3X3X3X3X3X3X3X3X3X3X3X&X   X X X X X X X X X X X X X  3X3X3X3X3X3X3X3X3X3X3X3X3X3X3X3Xb.E U.2X2X2X2X2X",
"2X2X2X2Xf.t H.3X3X3X3X3X3X3X3X3X3X3X3X3X3X3X3X3X3X   X       X X X X X X X X  3X3X3X3X3X3X3X3X3X3X3X3X3X3X3X3X3X3XB.s K.2X2X2X2X",
"2X2X2Xr.E .X3X3X3X3X3X3X3X3X3X3X3X3X3X3X3X3X3X3X3X   X X X X   X X X X X    3X3X3X3X3X3X3X3X3X3X3X3X3X3X3X3X3X3X3X3XV.W k.2X2X2X",
"2X2Xu.D V.3X3X3X3X3X3X3X3X3X3X3X3X3X3X3X3X3X3X3X3X3X   X X X X X X X X    3X3X3X3X3X3X3X3X3X3X3X3X3X3X3X3X3X3X3X3X3X3Xm.V P.2X2X",
"2Xe.L G.3X3X3X3X3X3X3X3X3X3X3X3X3X3X3X3X3X3X3X3X3X3X3X       X X X X  >X3X3X3X3X3X3X3X3X3X3X3X3X3X3X3X3X3X3X3X3X3X3X3X3XN.U d.2X",
"p.R V.3X3X3X3X3X3X3X3X3X3X3X3X3X3X3X3X3X3X3X3X3X3X3X3X3X3X#X   X X X  3X3X3X3X3X3X3X3X3X3X3X3X3X3X3X3X3X3X3X3X3X3X3X3X3X3Xv.U J.",
"0 H.3X3X3X3X3X3X3X3X3X3X3X3X3X3X3X3X3X3X3X3X3X3X3X3X3X3X3X          ; 3X3X3X3X3X3X3X3X3X3X3X3X3X3X3X3X3X3X3X3X3X3X3X3X3X3X3XN.w ",
"m oX3X3X3X3X3X3X3X3X3X3X3X3X3X3X3X3X3X3X3X3X3X3X3X3X3X3X  X X X X X     3X3X3X3X3X3X3X3X3X3X3X3X3X3X3X3X3X3X3X3X3X3X3X3X3X3XF.h ",
"*.M H.3X3X3X3X3X3X3X3X3X3X3X3X3X3X3X3X3X3X3X3X3X3X3X3X  X X X X X X   @   3X3X3X3X3X3X3X3X3X3X3X3X3X3X3X3X3X3X3X3X3X3X3X3XS.p C.",
"2Xw.W .X3X3X3X3X3X3X3X3X3X3X3X3X3X3X3X3X3X3X3X3X3X3X3X3X  X X X X   @ @   3X3X3X3X3X3X3X3X3X3X3X3X3X3X3X3X3X3X3X3X3X3X3XV.W j.2X",
"2X2Xe.j oX3X3X3X3X3X3X3X3X3X3X3X3X3X3X3X3X3X3X3X3X3X3X  X X       @ @ @   3X3X3X3X3X3X3X3X3X3X3X3X3X3X3X3X3X3X3X3X3X3XD.M u.2X2X",
"2X2X2Xw.R D.3X3X3X3X3X3X3X3X3X3X3X3X3X3X3X3X3X3X3X3X  X X   @     @ @ @   ,.3X3X3X3X3X3X3X3X3X3X3X3X3X3X3X3X3X3X3X3XB.U j.2X2X2X",
"2X2X2X2X&.L oX3X3X3X3X3X3X3X3X3X3X3X3X3X3X3X3X3X      X   @ @   @ @ @ @   R >.3X3X3X3X3X3X3X3X3X3X3X3X3X3X3X3X3X3XD.U r.2X2X2X2X",
"2X2X2X2X2Xq.A F.3X3X3X3X3X3X3X3X3X3X3X3X3X3X3X  . . .   @ @   @ @ @ @ @   L.T ,.3X3X3X3X3X3X3X3X3X3X3X3X3X3X3X3XV.M j.2X2X2X2X2X",
"2X2X2X2X2X2X9.W XX3X3X3X3X3X3X3X3X3X3X3X3X3X3X  . . .               @ @   2X[.D 1.3X3X3X3X3X3X3X3X3X3X3X3X3X3XS.W u.2X2X2X2X2X2X",
"2X2X2X2X2X2X2Xr.d XX3X3X3X3X3X3X3X3X3X3X3X3X;.  . . .       @ @ @ @       2X2XU.W 3.3X3X3X3X3X3X3X3X3X3X3X3XF.s j.2X2X2X2X2X2X2X",
"2X2X2X2X2X2X2X2Xe.W F.3X3X3X3X3X3X3X3X3X3X,.D   . .   2X  @ @ @ @ @ @ @ @   2X2XE.M <.3X3X3X3X3X3X3X3X3X3XB.R k.2X2X2X2X2X2X2X2X",
"2X2X2X2X2X2X2X2X2X8.F oX3X3X3X3X3X3X3X3X,.! E.2X    2X2X2X  @ @ @ @ @ @ @ @   2X2X(.W >.3X3X3X3X3X3X3X3XS.H t.2X2X2X2X2X2X2X2X2X",
"2X2X2X2X2X2X2X2X2X2Xq.L D.3X3X3X3X3X3X:.V ~.2X2X2X2X2X2X2X  @ @ @ @ @ @ @ @   2X2X2XP.L >.3X3X3X3X3X3XB.F f.2X2X2X2X2X2X2X2X2X2X",
"2X2X2X2X2X2X2X2X2X2X2X&.R oX3X3X3X3X;.W [.2X2X2X2X2X2X2X2X  @ @ @ @ @ @ @ @   2X2X2X2X`.L >.3X3X3X3XF.E t.2X2X2X2X2X2X2X2X2X2X2X",
"2X2X2X2X2X2X2X2X2X2X2X2Xw.j .X3X3X;.U T.2X2X2X2X2X2X2X2X2X    @ O O @       2X2X2X2X2X2XP.W <.3X3XF.t l.2X2X2X2X2X2X2X2X2X2X2X2X",
"2X2X2X2X2X2X2X2X2X2X2X2X2Xr.W G.:.L {.2X2X2X2X2X2X2X2X2X2X2X    X X O   2X2X2X2X2X2X2X2X2X(.M 3.V.W l.2X2X2X2X2X2X2X2X2X2X2X2X2X",
"2X2X2X2X2X2X2X2X2X2X2X2X2X2X0.9 G Y.2X2X2X2X2X2X2X2X2X2X2X  X   X X X X     2X2X2X2X2X2X2X2XW.Z q a.2X2X2X2X2X2X2X2X2X2X2X2X2X2X",
"2X2X2X2X2X2X2X2X2X2X2X2X2X2XX.e S k.2X2X2X2X2X2X2X1X}._.  X X X   X X X X X   |.2X2X2X2X2X2Xt.n i X.2X2X2X2X2X2X2X2X2X2X2X2X2X2X",
"2X2X2X2X2X2X2X2X2X2X2X2X2X| W #Xc.U T.2X2X2X2Xh.' ~ b   X X X X     X X X # @   / ../.2X2Xk.T N.*XT | 2X2X2X2X2X2X2X2X2X2X2X2X2X",
"2X2X2X2X2X2X2X2X2X2X2X2X[ H oX3X3Xb.V x.2X6.v 5 4 4   X X X X   4 4   + o @ @ @   4 8 Q ] j S.3X3X.XR O.2X2X2X2X2X2X2X2X2X2X2X2X",
"2X2X2X2X2X2X2X2X2X2X2X[ U >X3X3X3X3Xv.W ( 4 4 4 4   X X X X X   4 4   @ @ @ @ @   4 4 > * =.3X3X3X3X*XV $.2X2X2X2X2X2X2X2X2X2X2X",
"2X2X2X2X2X2X2X2X2X2X} E XX3X3X3X3X3X3XN.- < 4 4 4   X X X X     4 4 4           4 4 , $ 1 5.3X3X3X3X3XXXW %.2X2X2X2X2X2X2X2X2X2X",
"2X2X2X2X2X2X2X2X2X@.C =X3X3X3X3X3X3X3X3X_ = , 4 4 4         4 4 4 4 4 4 4 4 4 4 4 : & 2 x :X3X3X3X3X3X3XoXN O.2X2X2X2X2X2X2X2X2X",
"2X2X2X2X2X2X2X2X@.! OX3X3X3X3X3X3X3X3X3X3X) 3 5 4 4 4 4 4 4 4 4 4 4 4 4 4 4 4 4 , % z -.,X3X3X3X3X3X3X3X3X%XE  .2X2X2X2X2X2X2X2X",
"2X2X2X2X2X2X2X} C OX3X3X3X3X3X3X3X3X3X3X3X3Xv.n 7.o.^ c 6 4 4 4 4 4 4 4 4 6 K Y 7 4.<X3X3X3X3X3X3X3X3X3X3X3X.XI  .2X2X2X2X2X2X2X",
"2X2X2X2X2X2X[ E -X3X3X3X3X3X3X3X3X3X3X3X3X3X3Xc.E R.2X2X2X2X2X2X2X2X2X2X2X2Xz.W B.3X3X3X3X3X3X3X3X3X3X3X3X3X3X&XH O.2X2X2X2X2X2X",
"2X2X2X2X2X[ T XX3X3X3X3X3X3X3X3X3X3X3X3X3X3X3X3Xn.d P.2X2X2X2X2X2X2X2X2X2Xx.r F.3X3X3X3X3X3X3X3X3X3X3X3X3X3X3X3XXXW @.2X2X2X2X2X",
"2X2X2X2X| H >X3X3X3X3X3X3X3X3X3X3X3X3X3X3X3X3X3X3XN.W x.2X2X2X2X2X2X2X2Xt.E F.3X3X3X3X3X3X3X3X3X3X3X3X3X3X3X3X3X3X#XM $.2X2X2X2X",
"2X2X2X .W oX3X3X3X3X3X3X3X3X3X3X3X3X3X3X3X3X3X3X3X3Xv.V T.2X2X2X2X2X2Xj.D B.3X3X3X3X3X3X3X3X3X3X3X3X3X3X3X3X3X3X3X3X@XW O.2X2X2X",
"2X2X| V #X3X3X3X3X3X3X3X3X3X3X3X3X3X3X3X3X3X3X3X3X3X3Xb.U k.2X2X2X2Xt.J S.3X3X3X3X3X3X3X3X3X3X3X3X3X3X3X3X3X3X3X3X3X3XXXG  .2X2X",
"2X| W %X3X3X3X3X3X3X3X3X3X3X3X3X3X3X3X3X3X3X3X3X3X3X3X3Xc.T R.2X2Xl.R N.3X3X3X3X3X3X3X3X3X3X3X3X3X3X3X3X3X3X3X3X3X3X3X3X&XU  .2X",
"` L oX3X3X3X3X3X3X3X3X3X3X3X3X3X3X3X3X3X3X3X3X3X3X3X3X3X3Xb.M Z.g.d D.3X3X3X3X3X3X3X3X3X3X3X3X3X3X3X3X3X3X3X3X3X3X3X3X3X3X.XE +.",
"P ;X3X3X3X3X3X3X3X3X3X3X3X3X3X3X3X3X3X3X3X3X3X3X3X3X3X3X3X3Xn.B A S.3X3X3X3X3X3X3X3X3X3X3X3X3X3X3X3X3X3X3X3X3X3X3X3X3X3X3X3X&XB "
};
