/* XPM */
static char *result[] = {
/* columns rows colors chars-per-pixel */
"64 64 221 2 ",
"   c black",
".  c #020201",
"X  c #050403",
"o  c #060505",
"O  c #080606",
"+  c #080911",
"@  c #0F1226",
"#  c #1A1D30",
"$  c #2D2626",
"%  c #322A22",
"&  c #332A22",
"*  c #28293A",
"=  c #40332C",
"-  c #4D4034",
";  c #262B4D",
":  c #313042",
">  c #2C325A",
",  c #2D335C",
"<  c #2E345E",
"1  c #45435D",
"2  c #725B4F",
"3  c #7E6152",
"4  c #806456",
"5  c #826657",
"6  c #846759",
"7  c #856959",
"8  c #8F6E5E",
"9  c #967C65",
"0  c #9A7A69",
"q  c #9A7C6B",
"w  c #9B7C6B",
"e  c #9E7E6E",
"r  c #947D71",
"t  c #947E71",
"y  c #A17D6B",
"u  c #A68573",
"i  c #AD8A78",
"p  c #B08D7A",
"a  c #B88F79",
"s  c #B4907D",
"d  c #BB9079",
"f  c #BC907A",
"g  c #BC917A",
"h  c #BD917B",
"j  c #BD927B",
"k  c #BE927B",
"l  c #BE927C",
"z  c #BE937C",
"x  c #BF937C",
"c  c #BF937D",
"v  c #BF947D",
"b  c #BF947E",
"n  c #C0947D",
"m  c #C0947E",
"M  c #C0957E",
"N  c #C1957E",
"B  c #C0957F",
"V  c #C1957F",
"C  c #C1967F",
"Z  c #0044FF",
"A  c #AC9181",
"S  c #AF978A",
"D  c #B99480",
"F  c #BA9581",
"G  c #C19680",
"H  c #C19781",
"J  c #C29680",
"K  c #C29780",
"L  c #C29781",
"P  c #C39781",
"I  c #C39881",
"U  c #C29882",
"Y  c #C39882",
"T  c #C39983",
"R  c #C49882",
"E  c #C49982",
"W  c #C49983",
"Q  c #C59983",
"!  c #C59A83",
"~  c #C19A86",
"^  c #C59A84",
"/  c #C59B85",
"(  c #C69B84",
")  c #C69B85",
"_  c #C39C87",
"`  c #C69C85",
"'  c #C79C86",
"]  c #C79D86",
"[  c #C89D87",
"{  c #C59E89",
"}  c #C89E88",
"|  c #CFA690",
" . c #D0A690",
".. c #D6AB95",
"X. c #D8AD96",
"o. c #D4B19F",
"O. c #D4B29F",
"+. c #E7B59B",
"@. c #E2B59D",
"#. c #E3B59D",
"$. c #E5B59C",
"%. c #E4B59D",
"&. c #E5B69C",
"*. c #E6B69D",
"=. c #E6B79D",
"-. c #E4B69E",
";. c #E5B79E",
":. c #E5B79F",
">. c #E7B79E",
",. c #E9B79C",
"<. c #E7B89E",
"1. c #E6B89F",
"2. c #E8B89F",
"3. c #E8B99F",
"4. c #E9B99F",
"5. c #EBB99F",
"6. c #D7B5A3",
"7. c #D0B3A4",
"8. c #DDB8A4",
"9. c #DDB8A5",
"0. c #DEB9A5",
"q. c #DEB9A6",
"w. c #DEBAA6",
"e. c #DFBAA6",
"r. c #DFBAA7",
"t. c #DFBBA7",
"y. c #DDBAA8",
"u. c #DABCAC",
"i. c #E6B8A0",
"p. c #E7B9A0",
"a. c #E9B9A0",
"s. c #E9BAA0",
"d. c #E8BAA1",
"f. c #EABAA0",
"g. c #EABAA1",
"h. c #EBBBA1",
"j. c #EBBBA2",
"k. c #ECBCA2",
"l. c #ECBCA3",
"z. c #ECBDA3",
"x. c #EDBDA3",
"c. c #EEBCA2",
"v. c #EBBCA4",
"b. c #EBBDA4",
"n. c #EDBDA4",
"m. c #EDBEA4",
"M. c #ECBEA5",
"N. c #EDBEA5",
"B. c #EEBEA4",
"V. c #EEBEA5",
"C. c #EEBFA5",
"Z. c #EFBFA5",
"A. c #EFBFA6",
"S. c #E0BBA8",
"D. c #E0BCA9",
"F. c #E1BCA9",
"G. c #E1BDA9",
"H. c #E1BDAA",
"J. c #E2BDAA",
"K. c #E2BEAA",
"L. c #E2BEAB",
"P. c #E3BFAC",
"I. c #F0BDA3",
"U. c #EFC0A6",
"Y. c #E3C0AD",
"T. c #E4C0AD",
"R. c #E4C1AE",
"E. c #E5C1AE",
"W. c #E5C2AF",
"Q. c #E6C2AF",
"!. c #F2C0A5",
"~. c #F0C0A6",
"^. c #F0C0A7",
"/. c #F1C1A7",
"(. c #F4C1A7",
"). c #F1C1A8",
"_. c #F0C2A9",
"`. c #F2C2A8",
"'. c #F2C2A9",
"]. c #F3C3A9",
"[. c #F1C3AA",
"{. c #F3C3AA",
"}. c #F6C3A9",
"|. c #F3C4AA",
" X c #F4C4AA",
".X c #F5C4AA",
"XX c #F4C5AB",
"oX c #F5C5AB",
"OX c #F7C6AB",
"+X c #F5C5AC",
"@X c #F4C5AD",
"#X c #F4C6AD",
"$X c #F6C6AC",
"%X c #F7C7AD",
"&X c #F8C6AC",
"*X c #FBC9AE",
"=X c #FCCAAF",
"-X c #FCD1AA",
";X c #FFD4AC",
":X c #E6C3B0",
">X c #E7C4B1",
",X c #E8C5B2",
"<X c #E8C6B3",
"1X c #E9C6B3",
"2X c #E9C6B4",
"3X c #E9C7B4",
"4X c #EAC7B5",
"5X c #EAC8B5",
"6X c #EBC8B6",
"7X c #EBC9B6",
"8X c #EBC9B7",
"9X c #ECC9B7",
"0X c #ECCAB7",
"qX c #E9C9B8",
"wX c #ECCAB8",
"eX c #ECCCBA",
"rX c #EECEBC",
"tX c #FECBB0",
"yX c #FFCCB1",
"uX c #F1D0BE",
"iX c #FFE2A4",
/* pixels */
"L e.uXuXuXuXuXuXuXuXuXuXuXuXuXuXuXuXuXuXuXuXuXuXuXuXuXuXuXuXH.c G Y.uXuXuXuXuXuXuXuXuXuXuXuXuXuXuXuXuXuXuXuXuXuXuXuXuXuXuXuX0.T ",
"}.[ q.uXuXuXuXuXuXuXuXuXuXuXuXuXuXuXuXuXuXuXuXuXuXuXuXuXuXP.' z.d.` :XuXuXuXuXuXuXuXuXuXuXuXuXuXuXuXuXuXuXuXuXuXuXuXuXuXuXq.} (.",
"yX/.! 0.uXuXuXuXuXuXuXuXuXuXuXuXuXuXuXuXuXuXuXuXuXuXuXuXP.n ~.yXyXk.C E.uXuXuXuXuXuXuXuXuXuXuXuXuXuXuXuXuXuXuXuXuXuXuXuX9.P  XyX",
"yXyX+X^ 0.uXuXuXuXuXuXuXuXuXuXuXuXuXuXuXuXuXuXuXuXuXuXL.[ Z.yXyXyXyXj.[ W.uXuXuXuXuXuXuXuXuXuXuXuXuXuXuXuXuXuXuXuXuXuX8.[ +XyXyX",
"yXyXyX/.[ w.uXuXuXuXuXuXuXuXuXuXuXuXuXuXuXuXuXuXuXuXP.J m.yXyXyXyXyXyXk.N >XuXuXuXuXuXuXuXuXuXuXuXuXuXuXuXuXuXuXuXuX8.( `.yXyXyX",
"yXyXyXyXoXJ t.uXuXuXuXuXuXuXuXuXuXuXuXuXuXuXuXuXuXG.) U.yXyXyXyXyXyXyXyXk.' Y.uXuXuXuXuXuXuXuXuXuXuXuXuXuXuXuXuXuX8.^ %XyXyXyXyX",
"yXyXyXyXyX].[ r.uXuXuXuXuXuXuXuXuXuXuXuXuXuXuXuXP.) l.yXyXyXyXyXyXyXyXyXyXf.^ :XuXuXuXuXuXuXuXuXuXuXuXuXuXuXuXuX9.[ `.yXyXyXyXyX",
"yXyXyXyXyXyX`.Y q.uXuXuXuXuXuXuXuXuXuXuXuXuXuXL.J U.yXyXyXyXyXyXyXyXyXyXyXyXj.Y T.uXuXuXuXuXuXuXuXuXuXuXuXuXuX0.P oXyXyXyXyXyXyX",
"yXyXyXyXyXyXyX$X' 0.uXuXuXuXuXuXuXuXuXuXuXuXY.[ m.yXyXyXyXyXyXyXyX            g.[ :XuXuXuXuXuXuXuXuXuXuXuXuX0.[  XyXyXyXyXyXyXyX",
"yXyXyXyXyXyXyXyX^.` q.uXuXuXuXuXuXuXuXuXuXY.v Z.yXyXyXyXyX        iXiXiXiXiX    l.c :XuXuXuXuXuXuXuXuXuXuX8.W '.yXyXyXyXyXyXyXyX",
"yXyXyXyXyXyXyXyXyX$XY r.uXuXuXuXuXuXuXuXH.' ~.yXyXyXyXyX  iXiXiXiXiXiXiXiXiXiXiX  l.[ T.uXuXuXuXuXuXuXuX8.` %XyXyXyXyXyXyXyXyXyX",
"yXyXyXyXyXyXyXyXyXyX`.[ t.uXuXuXuXuXuXP.Q z.yXyXyXyXyX  iXiXiXiXiXiXiXiXiXiXiXiX  yXg.R :XuXuXuXuXuXuX8.' ).yXyXyXyXyXyXyXyXyXyX",
"yXyXyXyXyXyXyXyXyXyXyX].J w.uXuXuXuXJ.E A.yXyXyXyXyX  iXiXiXiXiXiXiXiXiXiXiXiXiXiX  yXj.^ Y.uXuXuXuXw.Y %XyXyXyXyXyXyXyXyXyXyXyX",
"yXyXyXyXyXyXyXyXyXyXyXyXoX[ 0.uXuXY.] z.yXyXyXyXyX  iXiXiXiXiXiXiXiXiXiXiXiXiXiXiX  yXyXf.' >XuXuXw.} ].yXyXyXyXyXyXyXyXyXyXyXyX",
"yXyXyXyXyXyXyXyXyXyXyXyXyX/.^ 0.T.x ~.yXyXyXyXyX  iXiXiXiX      iXiXiXiXiXiXiXiXiX  yXyXyXk.N W.8.I {.yXyXyXyXyXyXyXyXyXyXyXyXyX",
"yXyXyXyXyXyXyXyXyXyXyXyXyXyX@Xc m A.yXyXyXyXyX  iXiXiXiX    ;X;X  iXiXiXiXiXiXiXiX  yXyXyXyXk.b L #XyXyXyXyXyXyXyXyXyXyXyXyXyXyX",
"yXyXyXyXyXyXyXyXyXyXyXyXyXyXb.c L 1.yXyXyXyXyX  iXiXiX  ;X;X;X;X  iXiXiXiXiXiXiXiX  yXyXyXyX%.M z /.yXyXyXyXyXyXyXyXyXyXyXyXyXyX",
"yXyXyXyXyXyXyXyXyXyXyXyXyXg.( W.3XJ 2.yXyXyXyX  iXiX  ;X;X;X;X;X    iXiXiXiXiXiXiX  yXyXyX*.! 0XK.` n.yXyXyXyXyXyXyXyXyXyXyXyXyX",
"yXyXyXyXyXyXyXyXyXyXyXyXx.` P.uXuX1X[ >.yXyXyX  iX    ;X;X;X;X;X;X  iXiXiXiXiXiXiX  yXyX*.[ ,XuXuXD.) ^.yXyXyXyXyXyXyXyXyXyXyXyX",
"yXyXyXyXyXyXyXyXyXyXyXl.V W.uXuXuXuX>XE >.yXyX  iX  ;X;X;X;X;X;X;X  iXiXiXiXiXiXiX  yX*.I 4XuXuXuXuXK.P V.yXyXyXyXyXyXyXyXyXyXyX",
"yXyXyXyXyXyXyXyXyXyXz.[ T.uXuXuXuXuXuX7X) *.yX  iX  ;XZ Z Z ;X;X;X;X  iXiXiXiXiX    *.[ 4XuXuXuXuXuXuXH.[ ~.yXyXyXyXyXyXyXyXyXyX",
"yXyXyXyXyXyXyXyXyXx.N R.uXuXuXuXuXuXuXuX:X' >.  iX  ;XZ Z Z ;X;X;X;X  iXiXiXiXiX  $.! ,XuXuXuXuXuXuXuXuXP.v ).yXyXyXyXyXyXyXyXyX",
"yXyXyXyXyXyXyXyXh.' W.uXuXuXuXuXuXuXuXuXuX7XP   iX  ;X;X;X;X;X;X;X;X;X  iXiXiXiX  ) 0XuXuXuXuXuXuXuXuXuXuXL.] m.yXyXyXyXyXyXyXyX",
"yXyXyXyXyXyXyXz.^ P.uXuXuXuXuXuXuXuXuXuXuXuX,X[   ;X;X;X;X;X;X;X;X;X;X            >XuXuXuXuXuXuXuXuXuXuXuXuXF.W ^.yXyXyXyXyXyXyX",
"yXyXyXyXyXyXj.Y W.uXuXuXuXuXuXuXuXuXuXuXuXuXuX,XP   ;X;X;X;X;X;X;X    ;X;X;X;X;X  uXuXuXuXuXuXuXuXuXuXuXuXuXuXK.Q m.yXyXyXyXyXyX",
"yXyXyXyXyXm.[ P.uXuXuXuXuXuXuXuXuXuXuXuXuXuXuXuX6X  ;X;X;X;X;X;X;X;X;X;X;X;X;X  uXuXuXuXuXuXuXuXuXuXuXuXuXuXuXuXF.] ).yXyXyXyXyX",
"yXyXyXyXm.l Q.uXuXuXuXuXuXuXuXuXuXuXuXuXuXuXuXuXuX  ;X      ;X;X;X;X;X;X;X;X  uXuXuXuXuXuXuXuXuXuXuXuXuXuXuXuXuXuXL.n ~.yXyXyXyX",
"yXyXyXj.] :XuXuXuXuXuXuXuXuXuXuXuXuXuXuXuXuXuXuXuX  ;X;X;X;X  ;X;X;X;X;X    uXuXuXuXuXuXuXuXuXuXuXuXuXuXuXuXuXuXuXuXP.[ V.yXyXyX",
"yXyXz.R P.uXuXuXuXuXuXuXuXuXuXuXuXuXuXuXuXuXuXuXuXuX  ;X;X;X;X;X;X;X;X    uXuXuXuXuXuXuXuXuXuXuXuXuXuXuXuXuXuXuXuXuXuXH.P /.yXyX",
"yXh.^ W.uXuXuXuXuXuXuXuXuXuXuXuXuXuXuXuXuXuXuXuXuXuXuX      ;X;X;X;X  wXuXuXuXuXuXuXuXuXuXuXuXuXuXuXuXuXuXuXuXuXuXuXuXuXK.) n.yX",
"c.' P.uXuXuXuXuXuXuXuXuXuXuXuXuXuXuXuXuXuXuXuXuXuXuXuXuXuX3X  ;X;X;X  uXuXuXuXuXuXuXuXuXuXuXuXuXuXuXuXuXuXuXuXuXuXuXuXuXuXD.) !.",
"f Q.uXuXuXuXuXuXuXuXuXuXuXuXuXuXuXuXuXuXuXuXuXuXuXuXuXuXuXuX-X9 - & % .   uXuXuXuXuXuXuXuXuXuXuXuXuXuXuXuXuXuXuXuXuXuXuXuXuXK.h ",
"H ,XuXuXuXuXuXuXuXuXuXuXuXuXuXuXuXuXuXuXuXuXuXuXuXuXuXuXuXuX    # # # # #   uXuXuXuXuXuXuXuXuXuXuXuXuXuXuXuXuXuXuXuXuXuXuXuXE.B ",
"5.J Q.uXuXuXuXuXuXuXuXuXuXuXuXuXuXuXuXuXuXuXuXuXuXuXuXuXuX  <   # # # # # #   uXuXuXuXuXuXuXuXuXuXuXuXuXuXuXuXuXuXuXuXuXuXT.v I.",
"yXg.[ :XuXuXuXuXuXuXuXuXuXuXuXuXuXuXuXuXuXuXuXuXuXuXuXuX    < <   # # # #   uXuXuXuXuXuXuXuXuXuXuXuXuXuXuXuXuXuXuXuXuXuXP.[ B.yX",
"yXyXh.V ,XuXuXuXuXuXuXuXuXuXuXuXuXuXuXuXuXuXuXuXuXuXuX  <   < < <       # #   uXuXuXuXuXuXuXuXuXuXuXuXuXuXuXuXuXuXuXuXR.J z.yXyX",
"yXyXyXg.' R.uXuXuXuXuXuXuXuXuXuXuXuXuXuXuXuXuXuXuXuX  < <   < < <     <   # #   uXuXuXuXuXuXuXuXuXuXuXuXuXuXuXuXuXuXL.) B.yXyXyX",
"yXyXyXyX4.^ ,XuXuXuXuXuXuXuXuXuXuXuXuXuXuXuXuXuX    < < <   < < < <   < <   #       uXuXuXuXuXuXuXuXuXuXuXuXuXuXuXR.) j.yXyXyXyX",
"yXyXyXyXyXf.Y E.uXuXuXuXuXuXuXuXuXuXuXuXuXuXuX  @   < <   ; > < < < < o + <   @ @ @   uXuXuXuXuXuXuXuXuXuXuXuXuXP.J B.yXyXyXyXyX",
"yXyXyXyXyXyXs.[ >XuXuXuXuXuXuXuXuXuXuXuXuXuX  @ @ @     yX2 X       < ,       @ @ @   uXuXuXuXuXuXuXuXuXuXuXuXT.[ z.yXyXyXyXyXyX",
"yXyXyXyXyXyXyXj.m >XuXuXuXuXuXuXuXuXuXuXuXuX  @ @ @   yXOXX < < < <       O   @ @ @   uXuXuXuXuXuXuXuXuXuXuXE.n B.yXyXyXyXyXyXyX",
"yXyXyXyXyXyXyXyXh.[ E.uXuXuXuXuXuXuXuXuXuXq.  @ @ @   yXu < < < < < < < <   yX  @ @   uXuXuXuXuXuXuXuXuXuXL.' V.yXyXyXyXyXyXyXyX",
"yXyXyXyXyXyXyXyXyXa.E ,XuXuXuXuXuXuXuXuXq.}         yXyXyX  < < < < < < < <   yX    [ 0.uXuXuXuXuXuXuXuXT.Q k.yXyXyXyXyXyXyXyXyX",
"yXyXyXyXyXyXyXyXyXyXf.^ R.uXuXuXuXuXuX9.P |.yXyXyXyXyXyXyX  < < < < < < < <   yXyXyX/.^ 0.uXuXuXuXuXuXL.E m.yXyXyXyXyXyXyXyXyXyX",
"yXyXyXyXyXyXyXyXyXyXyX4.' ,XuXuXuXuX8.[ $XyXyXyXyXyXyXyXyX  < < < < < < < <   yXyXyXyX+X^ 0.uXuXuXuXE.] k.yXyXyXyXyXyXyXyXyXyXyX",
"yXyXyXyXyXyXyXyXyXyXyXyXg.V :XuXuX8.) `.yXyXyXyXyXyXyXyXyX= = < < < <       yXyXyXyXyXyX/.[ w.uXuXE.l C.yXyXyXyXyXyXyXyXyXyXyXyX",
"yXyXyXyXyXyXyXyXyXyXyXyXyXj.[ W.9.^ %XyXyXyXyXyXyXyXyXyXyXyX$ < # #     yXyXyXyXyXyXyXyXyXXXJ t.P.[ C.yXyXyXyXyXyXyXyXyXyXyXyXyX",
"yXyXyXyXyXyXyXyXyXyXyXyXyXyXd.d W _.yXyXyXyXyXyXyXyXyXyX    # # # #   #   yXyXyXyXyXyXyXyXyX[.U g v.yXyXyXyXyXyXyXyXyXyXyXyXyXyX",
"yXyXyXyXyXyXyXyXyXyXyXyXyXyX;.j T V.yXyXyXyXyXyXyXtX*X  # # # # #   # # #   &X=XyXyXyXyXyXyXk.G c ;.yXyXyXyXyXyXyXyXyXyXyXyXyXyX",
"yXyXyXyXyXyXyXyXyXyXyXyXyX*.[ 3XS.) `.yXyXyXyXN.@.|   < 1 # # #     # # # #   _ ..-..XyXyXV.` K.7X` *.yXyXyXyXyXyXyXyXyXyXyXyXyX",
"yXyXyXyXyXyXyXyXyXyXyXyX$.Q ,XuXuXF.P A.yXi.F i u   < < < * :   u u   # # # #   u u s { #.V T.uXuX:X' >.yXyXyXyXyXyXyXyXyXyXyXyX",
"yXyXyXyXyXyXyXyXyXyXyX$.) wXuXuXuXuXD.[ X.u u u u   < < < < <   u u   # # # # #   u u q 6 6.uXuXuXuX7XP 2.yXyXyXyXyXyXyXyXyXyXyX",
"yXyXyXyXyXyXyXyXyXyX&.] >XuXuXuXuXuXuXK.8 e u u u u           u u u     # # # #   u w 3 r u.uXuXuXuXuX>X[ 3.yXyXyXyXyXyXyXyXyXyX",
"yXyXyXyXyXyXyXyXyX<.I 8XuXuXuXuXuXuXuXuXO.7 w u u u u u u u u u u u u u         u 0 5 t S qXuXuXuXuXuXuX,XK >.yXyXyXyXyXyXyXyXyX",
"yXyXyXyXyXyXyXyX<.} <XuXuXuXuXuXuXuXuXuXuXo.y i u u u u u u u u u u u u u u u u w 4 A 7.eXuXuXuXuXuXuXuXuX5X] =.yXyXyXyXyXyXyXyX",
"yXyXyXyXyXyXyX&.I <XuXuXuXuXuXuXuXuXuXuXuXuXD.G p.:. .D p u u u u u u u u p ~ _ a y.rXuXuXuXuXuXuXuXuXuXuXuX:X( =.yXyXyXyXyXyXyX",
"yXyXyXyXyXyX$.] 9XuXuXuXuXuXuXuXuXuXuXuXuXuXuXS.] '.yXyXyXyXyXyXyXyXyXyXyXyXZ.[ L.uXuXuXuXuXuXuXuXuXuXuXuXuXuX6XQ >.yXyXyXyXyXyX",
"yXyXyXyXyX$.` >XuXuXuXuXuXuXuXuXuXuXuXuXuXuXuXuXG.m /.yXyXyXyXyXyXyXyXyXyXA.k E.uXuXuXuXuXuXuXuXuXuXuXuXuXuXuXuX>X[ <.yXyXyXyXyX",
"yXyXyXyX*.Q wXuXuXuXuXuXuXuXuXuXuXuXuXuXuXuXuXuXuXK.[ A.yXyXyXyXyXyXyXyXk.] E.uXuXuXuXuXuXuXuXuXuXuXuXuXuXuXuXuXuX3XJ 2.yXyXyXyX",
"yXyXyX=.[ ,XuXuXuXuXuXuXuXuXuXuXuXuXuXuXuXuXuXuXuXuXD.P `.yXyXyXyXyXyXB.R L.uXuXuXuXuXuXuXuXuXuXuXuXuXuXuXuXuXuXuXuX2X[ >.yXyXyX",
"yXyX*.P 3XuXuXuXuXuXuXuXuXuXuXuXuXuXuXuXuXuXuXuXuXuXuXF.) V.yXyXyXyXk.! T.uXuXuXuXuXuXuXuXuXuXuXuXuXuXuXuXuXuXuXuXuXuX>XW =.yXyX",
"yX*.[ 5XuXuXuXuXuXuXuXuXuXuXuXuXuXuXuXuXuXuXuXuXuXuXuXuXS.` '.yXyXC.' K.uXuXuXuXuXuXuXuXuXuXuXuXuXuXuXuXuXuXuXuXuXuXuXuX6X) =.yX",
"+.^ ,XuXuXuXuXuXuXuXuXuXuXuXuXuXuXuXuXuXuXuXuXuXuXuXuXuXuXF.J U.M.m R.uXuXuXuXuXuXuXuXuXuXuXuXuXuXuXuXuXuXuXuXuXuXuXuXuXuX:X] ,.",
"/ 0XuXuXuXuXuXuXuXuXuXuXuXuXuXuXuXuXuXuXuXuXuXuXuXuXuXuXuXuXG.L Y T.uXuXuXuXuXuXuXuXuXuXuXuXuXuXuXuXuXuXuXuXuXuXuXuXuXuXuXuX6XL "
};
