/* XPM */
static char *result[] = {
/* columns rows colors chars-per-pixel */
"64 64 221 2 ",
"   c black",
".  c #090706",
"X  c #0F1226",
"o  c #1A1D30",
"O  c #28293A",
"+  c #302F40",
"@  c #313042",
"#  c #2E345E",
"$  c #7E6152",
"%  c #4A4761",
"&  c #806456",
"*  c #826657",
"=  c #846759",
"-  c #856959",
";  c #8F6E5E",
":  c #89756A",
">  c #9A7A69",
",  c #9A7C6B",
"<  c #9B7C6B",
"1  c #9E7E6E",
"2  c #947D71",
"3  c #947E71",
"4  c #A17D6B",
"5  c #A68573",
"6  c #A78674",
"7  c #AD8A78",
"8  c #B08D7A",
"9  c #B88F79",
"0  c #B4907D",
"q  c #BB9079",
"w  c #BC907A",
"e  c #BC917A",
"r  c #BD917B",
"t  c #BD927B",
"y  c #BE927B",
"u  c #BE927C",
"i  c #BE937C",
"p  c #BF937C",
"a  c #BF937D",
"s  c #BF947D",
"d  c #BF947E",
"f  c #C0947D",
"g  c #C0947E",
"h  c #C0957E",
"j  c #C1957E",
"k  c #C0957F",
"l  c #C1957F",
"z  c #C1967F",
"x  c #0044FF",
"c  c #AC9181",
"v  c #AF978A",
"b  c #B99480",
"n  c #BA9581",
"m  c #B59C8E",
"M  c #C19680",
"N  c #C19781",
"B  c #C29680",
"V  c #C29780",
"C  c #C29781",
"Z  c #C39781",
"A  c #C39881",
"S  c #C29882",
"D  c #C39882",
"F  c #C39983",
"G  c #C49882",
"H  c #C49982",
"J  c #C49983",
"K  c #C59983",
"L  c #C59A83",
"P  c #C19A86",
"I  c #C59A84",
"U  c #C59B85",
"Y  c #C69B84",
"T  c #C69B85",
"R  c #C39C87",
"E  c #C69C85",
"W  c #C79C86",
"Q  c #C79D86",
"!  c #C89D87",
"~  c #C59E89",
"^  c #C89E88",
"/  c #C9A386",
"(  c #CAA486",
")  c #D0A690",
"_  c #D6AB95",
"`  c #D8AD96",
"'  c #D4B19F",
"]  c #D4B29F",
"[  c #E7B59B",
"{  c #E3B59D",
"}  c #E5B59C",
"|  c #E4B59D",
" . c #E5B69C",
".. c #E6B69D",
"X. c #E6B79D",
"o. c #E4B69E",
"O. c #E5B79E",
"+. c #E5B79F",
"@. c #E7B79E",
"#. c #E9B79C",
"$. c #E7B89E",
"%. c #E6B89F",
"&. c #E8B89F",
"*. c #E8B99F",
"=. c #E9B99F",
"-. c #EBB99F",
";. c #D7B5A3",
":. c #D0B3A4",
">. c #DDB8A4",
",. c #DDB8A5",
"<. c #DEB9A5",
"1. c #DEB9A6",
"2. c #DEBAA6",
"3. c #DFBAA6",
"4. c #DFBAA7",
"5. c #DFBBA7",
"6. c #DDBAA8",
"7. c #DABCAC",
"8. c #E6B8A0",
"9. c #E7B9A0",
"0. c #E9B9A0",
"q. c #E9BAA0",
"w. c #E8BAA1",
"e. c #EABAA0",
"r. c #EABAA1",
"t. c #EBBBA1",
"y. c #EBBBA2",
"u. c #ECBCA2",
"i. c #ECBCA3",
"p. c #ECBDA3",
"a. c #EDBDA3",
"s. c #EEBCA2",
"d. c #EBBCA4",
"f. c #EBBDA4",
"g. c #EDBDA4",
"h. c #EDBEA4",
"j. c #ECBEA5",
"k. c #EDBEA5",
"l. c #EEBEA4",
"z. c #EEBEA5",
"x. c #EEBFA5",
"c. c #EFBFA5",
"v. c #EFBFA6",
"b. c #E0BBA8",
"n. c #E0BCA9",
"m. c #E1BCA9",
"M. c #E1BDA9",
"N. c #E1BDAA",
"B. c #E2BDAA",
"V. c #E2BEAA",
"C. c #E2BEAB",
"Z. c #E3BFAC",
"A. c #F0BDA3",
"S. c #E6C1A2",
"D. c #EFC0A6",
"F. c #E3C0AD",
"G. c #E4C0AD",
"H. c #E4C1AE",
"J. c #E5C1AE",
"K. c #E5C2AF",
"L. c #E6C2AF",
"P. c #F2C0A5",
"I. c #F0C0A6",
"U. c #F0C0A7",
"Y. c #F1C1A7",
"T. c #F4C1A7",
"R. c #F1C1A8",
"E. c #F0C2A9",
"W. c #F2C2A8",
"Q. c #F2C2A9",
"!. c #F3C3A9",
"~. c #F1C3AA",
"^. c #F3C3AA",
"/. c #F6C3A9",
"(. c #F3C4AA",
"). c #F4C4AA",
"_. c #F5C4AA",
"`. c #F4C5AB",
"'. c #F5C5AB",
"]. c #F7C6AB",
"[. c #F5C5AC",
"{. c #F4C5AD",
"}. c #F4C6AD",
"|. c #F6C6AC",
" X c #F7C7AD",
".X c #F8C6AC",
"XX c #FCCAAF",
"oX c #FBDBA3",
"OX c #FFDFA5",
"+X c #FFDDA7",
"@X c #FFDFA6",
"#X c #FFD4AC",
"$X c #FFDBA8",
"%X c #FBDDAB",
"&X c #FFDCA8",
"*X c #E6C3B0",
"=X c #E7C4B1",
"-X c #E8C5B2",
";X c #E8C6B3",
":X c #E9C6B3",
">X c #E9C6B4",
",X c #E9C7B4",
"<X c #EAC7B5",
"1X c #EAC8B5",
"2X c #EBC8B6",
"3X c #EBC9B6",
"4X c #EBC9B7",
"5X c #ECC9B7",
"6X c #ECCAB7",
"7X c #E9C9B8",
"8X c #ECCAB8",
"9X c #ECCCBA",
"0X c #EECEBC",
"qX c #FFCCB1",
"wX c #F1D0BE",
"eX c #FDE0A5",
"rX c #FFE1A4",
"tX c #FFE0A5",
"yX c #FEE1A5",
"uX c #FFE1A5",
"iX c #FFE2A4",
/* pixels */
"C 3.wXwXwXwXwXwXwXwXwXwXwXwXwXwXwXwXwXwXwXwXwXwXwXwXwXwXwXwXN.a M F.wXwXwXwXwXwXwXwXwXwXwXwXwXwXwXwXwXwXwXwXwXwXwXwXwXwXwXwX<.F ",
"/.! 1.wXwXwXwXwXwXwXwXwXwXwXwXwXwXwXwXwXwXwXwXwXwXwXwXwXwXZ.W p.w.E *XwXwXwXwXwXwXwXwXwXwXwXwXwXwXwXwXwXwXwXwXwXwXwXwXwXwX1.^ T.",
"qXY.L <.wXwXwXwXwXwXwXwXwXwXwXwXwXwXwXwXwXwXwXwXwXwXwXwXZ.f I.qXqXu.z J.wXwXwXwXwXwXwXwXwXwXwXwXwXwXwXwXwXwXwXwXwXwXwXwX,.Z ).qX",
"qXqX[.I <.wXwXwXwXwXwXwXwXwXwXwXwXwXwXwXwXwXwXwXwXwXwXC.! c.qXqXqXqXy.! K.wXwXwXwXwXwXwXwXwXwXwXwXwXwXwXwXwXwXwXwXwXwX>.! [.qXqX",
"qXqXqXY.! 2.wXwXwXwXwXwXwXwXwXwXwXwXwXwXwXwXwXwXwXwXZ.B h.qXqXqXqXqXqXu.j =XwXwXwXwXwXwXwXwXwXwXwXwXwXwXwXwXwXwXwXwX>.Y W.qXqXqX",
"qXqXqXqX'.B 5.wXwXwXwXwXwXwXwXwXwXwXwXwXwXwXwXwXwXM.T D.qXqXqXqXqXqXqXqXu.W F.wXwXwXwXwXwXwXwXwXwXwXwXwXwXwXwXwXwX>.I  XqXqXqXqX",
"qXqXqXqXqX!.! 4.wXwXwXwXwXwXwXwXwXwXwXwXwXwXwXwXZ.T i.qXqXqXqXqXqXqXqXqXqXe.I *XwXwXwXwXwXwXwXwXwXwXwXwXwXwXwXwX,.! W.qXqXqXqXqX",
"qXqXqXqXqXqXW.D 1.wXwXwXwXwXwXwXwXwXwXwXwXwXwXC.B D.qXqXqXqXqXqXqXqXqXqXqXqXy.D G.wXwXwXwXwXwXwXwXwXwXwXwXwXwX<.Z '.qXqXqXqXqXqX",
"qXqXqXqXqXqXqX|.W <.wXwXwXwXwXwXwXwXwXwXwXwXF.! h.            qXqXqXqXqXqXqXqXr.! *XwXwXwXwXwXwXwXwXwXwXwXwX<.! ).qXqXqXqXqXqXqX",
"qXqXqXqXqXqXqXqXU.E 1.wXwXwXwXwXwXwXwXwXwXF.s c.    iXiXiXiXiX        qXqXqXqXqXi.a *XwXwXwXwXwXwXwXwXwXwX>.J Q.qXqXqXqXqXqXqXqX",
"qXqXqXqXqXqXqXqXqX|.D 4.wXwXwXwXwXwXwXwXN.W I.  iXiXiXiXiXiXiXiXiXiXiX  qXqXqXqXqXi.! G.wXwXwXwXwXwXwXwX>.E  XqXqXqXqXqXqXqXqXqX",
"qXqXqXqXqXqXqXqXqXqXW.! 5.wXwXwXwXwXwXZ.K p.qX  iXiXiXiXiXiXiXiXiXiXiXiX  qXqXqXqXqXr.G *XwXwXwXwXwXwX>.W R.qXqXqXqXqXqXqXqXqXqX",
"qXqXqXqXqXqXqXqXqXqXqX!.B 2.wXwXwXwXB.H v.qX  iXiXiXiXiXiXiXiXiXiXiXiXiXiX  qXqXqXqXqXy.I F.wXwXwXwX2.D  XqXqXqXqXqXqXqXqXqXqXqX",
"qXqXqXqXqXqXqXqXqXqXqXqX'.! <.wXwXF.Q p.qXqX  iXiXiXiXiXiXiXiXiXiXiXiXiXiXiX  qXqXqXqXqXe.W =XwXwX2.^ !.qXqXqXqXqXqXqXqXqXqXqXqX",
"qXqXqXqXqXqXqXqXqXqXqXqXqXY.I <.G.p I.qXqXqX  iXiXiXiXiXiXiXiXiXuXtX+XiXiXiXiX  qXqXqXqXqXu.j K.>.A ^.qXqXqXqXqXqXqXqXqXqXqXqXqX",
"qXqXqXqXqXqXqXqXqXqXqXqXqXqX{.a g v.qXqXqXqX  iXiXiXiXiXiXiXiXiXiXiXiXiXiXiXiXiX  qXqXqXqXqXu.d C }.qXqXqXqXqXqXqXqXqXqXqXqXqXqX",
"qXqXqXqXqXqXqXqXqXqXqXqXqXqXf.a C %.qXqXqXqX  iXiXiXiXiXiXiXiXiXiXiXiXiXiXiXiXiX  qXqXqXqXqX| h i Y.qXqXqXqXqXqXqXqXqXqXqXqXqXqX",
"qXqXqXqXqXqXqXqXqXqXqXqXqXr.Y K.,XB &.qXqXqX  iXiXiXiXiXiXiXrXuXiXiXiXiXiXOXiXiX  qXqXqXqX..L 6XV.E g.qXqXqXqXqXqXqXqXqXqXqXqXqX",
"qXqXqXqXqXqXqXqXqXqXqXqXa.E Z.wXwX:X! @.qXqX  iXiXiXiXiXiXiXuXiXiXiXiXiXuX    iX  qXqXqX..! -XwXwXn.T U.qXqXqXqXqXqXqXqXqXqXqXqX",
"qXqXqXqXqXqXqXqXqXqXqXi.l K.wXwXwXwX=XH @.qX  iXiXiXiXiXiXiXrXiXiXiXiXiX$X    iX  qXqX..A <XwXwXwXwXV.Z z.qXqXqXqXqXqXqXqXqXqXqX",
"qXqXqXqXqXqXqXqXqXqXp.! G.wXwXwXwXwXwX3XT ..    iXiXiXiXiXrXiXiXiXiXiXiX  #X  iX  qX..! <XwXwXwXwXwXwXN.! I.qXqXqXqXqXqXqXqXqXqX",
"qXqXqXqXqXqXqXqXqXa.j H.wXwXwXwXwXwXwXwX*XW @.  iXiXiXiXiXiXiXiXiXiXiX  x #X  iX  } L -XwXwXwXwXwXwXwXwXZ.s R.qXqXqXqXqXqXqXqXqX",
"qXqXqXqXqXqXqXqXt.W K.wXwXwXwXwXwXwXwXwXwX3XZ   iXiXiXiXiXiXiXiXiXiXiX  #X#X  iX  T 6XwXwXwXwXwXwXwXwXwXwXC.Q h.qXqXqXqXqXqXqXqX",
"qXqXqXqXqXqXqXp.I Z.wXwXwXwXwXwXwXwXwXwXwXwX-X  oXiXiXiXiXiXiXiXiXiXtX  #X#X#X  ! =XwXwXwXwXwXwXwXwXwXwXwXwXm.J U.qXqXqXqXqXqXqX",
"qXqXqXqXqXqXy.D K.wXwXwXwXwXwXwXwXwXwXwXwXwXwX  rXiXiXiXiXiXiXiXiX@X  #X#X#X  A 3XwXwXwXwXwXwXwXwXwXwXwXwXwXwXV.K h.qXqXqXqXqXqX",
"qXqXqXqXqXh.! Z.wXwXwXwXwXwXwXwXwXwXwXwXwXwXwX  yXiXiXiXiXiXiXiX@X  #X#X#X#X  :XwXwXwXwXwXwXwXwXwXwXwXwXwXwXwXwXm.Q R.qXqXqXqXqX",
"qXqXqXqXh.u L.wXwXwXwXwXwXwXwXwXwXwXwXwXwXwXwX  %XeXtX+XtXuXtX&X  #X      #X  wXwXwXwXwXwXwXwXwXwXwXwXwXwXwXwXwXwXC.f I.qXqXqXqX",
"qXqXqXy.Q *XwXwXwXwXwXwXwXwXwXwXwXwXwXwXwXwXwXwX                #X  #X#X#X#X  wXwXwXwXwXwXwXwXwXwXwXwXwXwXwXwXwXwXwXZ.! z.qXqXqX",
"qXqXp.G Z.wXwXwXwXwXwXwXwXwXwXwXwXwXwXwXwXwXwXwXwXwXwX    #X#X#X#X#X#X#X#X  wXwXwXwXwXwXwXwXwXwXwXwXwXwXwXwXwXwXwXwXwXN.Z Y.qXqX",
"qXt.I K.wXwXwXwXwXwXwXwXwXwXwXwXwXwXwXwXwXwXwXwXwXwXwXwX>X  #X#X#X#X      wXwXwXwXwXwXwXwXwXwXwXwXwXwXwXwXwXwXwXwXwXwXwXV.T g.qX",
"s.W Z.wXwXwXwXwXwXwXwXwXwXwXwXwXwXwXwXwXwXwXwXwXwXwXwXwXwX  #X#X#X. -XwXwXwXwXwXwXwXwXwXwXwXwXwXwXwXwXwXwXwXwXwXwXwXwXwXwXn.T P.",
"w L.wXwXwXwXwXwXwXwXwXwXwXwXwXwXwXwXwXwXwXwXwXwXwXwXwXwXwX  S.( / : m wXwXwXwXwXwXwXwXwXwXwXwXwXwXwXwXwXwXwXwXwXwXwXwXwXwXwXV.r ",
"N -XwXwXwXwXwXwXwXwXwXwXwXwXwXwXwXwXwXwXwXwXwXwXwXwXwXwX    o o o o o   wXwXwXwXwXwXwXwXwXwXwXwXwXwXwXwXwXwXwXwXwXwXwXwXwXwXJ.k ",
"-.B L.wXwXwXwXwXwXwXwXwXwXwXwXwXwXwXwXwXwXwXwXwXwXwXwX  #   o o o o o o   wXwXwXwXwXwXwXwXwXwXwXwXwXwXwXwXwXwXwXwXwXwXwXwXG.s A.",
"qXr.! *XwXwXwXwXwXwXwXwXwXwXwXwXwXwXwXwXwXwXwXwXwXwXwX  # #   o o o o   wXwXwXwXwXwXwXwXwXwXwXwXwXwXwXwXwXwXwXwXwXwXwXwXZ.! l.qX",
"qXqXt.l -XwXwXwXwXwXwXwXwXwXwXwXwXwXwXwXwXwXwXwXwXwXwX  # # #       o o   wXwXwXwXwXwXwXwXwXwXwXwXwXwXwXwXwXwXwXwXwXwXH.B p.qXqX",
"qXqXqXr.W H.wXwXwXwXwXwXwXwXwXwXwXwXwXwXwXwXwXwXwXwX1.  # # #     #   o o   wXwXwXwXwXwXwXwXwXwXwXwXwXwXwXwXwXwXwXwXC.T l.qXqXqX",
"qXqXqXqX=.I -XwXwXwXwXwXwXwXwXwXwXwXwXwXwXwXwXwXwX<.^   # # # #   # #   o       wXwXwXwXwXwXwXwXwXwXwXwXwXwXwXwXwXH.T y.qXqXqXqX",
"qXqXqXqXqXe.D J.wXwXwXwXwXwXwXwXwXwXwXwXwXwXwXwX>.H !.  # # # # #   # #   X X X   wXwXwXwXwXwXwXwXwXwXwXwXwXwXwXZ.B l.qXqXqXqXqX",
"qXqXqXqXqXqXq.! =XwXwXwXwXwXwXwXwXwXwXwXwXwXwX>.W  XqX  # #               X X X   wXwXwXwXwXwXwXwXwXwXwXwXwXwXG.! p.qXqXqXqXqXqX",
"qXqXqXqXqXqXqXy.g =XwXwXwXwXwXwXwXwXwXwXwXwX>.W R.qXqX      # # # #       X X X   5.wXwXwXwXwXwXwXwXwXwXwXwXJ.f l.qXqXqXqXqXqXqX",
"qXqXqXqXqXqXqXqXt.! J.wXwXwXwXwXwXwXwXwXwX1.G  XqXqX  # # # # # # # #   qX  X X   B 2.wXwXwXwXwXwXwXwXwXwXC.W z.qXqXqXqXqXqXqXqX",
"qXqXqXqXqXqXqXqXqX0.H -XwXwXwXwXwXwXwXwX1.^ !.qXqX  # # # # # # # #   qXqXqX    qX`.! <.wXwXwXwXwXwXwXwXG.K u.qXqXqXqXqXqXqXqXqX",
"qXqXqXqXqXqXqXqXqXqXe.I H.wXwXwXwXwXwX,.Z (.qXqXqX  # # # # # # # #   qXqXqXqXqXqXqXY.I <.wXwXwXwXwXwXC.H h.qXqXqXqXqXqXqXqXqXqX",
"qXqXqXqXqXqXqXqXqXqXqX=.W -XwXwXwXwX>.! |.qXqXqXqX  # # # # # # # #   qXqXqXqXqXqXqXqX[.I <.wXwXwXwXJ.Q u.qXqXqXqXqXqXqXqXqXqXqX",
"qXqXqXqXqXqXqXqXqXqXqXqXr.l *XwXwX>.T W.qXqXqXqXqXqX      # + + #     qXqXqXqXqXqXqXqXqXY.! 2.wXwXJ.u x.qXqXqXqXqXqXqXqXqXqXqXqX",
"qXqXqXqXqXqXqXqXqXqXqXqXqXy.! K.,.I  XqXqXqXqXqXqXqXqXqX  + o o     qXqXqXqXqXqXqXqXqXqXqX`.B 5.Z.! x.qXqXqXqXqXqXqXqXqXqXqXqXqX",
"qXqXqXqXqXqXqXqXqXqXqXqXqXqXw.q J E.qXqXqXqXqXqXqXqX    o o o o   o   qXqXqXqXqXqXqXqXqXqXqX~.S e d.qXqXqXqXqXqXqXqXqXqXqXqXqXqX",
"qXqXqXqXqXqXqXqXqXqXqXqXqXqXO.t F z.qXqXqXqXqXqXqX  o o o o o   o o o   _.]..XXXqXqXqXqXqXqXu.M a O.qXqXqXqXqXqXqXqXqXqXqXqXqXqX",
"qXqXqXqXqXqXqXqXqXqXqXqXqX..! ,Xb.T W.qXqXqXqXk.  # % o o o     o o o o   6 8 R _ o._.qXqXz.E V.3XE ..qXqXqXqXqXqXqXqXqXqXqXqXqX",
"qXqXqXqXqXqXqXqXqXqXqXqX} K -XwXwXm.Z v.qX8.n   # # # O @   5 5   o o o o   5 5 5 5 0 ~ { l G.wXwX*XW @.qXqXqXqXqXqXqXqXqXqXqXqX",
"qXqXqXqXqXqXqXqXqXqXqX} T 8XwXwXwXwXn.! ` 5 5   # # # # #   5 5   o o o o o   5 5 5 5 , = ;.wXwXwXwX3XZ &.qXqXqXqXqXqXqXqXqXqXqX",
"qXqXqXqXqXqXqXqXqXqX .Q =XwXwXwXwXwXwXV.; 1 5 5           5 5 5     o o o o   5 5 5 < $ 2 7.wXwXwXwXwX=X! *.qXqXqXqXqXqXqXqXqXqX",
"qXqXqXqXqXqXqXqXqX$.A 4XwXwXwXwXwXwXwXwX] - < 5 5 5 5 5 5 5 5 5 5 5         5 5 5 > * 3 v 7XwXwXwXwXwXwX-XV @.qXqXqXqXqXqXqXqXqX",
"qXqXqXqXqXqXqXqX$.^ ;XwXwXwXwXwXwXwXwXwXwX' 4 7 5 5 5 5 5 5 5 5 5 5 5 5 5 5 5 5 < & c :.9XwXwXwXwXwXwXwXwX1XQ X.qXqXqXqXqXqXqXqX",
"qXqXqXqXqXqXqX .A ;XwXwXwXwXwXwXwXwXwXwXwXwXn.M 9.+.) b 8 5 5 5 5 5 5 5 5 8 P R 9 6.0XwXwXwXwXwXwXwXwXwXwXwX*XY X.qXqXqXqXqXqXqX",
"qXqXqXqXqXqX} Q 5XwXwXwXwXwXwXwXwXwXwXwXwXwXwXb.Q Q.qXqXqXqXqXqXqXqXqXqXqXqXc.! C.wXwXwXwXwXwXwXwXwXwXwXwXwXwX2XK @.qXqXqXqXqXqX",
"qXqXqXqXqX} E =XwXwXwXwXwXwXwXwXwXwXwXwXwXwXwXwXM.g Y.qXqXqXqXqXqXqXqXqXqXv.y J.wXwXwXwXwXwXwXwXwXwXwXwXwXwXwXwX=X! $.qXqXqXqXqX",
"qXqXqXqX..K 8XwXwXwXwXwXwXwXwXwXwXwXwXwXwXwXwXwXwXV.! v.qXqXqXqXqXqXqXqXu.Q J.wXwXwXwXwXwXwXwXwXwXwXwXwXwXwXwXwXwX,XB &.qXqXqXqX",
"qXqXqXX.! -XwXwXwXwXwXwXwXwXwXwXwXwXwXwXwXwXwXwXwXwXn.Z W.qXqXqXqXqXqXl.G C.wXwXwXwXwXwXwXwXwXwXwXwXwXwXwXwXwXwXwXwX>X! @.qXqXqX",
"qXqX..Z ,XwXwXwXwXwXwXwXwXwXwXwXwXwXwXwXwXwXwXwXwXwXwXm.T z.qXqXqXqXu.L G.wXwXwXwXwXwXwXwXwXwXwXwXwXwXwXwXwXwXwXwXwXwX=XJ X.qXqX",
"qX..! 1XwXwXwXwXwXwXwXwXwXwXwXwXwXwXwXwXwXwXwXwXwXwXwXwXb.E Q.qXqXx.W V.wXwXwXwXwXwXwXwXwXwXwXwXwXwXwXwXwXwXwXwXwXwXwXwX2XT X.qX",
"[ I -XwXwXwXwXwXwXwXwXwXwXwXwXwXwXwXwXwXwXwXwXwXwXwXwXwXwXm.B D.j.g H.wXwXwXwXwXwXwXwXwXwXwXwXwXwXwXwXwXwXwXwXwXwXwXwXwXwX*XQ #.",
"U 6XwXwXwXwXwXwXwXwXwXwXwXwXwXwXwXwXwXwXwXwXwXwXwXwXwXwXwXwXM.C D G.wXwXwXwXwXwXwXwXwXwXwXwXwXwXwXwXwXwXwXwXwXwXwXwXwXwXwXwX2XC "
};
