/* XPM */
static char *result[] = {
/* columns rows colors chars-per-pixel */
"64 64 219 2 ",
"   c black",
".  c #0F1226",
"X  c #1A1D30",
"o  c #2E345E",
"O  c #7E6152",
"+  c #806456",
"@  c #826657",
"#  c #846759",
"$  c #856959",
"%  c #8F6E5E",
"&  c #9A7A69",
"*  c #9A7C6B",
"=  c #9B7C6B",
"-  c #9E7E6E",
";  c #947D71",
":  c #947E71",
">  c #A17D6B",
",  c #A68573",
"<  c #A78674",
"1  c #AB8977",
"2  c #AD8A78",
"3  c #B08D7A",
"4  c #B88F79",
"5  c #B4907D",
"6  c #BB9079",
"7  c #BC907A",
"8  c #BC917A",
"9  c #BD917B",
"0  c #BD927B",
"q  c #BE927B",
"w  c #BE927C",
"e  c #BE937C",
"r  c #BF937C",
"t  c #BF937D",
"y  c #BF947D",
"u  c #BF947E",
"i  c #C0947D",
"p  c #C0947E",
"a  c #C0957E",
"s  c #C1957E",
"d  c #C0957F",
"f  c #C1957F",
"g  c #C1967F",
"h  c #0044FF",
"j  c #AC9181",
"k  c #AF978A",
"l  c #B99480",
"z  c #BA9581",
"x  c #BF9985",
"c  c #C19680",
"v  c #C19781",
"b  c #C29680",
"n  c #C29780",
"m  c #C29781",
"M  c #C39781",
"N  c #C39881",
"B  c #C29882",
"V  c #C39882",
"C  c #C39983",
"Z  c #C49882",
"A  c #C49982",
"S  c #C49983",
"D  c #C59983",
"F  c #C59A83",
"G  c #C19A86",
"H  c #C59A84",
"J  c #C59B85",
"K  c #C69B84",
"L  c #C69B85",
"P  c #C39C87",
"I  c #C69C85",
"U  c #C79C86",
"Y  c #C79D86",
"T  c #C89D87",
"R  c #C59E89",
"E  c #C89E88",
"W  c #CFA690",
"Q  c #D0A690",
"!  c #D6AB95",
"~  c #D8AD96",
"^  c #D4B19F",
"/  c #D4B29F",
"(  c #E7B59B",
")  c #E2B59D",
"_  c #E3B59D",
"`  c #E5B59C",
"'  c #E4B59D",
"]  c #E5B69C",
"[  c #E6B69D",
"{  c #E6B79D",
"}  c #E4B69E",
"|  c #E5B79E",
" . c #E5B79F",
".. c #E7B79E",
"X. c #E9B79C",
"o. c #E7B89E",
"O. c #E6B89F",
"+. c #E8B89F",
"@. c #E8B99F",
"#. c #E9B99F",
"$. c #EBB99F",
"%. c #D7B5A3",
"&. c #D0B3A4",
"*. c #DDB8A4",
"=. c #DDB8A5",
"-. c #DEB9A5",
";. c #DEB9A6",
":. c #DEBAA6",
">. c #DFBAA6",
",. c #DFBAA7",
"<. c #DFBBA7",
"1. c #DDBAA8",
"2. c #DABCAC",
"3. c #E6B8A0",
"4. c #E7B9A0",
"5. c #E9B9A0",
"6. c #E9BAA0",
"7. c #E8BAA1",
"8. c #EABAA0",
"9. c #EABAA1",
"0. c #EBBBA1",
"q. c #EBBBA2",
"w. c #ECBCA2",
"e. c #ECBCA3",
"r. c #ECBDA3",
"t. c #EDBDA3",
"y. c #EEBCA2",
"u. c #EBBCA4",
"i. c #EBBDA4",
"p. c #EDBDA4",
"a. c #EDBEA4",
"s. c #ECBEA5",
"d. c #EDBEA5",
"f. c #EEBEA4",
"g. c #EEBEA5",
"h. c #EEBFA5",
"j. c #EFBFA5",
"k. c #EFBFA6",
"l. c #E0BBA8",
"z. c #E0BCA9",
"x. c #E1BCA9",
"c. c #E1BDA9",
"v. c #E1BDAA",
"b. c #E2BDAA",
"n. c #E2BEAA",
"m. c #E2BEAB",
"M. c #E3BFAC",
"N. c #F0BDA3",
"B. c #EFC0A6",
"V. c #E3C0AD",
"C. c #E4C0AD",
"Z. c #E4C1AE",
"A. c #E5C1AE",
"S. c #E5C2AF",
"D. c #E6C2AF",
"F. c #F2C0A5",
"G. c #F0C0A6",
"H. c #F0C0A7",
"J. c #F1C1A7",
"K. c #F4C1A7",
"L. c #F1C1A8",
"P. c #F0C2A9",
"I. c #F2C2A8",
"U. c #F2C2A9",
"Y. c #F3C3A9",
"T. c #F1C3AA",
"R. c #F3C3AA",
"E. c #F4C3A9",
"W. c #F6C3A9",
"Q. c #F3C4AA",
"!. c #F4C4AA",
"~. c #F5C4AA",
"^. c #F4C5AB",
"/. c #F5C5AB",
"(. c #F6C5AB",
"). c #F7C6AB",
"_. c #F5C5AC",
"`. c #F4C5AD",
"'. c #F4C6AD",
"]. c #F6C6AC",
"[. c #F7C7AD",
"{. c #F8C6AC",
"}. c #FBC9AE",
"|. c #FCCAAF",
" X c #FBDDA2",
".X c #FCDEA2",
"XX c #FFDFA5",
"oX c #FFDDA7",
"OX c #FFDEA6",
"+X c #FFDFA6",
"@X c #FFD4AC",
"#X c #FADBA9",
"$X c #FFDBA8",
"%X c #FFDCA8",
"&X c #E6C3B0",
"*X c #E7C4B1",
"=X c #E8C5B2",
"-X c #E8C6B3",
";X c #E9C6B3",
":X c #E9C6B4",
">X c #E9C7B4",
",X c #EAC7B5",
"<X c #EAC8B5",
"1X c #EBC8B6",
"2X c #EBC9B6",
"3X c #EBC9B7",
"4X c #ECC9B7",
"5X c #ECCAB7",
"6X c #E9C9B8",
"7X c #ECCAB8",
"8X c #ECCCBA",
"9X c #EECEBC",
"0X c #FECBB0",
"qX c #FFCCB1",
"wX c #F1D0BE",
"eX c #FFE1A4",
"rX c #FFE0A5",
"tX c #FFE1A5",
"yX c #FFE2A4",
/* pixels */
"m >.wXwXwXwXwXwXwXwXwXwXwXwXwXwXwXwXwXwXwXwXwXwXwXwXwXwXwXwXv.t c V.wXwXwXwXwXwXwXwXwXwXwXwXwXwXwXwXwXwXwXwXwXwXwXwXwXwXwXwX-.C ",
"W.T ;.wXwXwXwXwXwXwXwXwXwXwXwXwXwXwXwXwXwXwXwXwXwXwXwXwXwXM.U r.7.I &XwXwXwXwXwXwXwXwXwXwXwXwXwXwXwXwXwXwXwXwXwXwXwXwXwXwX;.E K.",
"qXJ.F -.wXwXwXwXwXwXwXwXwXwXwXwXwXwXwXwXwXwXwXwXwXwXwXwXM.i G.qXqXw.g A.wXwXwXwXwXwXwXwXwXwXwXwXwXwXwXwXwXwXwXwXwXwXwXwX=.M !.qX",
"qXqX_.H -.wXwXwXwXwXwXwXwXwXwXwXwXwXwXwXwXwXwXwXwXwXwXm.T j.qXqXqXqXq.T S.wXwXwXwXwXwXwXwXwXwXwXwXwXwXwXwXwXwXwXwXwXwX*.T _.qXqX",
"qXqXqXJ.T :.wXwXwXwXwXwXwXwXwXwXwXwXwXwXwXwXwXwXwXwXM.b a.qXqXqXqXqXqXw.s *XwXwXwXwXwXwXwXwXwXwXwXwXwXwXwXwXwXwXwXwX*.K I.qXqXqX",
"qXqXqXqX/.b <.wXwXwXwXwXwXwXwXwXwXwXwXwXwXwXwXwXwXc.L B.qXqXqXqXqXqXqXqXw.U V.wXwXwXwXwXwXwXwXwXwXwXwXwXwXwXwXwXwX*.H [.qXqXqXqX",
"qXqXqXqXqXY.T ,.wXwXwXwXwXwXwXwXwXwXwXwXwXwXwXwXM.L e.qXqXqXqXqXqXqXqXqXqX8.H &XwXwXwXwXwXwXwXwXwXwXwXwXwXwXwXwX=.T I.qXqXqXqXqX",
"qXqXqXqXqXqXI.V ;.wXwXwXwXwXwXwXwXwXwXwXwXwXwXm.b             qXqXqXqXqXqXqXq.V C.wXwXwXwXwXwXwXwXwXwXwXwXwXwX-.M /.qXqXqXqXqXqX",
"qXqXqXqXqXqXqX].U -.wXwXwXwXwXwXwXwXwXwXwXwXV.T     yXyXyXyXyX        qXqXqXqX9.T &XwXwXwXwXwXwXwXwXwXwXwXwX-.T !.qXqXqXqXqXqXqX",
"qXqXqXqXqXqXqXqXH.I ;.wXwXwXwXwXwXwXwXwXwXV.y   yXyXyXyXyXyXyXyXyXyXyX  qXqXqXqXe.t &XwXwXwXwXwXwXwXwXwXwX*.S U.qXqXqXqXqXqXqXqX",
"qXqXqXqXqXqXqXqXqX].V ,.wXwXwXwXwXwXwXwXv.U G.  yXyXyXyXyXyXyXyXyXyXyXyX  qXqXqXqXe.T C.wXwXwXwXwXwXwXwX*.I [.qXqXqXqXqXqXqXqXqX",
"qXqXqXqXqXqXqXqXqXqXI.T <.wXwXwXwXwXwXM.D r.  yXyXyXyXyXyXyXyXyXyXyXyXyXyX  qXqXqXqX9.Z &XwXwXwXwXwXwX*.U L.qXqXqXqXqXqXqXqXqXqX",
"qXqXqXqXqXqXqXqXqXqXqXY.b :.wXwXwXwXb.A k.qX  yXyXyXyXyXyXyXyXyXyXyXyXyXyXyX  qXqXqXqXq.H V.wXwXwXwX:.V [.qXqXqXqXqXqXqXqXqXqXqX",
"qXqXqXqXqXqXqXqXqXqXqXqX/.T -.wXwXV.Y r.qXqX  yXyXyXyXyXyXyXyXyXtXrXoXyXyXyXyX  qXqXqXqX8.U *XwXwX:.E Y.qXqXqXqXqXqXqXqXqXqXqXqX",
"qXqXqXqXqXqXqXqXqXqXqXqXqXJ.H -.C.r G.qXqXqX  yXyXyXyXyXyXyXyXyXyXyXyXyXyXyXyXyX  qXqXqXqXw.s S.*.N R.qXqXqXqXqXqXqXqXqXqXqXqXqX",
"qXqXqXqXqXqXqXqXqXqXqXqXqXqX`.t p k.qXqXqXqX  yXyXyXyXyXyXyXyXyXyXyXyXyXyXyXyXyX  qXqXqXqXqXw.u m '.qXqXqXqXqXqXqXqXqXqXqXqXqXqX",
"qXqXqXqXqXqXqXqXqXqXqXqXqXqXi.t m O.qXqXqXqX  yXyXyXyXyXyXyXeXtXyXyXyXyXyXXXyXyX  qXqXqXqXqX' a e J.qXqXqXqXqXqXqXqXqXqXqXqXqXqX",
"qXqXqXqXqXqXqXqXqXqXqXqXqX9.K S.>Xb +.qXqXqX  yXyXyXyXyXyXyXtXyXyXyXyXyXtX    yX  qXqXqXqX[ F 5Xn.I p.qXqXqXqXqXqXqXqXqXqXqXqXqX",
"qXqXqXqXqXqXqXqXqXqXqXqXt.I M.wXwX;XT ..qXqX  yXyXyXyXyXyXyXeXyXyXyXyXyX$X    yX  qXqXqX[ T =XwXwXz.L H.qXqXqXqXqXqXqXqXqXqXqXqX",
"qXqXqXqXqXqXqXqXqXqXqXe.f S.wXwXwXwX*XA ..qX    yXyXyXyXyXeXyXyXyXyXyXyX  @X  yX  qXqX[ N ,XwXwXwXwXn.M g.qXqXqXqXqXqXqXqXqXqXqX",
"qXqXqXqXqXqXqXqXqXqXr.T C.wXwXwXwXwXwX2XL [ qX  yXyXyXyXyXyXyXyXyXyXyX  h @X  yX  qX[ T ,XwXwXwXwXwXwXv.T G.qXqXqXqXqXqXqXqXqXqX",
"qXqXqXqXqXqXqXqXqXt.s Z.wXwXwXwXwXwXwXwX&XU ..  yXyXyXyXyXyXyXyXyXyXyX  @X@X  yX  ` F =XwXwXwXwXwXwXwXwXM.y L.qXqXqXqXqXqXqXqXqX",
"qXqXqXqXqXqXqXqX0.U S.wXwXwXwXwXwXwXwXwXwX2XM   OXyXyXyXyXyXyXyXyXyXrX  @X@X@X  ] L 5XwXwXwXwXwXwXwXwXwXwXm.Y a.qXqXqXqXqXqXqXqX",
"qXqXqXqXqXqXqXr.H M.wXwXwXwXwXwXwXwXwXwXwXwX=X  eXyXyXyXyXyXyXyXyX+X  @X@X@X  ] T *XwXwXwXwXwXwXwXwXwXwXwXwXx.S H.qXqXqXqXqXqXqX",
"qXqXqXqXqXqXq.V S.wXwXwXwXwXwXwXwXwXwXwXwXwXwX  .XyXyXyXyXyXyXyX+X  @X@X@X@X  N 2XwXwXwXwXwXwXwXwXwXwXwXwXwXwXn.D a.qXqXqXqXqXqX",
"qXqXqXqXqXa.T M.wXwXwXwXwXwXwXwXwXwXwXwXwXwXwX  #X XrXoXrXtXrX%X  @X      @X  ;XwXwXwXwXwXwXwXwXwXwXwXwXwXwXwXwXx.Y L.qXqXqXqXqX",
"qXqXqXqXa.w D.wXwXwXwXwXwXwXwXwXwXwXwXwXwXwXwXwX                @X  @X@X@X@X  wXwXwXwXwXwXwXwXwXwXwXwXwXwXwXwXwXwXm.i G.qXqXqXqX",
"qXqXqXq.Y &XwXwXwXwXwXwXwXwXwXwXwXwXwXwXwXwXwXwXwXwX1X    @X@X@X@X@X@X@X@X  wXwXwXwXwXwXwXwXwXwXwXwXwXwXwXwXwXwXwXwXM.T g.qXqXqX",
"qXqXr.Z M.wXwXwXwXwXwXwXwXwXwXwXwXwXwXwXwXwXwXwXwXwXwX*XT   @X@X@X@X      wXwXwXwXwXwXwXwXwXwXwXwXwXwXwXwXwXwXwXwXwXwXv.M J.qXqX",
"qX0.H S.wXwXwXwXwXwXwXwXwXwXwXwXwXwXwXwXwXwXwXwXwXwXwXwX:X  @X@X@X  S 7XwXwXwXwXwXwXwXwXwXwXwXwXwXwXwXwXwXwXwXwXwXwXwXwXn.L p.qX",
"y.U M.wXwXwXwXwXwXwXwXwXwXwXwXwXwXwXwXwXwXwXwXwXwXwXwXwXwX  @X@X@X        wXwXwXwXwXwXwXwXwXwXwXwXwXwXwXwXwXwXwXwXwXwXwXwXz.L F.",
"7 D.wXwXwXwXwXwXwXwXwXwXwXwXwXwXwXwXwXwXwXwXwXwXwXwXwXwX  @X      X X X   wXwXwXwXwXwXwXwXwXwXwXwXwXwXwXwXwXwXwXwXwXwXwXwXwXn.9 ",
"v =XwXwXwXwXwXwXwXwXwXwXwXwXwXwXwXwXwXwXwXwXwXwXwXwX    o   X X X   X X X   wXwXwXwXwXwXwXwXwXwXwXwXwXwXwXwXwXwXwXwXwXwXwXwXA.d ",
"$.b D.wXwXwXwXwXwXwXwXwXwXwXwXwXwXwXwXwXwXwXwXwXwXwX  o   X X X X X       wXwXwXwXwXwXwXwXwXwXwXwXwXwXwXwXwXwXwXwXwXwXwXwXC.y N.",
"qX9.T &XwXwXwXwXwXwXwXwXwXwXwXwXwXwXwXwXwXwXwXwXwXwX  o   X X X X X X   o   wXwXwXwXwXwXwXwXwXwXwXwXwXwXwXwXwXwXwXwXwXwXM.T f.qX",
"qXqX0.f =XwXwXwXwXwXwXwXwXwXwXwXwXwXwXwXwXwXwXwXwXwXwX  o     X X       o   wXwXwXwXwXwXwXwXwXwXwXwXwXwXwXwXwXwXwXwXwXZ.b r.qXqX",
"qXqXqX9.U Z.wXwXwXwXwXwXwXwXwXwXwXwXwXwXwXwXwXwXwXwX;.  o   o     o   o o   wXwXwXwXwXwXwXwXwXwXwXwXwXwXwXwXwXwXwXwXm.L f.qXqXqX",
"qXqXqXqX#.H =XwXwXwXwXwXwXwXwXwXwXwXwXwXwXwXwXwXwX-.E   o   o o o o   o o   -.wXwXwXwXwXwXwXwXwXwXwXwXwXwXwXwXwXwXZ.L q.qXqXqXqX",
"qXqXqXqXqX8.V A.wXwXwXwXwXwXwXwXwXwXwXwXwXwXwXwX*.A Y.  o   o o o o   o o   I ;.wXwXwXwXwXwXwXwXwXwXwXwXwXwXwXwXM.b f.qXqXqXqXqX",
"qXqXqXqXqXqX6.T *XwXwXwXwXwXwXwXwXwXwXwXwXwXwX*.U [.qX  o   o o o o   o o   ].Z >.wXwXwXwXwXwXwXwXwXwXwXwXwXwXC.T r.qXqXqXqXqXqX",
"qXqXqXqXqXqXqXq.p *XwXwXwXwXwXwXwXwXwXwXwXwX*.U L.qXqX  o o         o o o   qXL.T <.wXwXwXwXwXwXwXwXwXwXwXwXA.i f.qXqXqXqXqXqXqX",
"qXqXqXqXqXqXqXqX0.T A.wXwXwXwXwXwXwXwXwXwX;.Z [.qXqX  o o   . . . .   o o   qXqXY.b :.wXwXwXwXwXwXwXwXwXwXm.U g.qXqXqXqXqXqXqXqX",
"qXqXqXqXqXqXqXqXqX5.A =XwXwXwXwXwXwXwXwX;.E Y.qXqX  o o o   . . . .   o o   qXqXqX^.T -.wXwXwXwXwXwXwXwXC.D w.qXqXqXqXqXqXqXqXqX",
"qXqXqXqXqXqXqXqXqXqX8.H Z.wXwXwXwXwXwX=.M Q.qXqXqX  o o o o         o o   qXqXqXqXqXJ.H -.wXwXwXwXwXwXm.A a.qXqXqXqXqXqXqXqXqXqX",
"qXqXqXqXqXqXqXqXqXqXqX#.U =XwXwXwXwX*.T ].qXqXqXqX  o o o o o o o o o   qXqXqXqXqXqXqX_.H -.wXwXwXwXA.Y w.qXqXqXqXqXqXqXqXqXqXqX",
"qXqXqXqXqXqXqXqXqXqXqXqX9.f &XwXwX*.L I.qXqXqXqXqXqX      o       o   qXqXqXqXqXqXqXqXqXJ.T :.wXwXA.w h.qXqXqXqXqXqXqXqXqXqXqXqX",
"qXqXqXqXqXqXqXqXqXqXqXqXqXq.T S.=.H [.qXqXqXqXqXqXqXqXqXqX  X X X   qXqXqXqXqXqXqXqXqXqXqX^.b <.M.T h.qXqXqXqXqXqXqXqXqXqXqXqXqX",
"qXqXqXqXqXqXqXqXqXqXqXqXqXqX7.6 S P.qXqXqXqXqXqXqXqXqXqXqX  X X X   qXqXqXqXqXqXqXqXqXqXqXqXT.B 8 u.qXqXqXqXqXqXqXqXqXqXqXqXqXqX",
"qXqXqXqXqXqXqXqXqXqXqXqXqXqX| 0 C g.qXqXqXqXqXqXqX0X}.).(.  X X X   ~.E.~.).{.|.qXqXqXqXqXqXw.c t | qXqXqXqXqXqXqXqXqXqXqXqXqXqX",
"qXqXqXqXqXqXqXqXqXqXqXqXqX[ T >Xl.L I.qXqXqXqXd.) W x 1   o       o   , , < 3 P ! } ~.qXqXg.I n.2XI [ qXqXqXqXqXqXqXqXqXqXqXqXqX",
"qXqXqXqXqXqXqXqXqXqXqXqX` D =XwXwXx.M k.qX3.z 2 , , ,   o o o o o o o   , , , , , , 5 R _ f C.wXwX&XU ..qXqXqXqXqXqXqXqXqXqXqXqX",
"qXqXqXqXqXqXqXqXqXqXqX` L 7XwXwXwXwXz.T ~ , , , , , ,   o o o o o o o o   , , , , , , * # %.wXwXwXwX2XM +.qXqXqXqXqXqXqXqXqXqXqX",
"qXqXqXqXqXqXqXqXqXqX] Y *XwXwXwXwXwXwXn.% - , , , , ,                   , , , , , , = O ; 2.wXwXwXwXwX*XT @.qXqXqXqXqXqXqXqXqXqX",
"qXqXqXqXqXqXqXqXqXo.N 3XwXwXwXwXwXwXwXwX/ $ = , , , , , , , , , , , , , , , , , , & @ : k 6XwXwXwXwXwXwX=Xn ..qXqXqXqXqXqXqXqXqX",
"qXqXqXqXqXqXqXqXo.E -XwXwXwXwXwXwXwXwXwXwX^ > 2 , , , , , , , , , , , , , , , , = + j &.8XwXwXwXwXwXwXwXwX<XY { qXqXqXqXqXqXqXqX",
"qXqXqXqXqXqXqX] N -XwXwXwXwXwXwXwXwXwXwXwXwXz.c 4. .Q l 3 , , , , , , , , 3 G P 4 1.9XwXwXwXwXwXwXwXwXwXwXwX&XK { qXqXqXqXqXqXqX",
"qXqXqXqXqXqX` Y 4XwXwXwXwXwXwXwXwXwXwXwXwXwXwXl.Y U.qXqXqXqXqXqXqXqXqXqXqXqXj.T m.wXwXwXwXwXwXwXwXwXwXwXwXwXwX1XD ..qXqXqXqXqXqX",
"qXqXqXqXqX` I *XwXwXwXwXwXwXwXwXwXwXwXwXwXwXwXwXc.p J.qXqXqXqXqXqXqXqXqXqXk.q A.wXwXwXwXwXwXwXwXwXwXwXwXwXwXwXwX*XT o.qXqXqXqXqX",
"qXqXqXqX[ D 7XwXwXwXwXwXwXwXwXwXwXwXwXwXwXwXwXwXwXn.T k.qXqXqXqXqXqXqXqXw.Y A.wXwXwXwXwXwXwXwXwXwXwXwXwXwXwXwXwXwX>Xb +.qXqXqXqX",
"qXqXqX{ T =XwXwXwXwXwXwXwXwXwXwXwXwXwXwXwXwXwXwXwXwXz.M I.qXqXqXqXqXqXf.Z m.wXwXwXwXwXwXwXwXwXwXwXwXwXwXwXwXwXwXwXwX:XT ..qXqXqX",
"qXqX[ M >XwXwXwXwXwXwXwXwXwXwXwXwXwXwXwXwXwXwXwXwXwXwXx.L g.qXqXqXqXw.F C.wXwXwXwXwXwXwXwXwXwXwXwXwXwXwXwXwXwXwXwXwXwX*XS { qXqX",
"qX[ T <XwXwXwXwXwXwXwXwXwXwXwXwXwXwXwXwXwXwXwXwXwXwXwXwXl.I U.qXqXh.U n.wXwXwXwXwXwXwXwXwXwXwXwXwXwXwXwXwXwXwXwXwXwXwXwX1XL { qX",
"( H =XwXwXwXwXwXwXwXwXwXwXwXwXwXwXwXwXwXwXwXwXwXwXwXwXwXwXx.b B.s.p Z.wXwXwXwXwXwXwXwXwXwXwXwXwXwXwXwXwXwXwXwXwXwXwXwXwXwX&XY X.",
"J 5XwXwXwXwXwXwXwXwXwXwXwXwXwXwXwXwXwXwXwXwXwXwXwXwXwXwXwXwXc.m V C.wXwXwXwXwXwXwXwXwXwXwXwXwXwXwXwXwXwXwXwXwXwXwXwXwXwXwXwX1Xm "
};
