/* XPM */
static char *result[] = {
/* columns rows colors chars-per-pixel */
"64 64 233 2 ",
"   c black",
".  c #050403",
"X  c #060505",
"o  c #080606",
"O  c #090706",
"+  c #080911",
"@  c #0F1226",
"#  c #1A1D30",
"$  c #2D2626",
"%  c #28293A",
"&  c #40332C",
"*  c #262B4D",
"=  c #313042",
"-  c #2C325A",
";  c #2D335C",
":  c #2E345E",
">  c #45435D",
",  c #725B4F",
"<  c #7E6152",
"1  c #806456",
"2  c #826657",
"3  c #846759",
"4  c #856959",
"5  c #8F6E5E",
"6  c #9A7A69",
"7  c #9A7C6B",
"8  c #9B7C6B",
"9  c #9E7E6E",
"0  c #947D71",
"q  c #947E71",
"w  c #A17D6B",
"e  c #A68573",
"r  c #AD8A78",
"t  c #A88F7D",
"y  c #B08D7A",
"u  c #B88F79",
"i  c #B4907D",
"p  c #BB9079",
"a  c #BC907A",
"s  c #BC917A",
"d  c #BD917B",
"f  c #BD927B",
"g  c #BE927B",
"h  c #BE927C",
"j  c #BE937C",
"k  c #BF937C",
"l  c #BF937D",
"z  c #BF947D",
"x  c #BF947E",
"c  c #C0947D",
"v  c #C0947E",
"b  c #C0957E",
"n  c #C1957E",
"m  c #C0957F",
"M  c #C1957F",
"N  c #C1967F",
"B  c #0044FF",
"V  c #AC9181",
"C  c #AF978A",
"Z  c #B99480",
"A  c #BA9581",
"S  c #C19680",
"D  c #C19781",
"F  c #C29680",
"G  c #C29780",
"H  c #C29781",
"J  c #C39781",
"K  c #C39881",
"L  c #C29882",
"P  c #C39882",
"I  c #C39983",
"U  c #C49882",
"Y  c #C49982",
"T  c #C49983",
"R  c #C59983",
"E  c #C59A83",
"W  c #C19A86",
"Q  c #C59A84",
"!  c #C59B85",
"~  c #C69B84",
"^  c #C69B85",
"/  c #C39C87",
"(  c #C69C85",
")  c #C79C86",
"_  c #C79D86",
"`  c #C89D87",
"'  c #C59E89",
"]  c #C89E88",
"[  c #D2AB8C",
"{  c #D5AD8E",
"}  c #CFA690",
"|  c #D0A690",
" . c #D6AB95",
".. c #D8AD96",
"X. c #D4B19F",
"o. c #D4B29F",
"O. c #E7B59B",
"+. c #E2B59D",
"@. c #E3B59D",
"#. c #E5B59C",
"$. c #E4B59D",
"%. c #E5B69C",
"&. c #E6B69D",
"*. c #E6B79D",
"=. c #E4B69E",
"-. c #E5B79E",
";. c #E5B79F",
":. c #E7B79E",
">. c #E9B79C",
",. c #E7B89E",
"<. c #E6B89F",
"1. c #E8B89F",
"2. c #E8B99F",
"3. c #E9B99F",
"4. c #EBB99F",
"5. c #D7B5A3",
"6. c #D0B3A4",
"7. c #DDB8A4",
"8. c #DDB8A5",
"9. c #DEB9A5",
"0. c #DEB9A6",
"q. c #DEBAA6",
"w. c #DFBAA6",
"e. c #DFBAA7",
"r. c #DFBBA7",
"t. c #DDBAA8",
"y. c #DABCAC",
"u. c #E6B8A0",
"i. c #E7B9A0",
"p. c #E9B9A0",
"a. c #E9BAA0",
"s. c #E8BAA1",
"d. c #EABAA0",
"f. c #EABAA1",
"g. c #EBBBA1",
"h. c #EBBBA2",
"j. c #ECBCA2",
"k. c #ECBCA3",
"l. c #ECBDA3",
"z. c #EDBDA3",
"x. c #EEBCA2",
"c. c #EBBCA4",
"v. c #EBBDA4",
"b. c #EDBDA4",
"n. c #EDBEA4",
"m. c #ECBEA5",
"M. c #EDBEA5",
"N. c #EEBEA4",
"B. c #EEBEA5",
"V. c #EEBFA5",
"C. c #EFBFA5",
"Z. c #EFBFA6",
"A. c #E0BBA8",
"S. c #E0BCA9",
"D. c #E1BCA9",
"F. c #E1BDA9",
"G. c #E1BDAA",
"H. c #E2BDAA",
"J. c #E2BEAA",
"K. c #E2BEAB",
"L. c #E3BFAC",
"P. c #F0BDA3",
"I. c #EAC3A4",
"U. c #EFC0A6",
"Y. c #E3C0AD",
"T. c #E4C0AD",
"R. c #E4C1AE",
"E. c #E5C1AE",
"W. c #E5C2AF",
"Q. c #E6C2AF",
"!. c #F2C0A5",
"~. c #F0C0A6",
"^. c #F0C0A7",
"/. c #F1C1A7",
"(. c #F4C1A7",
"). c #F1C1A8",
"_. c #F0C2A9",
"`. c #F2C2A8",
"'. c #F2C2A9",
"]. c #F3C3A9",
"[. c #F1C3AA",
"{. c #F3C3AA",
"}. c #F6C3A9",
"|. c #F3C4AA",
" X c #F4C4AA",
".X c #F5C4AA",
"XX c #F4C5AB",
"oX c #F5C5AB",
"OX c #F7C6AB",
"+X c #F5C5AC",
"@X c #F4C5AD",
"#X c #F4C6AD",
"$X c #F6C6AC",
"%X c #F7C7AD",
"&X c #F8C6AC",
"*X c #FBC9AE",
"=X c #FCCAAF",
"-X c #FBDBA3",
";X c #FFDFA5",
":X c #FFDDA7",
">X c #FFDFA6",
",X c #FFD4AC",
"<X c #FFDBA8",
"1X c #FBDDAB",
"2X c #FFDCA8",
"3X c #E6C3B0",
"4X c #E7C4B1",
"5X c #E8C5B2",
"6X c #E8C6B3",
"7X c #E9C6B3",
"8X c #E9C6B4",
"9X c #E9C7B4",
"0X c #EAC7B5",
"qX c #EAC8B5",
"wX c #EBC8B6",
"eX c #EBC9B6",
"rX c #EBC9B7",
"tX c #ECC9B7",
"yX c #ECCAB7",
"uX c #E9C9B8",
"iX c #ECCAB8",
"pX c #ECCCBA",
"aX c #EECEBC",
"sX c #FECBB0",
"dX c #FFCCB1",
"fX c #F5D1B9",
"gX c #F1D0BE",
"hX c #FDE0A5",
"jX c #FFE1A4",
"kX c #FFE0A5",
"lX c #FEE1A5",
"zX c #FFE1A5",
"xX c #FFE2A4",
/* pixels */
"H w.gXgXgXgXgXgXgXgXgXgXgXgXgXgXgXgXgXgXgXgXgXgXgXgXgXgXgXgXG.l S Y.gXgXgXgXgXgXgXgXgXgXgXgXgXgXgXgXgXgXgXgXgXgXgXgXgXgXgXgX9.I ",
"}.` 0.gXgXgXgXgXgXgXgXgXgXgXgXgXgXgXgXgXgXgXgXgXgXgXgXgXgXL.) l.s.( 3XgXgXgXgXgXgXgXgXgXgXgXgXgXgXgXgXgXgXgXgXgXgXgXgXgXgX0.] (.",
"dX/.E 9.gXgXgXgXgXgXgXgXgXgXgXgXgXgXgXgXgXgXgXgXgXgXgXgXL.c ~.dXdXj.N E.gXgXgXgXgXgXgXgXgXgXgXgXgXgXgXgXgXgXgXgXgXgXgXgX8.J  XdX",
"dXdX+XQ 9.gXgXgXgXgXgXgXgXgXgXgXgXgXgXgXgXgXgXgXgXgXgXK.` C.dXdXdXdXh.` W.gXgXgXgXgXgXgXgXgXgXgXgXgXgXgXgXgXgXgXgXgXgX7.` +XdXdX",
"dXdXdX/.` q.gXgXgXgXgXgXgXgXgXgXgXgXgXgXgXgXgXgXgXgXL.F n.dXdXdXdXdXdXj.n 4XgXgXgXgXgXgXgXgXgXgXgXgXgXgXgXgXgXgXgXgX7.~ `.dXdXdX",
"dXdXdXdXoXF r.gXgXgXgXgXgXgXgXgXgXgXgXgXgXgXgXgXgXF.^ U.dXdXdXdXdXdXdXdXj.) Y.gXgXgXgXgXgXgXgXgXgXgXgXgXgXgXgXgXgX7.Q %XdXdXdXdX",
"dXdXdXdXdX].` e.gXgXgXgXgXgXgXgXgXgXgXgXgXgXgXgXL.^ k.dXdXdXdXdXdXdXdXdXdXd.Q 3XgXgXgXgXgXgXgXgXgXgXgXgXgXgXgXgX8.` `.dXdXdXdXdX",
"dXdXdXdXdXdX`.P 0.gXgXgXgXgXgXgXgXgXgXgXgXgXgXK.F U.dXdXdXdXdXdXdXdXdXdXdXdXh.P T.gXgXgXgXgXgXgXgXgXgXgXgXgXgX9.J oXdXdXdXdXdXdX",
"dXdXdXdXdXdXdX$X) 9.gXgXgXgXgXgXgXgXgXgXgXgXY.` n.            dXdXdXdXdXdXdXdXf.` 3XgXgXgXgXgXgXgXgXgXgXgXgX9.`  XdXdXdXdXdXdXdX",
"dXdXdXdXdXdXdXdX^.( 0.gXgXgXgXgXgXgXgXgXgXY.z C.    xXxXxXxXxX        dXdXdXdXdXk.l 3XgXgXgXgXgXgXgXgXgXgX7.T '.dXdXdXdXdXdXdXdX",
"dXdXdXdXdXdXdXdXdX$XP e.gXgXgXgXgXgXgXgXG.) ~.  xXxXxXxXxXxXxXxXxXxXxX  dXdXdXdXdXk.` T.gXgXgXgXgXgXgXgX7.( %XdXdXdXdXdXdXdXdXdX",
"dXdXdXdXdXdXdXdXdXdX`.` r.gXgXgXgXgXgXL.R l.dX  xXxXxXxXxXxXxXxXxXxXxXxX  dXdXdXdXdXf.U 3XgXgXgXgXgXgX7.) ).dXdXdXdXdXdXdXdXdXdX",
"dXdXdXdXdXdXdXdXdXdXdX].F q.gXgXgXgXH.Y Z.dX  xXxXxXxXxXxXxXxXxXxXxXxXxXxX  dXdXdXdXdXh.Q Y.gXgXgXgXq.P %XdXdXdXdXdXdXdXdXdXdXdX",
"dXdXdXdXdXdXdXdXdXdXdXdXoX` 9.gXgXY._ l.dXdX  xXxXxXxXxXxXxXxXxXxXxXxXxXxXxX  dXdXdXdXdXd.) 4XgXgXq.] ].dXdXdXdXdXdXdXdXdXdXdXdX",
"dXdXdXdXdXdXdXdXdXdXdXdXdX/.Q 9.T.k ~.dXdXdX  xXxXxXxXxXxXxXxXxXzXkX:XxXxXxXxX  dXdXdXdXdXj.n W.7.K {.dXdXdXdXdXdXdXdXdXdXdXdXdX",
"dXdXdXdXdXdXdXdXdXdXdXdXdXdX@Xl v Z.dXdXdXdX  xXxXxXxXxXxXxXxXxXxXxXxXxXxXxXxXxX  dXdXdXdXdXj.x H #XdXdXdXdXdXdXdXdXdXdXdXdXdXdX",
"dXdXdXdXdXdXdXdXdXdXdXdXdXdXv.l H <.dXdXdXdX  xXxXxXxXxXxXxXxXxXxXxXxXxXxXxXxXxX  dXdXdXdXdX$.b j /.dXdXdXdXdXdXdXdXdXdXdXdXdXdX",
"dXdXdXdXdXdXdXdXdXdXdXdXdXf.~ W.9XF 1.dXdXdX  xXxXxXxXxXxXxXjXzXxXxXxXxXxX;XxXxX  dXdXdXdX&.E yXJ.( b.dXdXdXdXdXdXdXdXdXdXdXdXdX",
"dXdXdXdXdXdXdXdXdXdXdXdXz.( L.gXgX7X` :.dXdX  xXxXxXxXxXxXxXzXxXxXxXxXxXzX    xX  dXdXdX&.` 5XgXgXS.^ ^.dXdXdXdXdXdXdXdXdXdXdXdX",
"dXdXdXdXdXdXdXdXdXdXdXk.M W.gXgXgXgX4XY :.dX  xXxXxXxXxXxXxXjXxXxXxXxXxX<X    xX  dXdX&.K 0XgXgXgXgXJ.J B.dXdXdXdXdXdXdXdXdXdXdX",
"dXdXdXdXdXdXdXdXdXdXl.` T.gXgXgXgXgXgXeX^ &.    xXxXxXxXxXjXxXxXxXxXxXxX  ,X  xX  dX&.` 0XgXgXgXgXgXgXG.` ~.dXdXdXdXdXdXdXdXdXdX",
"dXdXdXdXdXdXdXdXdXz.n R.gXgXgXgXgXgXgXgX3X) :.  xXxXxXxXxXxXxXxXxXxXxX  B ,X  xX  #.E 5XgXgXgXgXgXgXgXgXL.z ).dXdXdXdXdXdXdXdXdX",
"dXdXdXdXdXdXdXdXg.) W.gXgXgXgXgXgXgXgXgXgXeXJ   xXxXxXxXxXxXxXxXxXxXxX  ,X,X  xX  ^ yXgXgXgXgXgXgXgXgXgXgXK._ n.dXdXdXdXdXdXdXdX",
"dXdXdXdXdXdXdXl.Q L.gXgXgXgXgXgXgXgXgXgXgXgX5X  -XxXxXxXxXxXxXxXxXxXkX  ,X,X,X  ` 4XgXgXgXgXgXgXgXgXgXgXgXgXD.T ^.dXdXdXdXdXdXdX",
"dXdXdXdXdXdXh.P W.gXgXgXgXgXgXgXgXgXgXgXgXgXgX  jXxXxXxXxXxXxXxXxX>X  ,X,X,X  K eXgXgXgXgXgXgXgXgXgXgXgXgXgXgXJ.R n.dXdXdXdXdXdX",
"dXdXdXdXdXn.` L.gXgXgXgXgXgXgXgXgXgXgXgXgXgXgX  lXxXxXxXxXxXxXxX>X  ,X,X,X,X  7XgXgXgXgXgXgXgXgXgXgXgXgXgXgXgXgXD._ ).dXdXdXdXdX",
"dXdXdXdXn.h Q.gXgXgXgXgXgXgXgXgXgXgXgXgXgXgXgX  1XhXkX:XkXzXkX2X  ,X      ,X  gXgXgXgXgXgXgXgXgXgXgXgXgXgXgXgXgXgXK.c ~.dXdXdXdX",
"dXdXdXh._ 3XgXgXgXgXgXgXgXgXgXgXgXgXgXgXgXgXgXgX                ,X  ,X,X,X,X  gXgXgXgXgXgXgXgXgXgXgXgXgXgXgXgXgXgXgXL.` B.dXdXdX",
"dXdXl.U L.gXgXgXgXgXgXgXgXgXgXgXgXgXgXgXgXgXgXgXgXgXgX    ,X,X,X,X,X,X,X,X  gXgXgXgXgXgXgXgXgXgXgXgXgXgXgXgXgXgXgXgXgXG.J /.dXdX",
"dXg.Q W.gXgXgXgXgXgXgXgXgXgXgXgXgXgXgXgXgXgXgXgXgXgXgXgX8X  ,X,X,X,X      gXgXgXgXgXgXgXgXgXgXgXgXgXgXgXgXgXgXgXgXgXgXgXJ.^ b.dX",
"x.) L.gXgXgXgXgXgXgXgXgXgXgXgXgXgXgXgXgXgXgXgXgXgXgXgXgXgX  ,X,X,XO 5XgXgXgXgXgXgXgXgXgXgXgXgXgXgXgXgXgXgXgXgXgXgXgXgXgXgXS.^ !.",
"a Q.gXgXgXgXgXgXgXgXgXgXgXgXgXgXgXgXgXgXgXgXgXgXgXgXgXgXgX  I.[ { t fXgXgXgXgXgXgXgXgXgXgXgXgXgXgXgXgXgXgXgXgXgXgXgXgXgXgXgXJ.d ",
"D 5XgXgXgXgXgXgXgXgXgXgXgXgXgXgXgXgXgXgXgXgXgXgXgXgXgX  # # # # #     gXgXgXgXgXgXgXgXgXgXgXgXgXgXgXgXgXgXgXgXgXgXgXgXgXgXgXE.m ",
"4.F Q.gXgXgXgXgXgXgXgXgXgXgXgXgXgXgXgXgXgXgXgXgXgXgX  # # # # # #   :   gXgXgXgXgXgXgXgXgXgXgXgXgXgXgXgXgXgXgXgXgXgXgXgXgXT.z P.",
"dXf.` 3XgXgXgXgXgXgXgXgXgXgXgXgXgXgXgXgXgXgXgXgXgXgXgX  # # # #   : :     gXgXgXgXgXgXgXgXgXgXgXgXgXgXgXgXgXgXgXgXgXgXgXL.` N.dX",
"dXdXg.M 5XgXgXgXgXgXgXgXgXgXgXgXgXgXgXgXgXgXgXgXgXgX  # #       : : :   :   gXgXgXgXgXgXgXgXgXgXgXgXgXgXgXgXgXgXgXgXgXR.F l.dXdX",
"dXdXdXf.) R.gXgXgXgXgXgXgXgXgXgXgXgXgXgXgXgXgXgXgX  # #   :     : : :   : :   gXgXgXgXgXgXgXgXgXgXgXgXgXgXgXgXgXgXgXK.^ N.dXdXdX",
"dXdXdXdX3.Q 5XgXgXgXgXgXgXgXgXgXgXgXgXgXgXgXgX      #   : :   : : : :   : : :     gXgXgXgXgXgXgXgXgXgXgXgXgXgXgXgXR.^ h.dXdXdXdX",
"dXdXdXdXdXd.P E.gXgXgXgXgXgXgXgXgXgXgXgXgXgX  @ @ @   : + X : : : : - *   : :   @   gXgXgXgXgXgXgXgXgXgXgXgXgXgXL.F N.dXdXdXdXdX",
"dXdXdXdXdXdXa.` 4XgXgXgXgXgXgXgXgXgXgXgXgXgX  @ @ @       ; :       . , dX    @ @ @   gXgXgXgXgXgXgXgXgXgXgXgXT.` l.dXdXdXdXdXdX",
"dXdXdXdXdXdXdXh.v 4XgXgXgXgXgXgXgXgXgXgXgXgX  @ @ @   o       : : : : . OXdX  @ @ @   gXgXgXgXgXgXgXgXgXgXgXE.c N.dXdXdXdXdXdXdX",
"dXdXdXdXdXdXdXdXg.` E.gXgXgXgXgXgXgXgXgXgX0.  @ @   dX  : : : : : : : : e dX  @ @ @   gXgXgXgXgXgXgXgXgXgXK.) B.dXdXdXdXdXdXdXdX",
"dXdXdXdXdXdXdXdXdXp.Y 5XgXgXgXgXgXgXgXgX0.] ].    dX  : : : : : : : :   dXdXdX        9.gXgXgXgXgXgXgXgXT.R j.dXdXdXdXdXdXdXdXdX",
"dXdXdXdXdXdXdXdXdXdXd.Q R.gXgXgXgXgXgX8.J |.dXdXdXdX  : : : : : : : :   dXdXdXdXdXdX/.Q 9.gXgXgXgXgXgXK.Y n.dXdXdXdXdXdXdXdXdXdX",
"dXdXdXdXdXdXdXdXdXdXdX3.) 5XgXgXgXgX7.` $XdXdXdXdXdX  : : : : : : : :   dXdXdXdXdXdXdX+XQ 9.gXgXgXgXE._ j.dXdXdXdXdXdXdXdXdXdXdX",
"dXdXdXdXdXdXdXdXdXdXdXdXf.M 3XgXgX7.^ `.dXdXdXdXdXdXdX      : : : : & & dXdXdXdXdXdXdXdX/.` q.gXgXE.h V.dXdXdXdXdXdXdXdXdXdXdXdX",
"dXdXdXdXdXdXdXdXdXdXdXdXdXh.` W.8.Q %XdXdXdXdXdXdXdXdXdXdX    # # : $ dXdXdXdXdXdXdXdXdXdXXXF r.L.` V.dXdXdXdXdXdXdXdXdXdXdXdXdX",
"dXdXdXdXdXdXdXdXdXdXdXdXdXdXs.p T _.dXdXdXdXdXdXdXdXdXdX  #   # # # #     dXdXdXdXdXdXdXdXdX[.L s c.dXdXdXdXdXdXdXdXdXdXdXdXdXdX",
"dXdXdXdXdXdXdXdXdXdXdXdXdXdX-.f I B.dXdXdXdXdXdXdXsX*X  # # #   # # # # #   &X=XdXdXdXdXdXdXj.S l -.dXdXdXdXdXdXdXdXdXdXdXdXdXdX",
"dXdXdXdXdXdXdXdXdXdXdXdXdX&.` 9XA.^ `.dXdXdXdXM.+.}   # # # #     # # # > :   /  .=..XdXdXB.( J.eX( &.dXdXdXdXdXdXdXdXdXdXdXdXdX",
"dXdXdXdXdXdXdXdXdXdXdXdX#.R 5XgXgXD.J Z.dXu.A r e   # # # #   e e   = % : : :   e e i ' @.M T.gXgX3X) :.dXdXdXdXdXdXdXdXdXdXdXdX",
"dXdXdXdXdXdXdXdXdXdXdX#.^ iXgXgXgXgXS.` ..e e e   # # # # #   e e   : : : : :   e e e 7 3 5.gXgXgXgXeXJ 1.dXdXdXdXdXdXdXdXdXdXdX",
"dXdXdXdXdXdXdXdXdXdX%._ 4XgXgXgXgXgXgXJ.5 9 e e   # # # #     e e e           e e e 8 < 0 y.gXgXgXgXgX4X` 2.dXdXdXdXdXdXdXdXdXdX",
"dXdXdXdXdXdXdXdXdX,.K rXgXgXgXgXgXgXgXgXo.4 8 e e         e e e e e e e e e e e e 6 2 q C uXgXgXgXgXgXgX5XG :.dXdXdXdXdXdXdXdXdX",
"dXdXdXdXdXdXdXdX,.] 6XgXgXgXgXgXgXgXgXgXgXX.w r e e e e e e e e e e e e e e e e 8 1 V 6.pXgXgXgXgXgXgXgXgXqX_ *.dXdXdXdXdXdXdXdX",
"dXdXdXdXdXdXdX%.K 6XgXgXgXgXgXgXgXgXgXgXgXgXS.S i.;.| Z y e e e e e e e e y W / u t.aXgXgXgXgXgXgXgXgXgXgXgX3X~ *.dXdXdXdXdXdXdX",
"dXdXdXdXdXdX#._ tXgXgXgXgXgXgXgXgXgXgXgXgXgXgXA._ '.dXdXdXdXdXdXdXdXdXdXdXdXC.` K.gXgXgXgXgXgXgXgXgXgXgXgXgXgXwXR :.dXdXdXdXdXdX",
"dXdXdXdXdX#.( 4XgXgXgXgXgXgXgXgXgXgXgXgXgXgXgXgXF.v /.dXdXdXdXdXdXdXdXdXdXZ.g E.gXgXgXgXgXgXgXgXgXgXgXgXgXgXgXgX4X` ,.dXdXdXdXdX",
"dXdXdXdX&.R iXgXgXgXgXgXgXgXgXgXgXgXgXgXgXgXgXgXgXJ.` Z.dXdXdXdXdXdXdXdXj._ E.gXgXgXgXgXgXgXgXgXgXgXgXgXgXgXgXgXgX9XF 1.dXdXdXdX",
"dXdXdX*.` 5XgXgXgXgXgXgXgXgXgXgXgXgXgXgXgXgXgXgXgXgXS.J `.dXdXdXdXdXdXN.U K.gXgXgXgXgXgXgXgXgXgXgXgXgXgXgXgXgXgXgXgX8X` :.dXdXdX",
"dXdX&.J 9XgXgXgXgXgXgXgXgXgXgXgXgXgXgXgXgXgXgXgXgXgXgXD.^ B.dXdXdXdXj.E T.gXgXgXgXgXgXgXgXgXgXgXgXgXgXgXgXgXgXgXgXgXgX4XT *.dXdX",
"dX&.` qXgXgXgXgXgXgXgXgXgXgXgXgXgXgXgXgXgXgXgXgXgXgXgXgXA.( '.dXdXV.) J.gXgXgXgXgXgXgXgXgXgXgXgXgXgXgXgXgXgXgXgXgXgXgXgXwX^ *.dX",
"O.Q 5XgXgXgXgXgXgXgXgXgXgXgXgXgXgXgXgXgXgXgXgXgXgXgXgXgXgXD.F U.m.v R.gXgXgXgXgXgXgXgXgXgXgXgXgXgXgXgXgXgXgXgXgXgXgXgXgXgX3X_ >.",
"! yXgXgXgXgXgXgXgXgXgXgXgXgXgXgXgXgXgXgXgXgXgXgXgXgXgXgXgXgXF.H P T.gXgXgXgXgXgXgXgXgXgXgXgXgXgXgXgXgXgXgXgXgXgXgXgXgXgXgXgXwXH "
};
