/* XPM */
static char *result[] = {
/* columns rows colors chars-per-pixel */
"64 64 208 2 ",
"   c black",
".  c #0F1226",
"X  c #282C49",
"o  c #2E345E",
"O  c #7D6052",
"+  c #7E6152",
"@  c #7F6354",
"#  c #806455",
"$  c #806456",
"%  c #826657",
"&  c #826658",
"*  c #927A6D",
"=  c #927B6E",
"-  c #937C6F",
";  c #9A7A69",
":  c #9A7A6A",
">  c #9A7B6B",
",  c #9A7C6B",
"<  c #9B7C6B",
"1  c #9D7E6D",
"2  c #9E7E6D",
"3  c #9E7E6E",
"4  c #947C70",
"5  c #947D71",
"6  c #947E71",
"7  c #967E72",
"8  c #977F72",
"9  c #988073",
"0  c #9D877C",
"q  c #A7816E",
"w  c #B99F67",
"e  c #A68573",
"r  c #A78674",
"t  c #AB8673",
"y  c #A98775",
"u  c #AC8874",
"i  c #B18E7B",
"p  c #B68D78",
"a  c #B7927F",
"s  c #BB9079",
"d  c #BC907A",
"f  c #BC917A",
"g  c #BD917B",
"h  c #BD927B",
"j  c #BE927B",
"k  c #BE927C",
"l  c #BF937C",
"z  c #BF937D",
"x  c #B9947F",
"c  c #BF947D",
"v  c #C0947D",
"b  c #C0947E",
"n  c #C1957E",
"m  c #C0957F",
"M  c #C1957F",
"N  c #C1967F",
"B  c #A69083",
"V  c #AE9689",
"C  c #BC9682",
"Z  c #BE9884",
"A  c #B2998C",
"S  c #B89F91",
"D  c #BFA597",
"F  c #C19680",
"G  c #C19781",
"H  c #C29680",
"J  c #C29780",
"K  c #C29781",
"L  c #C39781",
"P  c #C39881",
"I  c #C29882",
"U  c #C39882",
"Y  c #C39983",
"T  c #C49882",
"R  c #C49982",
"E  c #C49983",
"W  c #C59983",
"Q  c #C59A83",
"!  c #C59A84",
"~  c #C59B85",
"^  c #C69B84",
"/  c #C69B85",
"(  c #C69C85",
")  c #C79C86",
"_  c #C79D86",
"`  c #C89D87",
"'  c #C49D89",
"]  c #C59E89",
"[  c #C89E88",
"{  c #D0AF9E",
"}  c #DBAF98",
"|  c #DDB199",
" . c #E7B59B",
".. c #E5B59C",
"X. c #E5B69C",
"o. c #E6B69D",
"O. c #E6B79D",
"+. c #E5B79E",
"@. c #E7B79E",
"#. c #E9B79C",
"$. c #E7B89E",
"%. c #E6B89F",
"&. c #E8B89F",
"*. c #E8B99F",
"=. c #E9B99F",
"-. c #EBB99F",
";. c #D4B7A7",
":. c #D9B5A3",
">. c #DDB8A4",
",. c #DDB8A5",
"<. c #DEB9A5",
"1. c #DEB9A6",
"2. c #DEBAA6",
"3. c #DFBAA6",
"4. c #DFBAA7",
"5. c #DFBBA7",
"6. c #D8BBAB",
"7. c #DABCAC",
"8. c #E7B9A0",
"9. c #E9B9A0",
"0. c #E9BAA0",
"q. c #E8BAA1",
"w. c #EABAA0",
"e. c #EABAA1",
"r. c #EBBBA1",
"t. c #EBBBA2",
"y. c #EBBCA3",
"u. c #ECBCA2",
"i. c #ECBCA3",
"p. c #ECBDA3",
"a. c #EDBDA3",
"s. c #EEBCA2",
"d. c #EBBCA4",
"f. c #EBBDA4",
"g. c #EDBDA4",
"h. c #EDBEA4",
"j. c #ECBEA5",
"k. c #EEBEA4",
"l. c #EEBEA5",
"z. c #EEBFA5",
"x. c #EFBFA5",
"c. c #EFBFA6",
"v. c #E0BBA8",
"b. c #E0BCA9",
"n. c #E1BCA9",
"m. c #E1BDA9",
"M. c #E1BDAA",
"N. c #E2BEAA",
"B. c #E2BEAB",
"V. c #E2BEAC",
"C. c #E3BFAC",
"Z. c #F0BDA3",
"A. c #EFC0A6",
"S. c #E3C0AD",
"D. c #E4C0AD",
"F. c #E4C1AE",
"G. c #E5C1AE",
"H. c #E5C2AF",
"J. c #E6C2AF",
"K. c #F2C0A5",
"L. c #F0C0A6",
"P. c #F0C0A7",
"I. c #F1C1A7",
"U. c #F4C1A7",
"Y. c #F1C1A8",
"T. c #F0C2A9",
"R. c #F2C2A8",
"E. c #F2C2A9",
"W. c #F3C3A9",
"Q. c #F1C3AA",
"!. c #F3C3AA",
"~. c #F6C3A9",
"^. c #F3C4AA",
"/. c #F4C4AA",
"(. c #F4C5AB",
"). c #F5C5AB",
"_. c #F5C5AC",
"`. c #F4C5AD",
"'. c #F4C6AD",
"]. c #F6C6AC",
"[. c #F7C7AD",
"{. c #F8C6AC",
"}. c #FAC8AE",
"|. c #FFD4AC",
" X c #E1C2B1",
".X c #E6C3B0",
"XX c #E3C4B3",
"oX c #E7C4B1",
"OX c #E8C5B2",
"+X c #E8C6B3",
"@X c #E9C6B3",
"#X c #E9C6B4",
"$X c #E9C7B4",
"%X c #EAC8B5",
"&X c #E8C9B7",
"*X c #EBC8B6",
"=X c #EBC9B6",
"-X c #EBC9B7",
";X c #ECC9B7",
":X c #ECCAB7",
">X c #E9C9B8",
",X c #ECCAB8",
"<X c #EDCDBB",
"1X c #FECBB0",
"2X c #FFCCB1",
"3X c #F0CFBD",
"4X c #F1D0BE",
"5X c #FFE2A4",
/* pixels */
"K 3.4X4X4X4X4X4X4X4X4X4X4X4X4X4X4X4X4X4X4X4X4X4X4X4X4X4X4X4XM.z F S.4X4X4X4X4X4X4X4X4X4X4X4X4X4X4X4X4X4X4X4X4X4X4X4X4X4X4X4X<.Y ",
"~.` 1.4X4X4X4X4X4X4X4X4X4X4X4X4X4X4X4X4X4X4X4X4X4X4X4X4X4XC.) p.q.( .X4X4X4X4X4X4X4X4X4X4X4X4X4X4X4X4X4X4X4X4X4X4X4X4X4X4X1.[ U.",
"2XI.Q <.4X4X4X4X4X4X4X4X4X4X4X4X4X4X4X4X4X4X4X4X4X4X4X4XC.v L.2X2Xu.N G.4X4X4X4X4X4X4X4X4X4X4X4X4X4X4X4X4X4X4X4X4X4X4X4X,.L /.2X",
"2X2X_.! <.4X4X4X4X4X4X4X4X4X4X4X4X4X4X4X4X4X4X4X4X4X4XB.` x.2X2X2X2Xt.` H.4X4X4X4X4X4X4X4X4X4X4X4X4X4X4X4X4X4X4X4X4X4X>.` _.2X2X",
"2X2X2XI.` 2.4X4X4X4X4X4X4X4X4X4X4X4X4X4X4X4X4X4X4X4XC.H h.2X2X2X2X2X2Xu.n oX4X4X4X4X4X4X4X4X4X4X4X4X4X4X4X4X4X4X4X4X>.^ R.2X2X2X",
"2X2X2X2X).H 5.4X4X4X4X4X4X4X4X4X4X4X4X4X4X4X4X4X            2X2X2X          S.4X4X4X4X4X4X4X4X4X4X4X4X4X4X4X4X4X4X>.! [.2X2X2X2X",
"2X2X2X2X2XW.` 4.4X4X4X4X4X4X4X4X4X4X4X4X4X4X4X  5X5X5X5X5X5X  2X  5X5X5X5X5X    4X4X4X4X4X4X4X4X4X4X4X4X4X4X4X4X,.` R.2X2X2X2X2X",
"2X2X2X2X2X2XR.U 1.4X4X4X4X4X4X4X4X4X4X4X4X    5X5X5X5X5X5X5X5X  5X5X5X5X5X5X5X5X      4X4X4X4X4X4X4X4X4X4X4X4X<.L ).2X2X2X2X2X2X",
"2X2X2X2X2X2X2X].) <.4X4X4X4X4X4X4X4X4X4X  5X5X5X5Xw w 5X5X5X5X  5X5X5X5X5X5X5X5X5X5X5X    4X4X4X4X4X4X4X4X4X<.` /.2X2X2X2X2X2X2X",
"2X2X2X2X2X2X2X2XP.( 1.4X4X4X4X4X4X4X4X  5X5X5X5X5Xw 5X5X5X5X5X5X5X5X5X5Xw w 5X5X5X5X5X5X5X  4X4X4X4X4X4X4X>.E E.2X2X2X2X2X2X2X2X",
"2X2X2X2X2X2X2X2X2X].U 4.4X4X4X4X4X4X4X  5X5X5X5X5Xw 5X5X5X5X5X5X5X5X5X5Xw 5X5X5X5X5X5X5X5X5X  4X4X4X4X4X>.( [.2X2X2X2X2X2X2X2X2X",
"2X2X2X2X2X2X2X2X2X2XR.` 5.4X4X4X4X4X4X  5X5X5X5Xw w 5X5X5X5X5X5X5X5X5X5Xw 5X5X5Xw 5X5X5X5X5X  4X4X4X4X>.) Y.2X2X2X2X2X2X2X2X2X2X",
"2X2X2X2X2X2X2X2X2X2X2XW.H 2.4X4X4X4X  5X5X5X5X5Xw 5X5X5X5X5X5X5X5X5X5X5Xw 5X5X5Xw 5X5X5X5X5X5X  4X4X2.U [.2X2X2X2X2X2X2X2X2X2X2X",
"2X2X2X2X2X2X2X2X2X2X2X2X).` <.4X4XS.  5X5X5X5X5Xw 5X5X5X5X5X5X5X5X5X5X5Xw 5X5X5Xw 5X5X5X5X5X5X  4X2.[ W.2X2X2X2X2X2X2X2X2X2X2X2X",
"2X2X2X2X2X2X2X2X2X2X2X2X2XI.! <.D.l   5X5X5X5X5X5X5X5X5X5X5X5X5X5X5X5X5Xw 5X5Xw w 5X5X5X5X5X5X  >.P !.2X2X2X2X2X2X2X2X2X2X2X2X2X",
"2X2X2X2X2X2X2X2X2X2X2X2X2X2X`.z b c.  5X5X5X5X5X5X5X5X5X5X5X5X5X5X5X5X5X5X5X5Xw 5X5X5X5X5X5X5X  K '.2X2X2X2X2X2X2X2X2X2X2X2X2X2X",
"2X2X2X2X2X2X2X2X2X2X2X2X2X2Xf.z K %.  5X5X5X5X5X5X5X5Xw w 5X5X5X5X5X5X5X5X5X5X5X5X5X5X5X5X5X5X5X  I.2X2X2X2X2X2X2X2X2X2X2X2X2X2X",
"2X2X2X2X2X2X2X2X2X2X2X2X2Xe.^ H.$XH   5X5X5X5X5X5X5X5Xw 5X5X5X5X5X5X5X5Xw 5X5X5X5X5X5X5X5X5X5X5X  ( g.2X2X2X2X2X2X2X2X2X2X2X2X2X",
"2X2X2X2X2X2X2X2X2X2X2X2Xa.( C.4X4X@X  5X5X5X5X5X5X5X5Xw 5X5X5X5X5X5X5Xw 5X5X5X5X5X5X5X5X5X5X5X5X  b./ P.2X2X2X2X2X2X2X2X2X2X2X2X",
"2X2X2X2X2X2X2X2X2X2X2Xi.M H.4X4X4X4X  5X5X5X5Xw w 5X5Xw 5X5X5X5X5X5X5Xw 5X5X5X5X5X5X5X5X5X5X5X5X  4XN.L l.2X2X2X2X2X2X2X2X2X2X2X",
"2X2X2X2X2X2X2X2X2X2Xp.` D.4X4X4X4X4X  5X5X5X5Xw 5X5X5Xw 5X5X5X5X5X5X5Xw 5X5X5X5X5X5X5X5X5X5X5X5X  4X4XM.` L.2X2X2X2X2X2X2X2X2X2X",
"2X2X2X2X2X2X2X2X2Xa.n F.4X4X4X4X4X4X  5X5X5X5Xw 5X5X5Xw 5X5X5X5X5X5X5Xw 5X5X5X5X5X5X5X5X5X5X5X5X  4X4X4XC.c Y.2X2X2X2X2X2X2X2X2X",
"2X2X2X2X2X2X2X2Xr.) H.4X4X4X4X4X4X4X  5X5X5X5Xw 5X5X5Xw 5X5X5X5X5X5X5Xw 5Xw w w w 5X5X5X5X5X5X5X  4X4X4X4XB._ h.2X2X2X2X2X2X2X2X",
"2X2X2X2X2X2X2Xp.! C.4X4X4X4X4X4X4X4X4X  5X5X5X5X5X5X5X5X5X5X5X5X5X5Xw 5X5X5X5X5X5X5X5X5X5X5X5X5X  4X4X4X4X4Xn.E P.2X2X2X2X2X2X2X",
"2X2X2X2X2X2Xt.U H.4X4X4X4X4X4X4X4X4X4X4X            5X5X5X5X5X5X5X5X5X5X5X5X5X5X5X5X5X5X        4X4X4X4X4X4X4XN.W h.2X2X2X2X2X2X",
"2X2X2X2X2Xh.` C.4X4X4X4X4X4X4X4X4X4X4X4X4X4X4X4X*X_     5X5X5X5X5X5X5X5X5X5X5X5X5X5X    4X4X4X4X4X4X4X4X4X4X4X4Xn._ Y.2X2X2X2X2X",
"2X2X2X2Xh.k J.4X4X4X4X4X4X4X4X4X4X4X4X4X4X4X4X4X4X.X/ O.  5X5X5X5X5X5X5X5X5X5X      4X4X4X4X4X4X4X4X4X4X4X4X4X4X4XB.v L.2X2X2X2X",
"2X2X2Xt._ .X4X4X4X4X4X4X4X4X4X4X4X4X4X4X4X4X4X4X4X4X*XE @.    5X5X5X          4X4X4X4X4X4X4X4X4X4X4X4X4X4X4X4X4X4X4XC.` l.2X2X2X",
"2X2Xp.T C.4X4X4X4X4X4X4X4X4X4X4X4X4X4X4X4X4X4X4X4X4X4XoX`   |.      X.  oX4X4X4X4X4X4X4X4X4X4X4X4X4X4X4X4X4X4X4X4X4X4XM.L I.2X2X",
"2Xr.! H.4X4X4X4X4X4X4X4X4X4X4X4X4X4X4X4X4X4X4X4X4X4X    #X  |.|.|.|.  ,X4X4X4X4X4X4X4X4X4X4X4X4X4X4X4X4X4X4X4X4X4X4X4X4XN./ g.2X",
"s.) C.4X4X4X4X4X4X4X4X4X4X4X4X4X4X4X4X4X4X4X4X4X4X  . .       |.|.|.|.          4X4X4X4X4X4X4X4X4X4X4X4X4X4X4X4X4X4X4X4X4Xb./ K.",
"d J.4X4X4X4X4X4X4X4X4X4X4X4X4X4X4X4X4X4X  4X      . . . .     |.|.|.    . . . .       4X  4X4X4X4X4X4X4X4X4X4X4X4X4X4X4X4X4XN.g ",
"G OX4X4X4X4X4X4X4X4X4X4X4X4X4X4X4X4X4X  X   o o   . . . .   o       o   . . . .   o o   X   4X4X4X4X4X4X4X4X4X4X4X4X4X4X4X4XG.m ",
"-.H J.4X4X4X4X4X4X4X4X4X4X4X4X4X4X4X  X X   o o o         o o o o o o o         o o o   X X   4X4X4X4X4X4X4X4X4X4X4X4X4X4XD.c Z.",
"2Xe.` .X4X4X4X4X4X4X4X4X4X4X4X4X4X  X X X   o o o o o o o o o o o o o o o o o o o o o   X X X   4X4X4X4X4X4X4X4X4X4X4X4XC.` k.2X",
"2X2Xr.M OX4X4X4X4X4X4X4X4X4X4X4X4X  X X   o   o o o o o o o             o o o o o o   o   X X   4X4X4X4X4X4X4X4X4X4X4XF.H p.2X2X",
"2X2X2Xe.) F.4X4X4X4X4X4X4X4X4X4X4X4X    o o   o o           X X X X X X         o o   o o     4X4X4X4X4X4X4X4X4X4X4XB./ k.2X2X2X",
"2X2X2X2X=.! OX4X4X4X4X4X4X4X4X4X4X4X  o o o   o   X X X X X X X X X X X X X X X   o   o o o   4X4X4X4X4X4X4X4X4X4XF./ t.2X2X2X2X",
"2X2X2X2X2Xw.U G.4X4X4X4X4X4X4X4X4X4X  o o o     X X X X X X X X X X X X X X X X X     o o o   4X4X4X4X4X4X4X4X4XC.H k.2X2X2X2X2X",
"2X2X2X2X2X2X0.` oX4X4X4X4X4X4X4X4X4X        4X  X X X X X X X X X X X X X X X X X   4X        4X4X4X4X4X4X4X4XD.` p.2X2X2X2X2X2X",
"2X2X2X2X2X2X2Xt.b oX4X4X4X4X4X4X4X4X  . .   >.  X X X X X X X X X X X X X X X X X   4X  . .   4X4X4X4X4X4X4XG.v k.2X2X2X2X2X2X2X",
"2X2X2X2X2X2X2X2Xr.` G.4X4X4X4X4X4X4X  . .   T   X X X X X X X X X X X X X X X X X   2.  . .   4X4X4X4X4X4XB.) l.2X2X2X2X2X2X2X2X",
"2X2X2X2X2X2X2X2X2X9.R OX4X4X4X4X4X4X        W.  X X X X X X X X X X X X X X X X X   `         4X4X4X4X4XD.W u.2X2X2X2X2X2X2X2X2X",
"2X2X2X2X2X2X2X2X2X2Xw.! F.4X4X4X4X4X4X,.L ^.2X  X X X X X X X X X X X X X X X X X   I.! <.4X4X4X4X4X4XB.R h.2X2X2X2X2X2X2X2X2X2X",
"2X2X2X2X2X2X2X2X2X2X2X=.) OX4X4X4X4X>.` ].2X  X X X X X X X X X X X X X X X X X X X   _.! <.4X4X4X4XG._ u.2X2X2X2X2X2X2X2X2X2X2X",
"2X2X2X2X2X2X2X2X2X2X2X2Xe.M .X4X4X>./ R.2X2X          X X . . . X X X X X X X         2XI.` 2.4X4XG.k z.2X2X2X2X2X2X2X2X2X2X2X2X",
"2X2X2X2X2X2X2X2X2X2X2X2X2Xt.` H.,.! [.2X2X2X2X  o o o       X X     X X     o o o   2X2X2X(.H 5.C.` z.2X2X2X2X2X2X2X2X2X2X2X2X2X",
"2X2X2X2X2X2X2X2X2X2X2X2X2X2Xq.s E T.2X2X2X2X2X2X  o   X X X     8.{.    X X   o   2X2X2X2X2XQ.I f d.2X2X2X2X2X2X2X2X2X2X2X2X2X2X",
"2X2X2X2X2X2X2X2X2X2X2X2X2X2X+.h Y l.2X2X2X2X2XI.|   X X X X X   e e   X X X X   | 1X2X2X2X2Xu.F z +.2X2X2X2X2X2X2X2X2X2X2X2X2X2X",
"2X2X2X2X2X2X2X2X2X2X2X2X2Xo.` $Xv./ R.1Xy.] y e e               e e             e r a } }.l.( N.=X( o.2X2X2X2X2X2X2X2X2X2X2X2X2X",
"2X2X2X2X2X2X2X2X2X2X2X2X..W OX4X4Xn.p y e e e e   o o o o o o   e e   o o o o o   e e e > q V.4X4X.X) @.2X2X2X2X2X2X2X2X2X2X2X2X",
"2X2X2X2X2X2X2X2X2X2X2X../ ,X4X4X4X&X8 & 1 e e   o o o o o o o   e e   o o o o o o   e , & 4 6.4X4X4X=XL &.2X2X2X2X2X2X2X2X2X2X2X",
"2X2X2X2X2X2X2X2X2X2XX._ oX4X4X4X4X X0 - O 3 e                   e e                 < + 5 0 S 4X4X4X4XoX` *.2X2X2X2X2X2X2X2X2X2X",
"2X2X2X2X2X2X2X2X2X$.P -X4X4X4X4X4X>XB 0 = % < e e e e e e e e e e e e e e e e e e ; % 6 0 0 7.4X4X4X4X4XOXJ @.2X2X2X2X2X2X2X2X2X",
"2X2X2X2X2X2X2X2X$.[ +X4X4X4X4X4X4X4XXXV 0 * # 2 e e e e e e e e e e e e e e e e < $ - 0 0 ;.3X4X4X4X4X4X4X%X_ O.2X2X2X2X2X2X2X2X",
"2X2X2X2X2X2X2XX.P +X4X4X4X4X4X4X4X4X4X4X XD 9 # < e e e e e e e e e e e e e e : @ 7 A ;.<X4X4X4X4X4X4X4X4X4X.X^ O.2X2X2X2X2X2X2X",
"2X2X2X2X2X2X.._ ;X4X4X4X4X4X4X4X4X4X4X4X4X4X4X:.u ' C a e e e e e e e e i Z x t { 3X4X4X4X4X4X4X4X4X4X4X4X4X4X*XW @.2X2X2X2X2X2X",
"2X2X2X2X2X..( oX4X4X4X4X4X4X4X4X4X4X4X4X4X4X4X4Xm.b I.2X2X2X2X2X2X2X2X2X2Xc.j G.4X4X4X4X4X4X4X4X4X4X4X4X4X4X4X4XoX` $.2X2X2X2X2X",
"2X2X2X2Xo.W ,X4X4X4X4X4X4X4X4X4X4X4X4X4X4X4X4X4X4XN.` c.2X2X2X2X2X2X2X2Xu._ G.4X4X4X4X4X4X4X4X4X4X4X4X4X4X4X4X4X4X$XH &.2X2X2X2X",
"2X2X2XO.` OX4X4X4X4X4X4X4X4X4X4X4X4X4X4X4X4X4X4X4X4Xb.L R.2X2X2X2X2X2Xk.T B.4X4X4X4X4X4X4X4X4X4X4X4X4X4X4X4X4X4X4X4X#X` @.2X2X2X",
"2X2Xo.L $X4X4X4X4X4X4X4X4X4X4X4X4X4X4X4X4X4X4X4X4X4X4Xn./ l.2X2X2X2Xu.Q D.4X4X4X4X4X4X4X4X4X4X4X4X4X4X4X4X4X4X4X4X4X4XoXE O.2X2X",
"2Xo.` %X4X4X4X4X4X4X4X4X4X4X4X4X4X4X4X4X4X4X4X4X4X4X4X4Xv.( E.2X2Xz.) N.4X4X4X4X4X4X4X4X4X4X4X4X4X4X4X4X4X4X4X4X4X4X4X4X*X/ O.2X",
" .! OX4X4X4X4X4X4X4X4X4X4X4X4X4X4X4X4X4X4X4X4X4X4X4X4X4X4Xn.H A.j.b F.4X4X4X4X4X4X4X4X4X4X4X4X4X4X4X4X4X4X4X4X4X4X4X4X4X4X.X_ #.",
"~ :X4X4X4X4X4X4X4X4X4X4X4X4X4X4X4X4X4X4X4X4X4X4X4X4X4X4X4X4Xm.K U D.4X4X4X4X4X4X4X4X4X4X4X4X4X4X4X4X4X4X4X4X4X4X4X4X4X4X4X4X*XK "
};
