/* XPM */
static char *result[] = {
/* columns rows colors chars-per-pixel */
"64 64 211 2 ",
"   c black",
".  c #030202",
"X  c #0F1226",
"o  c #282C49",
"O  c #2E345E",
"+  c #7D6052",
"@  c #7E6152",
"#  c #7F6354",
"$  c #806455",
"%  c #806456",
"&  c #826657",
"*  c #826658",
"=  c #927A6D",
"-  c #927B6E",
";  c #937C6F",
":  c #9A7A69",
">  c #9A7A6A",
",  c #9A7B6B",
"<  c #9A7C6B",
"1  c #9B7C6B",
"2  c #9D7E6D",
"3  c #9E7E6D",
"4  c #9E7E6E",
"5  c #947C70",
"6  c #947D71",
"7  c #947E71",
"8  c #967E72",
"9  c #977F72",
"0  c #988073",
"q  c #9D877C",
"w  c #A7816E",
"e  c #B99F67",
"r  c #A68573",
"t  c #A78674",
"y  c #AB8673",
"u  c #A98775",
"i  c #AC8874",
"p  c #B18E7B",
"a  c #B68D78",
"s  c #B7927F",
"d  c #BB9079",
"f  c #BC907A",
"g  c #BC917A",
"h  c #BD917B",
"j  c #BD927B",
"k  c #BE927B",
"l  c #BE927C",
"z  c #BE937C",
"x  c #BF937C",
"c  c #BF937D",
"v  c #B9947F",
"b  c #BF947D",
"n  c #C0947D",
"m  c #C0947E",
"M  c #C1957E",
"N  c #C0957F",
"B  c #C1957F",
"V  c #C1967F",
"C  c #A69083",
"Z  c #AE9689",
"A  c #BC9682",
"S  c #BE9884",
"D  c #B2998C",
"F  c #B89F91",
"G  c #BFA597",
"H  c #C19680",
"J  c #C19781",
"K  c #C29680",
"L  c #C29780",
"P  c #C29781",
"I  c #C39781",
"U  c #C39881",
"Y  c #C29882",
"T  c #C39882",
"R  c #C39983",
"E  c #C49882",
"W  c #C49982",
"Q  c #C49983",
"!  c #C59983",
"~  c #C59A83",
"^  c #C59A84",
"/  c #C59B85",
"(  c #C69B84",
")  c #C69B85",
"_  c #C69C85",
"`  c #C79C86",
"'  c #C79D86",
"]  c #C89D87",
"[  c #C49D89",
"{  c #C59E89",
"}  c #C89E88",
"|  c #D0AF9E",
" . c #DBAF98",
".. c #DDB199",
"X. c #E7B59B",
"o. c #E5B59C",
"O. c #E5B69C",
"+. c #E6B69D",
"@. c #E6B79D",
"#. c #E5B79E",
"$. c #E7B79E",
"%. c #E9B79C",
"&. c #E7B89E",
"*. c #E6B89F",
"=. c #E8B89F",
"-. c #E8B99F",
";. c #E9B99F",
":. c #EBB99F",
">. c #D4B7A7",
",. c #D9B5A3",
"<. c #DDB8A4",
"1. c #DDB8A5",
"2. c #DEB9A5",
"3. c #DEB9A6",
"4. c #DEBAA6",
"5. c #DFBAA6",
"6. c #DFBAA7",
"7. c #DFBBA7",
"8. c #D8BBAB",
"9. c #DABCAC",
"0. c #E7B9A0",
"q. c #E9B9A0",
"w. c #E9BAA0",
"e. c #E8BAA1",
"r. c #EABAA0",
"t. c #EABAA1",
"y. c #EBBBA1",
"u. c #EBBBA2",
"i. c #EBBCA3",
"p. c #ECBCA2",
"a. c #ECBCA3",
"s. c #ECBDA3",
"d. c #EDBDA3",
"f. c #EEBCA2",
"g. c #EBBCA4",
"h. c #EBBDA4",
"j. c #EDBDA4",
"k. c #EDBEA4",
"l. c #ECBEA5",
"z. c #EEBEA4",
"x. c #EEBEA5",
"c. c #EEBFA5",
"v. c #EFBFA5",
"b. c #EFBFA6",
"n. c #E0BBA8",
"m. c #E0BCA9",
"M. c #E1BCA9",
"N. c #E1BDA9",
"B. c #E1BDAA",
"V. c #E2BDAA",
"C. c #E2BEAA",
"Z. c #E2BEAB",
"A. c #E2BEAC",
"S. c #E3BFAC",
"D. c #F0BDA3",
"F. c #EFC0A6",
"G. c #E3C0AD",
"H. c #E4C0AD",
"J. c #E4C1AE",
"K. c #E5C1AE",
"L. c #E5C2AF",
"P. c #E6C2AF",
"I. c #F2C0A5",
"U. c #F0C0A6",
"Y. c #F0C0A7",
"T. c #F1C1A7",
"R. c #F4C1A7",
"E. c #F1C1A8",
"W. c #F0C2A9",
"Q. c #F2C2A8",
"!. c #F2C2A9",
"~. c #F3C3A9",
"^. c #F1C3AA",
"/. c #F3C3AA",
"(. c #F6C3A9",
"). c #F3C4AA",
"_. c #F4C4AA",
"`. c #F4C5AB",
"'. c #F5C5AB",
"]. c #F5C5AC",
"[. c #F4C5AD",
"{. c #F4C6AD",
"}. c #F6C6AC",
"|. c #F7C7AD",
" X c #F8C6AC",
".X c #FAC8AE",
"XX c #FFD4AC",
"oX c #E1C2B1",
"OX c #E6C3B0",
"+X c #E3C4B3",
"@X c #E7C4B1",
"#X c #E8C5B2",
"$X c #E8C6B3",
"%X c #E9C6B3",
"&X c #E9C6B4",
"*X c #E9C7B4",
"=X c #EAC8B5",
"-X c #E8C9B7",
";X c #EBC8B6",
":X c #EBC9B6",
">X c #EBC9B7",
",X c #ECC9B7",
"<X c #ECCAB7",
"1X c #E9C9B8",
"2X c #ECCAB8",
"3X c #EDCDBB",
"4X c #FECBB0",
"5X c #FFCCB1",
"6X c #F0CFBD",
"7X c #F1D0BE",
"8X c #FFE2A4",
/* pixels */
"P 5.7X7X7X7X7X7X7X7X7X7X7X7X7X7X7X7X7X7X7X7X7X7X7X7X7X7X7X7XB.c H G.7X7X7X7X7X7X7X7X7X7X7X7X7X7X7X7X7X7X7X7X7X7X7X7X7X7X7X7X2.R ",
"(.] 3.7X7X7X7X7X7X7X7X7X7X7X7X7X7X7X7X7X7X7X7X7X7X7X7X7X7XS.` s.e._ OX7X7X7X7X7X7X7X7X7X7X7X7X7X7X7X7X7X7X7X7X7X7X7X7X7X7X3.} R.",
"5XT.~ 2.7X7X7X7X7X7X7X7X7X7X7X7X7X7X7X7X7X7X7X7X7X7X7X7XS.n U.5X5Xp.V K.7X7X7X7X7X7X7X7X7X7X7X7X7X7X7X7X7X7X7X7X7X7X7X7X1.I _.5X",
"5X5X].^ 2.7X7X7X7X7X7X7X7X7X7X7X7X7X7X7X7X7X7X7X7X7X7XZ.] v.5X5X5X5Xu.] L.7X7X7X7X7X7X7X7X7X7X7X7X7X7X7X7X7X7X7X7X7X7X<.] ].5X5X",
"5X5X5XT.] 4.7X7X7X7X7X7X7X7X7X7X7X7X7X7X7X7X7X7X7X7XS.K k.5X5X5X5X5X5Xp.M @X7X7X7X7X7X7X7X7X7X7X7X7X7X7X7X7X7X7X7X7X<.( Q.5X5X5X",
"5X5X5X5X'.K 7.7X7X7X7X7X7X7X7X7X7X7X7X7X7X7X7X7X7XN.) F.5X5X5X5X5X5X5X5Xp.` G.7X7X7X7X7X7X7X7X7X7X7X7X7X7X7X7X7X7X<.^ |.5X5X5X5X",
"5X5X5X5X5X~.] 6.7X7X7X7X7X7X7X7X7X7X7X7X7X7X7X7X            5X5X5X          ^ OX7X7X7X7X7X7X7X7X7X7X7X7X7X7X7X7X1.] Q.5X5X5X5X5X",
"5X5X5X5X5X5XQ.T 3.7X7X7X7X7X7X7X7X7X7X7X7X7X7X  8X8X8X8X8X8X  5X  8X8X8X8X8X    H.7X7X7X7X7X7X7X7X7X7X7X7X7X7X2.I '.5X5X5X5X5X5X",
"5X5X5X5X5X5X5X}.` 2.7X7X7X7X7X7X7X7X7X7X7X    8X8X8X8X8X8X8X8X  8X8X8X8X8X8X8X8X      7X7X7X7X7X7X7X7X7X7X7X2.] _.5X5X5X5X5X5X5X",
"5X5X5X5X5X5X5X5XY._ 3.7X7X7X7X7X7X7X7X7X  8X8X8X8Xe e 8X8X8X8X  8X8X8X8X8X8X8X8X8X8X8X    7X7X7X7X7X7X7X7X<.Q !.5X5X5X5X5X5X5X5X",
"5X5X5X5X5X5X5X5X5X}.T 6.7X7X7X7X7X7X7X  8X8X8X8X8Xe 8X8X8X8X8X8X8X8X8X8Xe e 8X8X8X8X8X8X8X  7X7X7X7X7X7X<._ |.5X5X5X5X5X5X5X5X5X",
"5X5X5X5X5X5X5X5X5X5XQ.] 7.7X7X7X7X7X7X  8X8X8X8X8Xe 8X8X8X8X8X8X8X8X8X8Xe 8X8X8X8X8X8X8X8X8X  7X7X7X7X<.` E.5X5X5X5X5X5X5X5X5X5X",
"5X5X5X5X5X5X5X5X5X5X5X~.K 4.7X7X7X7XV.  8X8X8X8Xe e 8X8X8X8X8X8X8X8X8X8Xe 8X8X8Xe 8X8X8X8X8X  7X7X7X4.T |.5X5X5X5X5X5X5X5X5X5X5X",
"5X5X5X5X5X5X5X5X5X5X5X5X'.] 2.7X7XG.  8X8X8X8X8Xe 8X8X8X8X8X8X8X8X8X8X8Xe 8X8X8Xe 8X8X8X8X8X8X  7X4.} ~.5X5X5X5X5X5X5X5X5X5X5X5X",
"5X5X5X5X5X5X5X5X5X5X5X5X5XT.^ 2.H.x   8X8X8X8X8Xe 8X8X8X8X8X8X8X8X8X8X8Xe 8X8X8Xe 8X8X8X8X8X8X  <.U /.5X5X5X5X5X5X5X5X5X5X5X5X5X",
"5X5X5X5X5X5X5X5X5X5X5X5X5X5X[.c m b.  8X8X8X8X8X8X8X8X8X8X8X8X8X8X8X8X8Xe 8X8Xe e 8X8X8X8X8X8X  P {.5X5X5X5X5X5X5X5X5X5X5X5X5X5X",
"5X5X5X5X5X5X5X5X5X5X5X5X5X5Xh.c P *.  8X8X8X8X8X8X8X8X8X8X8X8X8X8X8X8X8X8X8X8Xe 8X8X8X8X8X8X8X  z T.5X5X5X5X5X5X5X5X5X5X5X5X5X5X",
"5X5X5X5X5X5X5X5X5X5X5X5X5Xt.( L.*XK   8X8X8X8X8X8X8X8Xe e 8X8X8X8X8X8X8X8X8X8X8X8X8X8X8X8X8X8X8X  _ j.5X5X5X5X5X5X5X5X5X5X5X5X5X",
"5X5X5X5X5X5X5X5X5X5X5X5Xd._ S.7X7X%X  8X8X8X8X8X8X8X8Xe 8X8X8X8X8X8X8X8Xe 8X8X8X8X8X8X8X8X8X8X8X  m.) Y.5X5X5X5X5X5X5X5X5X5X5X5X",
"5X5X5X5X5X5X5X5X5X5X5Xa.B L.7X7X7X7X  8X8X8X8X8X8X8X8Xe 8X8X8X8X8X8X8Xe 8X8X8X8X8X8X8X8X8X8X8X8X  7XC.I x.5X5X5X5X5X5X5X5X5X5X5X",
"5X5X5X5X5X5X5X5X5X5Xs.] H.7X7X7X7X7X  8X8X8X8Xe e 8X8Xe 8X8X8X8X8X8X8Xe 8X8X8X8X8X8X8X8X8X8X8X8X  7X7XB.] U.5X5X5X5X5X5X5X5X5X5X",
"5X5X5X5X5X5X5X5X5Xd.M J.7X7X7X7X7X7X  8X8X8X8Xe 8X8X8Xe 8X8X8X8X8X8X8Xe 8X8X8X8X8X8X8X8X8X8X8X8X  7X7X7XS.b E.5X5X5X5X5X5X5X5X5X",
"5X5X5X5X5X5X5X5Xy.` L.7X7X7X7X7X7X7X  8X8X8X8Xe 8X8X8Xe 8X8X8X8X8X8X8Xe 8X8X8X8X8X8X8X8X8X8X8X8X  7X7X7X7XZ.' k.5X5X5X5X5X5X5X5X",
"5X5X5X5X5X5X5Xs.^ S.7X7X7X7X7X7X7X7X  8X8X8X8Xe 8X8X8Xe 8X8X8X8X8X8X8Xe 8Xe e e e 8X8X8X8X8X8X8X  7X7X7X7X7XM.Q Y.5X5X5X5X5X5X5X",
"5X5X5X5X5X5Xu.T L.7X7X7X7X7X7X7X7X7X7X  8X8X8X8X8X8X8X8X8X8X8X8X8X8Xe 8X8X8X8X8X8X8X8X8X8X8X8X8X  7X7X7X7X7X7XC.! k.5X5X5X5X5X5X",
"5X5X5X5X5Xk.] S.7X7X7X7X7X7X7X7X7X7X7X7X            8X8X8X8X8X8X8X8X8X8X8X8X8X8X8X8X8X8X        7X7X7X7X7X7X7X7XM.' E.5X5X5X5X5X",
"5X5X5X5Xk.l P.7X7X7X7X7X7X7X7X7X7X7X7X7X7X7X7X7X7XOX    8X8X8X8X8X8X8X8X8X8X8X8X8X8X    7X7X7X7X7X7X7X7X7X7X7X7X7XZ.n U.5X5X5X5X",
"5X5X5Xu.' OX7X7X7X7X7X7X7X7X7X7X7X7X7X7X7X7X7X7X7X7X;XQ   8X8X8X8X8X8X8X8X8X8X      7X7X7X7X7X7X7X7X7X7X7X7X7X7X7X7XS.] x.5X5X5X",
"5X5Xs.E S.7X7X7X7X7X7X7X7X7X7X7X7X7X7X7X7X7X7X7X7X7X7X@X]     8X8X8X          7X7X7X7X7X7X7X7X7X7X7X7X7X7X7X7X7X7X7X7XB.I T.5X5X",
"5Xy.^ L.7X7X7X7X7X7X7X7X7X7X7X7X7X7X7X7X7X7X7X7X7X7X    &X. XX      Q   7X7X7X7X7X7X7X7X7X7X7X7X7X7X7X7X7X7X7X7X7X7X7X7XC.) j.5X",
"f.` S.7X7X7X7X7X7X7X7X7X7X7X7X7X7X7X7X7X7X7X7X7X7X  X X       XXXXXX            7X7X7X7X7X7X7X7X7X7X7X7X7X7X7X7X7X7X7X7X7Xm.) I.",
"f P.7X7X7X7X7X7X7X7X7X7X7X7X7X7X7X7X7X7X  7X      X X X X     XXXXXX    X X X X       7X  7X7X7X7X7X7X7X7X7X7X7X7X7X7X7X7X7XC.h ",
"J #X7X7X7X7X7X7X7X7X7X7X7X7X7X7X7X7X7X  o   O O   X X X X   O       O   X X X X   O O   o   7X7X7X7X7X7X7X7X7X7X7X7X7X7X7X7XK.N ",
":.K P.7X7X7X7X7X7X7X7X7X7X7X7X7X7X7X  o o   O O O         O O O O O O O         O O O   o o   7X7X7X7X7X7X7X7X7X7X7X7X7X7XH.b D.",
"5Xt.] OX7X7X7X7X7X7X7X7X7X7X7X7X7X  o o o   O O O O O O O O O O O O O O O O O O O O O   o o o   7X7X7X7X7X7X7X7X7X7X7X7XS.] z.5X",
"5X5Xy.B #X7X7X7X7X7X7X7X7X7X7X7X7X  o o   O   O O O O O O O             O O O O O O   O   o o   7X7X7X7X7X7X7X7X7X7X7XJ.K s.5X5X",
"5X5X5Xt.` J.7X7X7X7X7X7X7X7X7X7X7X7X    O O   O O           o o o o o o         O O   O O     7X7X7X7X7X7X7X7X7X7X7XZ.) z.5X5X5X",
"5X5X5X5X;.^ #X7X7X7X7X7X7X7X7X7X7X7X  O O O   O   o o o o o o o o o o o o o o o   O   O O O   7X7X7X7X7X7X7X7X7X7XJ.) u.5X5X5X5X",
"5X5X5X5X5Xr.T K.7X7X7X7X7X7X7X7X7X7X  O O O     o o o o o o o o o o o o o o o o o             7X7X7X7X7X7X7X7X7XS.K z.5X5X5X5X5X",
"5X5X5X5X5X5Xw.] @X7X7X7X7X7X7X7X7X7X7X  X X X   o o o o o o o o o o o o o o o o o   X X X X X   7X7X7X7X7X7X7XH.] s.5X5X5X5X5X5X",
"5X5X5X5X5X5X5Xu.m @X7X7X7X7X7X7X7X7X7X7X        o o o o o o o o o o o o o o o o o   X X X X X   7X7X7X7X7X7XK.n z.5X5X5X5X5X5X5X",
"5X5X5X5X5X5X5X5Xy.] K.7X7X7X7X7X7X7X7X7X7X3.E   o o o o o o o o o o o o o o o o o   X X X X X   7X7X7X7X7XZ.` x.5X5X5X5X5X5X5X5X",
"5X5X5X5X5X5X5X5X5Xq.W #X7X7X7X7X7X7X7X7X3.} ~.  o o o o o o o o o o o o o o o o o   X X X X X   7X7X7X7XH.! p.5X5X5X5X5X5X5X5X5X",
"5X5X5X5X5X5X5X5X5X5Xr.^ J.7X7X7X7X7X7X1.I ).5X  o o o o o o o o o o o o o o o o o   X X X X X   7X7X7XZ.W k.5X5X5X5X5X5X5X5X5X5X",
"5X5X5X5X5X5X5X5X5X5X5X;.` #X7X7X7X7X<.] }.5X  o o o         o o o o o o o o o o o o           7X7X7XK.' p.5X5X5X5X5X5X5X5X5X5X5X",
"5X5X5X5X5X5X5X5X5X5X5X5Xt.B OX7X7X<.) Q.5X5X          X X   o o o o o o o o o         5XT.] 4.7X7XK.l c.5X5X5X5X5X5X5X5X5X5X5X5X",
"5X5X5X5X5X5X5X5X5X5X5X5X5Xu.] L.1.^ |.5X5X5X5X  O   X X X X   o     o o     O O O   5X5X5X`.K 7.S.] c.5X5X5X5X5X5X5X5X5X5X5X5X5X",
"5X5X5X5X5X5X5X5X5X5X5X5X5X5Xe.d Q W.5X5X5X5X5X5X  X X X X X X   0. X    X X   O   5X5X5X5X5X^.Y g g.5X5X5X5X5X5X5X5X5X5X5X5X5X5X",
"5X5X5X5X5X5X5X5X5X5X5X5X5X5X#.j R x.5X5X5X5X5XT.  X X X X X X   r r   X X X X   ..4X5X5X5X5Xp.H c #.5X5X5X5X5X5X5X5X5X5X5X5X5X5X",
"5X5X5X5X5X5X5X5X5X5X5X5X5X+.] *Xn.) Q.4Xi.{ u r   X X X X X X   r r r         r r t s  ..Xx._ C.:X_ +.5X5X5X5X5X5X5X5X5X5X5X5X5X",
"5X5X5X5X5X5X5X5X5X5X5X5Xo.! #X7X7XM.a u r r r r   X X X X X X   r r r r r r r r r r r r , w A.7X7XOX` $.5X5X5X5X5X5X5X5X5X5X5X5X",
"5X5X5X5X5X5X5X5X5X5X5Xo.) 2X7X7X7X-X9 * 2 r r r   X X X X X X   r r r r r r r r r r r < * 5 8.7X7X7X:XI =.5X5X5X5X5X5X5X5X5X5X5X",
"5X5X5X5X5X5X5X5X5X5XO.' @X7X7X7X7XoXq ; + 4 r r r             r r r r r r r r r r r 1 @ 6 q F 7X7X7X7X@X] -.5X5X5X5X5X5X5X5X5X5X",
"5X5X5X5X5X5X5X5X5X&.U >X7X7X7X7X7X1XC q - & 1 r r r r r r r r r r r r r r r r r r : & 7 q q 9.7X7X7X7X7X#XL $.5X5X5X5X5X5X5X5X5X",
"5X5X5X5X5X5X5X5X&.} $X7X7X7X7X7X7X7X+XZ q = $ 3 r r r r r r r r r r r r r r r r 1 % ; q q >.6X7X7X7X7X7X7X=X' @.5X5X5X5X5X5X5X5X",
"5X5X5X5X5X5X5XO.U $X7X7X7X7X7X7X7X7X7X7XoXG 0 $ 1 r r r r r r r r r r r r r r > # 8 D >.3X7X7X7X7X7X7X7X7X7XOX( @.5X5X5X5X5X5X5X",
"5X5X5X5X5X5Xo.' ,X7X7X7X7X7X7X7X7X7X7X7X7X7X7X,.i [ A s r r r r r r r r p S v y | 6X7X7X7X7X7X7X7X7X7X7X7X7X7X;X! $.5X5X5X5X5X5X",
"5X5X5X5X5Xo._ @X7X7X7X7X7X7X7X7X7X7X7X7X7X7X7X7XN.m T.5X5X5X5X5X5X5X5X5X5Xb.k K.7X7X7X7X7X7X7X7X7X7X7X7X7X7X7X7X@X] &.5X5X5X5X5X",
"5X5X5X5X+.! 2X7X7X7X7X7X7X7X7X7X7X7X7X7X7X7X7X7X7XC.] b.5X5X5X5X5X5X5X5Xp.' K.7X7X7X7X7X7X7X7X7X7X7X7X7X7X7X7X7X7X*XK =.5X5X5X5X",
"5X5X5X@.] #X7X7X7X7X7X7X7X7X7X7X7X7X7X7X7X7X7X7X7X7Xm.I Q.5X5X5X5X5X5Xz.E Z.7X7X7X7X7X7X7X7X7X7X7X7X7X7X7X7X7X7X7X7X&X] $.5X5X5X",
"5X5X+.I *X7X7X7X7X7X7X7X7X7X7X7X7X7X7X7X7X7X7X7X7X7X7XM.) x.5X5X5X5Xp.~ H.7X7X7X7X7X7X7X7X7X7X7X7X7X7X7X7X7X7X7X7X7X7X@XQ @.5X5X",
"5X+.] =X7X7X7X7X7X7X7X7X7X7X7X7X7X7X7X7X7X7X7X7X7X7X7X7Xn._ !.5X5Xc.` C.7X7X7X7X7X7X7X7X7X7X7X7X7X7X7X7X7X7X7X7X7X7X7X7X;X) @.5X",
"X.^ #X7X7X7X7X7X7X7X7X7X7X7X7X7X7X7X7X7X7X7X7X7X7X7X7X7X7XM.K F.l.m J.7X7X7X7X7X7X7X7X7X7X7X7X7X7X7X7X7X7X7X7X7X7X7X7X7X7XOX' %.",
"/ <X7X7X7X7X7X7X7X7X7X7X7X7X7X7X7X7X7X7X7X7X7X7X7X7X7X7X7X7XN.P T H.7X7X7X7X7X7X7X7X7X7X7X7X7X7X7X7X7X7X7X7X7X7X7X7X7X7X7X7X;XP "
};
