/* XPM */
static char *result[] = {
/* columns rows colors chars-per-pixel */
"64 64 214 2 ",
"   c black",
".  c #030202",
"X  c #27211F",
"o  c #0F1226",
"O  c #282C49",
"+  c #2E345E",
"@  c #30365F",
"#  c #333860",
"$  c #383C62",
"%  c #514640",
"&  c #7D6052",
"*  c #7E6152",
"=  c #7F6354",
"-  c #806455",
";  c #806456",
":  c #826657",
">  c #826658",
",  c #927A6D",
"<  c #927B6E",
"1  c #937C6F",
"2  c #9A7A69",
"3  c #9A7A6A",
"4  c #9A7B6B",
"5  c #9A7C6B",
"6  c #9B7C6B",
"7  c #9D7E6D",
"8  c #9E7E6D",
"9  c #9E7E6E",
"0  c #947C70",
"q  c #947D71",
"w  c #947E71",
"e  c #967E72",
"r  c #977F72",
"t  c #988073",
"y  c #9D877C",
"u  c #A7816E",
"i  c #B99F67",
"p  c #A68573",
"a  c #AB8673",
"s  c #A98775",
"d  c #AC8874",
"f  c #B18E7B",
"g  c #B68D78",
"h  c #B7927F",
"j  c #BB9079",
"k  c #BC907A",
"l  c #BC917A",
"z  c #BD917B",
"x  c #BD927B",
"c  c #BE927B",
"v  c #BE927C",
"b  c #BE937C",
"n  c #BF937C",
"m  c #BF937D",
"M  c #B9947F",
"N  c #BF947D",
"B  c #C0947D",
"V  c #C0947E",
"C  c #C1957E",
"Z  c #C0957F",
"A  c #C1957F",
"S  c #C1967F",
"D  c #A69083",
"F  c #AE9689",
"G  c #BC9682",
"H  c #BE9884",
"J  c #B2998C",
"K  c #B89F91",
"L  c #BFA597",
"P  c #C19680",
"I  c #C19781",
"U  c #C29680",
"Y  c #C29780",
"T  c #C29781",
"R  c #C39781",
"E  c #C39881",
"W  c #C29882",
"Q  c #C39882",
"!  c #C39983",
"~  c #C49882",
"^  c #C49982",
"/  c #C49983",
"(  c #C59983",
")  c #C59A83",
"_  c #C59A84",
"`  c #C59B85",
"'  c #C69B84",
"]  c #C69B85",
"[  c #C69C85",
"{  c #C79C86",
"}  c #C79D86",
"|  c #C89D87",
" . c #C49D89",
".. c #C59E89",
"X. c #C89E88",
"o. c #D0AF9E",
"O. c #DBAF98",
"+. c #DDB199",
"@. c #E7B59B",
"#. c #E5B59C",
"$. c #E5B69C",
"%. c #E6B69D",
"&. c #E6B79D",
"*. c #E5B79E",
"=. c #E7B79E",
"-. c #E9B79C",
";. c #E7B89E",
":. c #E6B89F",
">. c #E8B89F",
",. c #E8B99F",
"<. c #E9B99F",
"1. c #EBB99F",
"2. c #D4B7A7",
"3. c #D9B5A3",
"4. c #DDB8A4",
"5. c #DDB8A5",
"6. c #DEB9A5",
"7. c #DEB9A6",
"8. c #DEBAA6",
"9. c #DFBAA6",
"0. c #DFBAA7",
"q. c #DFBBA7",
"w. c #D8BBAB",
"e. c #DABCAC",
"r. c #E7B9A0",
"t. c #E9B9A0",
"y. c #E9BAA0",
"u. c #E8BAA1",
"i. c #EABAA0",
"p. c #EABAA1",
"a. c #EBBBA1",
"s. c #EBBBA2",
"d. c #EBBCA3",
"f. c #ECBCA2",
"g. c #ECBCA3",
"h. c #ECBDA3",
"j. c #EDBDA3",
"k. c #EEBCA2",
"l. c #EBBCA4",
"z. c #EBBDA4",
"x. c #EDBDA4",
"c. c #EDBEA4",
"v. c #ECBEA5",
"b. c #EEBEA4",
"n. c #EEBEA5",
"m. c #EEBFA5",
"M. c #EFBFA5",
"N. c #EFBFA6",
"B. c #E0BBA8",
"V. c #E0BCA9",
"C. c #E1BCA9",
"Z. c #E1BDA9",
"A. c #E1BDAA",
"S. c #E2BDAA",
"D. c #E2BEAA",
"F. c #E2BEAB",
"G. c #E2BEAC",
"H. c #E3BFAC",
"J. c #F0BDA3",
"K. c #EFC0A6",
"L. c #E3C0AD",
"P. c #E4C0AD",
"I. c #E4C1AE",
"U. c #E5C1AE",
"Y. c #E5C2AF",
"T. c #E6C2AF",
"R. c #F2C0A5",
"E. c #F0C0A6",
"W. c #F0C0A7",
"Q. c #F1C1A7",
"!. c #F4C1A7",
"~. c #F1C1A8",
"^. c #F0C2A9",
"/. c #F2C2A8",
"(. c #F2C2A9",
"). c #F3C3A9",
"_. c #F1C3AA",
"`. c #F3C3AA",
"'. c #F6C3A9",
"]. c #F4C4AA",
"[. c #F4C5AB",
"{. c #F5C5AB",
"}. c #F5C5AC",
"|. c #F4C5AD",
" X c #F4C6AD",
".X c #F6C6AC",
"XX c #F7C7AD",
"oX c #F8C6AC",
"OX c #FAC8AE",
"+X c #FFD4AC",
"@X c #E1C2B1",
"#X c #E6C3B0",
"$X c #E3C4B3",
"%X c #E7C4B1",
"&X c #E8C5B2",
"*X c #E8C6B3",
"=X c #E9C6B3",
"-X c #E9C6B4",
";X c #E9C7B4",
":X c #EAC8B5",
">X c #E8C9B7",
",X c #EBC8B6",
"<X c #EBC9B6",
"1X c #EBC9B7",
"2X c #ECC9B7",
"3X c #ECCAB7",
"4X c #E9C9B8",
"5X c #ECCAB8",
"6X c #EDCDBB",
"7X c #FECBB0",
"8X c #FFCCB1",
"9X c #F0CFBD",
"0X c #F1D0BE",
"qX c #FFE2A4",
/* pixels */
"T 9.0X0X0X0X0X0X0X0X0X0X0X0X0X0X0X0X0X0X0X0X0X0X0X0X0X0X0X0XA.m P L.0X0X0X0X0X0X0X0X0X0X0X0X0X0X0X0X0X0X0X0X0X0X0X0X0X0X0X0X6.! ",
"'.| 7.0X0X0X0X0X0X0X0X0X0X0X0X0X0X0X0X0X0X0X0X0X0X0X0X0X0XH.{ h.u.[ #X0X0X0X0X0X0X0X0X0X0X0X0X0X0X0X0X0X0X0X0X0X0X0X0X0X0X7.X.!.",
"8XQ.) 6.0X0X0X0X0X0X0X0X0X0X0X0X0X0X0X0X0X0X0X0X0X0X0X0XH.B E.8X8Xf.S U.0X0X0X0X0X0X0X0X0X0X0X0X0X0X0X0X0X0X0X0X0X0X0X0X5.R ].8X",
"8X8X}._ 6.0X0X0X0X0X0X0X0X0X0X0X0X0X0X0X0X0X0X0X0X0X0XF.| M.8X8X8X8Xs.| Y.0X0X0X0X0X0X0X0X0X0X0X0X0X0X0X0X0X0X0X0X0X0X4.| }.8X8X",
"8X8X8XQ.| 8.0X0X0X0X0X0X0X0X0X0X0X0X0X0X0X0X0X0X0X0XH.U c.8X8X8X8X8X8Xf.C %X0X0X0X0X0X0X0X0X0X0X0X0X0X0X0X0X0X0X0X0X4.' /.8X8X8X",
"8X8X8X8X{.U q.0X0X0X0X0X0X0X0X0X0X0X0X0X0X0X0X0X0XZ.] K.8X8X8X8X8X8X8X8Xf.{ L.0X0X0X0X0X0X0X0X0X0X0X0X0X0X0X0X0X0X4._ XX8X8X8X8X",
"8X8X8X8X8X).| 0.0X0X0X0X0X0X0X0X0X0X0X0X0X0X0X0X            8X8X8X          _ #X0X0X0X0X0X0X0X0X0X0X0X0X0X0X0X0X5.| /.8X8X8X8X8X",
"8X8X8X8X8X8X/.Q 7.0X0X0X0X0X0X0X0X0X0X0X0X0X0X  qXqXqXqXqXqX  8X  qXqXqXqXqX    P.0X0X0X0X0X0X0X0X0X0X0X0X0X0X6.R {.8X8X8X8X8X8X",
"8X8X8X8X8X8X8X.X{ 6.0X0X0X0X0X0X0X0X0X0X0X    qXqXqXqXqXqXqXqX  qXqXqXqXqXqXqXqX      0X0X0X0X0X0X0X0X0X0X0X6.| ].8X8X8X8X8X8X8X",
"8X8X8X8X8X8X8X8XW.[ 7.0X0X0X0X0X0X0X0X0X  qXqXqXqXi i qXqXqXqX  qXqXqXqXqXqXqXqXqXqXqX    0X0X0X0X0X0X0X0X4./ (.8X8X8X8X8X8X8X8X",
"8X8X8X8X8X8X8X8X8X.XQ 0.0X0X0X0X0X0X0X  qXqXqXqXqXi qXqXqXqXqXqXqXqXqXqXi i qXqXqXqXqXqXqX  0X0X0X0X0X0X4.[ XX8X8X8X8X8X8X8X8X8X",
"8X8X8X8X8X8X8X8X8X8X/.| q.0X0X0X0X0X0X  qXqXqXqXqXi qXqXqXqXqXqXqXqXqXqXi qXqXqXqXqXqXqXqXqX  0X0X0X0X4.{ ~.8X8X8X8X8X8X8X8X8X8X",
"8X8X8X8X8X8X8X8X8X8X8X).U 8.0X0X0X0XS.  qXqXqXqXi i qXqXqXqXqXqXqXqXqXqXi qXqXqXi qXqXqXqXqX  0X0X0X8.Q XX8X8X8X8X8X8X8X8X8X8X8X",
"8X8X8X8X8X8X8X8X8X8X8X8X{.| 6.0X0XL.  qXqXqXqXqXi qXqXqXqXqXqXqXqXqXqXqXi qXqXqXi qXqXqXqXqXqX  0X8.X.).8X8X8X8X8X8X8X8X8X8X8X8X",
"8X8X8X8X8X8X8X8X8X8X8X8X8XQ._ 6.P.n   qXqXqXqXqXi qXqXqXqXqXqXqXqXqXqXqXi qXqXqXi qXqXqXqXqXqX  4.E `.8X8X8X8X8X8X8X8X8X8X8X8X8X",
"8X8X8X8X8X8X8X8X8X8X8X8X8X8X|.m V N.  qXqXqXqXqXqXqXqXqXqXqXqXqXqXqXqXqXi qXqXi i qXqXqXqXqXqX  T  X8X8X8X8X8X8X8X8X8X8X8X8X8X8X",
"8X8X8X8X8X8X8X8X8X8X8X8X8X8Xz.m T :.  qXqXqXqXqXqXqXqXqXqXqXqXqXqXqXqXqXqXqXqXi qXqXqXqXqXqXqX  b Q.8X8X8X8X8X8X8X8X8X8X8X8X8X8X",
"8X8X8X8X8X8X8X8X8X8X8X8X8Xp.' Y.;XU   qXqXqXqXqXqXqXqXi i qXqXqXqXqXqXqXqXqXqXqXqXqXqXqXqXqXqXqX  [ x.8X8X8X8X8X8X8X8X8X8X8X8X8X",
"8X8X8X8X8X8X8X8X8X8X8X8Xj.[ H.0X0X=X  qXqXqXqXqXqXqXqXi qXqXqXqXqXqXqXqXi qXqXqXqXqXqXqXqXqXqXqX  V.] W.8X8X8X8X8X8X8X8X8X8X8X8X",
"8X8X8X8X8X8X8X8X8X8X8Xg.A Y.0X0X0X0X  qXqXqXqXqXqXqXqXi qXqXqXqXqXqXqXi qXqXqXqXqXqXqXqXqXqXqXqX  0XD.R n.8X8X8X8X8X8X8X8X8X8X8X",
"8X8X8X8X8X8X8X8X8X8Xh.| P.0X0X0X0X0X  qXqXqXqXi i qXqXi qXqXqXqXqXqXqXi qXqXqXqXqXqXqXqXqXqXqXqX  0X0XA.| E.8X8X8X8X8X8X8X8X8X8X",
"8X8X8X8X8X8X8X8X8Xj.C I.0X0X0X0X0X0X  qXqXqXqXi qXqXqXi qXqXqXqXqXqXqXi qXqXqXqXqXqXqXqXqXqXqXqX  0X0X0XH.N ~.8X8X8X8X8X8X8X8X8X",
"8X8X8X8X8X8X8X8Xa.{ Y.0X0X0X0X0X0X0X  qXqXqXqXi qXqXqXi qXqXqXqXqXqXqXi qXqXqXqXqXqXqXqXqXqXqXqX  0X0X0X0XF.} c.8X8X8X8X8X8X8X8X",
"8X8X8X8X8X8X8Xh._ H.0X0X0X0X0X0X0X0X  qXqXqXqXi qXqXqXi qXqXqXqXqXqXqXi qXi i i i qXqXqXqXqXqXqX  0X0X0X0X0XC./ W.8X8X8X8X8X8X8X",
"8X8X8X8X8X8Xs.Q Y.0X0X0X0X0X0X0X0X0X0X  qXqXqXqXqXqXqXqXqXqXqXqXqXqXi qXqXqXqXqXqXqXqXqXqXqXqXqX  0X0X0X0X0X0XD.( c.8X8X8X8X8X8X",
"8X8X8X8X8Xc.| H.0X0X0X0X0X0X0X0X0X0X0X0X            qXqXqXqXqXqXqXqXqXqXqXqXqXqXqXqXqXqX        0X0X0X0X0X0X0X0XC.} ~.8X8X8X8X8X",
"8X8X8X8Xc.v T.0X0X0X0X0X0X0X0X0X0X0X0X0X0X0X0X0X0X#X    qXqXqXqXqXqXqXqXqXqXqXqXqXqX    0X0X0X0X0X0X0X0X0X0X0X0X0XF.B E.8X8X8X8X",
"8X8X8Xs.} #X0X0X0X0X0X0X0X0X0X0X0X0X0X0X0X0X0X0X0X0X,X/   qXqXqXqXqXqXqXqXqXqX      0X0X0X0X0X0X0X0X0X0X0X0X0X0X0X0XH.| n.8X8X8X",
"8X8Xh.~ H.0X0X0X0X0X0X0X0X0X0X0X0X0X0X0X0X0X0X0X0X0X0X%X|     qXqXqX          0X0X0X0X0X0X0X0X0X0X0X0X0X0X0X0X0X0X0X0XA.R Q.8X8X",
"8Xa._ Y.0X0X0X0X0X0X0X0X0X0X0X0X0X0X0X0X0X0X0X0X0X0X    -X. +X      /   0X0X0X0X0X0X0X0X0X0X0X0X0X0X0X0X0X0X0X0X0X0X0X0XD.] x.8X",
"k.{ H.0X0X0X0X0X0X0X0X0X0X0X0X0X0X0X0X0X0X0X0X0X0X  o o       +X+X+X            0X0X0X0X0X0X0X0X0X0X0X0X0X0X0X0X0X0X0X0X0XV.] R.",
"k T.0X0X0X0X0X0X0X0X0X0X0X0X0X0X0X0X0X0X0X  0X%   o o o o     +X+X+X    o o o o     X   0X  0X0X0X0X0X0X0X0X0X0X0X0X0X0X0X0XD.z ",
"I &X0X0X0X0X0X0X0X0X0X0X0X0X0X0X0X0X0X0X  O   @   o o o o   +       +   o o o o   + + +   O   0X0X0X0X0X0X0X0X0X0X0X0X0X0X0XU.Z ",
"1.U T.0X0X0X0X0X0X0X0X0X0X0X0X0X0X0X0X  O O   + +         + + + + + + +         # + + +   O O   0X0X0X0X0X0X0X0X0X0X0X0X0XP.N J.",
"8Xp.| #X0X0X0X0X0X0X0X0X0X0X0X0X0X0X  O O O   + + + + + + + + + + + + + + + + + + + + @   O O O   0X0X0X0X0X0X0X0X0X0X0XH.| b.8X",
"8X8Xa.A &X0X0X0X0X0X0X0X0X0X0X0X0X0X  O O   +   + + + + + +             $ + + + + + +   +   O O   0X0X0X0X0X0X0X0X0X0XI.U h.8X8X",
"8X8X8Xp.{ I.0X0X0X0X0X0X0X0X0X0X0X0X0X    + +   + +         O O O O O O           + +   + +     0X0X0X0X0X0X0X0X0X0XF.] b.8X8X8X",
"8X8X8X8X<._ &X0X0X0X0X0X0X0X0X0X0X0X0X  + + +   +   O O O O O O O O O O O O O O O   +   + + +   0X0X0X0X0X0X0X0X0XI.] s.8X8X8X8X",
"8X8X8X8X8Xi.Q U.0X0X0X0X0X0X0X0X0X0X0X            O O O O O O O O O O O O O O O O O     + + +   0X0X0X0X0X0X0X0XH.U b.8X8X8X8X8X",
"8X8X8X8X8X8Xy.| %X0X0X0X0X0X0X0X0X0X  o o o o o   O O O O O O O O O O O O O O O O O   o o o   0X0X0X0X0X0X0X0XP.| h.8X8X8X8X8X8X",
"8X8X8X8X8X8X8Xs.V %X0X0X0X0X0X0X0X0X  o o o o o   O O O O O O O O O O O O O O O O O         0X0X0X0X0X0X0X0XU.B b.8X8X8X8X8X8X8X",
"8X8X8X8X8X8X8X8Xa.| U.0X0X0X0X0X0X0X  o o o o o   O O O O O O O O O O O O O O O O O   0X0X0X0X0X0X0X0X0X0XF.{ n.8X8X8X8X8X8X8X8X",
"8X8X8X8X8X8X8X8X8Xt.^ &X0X0X0X0X0X0X  o o o o o   O O O O O O O O O O O O O O O O O   6.0X0X0X0X0X0X0X0XP.( f.8X8X8X8X8X8X8X8X8X",
"8X8X8X8X8X8X8X8X8X8Xi._ I.0X0X0X0X0X  o o o o o   O O O O O O O O O O O O O O O O O   _ 6.0X0X0X0X0X0XF.^ c.8X8X8X8X8X8X8X8X8X8X",
"8X8X8X8X8X8X8X8X8X8X8X<.{ &X0X0X0X0X4.          O O O O O O O O O O O O         O O O   _ 6.0X0X0X0XU.} f.8X8X8X8X8X8X8X8X8X8X8X",
"8X8X8X8X8X8X8X8X8X8X8X8Xp.A #X0X0X4.] /.8X8X8X        O O O O O O O O O   o o           Q.| 8.0X0XU.v m.8X8X8X8X8X8X8X8X8X8X8X8X",
"8X8X8X8X8X8X8X8X8X8X8X8X8Xs.| Y.5._ XX8X8X8X8X8X  + + +     O O     O   o o o o   +   8X8X[.U q.H.| m.8X8X8X8X8X8X8X8X8X8X8X8X8X",
"8X8X8X8X8X8X8X8X8X8X8X8X8X8Xu.j / ^.8X8X8X8X8X8X8X  +   o o     r.oX  o o o o o o   8X8X8X8X_.W l l.8X8X8X8X8X8X8X8X8X8X8X8X8X8X",
"8X8X8X8X8X8X8X8X8X8X8X8X8X8X*.x ! n.8X8X8X8X8XQ.+.H   o o o o   p p   o o o o o o   8X8X8X8Xf.P m *.8X8X8X8X8X8X8X8X8X8X8X8X8X8X",
"8X8X8X8X8X8X8X8X8X8X8X8X8X%.| ;XB.] /.7Xd...s p p p p         p p p   o o o o o o   h O.OXn.[ D.<X[ %.8X8X8X8X8X8X8X8X8X8X8X8X8X",
"8X8X8X8X8X8X8X8X8X8X8X8X#.( &X0X0XC.g s p p p p p p p p p p p p p p   o o o o o o   p p 4 u G.0X0X#X{ =.8X8X8X8X8X8X8X8X8X8X8X8X",
"8X8X8X8X8X8X8X8X8X8X8X#.] 5X0X0X0X>Xr > 7 p p p p p p p p p p p p p   o o o o o o   p 5 > 0 w.0X0X0X<XR >.8X8X8X8X8X8X8X8X8X8X8X",
"8X8X8X8X8X8X8X8X8X8X$.} %X0X0X0X0X@Xy 1 & 9 p p p p p p p p p p p p p             p 6 * q y K 0X0X0X0X%X| ,.8X8X8X8X8X8X8X8X8X8X",
"8X8X8X8X8X8X8X8X8X;.E 1X0X0X0X0X0X4XD y < : 6 p p p p p p p p p p p p p p p p p p 2 : w y y e.0X0X0X0X0X&XY =.8X8X8X8X8X8X8X8X8X",
"8X8X8X8X8X8X8X8X;.X.*X0X0X0X0X0X0X0X$XF y , - 8 p p p p p p p p p p p p p p p p 6 ; 1 y y 2.9X0X0X0X0X0X0X:X} &.8X8X8X8X8X8X8X8X",
"8X8X8X8X8X8X8X$.E *X0X0X0X0X0X0X0X0X0X0X@XL t - 6 p p p p p p p p p p p p p p 3 = e J 2.6X0X0X0X0X0X0X0X0X0X#X' &.8X8X8X8X8X8X8X",
"8X8X8X8X8X8X#.} 2X0X0X0X0X0X0X0X0X0X0X0X0X0X0X3.d  .G h p p p p p p p p f H M a o.9X0X0X0X0X0X0X0X0X0X0X0X0X0X,X( =.8X8X8X8X8X8X",
"8X8X8X8X8X#.[ %X0X0X0X0X0X0X0X0X0X0X0X0X0X0X0X0XZ.V Q.8X8X8X8X8X8X8X8X8X8XN.c U.0X0X0X0X0X0X0X0X0X0X0X0X0X0X0X0X%X| ;.8X8X8X8X8X",
"8X8X8X8X%.( 5X0X0X0X0X0X0X0X0X0X0X0X0X0X0X0X0X0X0XD.| N.8X8X8X8X8X8X8X8Xf.} U.0X0X0X0X0X0X0X0X0X0X0X0X0X0X0X0X0X0X;XU >.8X8X8X8X",
"8X8X8X&.| &X0X0X0X0X0X0X0X0X0X0X0X0X0X0X0X0X0X0X0X0XV.R /.8X8X8X8X8X8Xb.~ F.0X0X0X0X0X0X0X0X0X0X0X0X0X0X0X0X0X0X0X0X-X| =.8X8X8X",
"8X8X%.R ;X0X0X0X0X0X0X0X0X0X0X0X0X0X0X0X0X0X0X0X0X0X0XC.] n.8X8X8X8Xf.) P.0X0X0X0X0X0X0X0X0X0X0X0X0X0X0X0X0X0X0X0X0X0X%X/ &.8X8X",
"8X%.| :X0X0X0X0X0X0X0X0X0X0X0X0X0X0X0X0X0X0X0X0X0X0X0X0XB.[ (.8X8Xm.{ D.0X0X0X0X0X0X0X0X0X0X0X0X0X0X0X0X0X0X0X0X0X0X0X0X,X] &.8X",
"@._ &X0X0X0X0X0X0X0X0X0X0X0X0X0X0X0X0X0X0X0X0X0X0X0X0X0X0XC.U K.v.V I.0X0X0X0X0X0X0X0X0X0X0X0X0X0X0X0X0X0X0X0X0X0X0X0X0X0X#X} -.",
"` 3X0X0X0X0X0X0X0X0X0X0X0X0X0X0X0X0X0X0X0X0X0X0X0X0X0X0X0X0XZ.T Q P.0X0X0X0X0X0X0X0X0X0X0X0X0X0X0X0X0X0X0X0X0X0X0X0X0X0X0X0X,XT "
};
