/* XPM */
static char *d66db9f3d7834f31c190363e6f1a4a64WkO7REHv2uUmkiL5[] = {
/* columns rows colors chars-per-pixel */
"64 64 113 2 ",
"   c black",
".  c #222318",
"X  c #4B3A31",
"o  c #4C3A31",
"O  c #4E3D34",
"+  c #4E3D35",
"@  c #444635",
"#  c #4B4B4B",
"$  c #584942",
"%  c #594B43",
"&  c #5D4B41",
"*  c #5F4C42",
"=  c #594C44",
"-  c #5F524B",
";  c #645045",
":  c #61544D",
">  c #64564F",
",  c #66574E",
"<  c #675951",
"1  c #6D5E56",
"2  c #706058",
"3  c #7C6A5F",
"4  c #7E6C63",
"5  c #7F6D64",
"6  c #876A5A",
"7  c #837168",
"8  c #847268",
"9  c #877369",
"0  c #87756B",
"q  c #89766C",
"w  c #927E73",
"e  c #948075",
"r  c #978377",
"t  c #9C8375",
"y  c #988378",
"u  c #9E8578",
"i  c #9D877C",
"p  c #BC907A",
"a  c #BB927C",
"s  c #BE927C",
"d  c #BE937C",
"f  c #C0947D",
"g  c #A79084",
"h  c #AD9485",
"j  c #AD9588",
"k  c #B2998C",
"l  c #B79B8C",
"z  c #B59D8F",
"x  c #BAA193",
"c  c #BEA496",
"v  c #C29781",
"b  c #C39781",
"n  c #C39882",
"m  c #C39983",
"M  c #C49983",
"N  c #C79C86",
"B  c #C89D87",
"V  c #C89E88",
"C  c #C3A899",
"Z  c #C5AA9B",
"A  c #D8AD96",
"S  c #DBB098",
"D  c #E5B59C",
"F  c #E6B79D",
"G  c #E7B79E",
"H  c #E9B79C",
"J  c #E6B89F",
"K  c #E8B99F",
"L  c #CBAFA0",
"P  c #CCB0A1",
"I  c #D1B2A2",
"U  c #DDB8A4",
"Y  c #DFBAA6",
"T  c #DFBBA7",
"R  c #D7BAAA",
"E  c #D9B9A8",
"W  c #DCBEAE",
"Q  c #E8BAA1",
"!  c #EBBBA2",
"~  c #EBBDA3",
"^  c #EEBCA2",
"/  c #EBBDA4",
"(  c #EFBFA6",
")  c #E2BEAB",
"_  c #E3BFAC",
"`  c #F0BDA3",
"'  c #DEC0AF",
"]  c #E3C0AD",
"[  c #E6C2AF",
"{  c #F0C0A6",
"}  c #F0C0A7",
"|  c #F1C1A7",
" . c #F3C3A9",
".. c #F3C3AA",
"X. c #F6C3A9",
"o. c #F4C4AA",
"O. c #F5C5AC",
"+. c #F4C5AD",
"@. c #F7C7AD",
"#. c #E0C1B1",
"$. c #E6C3B0",
"%. c #E3C4B3",
"&. c #E7C4B1",
"*. c #E4C5B4",
"=. c #E8C5B2",
"-. c #E9C7B4",
";. c #EAC8B5",
":. c #ECCAB7",
">. c #ECCAB8",
",. c #EDCDBB",
"<. c #FFCCB1",
"1. c #F0CFBD",
"2. c #F1D0BE",
/* pixels */
"v Y 2.2.2.2.2.2.2.2.2.2.2.2.2.2.2.2.2.2.2.2.2.2.2.2.2.2.2.2.) s v _ 2.2.2.2.2.2.2.2.2.2.2.2.2.2.2.2.2.2.2.2.2.2.2.2.2.2.2.1.Y n ",
"X.B Y 2.2.2.2.2.2.2.2.2.2.2.2.2.2.2.2.2.2.2.2.2.2.2.2.2.2._ N ~ ! N $.1.2.2.2.2.2.2.2.2.2.2.2.2.2.2.2.2.2.2.2.2.2.2.2.1.2.Y N o.",
"<.| M Y 2.2.2.2.2.2.2.2.2.2.2.2.2.2.2.2.2.2.2.2.2.2.2.2._             [ 2.2.2.2.2.2.2.2.2.2.2.2.2.2.2.2.2.2.2.2.2.2.2.1.U n o.<.",
"<.<.O.M Y 2.2.2.2.2.2.2.2.2.2.2.2.2.2.2.2.2.2.2.2.2.      . . . . . .       2.2.2.2.2.2.2.2.2.2.2.2.2.2.2.2.2.2.2.2.2.Y B O.<.<.",
"<.<.<.| B Y 2.2.2.2.2.2.2.2.2.2.2.2.2.2.2.2.2.2.2.  . . . . . . . . . . . .   2.2.2.2.2.2.2.2.2.2.2.2.2.2.2.2.2.2.,.Y N  .<.<.<.",
"<.<.<.<.o.v Y 2.2.2.2.2.2.2.2.2.2.2.2.2.2.2.2.2.2.  . . . . . . . . . . . .   2.2.2.2.2.2.2.2.2.2.2.2.2.2.2.2.2.2.Y n o.<.<.<.<.",
"<.<.<.<.<. .B Y 2.2.2.2.2.2.2.2.2.2.2.2.2.2.2.2.  . . . . . . . . . . . . . .   1.1.2.2.2.2.2.2.2.2.2.2.2.2.2.1.Y N  .<.<.<.<.<.",
"<.<.<.<.<.<. .v Y 2.2.2.2.2.2.2.2.2.2.2.2.2.2.)   . . . . . . . . . . . . . .   [ 2.2.2.2.2.2.2.2.2.2.2.2.2.2.Y v o.<.<.<.<.<.<.",
"<.<.<.<.<.<.<.o.N Y ,.2.2.2.2.2.2.2.2.2.2.2.] B   . . . . . . . . . . . . . .   B $.2.2.2.2.2.2.2.2.2.2.2.,.Y B o.<.<.<.<.<.<.<.",
"<.<.<.<.<.<.<.<.( N Y 2.2.2.2.2.2.2.2.2.2.]       . . . . . . . . . . . . . .       $.2.2.2.2.2.2.2.2.2.2.Y n o.<.<.<.<.<.<.<.<.",
"<.<.<.<.<.<.<.<.<.O.n Y 2.2.2.2.2.2.2.2.)   . .   . . . . . . . . . . . . . .   . .   [ 2.2.2.2.2.2.,.2.Y N O.<.<.<.<.<.<.<.<.<.",
"<.<.<.<.<.<.<.<.<.<. .N ) 2.2.2.2.2.2.]   . . . . . . . . . . . . . . . . . . . . .     [ 2.2.2.2.2.,.Y N o.<.<.<.<.<.<.<.<.<.<.",
"<.<.<.<.<.<.<.<.<.<.<. .v Y 2.2.2.2.) n |   . . . . . . . . . . . . . . . . . . . .   ! N _ 2.2.2.2.Y n O.<.<.<.<.<.<.<.<.<.<.<.",
"<.<.<.<.<.<.<.<.<.<.<.<.o.N Y 2.2.] N ^ <.<.  . . . . . . . . . . . . . . . . . .   <.<.K N &.2.2.Y B o.<.<.<.<.<.<.<.<.<.<.<.<.",
"<.<.<.<.<.<.<.<.<.<.<.<.<. .N Y [ s | <.<.<.<.                                    <.<.<.<.^ f &.Y n o.<.<.<.<.<.<.<.<.<.<.<.<.<.",
"<.<.<.<.<.<.<.<.<.<.<.<.<.<.O.p s ( <.<.<.<.<.<.  # # # # # # # # # # # # # #   <.<.<.<.<.<.~ s v +.<.<.<.<.<.<.<.<.<.<.<.<.<.<.",
"<.<.<.<.<.<.<.<.<.<.<.<.<.<.~ s n J <.<.<.<.<.<.  # #       # # # #       # #   <.<.<.<.<.<.J f s } <.<.<.<.<.<.<.<.<.<.<.<.<.<.",
"<.<.<.<.<.<.<.<.<.<.<.<.<.! N [ ;.f K <.<.<.<.<.  # # # # # # # # # # # # # #   <.<.<.<.<.H M >.) N ~ <.<.<.<.<.<.<.<.<.<.<.<.<.",
"<.<.<.<.<.<.<.<.<.<.<.<.~ N ) 2.2.-.N J <.<.<.<.  # # # # # # # # # # # # # #   <.<.<.<.G N &.2.2.Y N } <.<.<.<.<.<.<.<.<.<.<.<.",
"<.<.<.<.<.<.<.<.<.<.<.^ f [ 2.2.2.2.&.n G <.<.<.  # # # # # # # # # # # # # #   <.<.<.G v -.2.2.2.2.) v } <.<.<.<.<.<.<.<.<.<.<.",
"<.<.<.<.<.<.<.<.<.<.~ N [ 2.2.2.2.2.2.;.N G <.<.  # # # # # # # # # # # # # #   <.<.G N ;.2.2.2.2.2.2._ N } <.<.<.<.<.<.<.<.<.<.",
"<.<.<.<.<.<.<.<.<.~ f [ 1.2.2.2.2.2.2.2.[ N G     # # # # # # # # # # # # #     <.G n $.2.2.2.2.2.2.2.2.] s | <.<.<.<.<.<.<.<.<.",
"<.<.<.<.<.<.<.<.! N [ 2.2.2.2.2.2.2.2.2.2.;.    @   # # # #         # # # #   @     >.2.2.2.2.2.2.2.2.2.2.) N ^ <.<.<.<.<.<.<.<.",
"<.<.<.<.<.<.<./ N ) 2.2.2.2.2.2.2.2.2.2.2.  @ @ @ @   # # # # # # # # #     @ @ @   2.2.2.2.2.2.2.2.2.2.2.2.) n } <.<.<.<.<.<.<.",
"<.<.<.<.<.<./ n $.2.2.2.2.2.2.2.2.2.2.2.2.  @ @ @ @       # # # # #       @ @ @ @   2.2.2.2.2.2.2.2.2.2.2.2.2.) n } <.<.<.<.<.<.",
"<.<.<.<.<.` N _ 2.2.2.2.2.2.2.2.2.2.        @ @ @ @ @                   @ @ @ @ @ @         2.2.2.2.2.2.2.2.2.2.T N | <.<.<.<.<.",
"<.<.<.<.^ s $.2.2.2.2.2.2.2.2.      . . .   @ @ @ @ @ @   # # # # #   @ @ @ @ @ @     . . .       2.2.2.2.2.2.2.2.] d | <.<.<.<.",
"<.<.<.! B $.1.2.2.2.2.2.2.2.  . . . . . . .   @ @ @ @ @ @   # # #   @ @ @ @ @ @ @   . . . . . .     2.2.2.2.2.2.2.2.] N } <.<.<.",
"<.<.~ v _ 1.2.2.2.2.2.2.2.    . . . . . . . .   @ @ @ @ @ @   #     @ @ @ @ @     . . . . . . . .   2.2.2.2.2.2.2.2.2.) d | <.<.",
"<.! N $.2.2.2.2.2.2.2.2.2.  . . . . . . . . . .     @ @ @ @       @ @ @ @ @     . . . . . . . . .     2.2.2.2.2.2.2.2.2.] N ^ <.",
"^ N ) 2.2.2.2.2.2.2.2.2.2.  . . . . . . . . . . .     @ @ @ @ @   @ @ @ @   . . . . . . . . . . . .   2.2.2.2.2.2.2.2.2.2.T N | ",
"p [ 1.2.2.2.2.2.2.2.2.2.2.  . . . . . . . . . . . . .     @ @ @   @ @     . . . . . . . . . . . . .   2.2.2.2.2.2.2.2.2.2.2.) p ",
"v &.2.2.2.2.2.2.2.2.2.2.2.  . . . . . . . . . . . . . .     @   @ @     . . . . . . . . . . . . . .   2.2.2.2.2.2.2.2.2.2.2.[ s ",
"K v [ 2.2.2.2.2.2.2.2.2.2.  . . . . . . . . . . . . . . .       @     . . . . . . . . . . . . . . .   2.2.2.2.2.2.2.2.2.2.] f ` ",
"<.! N &.2.2.2.2.2.2.2.2.2.  . . . . . . . . . . . . . . . .   @ @   . . . . . . . . . . . . . . .     2.2.2.2.2.2.2.2.1.) N } <.",
"<.<.^ f =.2.2.2.2.2.2.2.  .     . . . . . . . . . . . . . . .     . . . . . . . . . . . . . . .         2.2.2.2.2.2.2.[ n ~ <.<.",
"<.<.<.! B [ 1.2.2.2.2.    . . .     . . . . . . . . . . . . .     . . . . . . . . . . . . .     . . .   2.2.2.2.2.2.) N ^ <.<.<.",
"<.<.<.<.K M =.2.2.2.2.  . . . . . .       . . . . . . . . .       . . . . . . . . . .       . . . . . .   2.2.2.2.[ n ~ <.<.<.<.",
"<.<.<.<.<.K v [ 2.2.2.  . . . . . . . .     . . . . . . . . .     . . . . . . . . .   . . . . . . . . .   2.2.1.) v ( <.<.<.<.<.",
"<.<.<.<.<.<.! B &.2.2.  . . . . . . . . . .   . . . . . . . .     . . . . . . .     . . . . . . . . . .   2.2.[ N ^ <.<.<.<.<.<.",
"<.<.<.<.<.<.<.! f $.2.  . . . . . . . . . .   . . . . . . . .     . . . . . . . .   . . . . . . . . . .   2.[ s ( <.<.<.<.<.<.<.",
"<.<.<.<.<.<.<.<.! B [   . . . . . . . . . .   . . . . . . . .     . . . . . . . .   . . . . . . . . . .   ) N ( <.<.<.<.<.<.<.<.",
"<.<.<.<.<.<.<.<.<.K M   . . . . . . . . . .     . . . . . . .     . . . . . . .   . . . . . . . . . . .   M ^ <.<.<.<.<.<.<.<.<.",
"<.<.<.<.<.<.<.<.<.<.!   . . . . . . . . . . .   . . . . . . .     . . . . . . .   . . . . . . . . . . .   } <.<.<.<.<.<.<.<.<.<.",
"<.<.<.<.<.<.<.<.<.<.<.  . . . . . . . . . . .   . . . . . . .     . . . . . . .   . . . . . . . . . . .   <.<.<.<.<.<.<.<.<.<.<.",
"<.<.<.<.<.<.<.<.<.<.<.  . . . . . . . . . . .   . . . . . .         . . . . . .   . . . . . . . . . . .   <.<.<.<.<.<.<.<.<.<.<.",
"<.<.<.<.<.<.<.<.<.<.<.  . . . . . . . . . . .   . . . .     .         . . . . .   . . . . . . . . . .     <.<.<.<.<.<.<.<.<.<.<.",
"<.<.<.<.<.<.<.<.<.<.<.    . . . . . . . . . .             . .     . .             . . . . . . . . . .   <.<.<.<.<.<.<.<.<.<.<.<.",
"<.<.<.<.<.<.<.<.<.<.<.<.  . . . . . . . . . .   . . . . .   .     .   . . . . .   . . . . . . . . .     <.<.<.<.<.<.<.<.<.<.<.<.",
"<.<.<.<.<.<.<.<.<.<.<.<.<.                      . . . . .             . . . . .                       <.<.<.<.<.<.<.<.<.<.<.<.<.",
"<.<.<.<.<.<.<.<.<.<.<.<.G M =.2.2._ v ( <.<.  . . . . . . . .     . . . . . . .   <.<.<.( f ] 2.2.$.N G <.<.<.<.<.<.<.<.<.<.<.<.",
"<.<.<.<.<.<.<.<.<.<.<.D N >.2.2.2.2.Y B S     . . . . . . . .   . . . . . . . . .   A / B _ 2.2.2.1.:.v K <.<.<.<.<.<.<.<.<.<.<.",
"<.<.<.<.<.<.<.<.<.<.G N [ 2.2.R l e 5 = X   . . . . . . . . .   . . . . . . . . . .   o , 8 g P >.2.2.&.V ! <.<.<.<.<.<.<.<.<.<.",
"<.<.<.<.<.<.<.<.<.J n ;.Z e 1 > - - - -   . . . . . . . . . .   . . . . . . . . . .     - - - - - 7 k *.&.f J <.<.<.<.<.<.<.<.<.",
"<.<.<.<.<.<.<.<.J B h 1 - - - - - -     . . . . . . . . . . .     . . . . . . . . . . .   - - - - - - - w E N J <.<.<.<.<.<.<.<.",
"<.<.<.<.<.<.<.G a 3 - - - - - - - -   . . . . . . . . . . . .     . . . . . . . . . . . .   - - - - - - - > l N G <.<.<.<.<.<.<.",
"<.<.<.<.<.<.G N 8 : - - - - - - - -   . . . . . . . . . . . .     . . . . . . . . . . . .   - - - - - - - - > P n J <.<.<.<.<.<.",
"<.<.<.<.<.D N &.> - - - - - - - - -   . . . . . . . . . . . .     . . . . . . . . . . . .   - - - - - - - - - l [ B K <.<.<.<.<.",
"<.<.<.<.G n >.2.g > - - - - - - - -   . . . . . . . . . . . .     . . . . . . . . . . . .   - - - - - - - - 2 &.2.=.M K <.<.<.<.",
"<.<.<.G V &.2.2.2.h > - - - - - - -   . . . . . . . . . . . .     . . . . . . . . . . . .   - - - - - - - 5 #.2.2.2.=.B G <.<.<.",
"<.<.D n ;.2.2.2.2.2.#.r , - - - - - -                                                     - - - - - - 5 c 2.2.2.2.2.2.&.M J <.<.",
"<.G V &.2.2.2.2.2.2.2.2.,.C r 2 - - - - - - - - - - - - $ O * ; ; & + % - - - - - - - - - - - > 0 k W 2.2.2.2.2.2.2.2.2.=.B G <.",
"K M &.2.2.2.2.2.2.2.2.2.2.2.2.2.%.Z g q 4 - - - - - - - > $ o & & X = - - - - - - - 1 7 i z I 2.2.2.2.2.2.2.2.2.2.2.2.2.2.[ N H ",
"M >.2.2.2.2.2.2.2.2.2.2.2.2.2.2.2.2.2.2.2.2.1.P P L g g g g t 6 6 u g g g x P P ' 2.2.2.2.2.2.2.2.2.2.2.2.2.2.2.2.2.2.2.2.2.;.v "
};
