/* XPM */
static char *c372166b2d9f4708ba9fe129250aa6e0DdGak3feOvjcRp3K[] = {
/* columns rows colors chars-per-pixel */
"64 64 114 2 ",
"   c black",
".  c #222318",
"X  c #4C3B32",
"o  c #4D3C33",
"O  c #5A473D",
"+  c #4B4B4B",
"@  c #584942",
"#  c #584A42",
"$  c #5D4B40",
"%  c #5F4C42",
"&  c #594B44",
"*  c #5F524B",
"=  c #645045",
"-  c #63564E",
";  c #665850",
":  c #675951",
">  c #6A5B53",
",  c #7D6153",
"<  c #7D6254",
"1  c #74645C",
"2  c #75655C",
"3  c #7A6960",
"4  c #7D6C62",
"5  c #827167",
"6  c #8C7669",
"7  c #8D7A6F",
"8  c #927B6F",
"9  c #9D7E6D",
"0  c #917D72",
"q  c #968276",
"w  c #9A8579",
"e  c #9F897D",
"r  c #A4816E",
"t  c #A48372",
"y  c #A28B7F",
"u  c #AF8C79",
"i  c #BB9079",
"p  c #BC907A",
"a  c #BC917A",
"s  c #BE927C",
"d  c #BF937C",
"f  c #BF947D",
"g  c #C0947D",
"h  c #C1957E",
"j  c #A58F82",
"k  c #A69083",
"l  c #AD9588",
"z  c #B1998B",
"x  c #B89F91",
"c  c #B9A092",
"v  c #BBA294",
"b  c #BEA496",
"n  c #C29781",
"m  c #C39781",
"M  c #C39983",
"N  c #C49983",
"B  c #C69B84",
"V  c #C69B85",
"C  c #C79C86",
"Z  c #C89D87",
"A  c #C89E88",
"S  c #C1A698",
"D  c #C6AA9C",
"F  c #CEAD9B",
"G  c #E4B59C",
"H  c #E6B79D",
"J  c #E5B79E",
"K  c #E9B79C",
"L  c #E7B89E",
"P  c #E8B89F",
"I  c #CBAFA0",
"U  c #D2B5A5",
"Y  c #DDB8A4",
"T  c #DFBAA6",
"R  c #DFBBA7",
"E  c #D8BBAB",
"W  c #DCBEAE",
"Q  c #EBBBA2",
"!  c #ECBCA3",
"~  c #ECBDA3",
"^  c #EFBFA6",
"/  c #E0BBA8",
"(  c #E2BEAA",
")  c #E3BFAC",
"_  c #F0BDA3",
"`  c #E3C0AD",
"'  c #E4C0AD",
"]  c #E5C2AF",
"[  c #E6C2AF",
"{  c #F0C0A6",
"}  c #F1C1A7",
"|  c #F0C2A9",
" . c #F3C3A9",
".. c #F3C3AA",
"X. c #F6C3A9",
"o. c #F4C4AA",
"O. c #F5C5AC",
"+. c #F4C5AD",
"@. c #F7C7AD",
"#. c #E0C1B1",
"$. c #E1C2B1",
"%. c #E6C3B0",
"&. c #E7C4B1",
"*. c #E4C5B4",
"=. c #E8C6B3",
"-. c #EAC7B5",
";. c #EAC8B5",
":. c #EBC8B6",
">. c #E9C9B8",
",. c #ECCAB8",
"<. c #EDCDBB",
"1. c #EECEBC",
"2. c #FFCCB1",
"3. c #F1D0BE",
/* pixels */
"n T 3.3.3.3.3.3.3.3.3.3.3.3.3.3.3.3.3.3.3.3.3.3.3.3.3.3.3.3.( s M ) 3.3.3.3.3.3.3.3.3.3.3.3.3.3.3.3.3.3.3.3.3.3.3.3.3.3.3.3.T M ",
"X.Z T 3.3.3.3.3.3.3.3.3.3.3.3.3.3.3.3.3.3.3.3.3.3.3.                  3.3.3.3.3.3.3.3.3.3.3.3.3.3.3.3.3.3.3.3.3.3.3.3.3.3.T Z } ",
"2.} N T 3.3.3.3.3.3.3.3.3.3.3.3.3.3.3.3.3.3.3.3.3.  . . . . . . . . .     3.3.3.3.3.3.3.3.3.3.3.3.3.3.3.3.3.3.3.3.3.3.1.T N o.2.",
"2.2.O.N T 3.3.3.3.3.3.3.3.3.3.3.3.3.3.3.3.3.3.3.    . . . . . . . . . .     3.3.3.3.3.3.3.3.3.3.3.3.3.3.3.3.3.3.3.3.3.T C o.2.2.",
"2.2.2.} Z T 3.3.3.3.3.3.3.3.3.3.3.3.3.3.3.3.3.3.  . . . . . . . . . . . .   3.3.3.3.3.3.3.3.3.3.3.3.3.3.3.3.3.3.3.3.T C  .2.2.2.",
"2.2.2.2.o.n T 3.3.3.3.3.3.3.3.3.3.3.3.3.3.3.3.3.  . . . . . . . . . . . . .   3.3.3.3.3.3.3.3.3.3.3.3.3.3.3.3.3.3.T M o.2.2.2.2.",
"2.2.2.2.2. .Z T 3.3.3.3.3.3.3.3.3.3.3.3.3.3.3.3.  . . . . . . . . . . . . .   %.3.3.3.3.3.3.3.3.3.3.3.3.3.3.3.1.Y C } 2.2.2.2.2.",
"2.2.2.2.2.2. .n T 3.3.3.3.3.3.3.3.3.3.3.3.3.3.(   . . . . . . . . . . . . .   M [ 3.3.3.3.3.3.3.3.3.3.3.3.3.3.T n o.2.2.2.2.2.2.",
"2.2.2.2.2.2.2.o.C T 3.3.3.3.3.3.3.3.3.3.3.3.`     . . . . . . . . . . . . .   Q C %.3.3.3.3.3.3.3.3.3.3.3.3.T A o.2.2.2.2.2.2.2.",
"2.2.2.2.2.2.2.2.^ V T 3.3.3.3.3.3.3.3.3.3.`   .   . . . . . . . . . . . . .         %.3.3.3.3.3.3.3.3.3.3.T M o.2.2.2.2.2.2.2.2.",
"2.2.2.2.2.2.2.2.2.O.M T 3.3.3.3.3.3.3.3.(   . .   . . . . . . . . . . . . .   . .   Z [ 3.3.3.3.3.3.3.3.Y V O.2.2.2.2.2.2.2.2.2.",
"2.2.2.2.2.2.2.2.2.2. .C T 3.3.3.3.3.3.(     . . . . . . . . . . . . . . . . . . .     n [ 3.3.3.3.3.1.T V } 2.2.2.2.2.2.2.2.2.2.",
"2.2.2.2.2.2.2.2.2.2.2. .M T 3.3.3.3.( M   . . . . . . . . . . . . . . . . . . . .   2.Q V ) 3.3.3.3.T M O.2.2.2.2.2.2.2.2.2.2.2.",
"2.2.2.2.2.2.2.2.2.2.2.2. .A T 3.3.[ C ! 2.  . . . . . . . . . . . . . . . . . .   2.2.2.Q C &.3.3.T C  .2.2.2.2.2.2.2.2.2.2.2.2.",
"2.2.2.2.2.2.2.2.2.2.2.2.2. .M T [ p } 2.2.2.        . . . . . . . . . .         2.2.2.2.2.Q h [ T M  .2.2.2.2.2.2.2.2.2.2.2.2.2.",
"2.2.2.2.2.2.2.2.2.2.2.2.2.2.O.s f ^ 2.2.2.2.2.  + +                     + +   2.2.2.2.2.2.2.! s M +.2.2.2.2.2.2.2.2.2.2.2.2.2.2.",
"2.2.2.2.2.2.2.2.2.2.2.2.2.2.Q f M L 2.2.2.2.2.        + + + + + + + + + + +   2.2.2.2.2.2.2.L h p } 2.2.2.2.2.2.2.2.2.2.2.2.2.2.",
"2.2.2.2.2.2.2.2.2.2.2.2.2.Q C [ ;.h Q 2.2.2.2.  + + + + + + + + + + + + + +   2.2.2.2.2.2.J V :.( V Q 2.2.2.2.2.2.2.2.2.2.2.2.2.",
"2.2.2.2.2.2.2.2.2.2.2.2.! C ` 3.3.&.C L 2.2.2.  + + + + + + + + + + + + + +   2.2.2.2.2.J C =.3.3.T C { 2.2.2.2.2.2.2.2.2.2.2.2.",
"2.2.2.2.2.2.2.2.2.2.2.! h [ 1.3.3.3.&.M J 2.2.  + + + + + + + + + + + + + +   2.2.2.2.K M &.3.3.3.3.( M ^ 2.2.2.2.2.2.2.2.2.2.2.",
"2.2.2.2.2.2.2.2.2.2.! C ) 3.3.3.3.3.3.:.V J 2.  + + + + + + + + + + + + + +   2.2.2.J V ;.3.3.3.3.3.3.( C  .2.2.2.2.2.2.2.2.2.2.",
"2.2.2.2.2.2.2.2.2.! h [ 3.3.3.3.3.3.3.3.%.Z J     + + + + + + + + + +           2.J V &.3.3.3.3.3.3.3.3.( s o.2.2.2.2.2.2.2.2.2.",
"2.2.2.2.2.2.2.2.! C %.3.3.3.3.3.3.3.3.3.3.:.n P   + + + + + + + + +   . . . .     A =.3.3.3.3.3.3.3.3.3.3.` C Q 2.2.2.2.2.2.2.2.",
"2.2.2.2.2.2.2.! N ( 3.3.3.3.3.3.3.3.3.3.3.3.=.Z   + + + + + + + +   . . . . . .     3.3.3.3.3.3.3.3.3.3.3.3.( M ^ 2.2.2.2.2.2.2.",
"2.2.2.2.2.2.! M [ 3.3.3.3.3.3.3.3.3.3.3.3.3.3.  .   + + + +       . . . . . . . .     3.3.3.3.3.3.3.3.3.3.3.3.( M Q 2.2.2.2.2.2.",
"2.2.2.2.2.! Z ) 3.3.3.3.3.3.3.3.3.3.3.3.3.3.3.              . . . . . . . . . . . .   3.3.3.3.3.3.3.3.3.3.3.3.3.( C } 2.2.2.2.2.",
"2.2.2.2.! g %.3.3.3.3.3.3.3.3.3.3.3.3.3.3.3.3.  . . . . . . . . . . . . . . . . . .   3.3.3.3.3.3.3.3.3.3.3.3.3.3.( f } 2.2.2.2.",
"2.2.2.Q Z [ 3.3.3.3.3.3.3.3.3.3.3.3.3.3.3.3.3.  . . . . . . . . . . . . . . . . . .   3.3.3.3.3.3.3.3.3.3.3.3.3.3.3.` Z ^ 2.2.2.",
"2.2.! N ) 3.3.3.3.3.3.3.3.3.3.3.3.3.3.3.3.3.3.  . . . . . . . . . . . . . . . . .     3.3.3.3.3.3.3.3.3.3.3.3.3.3.3.3.( n } 2.2.",
"2.Q M %.3.3.3.3.3.3.3.3.3.3.3.3.3.3.3.3.3.3.3.    . . . . . . . . . . . . . . .   .   3.3.3.3.3.3.3.3.3.3.3.3.3.3.3.3.3.( V ! 2.",
"! C ( 3.3.3.3.3.3.3.3.3.3.3.3.3.3.3.3.3.3.3.            . . . . . . .           . .   3.3.3.3.3.3.3.3.3.3.3.3.3.3.3.3.3.3.( V _ ",
"p %.3.3.3.3.3.3.3.3.3.3.3.3.3.3.3.3.3.3.3.3.  . . . . .               . . . . . . .   3.3.3.3.3.3.3.3.3.3.3.3.3.3.3.3.3.3.3.( p ",
"M &.3.3.3.3.3.3.3.3.3.3.3.3.3.3.3.3.3.3.3.    . . . . . . . . . . . . . . . . . . .   3.3.3.3.3.3.3.3.3.3.3.3.3.3.3.3.3.3.3.%.f ",
"P h [ 3.3.3.3.3.3.3.3.3.3.3.3.3.3.3.3.3.3.  . . . . . . . . . . . . . . . . . . . .   3.3.3.3.3.3.3.3.3.3.3.3.3.3.3.3.3.3.` f _ ",
"2.P C [ 3.3.3.3.3.3.3.3.3.3.3.3.3.3.3.3.3.  . . . . . . . . . . . . . . . . . . . .   3.3.3.3.3.3.3.3.3.3.3.3.3.3.3.3.3.( V ^ 2.",
"2.2.! h =.3.3.3.3.3.3.3.3.3.3.3.3.3.3.3.3.  . . . . . . . . . . . . . . . . . . . .     3.3.3.3.3.3.3.3.3.3.3.3.3.3.3.) n ^ 2.2.",
"2.2.2.! C [ 3.3.3.3.3.3.3.3.3.3.3.3.3.3.3.  . . . . .                       . . . . .   3.3.3.3.3.3.3.3.3.3.3.3.3.3.( V ^ 2.2.2.",
"2.2.2.2.P C &.3.3.3.3.3.3.3.3.3.3.3.3.3.  . . . .     . . . . . . . . . .   . . . . .   3.3.3.3.3.3.3.3.3.3.3.3.3.%.V Q 2.2.2.2.",
"2.2.2.2.2.P M [ 3.3.3.3.3.3.3.3.3.3.3.3.  . . . .   . . . . . . . . . . . .   . . . .   3.3.3.3.3.3.3.3.3.3.3.3.) n ! 2.2.2.2.2.",
"2.2.2.2.2.2.P Z [ 3.3.3.3.3.3.3.3.3.3.3.  . . .   . . . . . . . . . . . . . .   . . .   3.3.3.3.3.3.3.3.3.3.3.%.C Q 2.2.2.2.2.2.",
"2.2.2.2.2.2.2.Q p =.3.3.3.3.3.3.3.3.3.3.  . .     . . . . . . . . . . . . . .   . . .   3.3.3.3.3.3.3.3.3.3.%.h { 2.2.2.2.2.2.2.",
"2.2.2.2.2.2.2.2.! C [ 3.3.3.3.3.3.3.3.3.  . .   . . . . . . . . . . . . . . .   . . .     3.3.3.3.3.3.3.3.( V ! 2.2.2.2.2.2.2.2.",
"2.2.2.2.2.2.2.2.2.Q M &.3.3.3.3.3.3.3.  . . .   . . . . . . . . . . . . . . . .   . . .   3.3.3.3.3.3.3.%.N ! 2.2.2.2.2.2.2.2.2.",
"2.2.2.2.2.2.2.2.2.2.P M [ 3.3.3.3.3.3.  . . .   . . . . . . . . . . . . . . . .   . . .   3.3.3.3.3.3.( N ! 2.2.2.2.2.2.2.2.2.2.",
"2.2.2.2.2.2.2.2.2.2.2.Q C &.3.3.3.3.T   . . .   . . . . . . . . . . . . . . . .   . . .   T 1.3.3.3.[ V Q 2.2.2.2.2.2.2.2.2.2.2.",
"2.2.2.2.2.2.2.2.2.2.2.2.Q h %.1.3.T V   . . .   . . . . . . . . . . . . . . .     . . . .   T 3.3.[ p ! 2.2.2.2.2.2.2.2.2.2.2.2.",
"2.2.2.2.2.2.2.2.2.2.2.2.2.Q V [ T M O.2.  . .   . . . . . . . . . . . . . . .   . . . . .   n T ` C } 2.2.2.2.2.2.2.2.2.2.2.2.2.",
"2.2.2.2.2.2.2.2.2.2.2.2.2.2.Q p M | 2.2.  . .   . . . . . . . . . . . . .       . . . .      .n p ! 2.2.2.2.2.2.2.2.2.2.2.2.2.2.",
"2.2.2.2.2.2.2.2.2.2.2.2.2.2.L i M ^ 2.2.  . . .                           . . . . . . .   2.Q n p P 2.2.2.2.2.2.2.2.2.2.2.2.2.2.",
"2.2.2.2.2.2.2.2.2.2.2.2.2.L A &.R V  .2.  . . . . . . . . . . . . . . . . . . . . . . .   ^ C ) ;.Z L 2.2.2.2.2.2.2.2.2.2.2.2.2.",
"2.2.2.2.2.2.2.2.2.2.2.2.L V &.3.3.( n ^   . . . . . . . . . . . . . . . . . . . . . . .   h ` 3.3.&.C L 2.2.2.2.2.2.2.2.2.2.2.2.",
"2.2.2.2.2.2.2.2.2.2.2.G C ;.3.3.3.1.) V  .      . . . . . . . . . . . . . . . . .         ) 3.3.3.3.&.M L 2.2.2.2.2.2.2.2.2.2.2.",
"2.2.2.2.2.2.2.2.2.2.L A &.3.3.3.3.3.3.( s  .2.2.                                  2.^ h ` 3.3.3.3.3.3.&.A L 2.2.2.2.2.2.2.2.2.2.",
"2.2.2.2.2.2.2.2.2.Q f ;.3.3.3.3.3.1.;.>.F t u t 9   . . . . . . . . . . . . .    .J V ) 3.3.3.3.3.3.3.3.&.M J 2.2.2.2.2.2.2.2.2.",
"2.2.2.2.2.2.2.2.J C &.3.3.3.>.E D y 3 * - @ o % =   . . . . . . . . . . . . .   $ O 6 x U *.3.3.3.3.3.3.3.;.A L 2.2.2.2.2.2.2.2.",
"2.2.2.2.2.2.2.L M &.3.3.3.D 0 : * * * * * * & o   . . . . . . . . . . . . . .   X & * * * 5 z &.3.3.3.3.3.3.[ C J 2.2.2.2.2.2.2.",
"2.2.2.2.2.2.J Z ;.3.3.*.7 * * * * * * * * * *   . . . . . . . . . . . . . . . .   * * * * * * 2 D 3.3.3.3.3.3.;.M K 2.2.2.2.2.2.",
"2.2.2.2.2.J V =.3.3.;.4 * * * * * * * * * *   . . . . . . . . . . . . . . . . .     * * * * * * - U 3.3.3.3.3.3.&.C L 2.2.2.2.2.",
"2.2.2.2.J h >.3.3.3.$.- * * * * * * * * * *   . . . . . . . . . . . . . . . . . .   * * * * * * * j 3.3.3.3.3.3.3.;.h P 2.2.2.2.",
"2.2.2.L Z =.3.3.3.3.1.w * * * * * * * * *   . . . . . . . . . . . . . . . . . . .     * * * * * > #.3.3.3.3.3.3.3.3.=.Z L 2.2.2.",
"2.2.J h ;.3.3.3.3.3.3.3.l 1 * * * * * * *   . . . . . . . . . . . . . . . . . . . .   * * * : 7 ` 3.3.3.3.3.3.3.3.3.3.=.N J 2.2.",
"2.L Z =.3.3.3.3.3.3.3.3.3.W z 5 - * * * * *                                           * 3 e I 3.3.3.3.3.3.3.3.3.3.3.3.3.;.V J 2.",
"K C =.3.3.3.3.3.3.3.3.3.3.3.3.*.E D k 5 > * - * * * * * * @ X $ $ X @ - * * * * 3 q c U #.3.3.3.3.3.3.3.3.3.3.3.3.3.3.3.3.[ Z K ",
"V :.3.3.3.3.3.3.3.3.3.3.3.3.3.3.3.3.1.>.>.&.&.b S l w w w w 8 , , 0 j v b E >.&.>.1.3.3.3.3.3.3.3.3.3.3.3.3.3.3.3.3.3.3.3.3.;.n "
};
