/* XPM */
static char *_576c54ecbe44d56a6e37678a9f4a72bPOCMjY5ozRgBCOi4[] = {
/* columns rows colors chars-per-pixel */
"64 64 116 2 ",
"   c black",
".  c #222318",
"X  c #4C3B32",
"o  c #4C3C33",
"O  c #5A473D",
"+  c #4B4B4B",
"@  c #584942",
"#  c #584A42",
"$  c #5D4A41",
"%  c #594B44",
"&  c #594C44",
"*  c #5F524B",
"=  c #645045",
"-  c #63564E",
";  c #665850",
":  c #6A5B53",
">  c #7D6153",
",  c #74645C",
"<  c #75655C",
"1  c #7A6960",
"2  c #7D6C62",
"3  c #827167",
"4  c #8C7669",
"5  c #8D7A6F",
"6  c #917A6D",
"7  c #917D72",
"8  c #968276",
"9  c #9B867A",
"0  c #9F897D",
"q  c #A4816E",
"w  c #A28B7F",
"e  c #AF8C79",
"r  c #BB9079",
"t  c #BC907A",
"y  c #BE927C",
"u  c #BF937C",
"i  c #BF947D",
"p  c #C0947D",
"a  c #C1957E",
"s  c #C1957F",
"d  c #A58F82",
"f  c #A69083",
"g  c #AC9488",
"h  c #AD9588",
"j  c #B1998B",
"k  c #B89F91",
"l  c #B9A092",
"z  c #BEA496",
"x  c #BFA597",
"c  c #C29781",
"v  c #C39781",
"b  c #C39983",
"n  c #C49983",
"m  c #C69B84",
"M  c #C69B85",
"N  c #C79C86",
"B  c #C89D87",
"V  c #C89E88",
"C  c #CCA38E",
"Z  c #C1A698",
"A  c #C6AA9C",
"S  c #CEAD9B",
"D  c #E7B59B",
"F  c #E2B59D",
"G  c #E4B59C",
"H  c #E6B79D",
"J  c #E5B79E",
"K  c #E9B79C",
"L  c #E7B89E",
"P  c #E8B89F",
"I  c #EBB99F",
"U  c #D2B5A5",
"Y  c #D3B6A6",
"T  c #DDB8A4",
"R  c #DFBAA6",
"E  c #DFBBA7",
"W  c #D7B9A9",
"Q  c #D8BBAB",
"!  c #DCBEAE",
"~  c #EBBBA2",
"^  c #ECBCA3",
"/  c #ECBDA3",
"(  c #EFBFA6",
")  c #E0BBA8",
"_  c #E2BEAA",
"`  c #E3BFAC",
"'  c #F0BDA3",
"]  c #E3C0AD",
"[  c #E4C0AD",
"{  c #E5C2AF",
"}  c #E6C2AF",
"|  c #F0C0A6",
" . c #F1C1A7",
".. c #F3C3A9",
"X. c #F3C3AA",
"o. c #F6C3A9",
"O. c #F4C4AA",
"+. c #F5C5AC",
"@. c #F4C5AD",
"#. c #F7C7AD",
"$. c #E0C1B1",
"%. c #E2C3B2",
"&. c #E6C3B0",
"*. c #E7C4B1",
"=. c #E4C5B4",
"-. c #E8C6B3",
";. c #EAC7B5",
":. c #EAC8B5",
">. c #ECC9B7",
",. c #E9C9B8",
"<. c #EACAB9",
"1. c #EBCBBA",
"2. c #ECCAB8",
"3. c #EECEBC",
"4. c #FFCCB1",
"5. c #F1D0BE",
/* pixels */
"c R 5.5.5.5.5.5.5.5.5.5.5.5.5.5.5.5.5.5.5.5.5.5.5.5.5.5.5.5._ y b ` 5.5.5.5.5.5.5.5.5.5.5.5.5.5.5.5.5.5.5.5.5.5.5.5.5.5.5.5.R b ",
"o.B R 5.5.5.5.5.5.5.5.5.5.5.5.5.5.5.5.5.5.5.5.5.5.5.5.5.                  5.5.5.5.5.5.5.5.5.5.5.5.5.5.5.5.5.5.5.5.5.5.5.5.R B  .",
"4. .n R 5.5.5.5.5.5.5.5.5.5.5.5.5.5.5.5.5.5.5.5.5.5.    . . . . . . . . .   5.5.5.5.5.5.5.5.5.5.5.5.5.5.5.5.5.5.5.5.5.3.R n O.4.",
"4.4.+.n R 5.5.5.5.5.5.5.5.5.5.5.5.5.5.5.5.5.5.5.5.    . . . . . . . . . .     5.5.5.5.5.5.5.5.5.5.5.5.5.5.5.5.5.5.5.5.R N O.4.4.",
"4.4.4. .B R 5.5.5.5.5.5.5.5.5.5.5.5.5.5.5.5.5.5.5.  . . . . . . . . . . . .   5.5.5.5.5.5.5.5.5.5.5.5.5.5.5.5.5.5.5.R N ..4.4.4.",
"4.4.4.4.O.c R 5.5.5.5.5.5.5.5.5.5.5.5.5.5.5.5.5.  . . . . . . . . . . . . .   5.5.5.5.5.5.5.5.5.5.5.5.5.5.5.5.5.5.R b O.4.4.4.4.",
"4.4.4.4.4...B R 5.5.5.5.5.5.5.5.5.5.5.5.5.5.5.5.  . . . . . . . . . . . . .   &.5.5.5.5.5.5.5.5.5.5.5.5.5.5.5.3.T N  .4.4.4.4.4.",
"4.4.4.4.4.4...c R 5.5.5.5.5.5.5.5.5.5.5.5.5.5._   . . . . . . . . . . . . .   b } 5.5.5.5.5.5.5.5.5.5.5.5.5.5.R c O.4.4.4.4.4.4.",
"4.4.4.4.4.4.4.O.N R 5.5.5.5.5.5.5.5.5.5.5.5.] B   . . . . . . . . . . . . .     B *.5.5.5.5.5.5.5.5.5.5.5.5.R V O.4.4.4.4.4.4.4.",
"4.4.4.4.4.4.4.4.( M R 5.5.5.5.5.5.5.5.5.5.        . . . . . . . . . . . . .   .   y &.5.5.5.5.5.5.5.5.5.5.R b O.4.4.4.4.4.4.4.4.",
"4.4.4.4.4.4.4.4.4.+.b R 5.5.5.5.5.5.5.5._   . .   . . . . . . . . . . . . .   . .   B } 5.5.5.5.5.5.5.5.T M +.4.4.4.4.4.4.4.4.4.",
"4.4.4.4.4.4.4.4.4.4...N R 5.5.5.5.5.5._     . . . . . . . . . . . . . . . . . . .     c } 5.5.5.5.5.3.R M  .4.4.4.4.4.4.4.4.4.4.",
"4.4.4.4.4.4.4.4.4.4.4...b R 5.5.5.5._ b (   . . . . . . . . . . . . . . . . . . . .   ~ M ` 5.5.5.5.R b +.4.4.4.4.4.4.4.4.4.4.4.",
"4.4.4.4.4.4.4.4.4.4.4.4...V R 5.5.} N ^ 4.4.  . . . . . . . . . . . . . . . . . .   4.4.~ N *.5.5.R N ..4.4.4.4.4.4.4.4.4.4.4.4.",
"4.4.4.4.4.4.4.4.4.4.4.4.4...b R } t  .4.4.4.4.        . . . . . . . . . .         4.4.4.4.~ a } R b ..4.4.4.4.4.4.4.4.4.4.4.4.4.",
"4.4.4.4.4.4.4.4.4.4.4.4.4.4.+.y y ( 4.4.4.4.4.4.  + +                     + +   4.4.4.4.4.4.^ y b @.4.4.4.4.4.4.4.4.4.4.4.4.4.4.",
"4.4.4.4.4.4.4.4.4.4.4.4.4.4.~ i b L 4.4.4.4.4.4.  + + + + + + + + + + +         4.4.4.4.4.4.J a t  .4.4.4.4.4.4.4.4.4.4.4.4.4.4.",
"4.4.4.4.4.4.4.4.4.4.4.4.4.~ N } :.a ~ 4.4.4.4.4.  + + + + + + + + + + + + + +   4.4.4.4.4.J n 2._ M ~ 4.4.4.4.4.4.4.4.4.4.4.4.4.",
"4.4.4.4.4.4.4.4.4.4.4.4.^ N ] 5.5.*.N L 4.4.4.4.  + + + + + + + + + + + + + +   4.4.4.4.J B -.5.5.R N | 4.4.4.4.4.4.4.4.4.4.4.4.",
"4.4.4.4.4.4.4.4.4.4.4.^ a } 3.5.5.5.*.b J 4.4.4.  + + + + + + + + + + + + + +   4.4.4.K c -.5.5.5.5._ b ( 4.4.4.4.4.4.4.4.4.4.4.",
"4.4.4.4.4.4.4.4.4.4.^ N ` 5.5.5.5.5.5.>.M L 4.4.  + + + + + + + + + + + + + +   4.4.J N :.5.5.5.5.5.5._ N ..4.4.4.4.4.4.4.4.4.4.",
"4.4.4.4.4.4.4.4.4.^ a } 5.5.5.5.5.5.5.5.} N J           + + + + + + + + + +     4.J n *.5.5.5.5.5.5.5.5._ y O.4.4.4.4.4.4.4.4.4.",
"4.4.4.4.4.4.4.4.^ N &.5.5.5.5.5.5.5.5.5.5.>.    . . . .   + + + + + + + + +   4.D M >.5.5.5.5.5.5.5.5.5.5.] N ~ 4.4.4.4.4.4.4.4.",
"4.4.4.4.4.4.4.^ n _ 5.5.5.5.5.5.5.5.5.5.5.    . . . . . .   + + + + + + + +   D B -.5.5.5.5.5.5.5.5.5.5.5.5._ b ( 4.4.4.4.4.4.4.",
"4.4.4.4.4.4.^ b } 5.5.5.5.5.5.5.5.5.5.5.    . . . . . . . .       + + + +   .   :.5.5.5.5.5.5.5.5.5.5.5.5.5.5._ b ~ 4.4.4.4.4.4.",
"4.4.4.4.4.^ B ` 5.5.5.5.5.5.5.5.5.5.5.5.  . . . . . . . . . . . .               5.5.5.5.5.5.5.5.5.5.5.5.5.5.5.5._ N  .4.4.4.4.4.",
"4.4.4.4.^ p &.5.5.5.5.5.5.5.5.5.5.5.5.5.  . . . . . . . . . . . . . . . . . .   5.5.5.5.5.5.5.5.5.5.5.5.5.5.5.5.5._ i  .4.4.4.4.",
"4.4.4.~ B } 5.5.5.5.5.5.5.5.5.5.5.5.5.5.  . . . . . . . . . . . . . . . . . .   5.5.5.5.5.5.5.5.5.5.5.5.5.5.5.5.5.5.] B ( 4.4.4.",
"4.4.^ n ` 5.5.5.5.5.5.5.5.5.5.5.5.5.5.5.    . . . . . . . . . . . . . . . . .   5.5.5.5.5.5.5.5.5.5.5.5.5.5.5.5.5.5.5._ c  .4.4.",
"4.~ b &.5.5.5.5.5.5.5.5.5.5.5.5.5.5.5.5.  .   . . . . . . . . . . . . . . .     5.5.5.5.5.5.5.5.5.5.5.5.5.5.5.5.5.5.5.5._ M ^ 4.",
"^ N _ 5.5.5.5.5.5.5.5.5.5.5.5.5.5.5.5.5.  . .           . . . . . . .             5.5.5.5.5.5.5.5.5.5.5.5.5.5.5.5.5.5.5.5._ M ' ",
"t &.5.5.5.5.5.5.5.5.5.5.5.5.5.5.5.5.5.5.  . . . . . . .               . . . . .   5.5.5.5.5.5.5.5.5.5.5.5.5.5.5.5.5.5.5.5.5._ t ",
"b -.5.5.5.5.5.5.5.5.5.5.5.5.5.5.5.5.5.5.  . . . . . . . . . . . . . . . . . . .     5.5.5.5.5.5.5.5.5.5.5.5.5.5.5.5.5.5.5.5.&.y ",
"~ a &.5.5.5.5.5.5.5.5.5.5.5.5.5.5.5.5.5.  . . . . . . . . . . . . . . . . . . . .   5.5.5.5.5.5.5.5.5.5.5.5.5.5.5.5.5.5.5.] a ' ",
"4.K M &.5.5.5.5.5.5.5.5.5.5.5.5.5.5.5.5.  . . . . . . . . . . . . . . . . . . . .   5.5.5.5.5.5.5.5.5.5.5.5.5.5.5.5.5.5.] N ( 4.",
"4.4.~ a -.5.5.5.5.5.5.5.5.5.5.5.5.5.5.    . . . . . . . . . . . . . . . . . . . .   5.5.5.5.5.5.5.5.5.5.5.5.5.5.5.5.5.` b ~ 4.4.",
"4.4.4.~ M &.3.5.5.5.5.5.5.5.5.5.5.5.5.  . . . . .                       . . . . .   5.5.5.5.5.5.5.5.5.5.5.5.5.5.5.5._ M ~ 4.4.4.",
"4.4.4.4.~ c -.5.5.5.5.5.5.5.5.5.5.5.5.  . . . . .   . . . . . . . . . .     . . . .   5.5.5.5.5.5.5.5.5.5.5.5.5.5.] M ~ 4.4.4.4.",
"4.4.4.4.4.~ b &.5.5.5.5.5.5.5.5.5.5.5.  . . . .   . . . . . . . . . . . .   . . . .   5.5.5.5.5.5.5.5.5.5.5.5.5.] a ( 4.4.4.4.4.",
"4.4.4.4.4.4.K N *.5.5.5.5.5.5.5.5.5.5.  . . .   . . . . . . . . . . . . . .   . . .   5.5.5.5.5.5.5.5.5.5.5.5.&.N ( 4.4.4.4.4.4.",
"4.4.4.4.4.4.4.^ a &.5.5.5.5.5.5.5.5.5.  . . .   . . . . . . . . . . . . . .     . .   5.5.5.5.5.5.5.5.5.5.5.-.t ^ 4.4.4.4.4.4.4.",
"4.4.4.4.4.4.4.4.~ M &.5.5.5.5.5.5.5.    . . .   . . . . . . . . . . . . . . .   . .   5.5.5.5.5.5.5.5.5.5._ m ( 4.4.4.4.4.4.4.4.",
"4.4.4.4.4.4.4.4.4.~ b *.5.5.5.5.5.5.  . . .   . . . . . . . . . . . . . . . .   . . .   5.5.5.5.5.5.5.5.} b ^ 4.4.4.4.4.4.4.4.4.",
"4.4.4.4.4.4.4.4.4.4.~ b ` 5.5.5.5.5.  . . .   . . . . . . . . . . . . . . . .   . . .   R 5.5.5.5.5.5._ n ^ 4.4.4.4.4.4.4.4.4.4.",
"4.4.4.4.4.4.4.4.4.4.4.~ N *.5.5.5.5.  . . .   . . . . . . . . . . . . . . . .   . . .   M R 5.5.5.5.} N ^ 4.4.4.4.4.4.4.4.4.4.4.",
"4.4.4.4.4.4.4.4.4.4.4.4.~ a &.3.5.  . . . .     . . . . . . . . . . . . . . .   . . .    .N R 3.5.} t ' 4.4.4.4.4.4.4.4.4.4.4.4.",
"4.4.4.4.4.4.4.4.4.4.4.4.4.~ M } E   . . . . .   . . . . . . . . . . . . . . .   . .   4.4...c R ] N  .4.4.4.4.4.4.4.4.4.4.4.4.4.",
"4.4.4.4.4.4.4.4.4.4.4.4.4.4.~ t M     . . . .       . . . . . . . . . . . . .   . .   4.4.4...b r / 4.4.4.4.4.4.4.4.4.4.4.4.4.4.",
"4.4.4.4.4.4.4.4.4.4.4.4.4.4.J r b (   . . . . . . .                           . . .   4.4.4.~ b i L 4.4.4.4.4.4.4.4.4.4.4.4.4.4.",
"4.4.4.4.4.4.4.4.4.4.4.4.4.J m -.E M   . . . . . . . . . . . . . . . . . . . . . . .   4.4.( M _ :.N J 4.4.4.4.4.4.4.4.4.4.4.4.4.",
"4.4.4.4.4.4.4.4.4.4.4.4.J M *.5.5.`   . . . . . . . . . . . . . . . . . . . . . . .   4./ i ] 5.5.&.N J 4.4.4.4.4.4.4.4.4.4.4.4.",
"4.4.4.4.4.4.4.4.4.4.4.G m 2.5.5.5.5.        . . . . . . . . . . . . . . . . .       4.( V ` 5.5.5.5.:.a P 4.4.4.4.4.4.4.4.4.4.4.",
"4.4.4.4.4.4.4.4.4.4.K V &.5.5.5.5.5.5.` y ..                                  4.4.4.( a ] 5.5.5.5.5.5.-.V K 4.4.4.4.4.4.4.4.4.4.",
"4.4.4.4.4.4.4.4.4.~ n -.5.5.5.5.5.2.,.=.S q e   . . . . . . . . . . . . .   C J ..J M ` 5.5.5.5.5.5.5.5.*.c J 4.4.4.4.4.4.4.4.4.",
"4.4.4.4.4.4.4.4.J M -.5.5.5.2.Q A d 1 * - % o   . . . . . . . . . . . . .   = = $ O 4 k Y =.5.5.5.5.5.5.5.:.V J 4.4.4.4.4.4.4.4.",
"4.4.4.4.4.4.4.J M &.5.5.5.A 7 ; * * * * * * %   . . . . . . . . . . . . . .   $ o @ * * * 3 j *.5.5.5.5.5.5.&.M J 4.4.4.4.4.4.4.",
"4.4.4.4.4.4.~ B -.5.5.*.5 * * * * * * * * *   . . . . . . . . . . . . . . . .   & * * * * * * < A 5.5.5.5.5.5.:.n P 4.4.4.4.4.4.",
"4.4.4.4.4.G M -.5.5.-.2 * * * * * * * * *     . . . . . . . . . . . . . . . . .   * * * * * * * - Y 5.5.5.5.5.5.} B L 4.4.4.4.4.",
"4.4.4.4.J c ,.5.5.5.%.- * * * * * * * * *   . . . . . . . . . . . . . . . . . .   * * * * * * * * w 5.5.5.5.5.5.5.:.a P 4.4.4.4.",
"4.4.4.J V &.5.5.5.5.1.9 * * * * * * * *     . . . . . . . . . . . . . . . . . . .   * * * * * * : %.5.5.5.5.5.5.5.5.:.B L 4.4.4.",
"4.4.D c ,.5.5.5.5.5.5.5.h 1 * * * * * *   . . . . . . . . . . . . . . . . . . . .   * * * * ; 5 %.5.5.5.5.5.5.5.5.5.5.*.n J 4.4.",
"4.J V -.5.5.5.5.5.5.5.5.5.! j 2 - * * *                                           * * * 1 0 S 5.5.5.5.5.5.5.5.5.5.5.5.5.:.M J 4.",
"K n -.5.5.5.5.5.5.5.5.5.5.5.5.=.W A f 3 : * - * * * * * * # X $ $ X % * * * * * 1 8 l Y $.5.5.5.5.5.5.5.5.5.5.5.5.5.5.5.5.} B K ",
"M 2.5.5.5.5.5.5.5.5.5.5.5.5.5.5.5.5.3.1.,.*.*.z Z g 9 9 9 9 6 > > 7 f l x W :.*.,.3.5.5.5.5.5.5.5.5.5.5.5.5.5.5.5.5.5.5.5.5.>.a "
};
