/* XPM */
static char *_d233fb707be492ec21728a6fa41341fJJpg7W1MaWMUgV32[] = {
/* columns rows colors chars-per-pixel */
"64 64 118 2 ",
"   c black",
".  c #0A0A07",
"X  c #0C0C08",
"o  c #13140E",
"O  c #14150E",
"+  c #1A1A12",
"@  c #1C1D14",
"#  c #202117",
"$  c #212217",
"%  c #222318",
"&  c #24251B",
"*  c #4B3A31",
"=  c #4C3A31",
"-  c #4E3D34",
";  c #4E3D35",
":  c #4B4B4B",
">  c #584942",
",  c #594B43",
"<  c #5D4B41",
"1  c #5F4C42",
"2  c #594C44",
"3  c #5F524B",
"4  c #645045",
"5  c #61544D",
"6  c #64564F",
"7  c #675951",
"8  c #6D5E56",
"9  c #706058",
"0  c #72635A",
"q  c #7C6A5F",
"w  c #7E6C63",
"e  c #876A5A",
"r  c #837168",
"t  c #847268",
"y  c #87756B",
"u  c #89766C",
"i  c #927E73",
"p  c #948075",
"a  c #9C8375",
"s  c #988378",
"d  c #9E8578",
"f  c #9D877C",
"g  c #BC907A",
"h  c #BE927C",
"j  c #BE937C",
"k  c #C0947D",
"l  c #C1957F",
"z  c #A79084",
"x  c #AD9485",
"c  c #B2998C",
"v  c #B79B8C",
"b  c #B49B8E",
"n  c #B59D8F",
"m  c #BAA193",
"M  c #BEA496",
"N  c #C29781",
"B  c #C39882",
"V  c #C39983",
"C  c #C49983",
"Z  c #C79C86",
"A  c #C89D87",
"S  c #C89E88",
"D  c #C3A899",
"F  c #C5AA9B",
"G  c #C9AE9F",
"H  c #D8AD96",
"J  c #DBB098",
"K  c #E5B59C",
"L  c #E5B69C",
"P  c #E7B79E",
"I  c #E9B79C",
"U  c #E6B89F",
"Y  c #E8B99F",
"T  c #CBAFA0",
"R  c #CCB0A1",
"E  c #D1B2A2",
"W  c #D2B5A5",
"Q  c #DDB8A4",
"!  c #DFBAA6",
"~  c #DFBBA7",
"^  c #D7BAAA",
"/  c #D9B9A8",
"(  c #DCBEAE",
")  c #E8BAA1",
"_  c #EBBBA2",
"`  c #EBBDA3",
"'  c #EEBCA2",
"]  c #EFBFA6",
"[  c #E2BEAB",
"{  c #E3BFAC",
"}  c #F0BDA3",
"|  c #DEC0AF",
" . c #E3C0AD",
".. c #E6C2AF",
"X. c #F0C0A6",
"o. c #F1C1A7",
"O. c #F3C3A9",
"+. c #F3C3AA",
"@. c #F6C3A9",
"#. c #F4C4AA",
"$. c #F5C5AC",
"%. c #F4C5AD",
"&. c #F7C7AD",
"*. c #E0C1B1",
"=. c #E6C3B0",
"-. c #E3C4B3",
";. c #E7C4B1",
":. c #E4C5B4",
">. c #E9C6B3",
",. c #E9C7B4",
"<. c #EAC8B5",
"1. c #ECCAB7",
"2. c #EBCBBA",
"3. c #ECCAB8",
"4. c #EDCDBB",
"5. c #FFCCB1",
"6. c #F0CFBD",
"7. c #F1D0BE",
/* pixels */
"N ! 7.7.7.7.7.7.7.7.7.7.7.7.7.7.7.7.7.7.7.7.7.7.7.7.7.7.7.7.[ h N  .7.7.7.7.7.7.7.7.7.7.7.7.7.7.7.7.7.7.7.7.7.7.7.7.7.7.7.6.! B ",
"@.A ! 7.7.7.7.7.7.7.7.7.7.7.7.7.7.7.7.7.7.7.7.7.7.7.7.7.7.{ Z ' _ Z =.6.7.7.7.7.7.7.7.7.7.7.7.7.7.7.7.7.7.7.7.7.7.7.7.6.7.! Z #.",
"5.o.C ! 7.7.7.7.7.7.7.7.7.7.7.7.7.7.7.7.7.7.7.7.7.7.7.7. .            ..7.7.7.7.7.7.7.7.7.7.7.7.7.7.7.7.7.7.7.7.7.7.7.6.Q B #.5.",
"5.5.$.C ! 7.7.7.7.7.7.7.7.7.7.7.7.7.7.7.7.7.7.7.7.7.      % % % % % %       7.7.7.7.7.7.7.7.7.7.7.7.7.7.7.7.7.7.7.7.7.! A $.5.5.",
"5.5.5.o.A ! 7.7.7.7.7.7.7.7.7.7.7.7.7.7.7.7.7.7.7.  % % % % % % % % % % % %   7.7.7.7.7.7.7.7.7.7.7.7.7.7.7.7.7.7.4.! Z O.5.5.5.",
"5.5.5.5.#.N ! 7.7.7.7.7.7.7.7.7.7.7.7.7.7.7.7.7.7.  % % % % % % % % % % % %   7.7.7.7.7.7.7.7.7.7.7.7.7.7.7.7.7.7.! B #.5.5.5.5.",
"5.5.5.5.5.O.A ! 7.7.7.7.7.7.7.7.7.7.7.7.7.7.7.7.  % % % % % % % % % % % % % %   6.6.7.7.7.7.7.7.7.7.7.7.7.7.7.6.! Z O.5.5.5.5.5.",
"5.5.5.5.5.5.O.N ! 7.7.7.7.7.7.7.7.7.7.7.7.7.7.[   % % % % % % % % % % % % % %   ..7.7.7.7.7.7.7.7.7.7.7.7.7.7.! N #.5.5.5.5.5.5.",
"5.5.5.5.5.5.5.#.Z ! 4.7.7.7.7.7.7.7.7.7.7.7. .A   % % % % % % % % % % % % % %   A =.7.7.7.7.7.7.7.7.7.7.7.4.! A #.5.5.5.5.5.5.5.",
"5.5.5.5.5.5.5.5.] Z ! 7.7.7.7.7.7.7.7.7.7. .      % % % % % % % % % % % % % %       =.7.7.7.7.7.7.7.7.7.7.! B #.5.5.5.5.5.5.5.5.",
"5.5.5.5.5.5.5.5.5.$.B ! 7.7.7.7.7.7.7.7.[   % %   % % % % % % % % % % % % % %   % %   ..7.7.7.7.7.7.7.7.! Z $.5.5.5.5.5.5.5.5.5.",
"5.5.5.5.5.5.5.5.5.5.O.Z [ 7.7.7.7.7.7. .  $ % % % % % % % % % % % % % % % % % % % %     ..7.7.7.7.7.2.! Z #.5.5.5.5.5.5.5.5.5.5.",
"5.5.5.5.5.5.5.5.5.5.5.O.N ! 7.7.7.7.[ B ]   % % % % % % % % % % % % % % % % % % % %   _ Z { 7.7.7.7.! B $.5.5.5.5.5.5.5.5.5.5.5.",
"5.5.5.5.5.5.5.5.5.5.5.5.#.Z ! 7.7. .Z ' 5.5.  % % % % % % % % % % % % % % % % % %   5.5.Y Z ;.7.7.! Z #.5.5.5.5.5.5.5.5.5.5.5.5.",
"5.5.5.5.5.5.5.5.5.5.5.5.5.O.Z ! ..h o.5.5.5.5.                                    5.5.5.5.' k ;.! B #.5.5.5.5.5.5.5.5.5.5.5.5.5.",
"5.5.5.5.5.5.5.5.5.5.5.5.5.5.$.g h ] 5.5.5.5.5.5.  : : : : : : : : : : : : : :   5.5.5.5.5.5.` h N %.5.5.5.5.5.5.5.5.5.5.5.5.5.5.",
"5.5.5.5.5.5.5.5.5.5.5.5.5.5.] g N ) 5.5.5.5.5.5.  : : : : : : : : : : : : : :   5.5.5.5.5.5.P k g X.5.5.5.5.5.5.5.5.5.5.5.5.5.5.",
"5.5.5.5.5.5.5.5.5.5.5.5.5._ Z =.<.h U 5.5.5.5.5.  : : : : : : : : : : : : : :   5.5.5.5.5.P B 1.{ Z ` 5.5.5.5.5.5.5.5.5.5.5.5.5.",
"5.5.5.5.5.5.5.5.5.5.5.5.` Z [ 7.7.,.A P 5.5.5.5.  : : : : : : : : : : : : : :   5.5.5.5.P Z >.7.7.! Z X.5.5.5.5.5.5.5.5.5.5.5.5.",
"5.5.5.5.5.5.5.5.5.5.5.' k =.6.6.7.7.=.C U 5.5.5.  : : : : : : : : : : : : : :   5.5.5.P B ,.7.7.7.7.[ B X.5.5.5.5.5.5.5.5.5.5.5.",
"5.5.5.5.5.5.5.5.5.5.` Z =.7.7.7.7.7.7.<.A P 5.5.  : : : : : : : : : : : : : :   5.5.P Z ,.7.7.7.7.7.7.[ Z X.5.5.5.5.5.5.5.5.5.5.",
"5.5.5.5.5.5.5.5.5.` h =.6.7.7.7.7.7.7.7...Z P     : : : : : : : : : : : : :     5.P B =.7.7.7.7.7.7.7.7. .j X.5.5.5.5.5.5.5.5.5.",
"5.5.5.5.5.5.5.5.' Z =.7.6.7.7.7.7.7.7.7.7.<.    % O                       :   %     1.7.7.7.7.7.7.7.7.7.7.[ Z X.5.5.5.5.5.5.5.5.",
"5.5.5.5.5.5.5.` Z { 6.7.7.7.7.7.7.7.7.7.7.  % %     % % % % % % % % & % % +     %   7.7.7.7.7.7.7.7.7.7.7.7.[ B X.5.5.5.5.5.5.5.",
"5.5.5.5.5.5.` N =.7.7.7.7.7.7.7.7.7.7.7.7.  %     % % % % % % % % % % % % % %       7.7.7.7.7.7.7.7.7.7.7.7.7.[ B ] 5.5.5.5.5.5.",
"5.5.5.5.5.} A { 6.7.7.7.7.7.7.7.7.7.          % % % % % % % % % % % % % % % % % % %         7.7.7.7.7.7.7.7.7.7.~ Z X.5.5.5.5.5.",
"5.5.5.5.' h =.7.7.7.7.7.7.7.7.      % % %   % % % % % % % % % % % % % % % % % % %     % % %       7.7.7.7.7.7.7.6.{ h X.5.5.5.5.",
"5.5.5._ S =.6.7.7.7.7.7.7.7.  % % % % % % % o % % % % % % % % % % % % % % % % % %   % % % % % %     7.7.7.7.7.7.7.7.=.Z X.5.5.5.",
"5.5.` N { 6.7.7.7.7.7.7.7.    % % % % % % % % % % % % % % % % % % % % % % % % X   % % % % % % % %   7.7.7.7.7.7.7.7.7.{ N X.5.5.",
"5._ Z =.7.7.7.7.7.7.7.7.7.  % % % % % % % % % % % % % % % % % % % % % % % % $ . % % % % % % % % %     7.7.7.7.7.7.7.7.7.{ Z ' 5.",
"' Z [ 7.7.7.7.7.7.7.7.7.7.  % % % % % % % % % % % % % % % % % % % % % % % % % % % % % % % % % % % %   7.7.7.7.7.7.7.7.7.7.! Z ] ",
"g =.6.6.7.7.7.7.7.7.7.7.7.  % % % % % % % % % % % % % % % % % % $ % % % % % % % % % % % % % % % % %   7.7.7.7.7.7.7.7.7.7.6.{ g ",
"N >.7.7.7.7.7.7.7.7.7.7.7.  % % % % % % % % % % % % % % % % % % % % % % % % % % % % % % % % % % % %   7.7.7.7.7.7.7.7.7.7.7...h ",
"Y N ..7.7.7.7.7.7.7.7.7.7.  % % % % % % % % % % % % % % % % % % % % % % % % % % % % % % % % % % % %   7.7.7.7.7.7.7.7.7.7. .j } ",
"5._ A ..7.7.7.7.7.7.7.7.7.  % % % % % % % % % % % % % % % % % % % $ % % % % % % % % % % % % % % %     7.7.7.7.7.7.7.7.6. .Z X.5.",
"5.5._ k >.7.7.7.7.7.7.7.  %     % % % % % % % % % % % % % % % % % % % % % % % % % % % % % % % %         7.7.7.7.7.7.7...B ' 5.5.",
"5.5.5.Y A ..6.7.7.7.7.    % % %     % % % % % % % % % % % % % % % % % % % % % % % % % % % %     % % %   7.7.7.7.7.4.[ Z ' 5.5.5.",
"5.5.5.5.Y C >.6.7.7.7.  % % % % % %       % % % % % % % % % % % % % % % % % % % % % %       % % % % % %   7.7.7.7. .Z _ 5.5.5.5.",
"5.5.5.5.5.Y N ..7.7.7.  % % % % % % % %     % % % % % % % % % % % % % % % % % % % %   % % % % % % % % %   7.7.7...h ] 5.5.5.5.5.",
"5.5.5.5.5.5._ A ;.7.7.  % % % % % % % % % %   % % % % % % % % % % % % % % % % %     % % % % % % % % % %   7.7...Z X.5.5.5.5.5.5.",
"5.5.5.5.5.5.5._ k ;.7.  % % % % % % % % % %   % % % % % % % % % % % % % % % % % %   % % % % % % % % % %   7...h ] 5.5.5.5.5.5.5.",
"5.5.5.5.5.5.5.5._ Z ..  % % % % % % % % % %   % % % % % % % % % $ % % % % % % % %   % % % % % % % % % %   [ Z ] 5.5.5.5.5.5.5.5.",
"5.5.5.5.5.5.5.5.5._ C   % % % % % % % % % %     % % % % % % % % % % % % % % % %   % % % % % % % % % % %   C ' 5.5.5.5.5.5.5.5.5.",
"5.5.5.5.5.5.5.5.5.5.Y   % % % % % % % % % % %   % % % % % % % % % % % % % % % %   % % % % % % % % % % $   X.5.5.5.5.5.5.5.5.5.5.",
"5.5.5.5.5.5.5.5.5.5.5.  % % % % % % % % % % %   % % % % % % % % % % % % % % % %   % % % % % % % % % % %   5.5.5.5.5.5.5.5.5.5.5.",
"5.5.5.5.5.5.5.5.5.5.5.  % % % % % % % % % % %   % % % % % % % % % % % % % % % %   % % % % % % % % % % %   5.5.5.5.5.5.5.5.5.5.5.",
"5.5.5.5.5.5.5.5.5.5.5.  % % % % % % % % % % %   % % % % % % % % % % % % % % % %   % % % % % % % % % %     5.5.5.5.5.5.5.5.5.5.5.",
"5.5.5.5.5.5.5.5.5.5.5.    % % % % % % % % % %                       %             % % % % % % % % % %   5.5.5.5.5.5.5.5.5.5.5.5.",
"5.5.5.5.5.5.5.5.5.5.5.5.  % % % % % % % % % %   % % % % % % % % % % @ % % % % %   % % % % % % % % %     5.5.5.5.5.5.5.5.5.5.5.5.",
"5.5.5.5.5.5.5.5.5.5.5.5.5.                      % % % % % % % % % % % % % % % %                       5.5.5.5.5.5.5.5.5.5.5.5.5.",
"5.5.5.5.5.5.5.5.5.5.5.5.P C >.6.7.[ N ] 5.5.  % % % % % % % % % % % % % % % % %   5.5.5.] k =.6.7...Z P 5.5.5.5.5.5.5.5.5.5.5.5.",
"5.5.5.5.5.5.5.5.5.5.5.K Z 3.7.7.6.6.[ A J     % % % % % % % % O % % % % % % % % %   H ` S { 7.4.7.7.1.N Y 5.5.5.5.5.5.5.5.5.5.5.",
"5.5.5.5.5.5.5.5.5.5.P Z ..7.7.^ n p w , *   % % % % % % % % %   % % % % % % % % % %   = 6 t z T 2.7.7.;.A Y 5.5.5.5.5.5.5.5.5.5.",
"5.5.5.5.5.5.5.5.5.P N 1.F p 8 5 3 3 3 3   % % % % % % % % % %   % % % % % % % % % %     3 3 5 3 3 r c :.>.N U 5.5.5.5.5.5.5.5.5.",
"5.5.5.5.5.5.5.5.U Z x 8 3 3 5 3 3 3     % % % % % % % % % % %     % % % % % % % % % % %   3 3 3 3 3 3 3 i / Z U 5.5.5.5.5.5.5.5.",
"5.5.5.5.5.5.5.P g q 3 3 3 3 3 3 3 3   % % % % % % % % % % % %     % % % % % % % % % % % %   3 3 3 3 3 3 3 6 v C P 5.5.5.5.5.5.5.",
"5.5.5.5.5.5.P Z y 3 3 3 3 3 3 3 3 3   % % % % % % % % % % % %     % % % % % % % % % % % %   3 3 3 3 3 3 3 3 5 E B U 5.5.5.5.5.5.",
"5.5.5.5.5.P Z ;.7 3 3 3 3 3 3 3 3 3   % % % % % % % % % % % %     % % % % % % % % % % % %   3 3 3 3 3 3 3 3 5 n ..A Y 5.5.5.5.5.",
"5.5.5.5.P N 3.7.z 3 3 3 3 3 3 3 3 3   % % % % % % % % % % % %     % % % % % % % % % % % %   3 3 3 3 3 3 3 3 9 ;.7.>.k Y 5.5.5.5.",
"5.5.5.U Z ;.7.7.7.x 5 3 3 3 3 3 3 3   % % % % % % % % % % % %     % % % % % % % % % % % %   3 3 3 3 3 3 3 w *.7.7.7.<.A U 5.5.5.",
"5.5.P j <.7.7.7.7.7.| s 7 3 3 3 3 3 3                                                     3 3 5 3 3 3 w M 7.7.7.7.7.6.>.C P 5.5.",
"5.P A <.7.7.7.7.7.7.7.7.4.D s 0 3 3 3 3 3 3 3 3 3 3 3 3 > - 1 4 4 < ; , 3 3 3 3 3 3 3 3 3 3 3 5 y c ( 7.7.7.7.7.7.7.6.7.<.A P 5.",
"I C >.7.7.7.7.7.7.7.7.7.7.7.7.7.-.F z u w 3 3 3 3 3 3 3 5 , = < < * 2 3 3 3 3 3 3 3 8 r f n W 7.7.7.7.7.7.7.7.7.7.7.7.7.6.>.Z I ",
"Z 1.7.7.7.7.7.7.7.7.7.7.7.7.7.7.7.7.7.7.7.7.6.R R T z z z z a e e d z z z m R R | 7.7.7.7.6.7.7.7.7.7.7.7.7.7.7.7.7.7.7.6.7.,.k "
};
